<svg width="294" height="265" viewBox="0 0 294 265" fill="none" xmlns="http://www.w3.org/2000/svg">
<path d="M27.9473 167.961C28.283 169.609 28.7561 171.211 29.3665 172.768C29.9769 174.325 30.7247 175.82 31.5945 177.255C32.4491 178.689 33.441 180.047 34.5398 181.314C35.6385 182.58 36.8288 183.74 38.126 184.793C39.4384 185.861 40.8118 186.808 42.2768 187.616C43.7265 188.44 45.2526 189.142 46.8244 189.707C48.4115 190.272 50.0291 190.684 51.6772 190.974C53.3253 191.264 54.9887 191.401 56.6674 191.401H114.52C112.871 199.611 107.912 208.081 99.3965 216.55C98.542 217.389 98.0078 218.381 97.7789 219.556C97.55 220.716 97.6569 221.845 98.1147 222.944C98.5725 224.043 99.2897 224.928 100.282 225.584C101.274 226.24 102.357 226.561 103.547 226.561H185.587C186.778 226.561 187.861 226.24 188.853 225.584C189.845 224.928 190.562 224.043 191.02 222.944C191.478 221.845 191.585 220.716 191.356 219.556C191.127 218.381 190.593 217.389 189.738 216.55C181.223 208.081 176.263 199.611 174.615 191.401H232.467C234.146 191.401 235.809 191.264 237.458 190.974C239.106 190.684 240.723 190.272 242.31 189.707C243.882 189.142 245.408 188.44 246.858 187.616C248.323 186.808 249.696 185.861 251.009 184.793C252.306 183.74 253.496 182.58 254.595 181.314C255.694 180.047 256.686 178.689 257.54 177.255C258.41 175.82 259.158 174.325 259.768 172.768C260.379 171.211 260.852 169.609 261.187 167.961H27.9473Z" fill="#646464"/>
<path d="M144.57 68.3398C143.013 68.3398 141.533 68.6451 140.098 69.2402C138.664 69.8506 137.397 70.6899 136.298 71.7887C135.2 72.8874 134.36 74.1541 133.75 75.5885C133.155 77.023 132.85 78.5033 132.85 80.0598V103.5C132.85 105.056 133.14 106.552 133.735 107.986C134.33 109.421 135.184 110.688 136.283 111.786C137.382 112.885 138.649 113.74 140.083 114.335C141.518 114.93 143.013 115.22 144.57 115.22C146.126 115.22 147.622 114.93 149.056 114.335C150.491 113.74 151.757 112.885 152.856 111.786C153.955 110.688 154.809 109.421 155.405 107.986C156 106.552 156.29 105.056 156.29 103.5V80.0598C156.29 78.5033 155.984 77.023 155.389 75.5885C154.779 74.1541 153.94 72.8874 152.841 71.7887C151.742 70.6899 150.475 69.8506 149.041 69.2402C147.606 68.6451 146.126 68.3398 144.57 68.3398Z" fill="#646464"/>
<path d="M232.469 15.6016H56.6691C54.7463 15.6016 52.8388 15.7999 50.9617 16.1662C49.0695 16.5477 47.2382 17.1123 45.468 17.8448C43.6825 18.5773 42.0039 19.493 40.4015 20.5612C38.7992 21.6294 37.3189 22.835 35.9608 24.1932C34.6026 25.5514 33.397 27.0316 32.3288 28.634C31.2605 30.2363 30.3449 31.9149 29.6124 33.7004C28.8799 35.4706 28.3153 37.3019 27.9338 39.1942C27.5675 41.0712 27.3691 42.9787 27.3691 44.9016V156.242H261.769V44.9016C261.769 42.9787 261.571 41.0712 261.204 39.1942C260.823 37.3019 260.258 35.4706 259.526 33.7004C258.793 31.9149 257.878 30.2363 256.809 28.634C255.741 27.0316 254.536 25.5514 253.178 24.1932C251.819 22.835 250.339 21.6294 248.737 20.5612C247.134 19.493 245.456 18.5773 243.67 17.8448C241.9 17.1123 240.069 16.5477 238.177 16.1662C236.299 15.7999 234.392 15.6016 232.469 15.6016ZM109.409 85.9216V121.082C109.409 121.86 109.257 122.608 108.967 123.325C108.661 124.042 108.249 124.683 107.7 125.232C107.151 125.782 106.51 126.194 105.792 126.499C105.075 126.789 104.327 126.942 103.549 126.942C102.771 126.942 102.023 126.789 101.306 126.499C100.589 126.194 99.9477 125.782 99.3983 125.232C98.8489 124.683 98.4369 124.042 98.1317 123.325C97.8417 122.608 97.6891 121.86 97.6891 121.082V97.6416H74.2491C73.4709 97.6416 72.7231 97.489 72.0059 97.199C71.2886 96.8938 70.6477 96.4818 70.0983 95.9324C69.5489 95.383 69.1369 94.7421 68.8317 94.0248C68.5417 93.3076 68.3891 92.5598 68.3891 91.7816V62.4816C68.3891 61.7033 68.5417 60.9555 68.8317 60.2383C69.1369 59.521 69.5489 58.8801 70.0983 58.3307C70.6477 57.7814 71.2886 57.3693 72.0059 57.0641C72.7231 56.7742 73.4709 56.6216 74.2491 56.6216C75.0274 56.6216 75.7752 56.7742 76.4924 57.0641C77.2097 57.3693 77.8506 57.7814 78.4 58.3307C78.9493 58.8801 79.3614 59.521 79.6666 60.2383C79.9565 60.9555 80.1091 61.7033 80.1091 62.4816V85.9216H97.6891V62.4816C97.6891 61.7033 97.8417 60.9555 98.1317 60.2383C98.4369 59.521 98.8489 58.8801 99.3983 58.3307C99.9477 57.7814 100.589 57.3693 101.306 57.0641C102.023 56.7742 102.771 56.6216 103.549 56.6216C104.327 56.6216 105.075 56.7742 105.792 57.0641C106.51 57.3693 107.151 57.7814 107.7 58.3307C108.249 58.8801 108.661 59.521 108.967 60.2383C109.257 60.9555 109.409 61.7033 109.409 62.4816V85.9216ZM168.009 103.502C168.009 105.043 167.857 106.569 167.551 108.08C167.261 109.59 166.819 111.055 166.224 112.475C165.629 113.894 164.911 115.237 164.057 116.519C163.202 117.801 162.225 118.991 161.142 120.074C160.058 121.158 158.868 122.135 157.586 122.989C156.304 123.844 154.961 124.561 153.542 125.156C152.123 125.751 150.658 126.194 149.147 126.484C147.636 126.789 146.11 126.942 144.569 126.942C143.028 126.942 141.502 126.789 139.991 126.484C138.48 126.194 137.015 125.751 135.596 125.156C134.177 124.561 132.819 123.844 131.552 122.989C130.27 122.135 129.08 121.158 127.996 120.074C126.913 118.991 125.936 117.801 125.082 116.519C124.227 115.237 123.51 113.894 122.915 112.475C122.319 111.055 121.877 109.59 121.587 108.08C121.282 106.569 121.129 105.043 121.129 103.502V80.0616C121.129 78.5203 121.282 76.9942 121.587 75.4834C121.877 73.9727 122.319 72.5077 122.915 71.0884C123.51 69.6692 124.227 68.3263 125.082 67.0444C125.936 65.7626 126.913 64.5722 127.996 63.4888C129.08 62.4053 130.27 61.4286 131.552 60.574C132.819 59.7194 134.177 59.0022 135.596 58.407C137.015 57.8119 138.48 57.3693 139.991 57.0794C141.502 56.7742 143.028 56.6216 144.569 56.6216C146.11 56.6216 147.636 56.7742 149.147 57.0794C150.658 57.3693 152.123 57.8119 153.542 58.407C154.961 59.0022 156.304 59.7194 157.586 60.574C158.868 61.4286 160.058 62.4053 161.142 63.4888C162.225 64.5722 163.202 65.7626 164.057 67.0444C164.911 68.3263 165.629 69.6692 166.224 71.0884C166.819 72.5077 167.261 73.9727 167.551 75.4834C167.857 76.9942 168.009 78.5203 168.009 80.0616V103.502ZM220.749 85.9216V121.082C220.749 121.86 220.597 122.608 220.307 123.325C220.001 124.042 219.589 124.683 219.04 125.232C218.491 125.782 217.85 126.194 217.132 126.499C216.415 126.789 215.667 126.942 214.889 126.942C214.111 126.942 213.363 126.789 212.646 126.499C211.929 126.194 211.288 125.782 210.738 125.232C210.189 124.683 209.777 124.042 209.472 123.325C209.182 122.608 209.029 121.86 209.029 121.082V97.6416H185.589C184.811 97.6416 184.063 97.489 183.346 97.199C182.629 96.8938 181.988 96.4818 181.438 95.9324C180.889 95.383 180.477 94.7421 180.172 94.0248C179.882 93.3076 179.729 92.5598 179.729 91.7816V62.4816C179.729 61.7033 179.882 60.9555 180.172 60.2383C180.477 59.521 180.889 58.8801 181.438 58.3307C181.988 57.7814 182.629 57.3693 183.346 57.0641C184.063 56.7742 184.811 56.6216 185.589 56.6216C186.367 56.6216 187.115 56.7742 187.832 57.0641C188.55 57.3693 189.191 57.7814 189.74 58.3307C190.289 58.8801 190.701 59.521 191.007 60.2383C191.297 60.9555 191.449 61.7033 191.449 62.4816V85.9216H209.029V62.4816C209.029 61.7033 209.182 60.9555 209.472 60.2383C209.777 59.521 210.189 58.8801 210.738 58.3307C211.288 57.7814 211.929 57.3693 212.646 57.0641C213.363 56.7742 214.111 56.6216 214.889 56.6216C215.667 56.6216 216.415 56.7742 217.132 57.0641C217.85 57.3693 218.491 57.7814 219.04 58.3307C219.589 58.8801 220.001 59.521 220.307 60.2383C220.597 60.9555 220.749 61.7033 220.749 62.4816V85.9216Z" fill="#646464"/>
</svg>
