<svg width="17" height="17" viewBox="0 0 17 17" fill="none" xmlns="http://www.w3.org/2000/svg">
<g id="fluent-mdl2:attach" clip-path="url(#clip0_804_5179)">
<path id="Vector" d="M12.5 3.5V13C12.5 13.4844 12.4089 13.9375 12.2266 14.3594C12.0443 14.7812 11.7943 15.151 11.4766 15.4688C11.1589 15.7865 10.7891 16.0365 10.3672 16.2188C9.94531 16.401 9.48958 16.4948 9 16.5C8.51562 16.5 8.0625 16.4089 7.64062 16.2266C7.21875 16.0443 6.84896 15.7943 6.53125 15.4766C6.21354 15.1589 5.96354 14.7891 5.78125 14.3672C5.59896 13.9453 5.50521 13.4896 5.5 13V3C5.5 2.65625 5.5651 2.33333 5.69531 2.03125C5.82552 1.72917 6.00521 1.46615 6.23438 1.24219C6.46354 1.01823 6.72917 0.838542 7.03125 0.703125C7.33333 0.567708 7.65625 0.5 8 0.5C8.34375 0.5 8.66667 0.565104 8.96875 0.695312C9.27083 0.825521 9.53385 1.00521 9.75781 1.23438C9.98177 1.46354 10.1615 1.72917 10.2969 2.03125C10.4323 2.33333 10.5 2.65625 10.5 3V13C10.5 13.2083 10.4609 13.4036 10.3828 13.5859C10.3047 13.7682 10.1979 13.9271 10.0625 14.0625C9.92708 14.1979 9.76823 14.3047 9.58594 14.3828C9.40365 14.4609 9.20833 14.5 9 14.5C8.79167 14.5 8.59635 14.4609 8.41406 14.3828C8.23177 14.3047 8.07292 14.1979 7.9375 14.0625C7.80208 13.9271 7.69531 13.7682 7.61719 13.5859C7.53906 13.4036 7.5 13.2083 7.5 13V4.5H8.5V13C8.5 13.1354 8.54948 13.2526 8.64844 13.3516C8.7474 13.4505 8.86458 13.5 9 13.5C9.13542 13.5 9.2526 13.4505 9.35156 13.3516C9.45052 13.2526 9.5 13.1354 9.5 13V3C9.5 2.79167 9.46094 2.59635 9.38281 2.41406C9.30469 2.23177 9.19792 2.07292 9.0625 1.9375C8.92708 1.80208 8.76823 1.69531 8.58594 1.61719C8.40365 1.53906 8.20833 1.5 8 1.5C7.79167 1.5 7.59635 1.53906 7.41406 1.61719C7.23177 1.69531 7.07292 1.80208 6.9375 1.9375C6.80208 2.07292 6.69531 2.23177 6.61719 2.41406C6.53906 2.59635 6.5 2.79167 6.5 3V13C6.5 13.3438 6.5651 13.6667 6.69531 13.9688C6.82552 14.2708 7.00521 14.5339 7.23438 14.7578C7.46354 14.9818 7.72917 15.1615 8.03125 15.2969C8.33333 15.4323 8.65625 15.5 9 15.5C9.34375 15.5 9.66667 15.4349 9.96875 15.3047C10.2708 15.1745 10.5339 14.9948 10.7578 14.7656C10.9818 14.5365 11.1615 14.2708 11.2969 13.9688C11.4323 13.6667 11.5 13.3438 11.5 13V3.5H12.5Z" fill="white"/>
</g>
<defs>
<clipPath id="clip0_804_5179">
<rect width="16" height="16" fill="white" transform="translate(0.5 0.5)"/>
</clipPath>
</defs>
</svg>
