<svg width="41" height="40" viewBox="0 0 41 40" fill="none" xmlns="http://www.w3.org/2000/svg">
<g id="4" clip-path="url(#clip0_1316_18993)">
<g id="Group">
<path id="Vector" d="M20.5 40C31.5457 40 40.5 31.0457 40.5 20C40.5 8.9543 31.5457 0 20.5 0C9.4543 0 0.5 8.9543 0.5 20C0.5 31.0457 9.4543 40 20.5 40Z" fill="#0AC18E"/>
<path id="Vector_2" d="M26.7377 13.283C25.734 11.0043 23.4252 10.5168 20.5965 10.9893L19.6877 7.4668L17.5465 8.0193L18.439 11.5318C17.8765 11.6743 17.2977 11.7968 16.724 11.9593L15.8302 8.4668L13.6877 9.0193L14.5965 12.543C14.134 12.6743 10.2715 13.6643 10.2715 13.6643L10.8602 15.9593C10.8602 15.9593 12.4352 15.5168 12.419 15.553C13.2927 15.3243 13.7027 15.7605 13.8965 16.1718L16.394 25.8268C16.424 26.1055 16.3727 26.583 15.774 26.7455C15.8102 26.7655 14.2165 27.1455 14.2165 27.1455L14.449 29.8205C14.449 29.8205 18.2765 28.8418 18.779 28.7155L19.6977 32.278L21.8402 31.7255L20.9215 28.1368C21.5102 27.9993 22.084 27.8568 22.6427 27.7105L23.5552 31.278L25.6977 30.7255L24.779 27.1668C28.079 26.3643 30.409 24.283 29.9315 21.1005C29.6277 19.1818 27.5315 17.608 25.789 17.4305C26.8602 16.4805 27.4027 15.0955 26.7377 13.283ZM25.7077 21.6843C26.1352 24.8368 21.754 25.2218 20.3077 25.603L19.049 20.888C20.5002 20.5068 24.9865 18.908 25.7077 21.6843ZM23.069 15.263C23.5202 18.0655 19.774 18.3905 18.5665 18.7005L17.419 14.4205C18.6315 14.1205 22.1502 12.6693 23.069 15.263Z" fill="white"/>
</g>
</g>
<defs>
<clipPath id="clip0_1316_18993">
<rect width="40" height="40" fill="white" transform="translate(0.5)"/>
</clipPath>
</defs>
</svg>
