<svg width="41" height="40" viewBox="0 0 41 40" fill="none" xmlns="http://www.w3.org/2000/svg">
<g id="9" clip-path="url(#clip0_1316_19030)">
<g id="Icons-Crypto/Binance-coin">
<path id="Combined-Shape" fill-rule="evenodd" clip-rule="evenodd" d="M20.1665 0C31.2122 0 40.1665 8.9543 40.1665 20C40.1665 31.0457 31.2122 40 20.1665 40C9.1208 40 0.166504 31.0457 0.166504 20C0.166504 8.9543 9.1208 0 20.1665 0ZM25.3248 22.155L20.1698 27.31L18.3598 25.5L18.0265 25.1667L14.9915 22.155L11.9915 25.155L20.1715 33.3217L28.3248 25.155L25.3248 22.155ZM9.84547 16.9911L6.83316 20.0033L9.84547 23.0156L12.8577 20.0033L9.84547 16.9911ZM30.4888 16.9894L27.4765 20.0017L30.4888 23.014L33.501 20.0017L30.4888 16.9894ZM20.1755 16.9827L17.1632 19.995L20.1755 23.0073L23.1877 19.995L20.1755 16.9827ZM20.1715 6.66663L11.9915 14.8333L14.9915 17.8517L18.0198 14.8333L18.6582 14.195L20.1715 12.6817L25.3248 17.8517L28.3248 14.8333L20.1715 6.66663Z" fill="#F0B90B"/>
</g>
</g>
<defs>
<clipPath id="clip0_1316_19030">
<rect width="40" height="40" fill="white" transform="translate(0.166504)"/>
</clipPath>
</defs>
</svg>
