<svg width="41" height="40" viewBox="0 0 41 40" fill="none" xmlns="http://www.w3.org/2000/svg">
<g id="Group">
<path id="Vector" d="M39.5676 24.8374C36.8952 35.5526 26.0433 42.0727 15.3263 39.4014C4.61442 36.7301 -1.90773 25.8774 0.765876 15.1634C3.43573 4.44942 14.2889 -2.07447 25.0033 0.599335C35.719 3.27064 42.2399 14.1246 39.5676 24.8399V24.8374Z" fill="#F7931A"/>
<path id="Vector_2" d="M28.6734 17.1502C29.0709 14.4902 27.0435 13.0589 24.2736 12.1051L25.1723 8.50003L22.9775 7.95252L22.1025 11.4626C21.5177 11.3193 20.9314 11.1817 20.3438 11.0501L21.225 7.51626L19.0327 6.96875L18.1327 10.5726C17.6646 10.4676 17.1975 10.358 16.7315 10.2438L16.734 10.2313L13.7079 9.4763L13.1242 11.8201C13.1242 11.8201 14.7516 12.1939 14.7179 12.2164C15.6053 12.4389 15.7678 13.0264 15.7403 13.4926L14.7154 17.6002C14.7779 17.6152 14.8566 17.6377 14.9441 17.6727L14.7129 17.6152L13.278 23.3691C13.1692 23.6391 12.893 24.0441 12.2718 23.8904C12.2943 23.9216 10.6769 23.4916 10.6769 23.4916L9.58691 26.0042L12.4443 26.7167C12.9755 26.8492 13.4955 26.9892 14.0067 27.1204L13.0992 30.7668L15.2916 31.3143L16.1916 27.7067C16.7903 27.8692 17.3715 28.0192 17.9402 28.1604L17.044 31.7505L19.2376 32.298L20.1463 28.658C23.8886 29.3667 26.7023 29.0805 27.8859 25.6966C28.8409 22.9716 27.8397 21.4003 25.8698 20.374C27.3035 20.0428 28.3847 19.099 28.6721 17.1515L28.6734 17.1502ZM23.6587 24.1816C22.98 26.9067 18.3914 25.4341 16.904 25.0641L18.109 20.234C19.5964 20.6053 24.3661 21.3403 23.6587 24.1816ZM24.3361 17.1115C23.7174 19.5903 19.8989 18.3315 18.6589 18.0227L19.7514 13.6414C20.9913 13.9501 24.9811 14.5264 24.3361 17.1115Z" fill="white"/>
</g>
</svg>
