<?xml version="1.0" encoding="UTF-8"?>
<svg version="1.1" xmlns="http://www.w3.org/2000/svg" width="1000" height="1000">
<path d="M0 0 C4.28910601 0.0000806 8.5781037 -0.00677235 12.8671875 -0.02050781 C43.354502 -0.11643921 73.72728876 0.54845084 104.17211914 2.18530273 C104.89828556 2.22424778 105.62445198 2.26319283 106.37262344 2.30331802 C114.89529488 2.76526048 123.40942876 3.31764518 131.92211914 3.93530273 C133.07750183 4.01767181 134.23288452 4.10004089 135.42327881 4.18490601 C203.70143522 9.09324895 271.53954719 18.07584852 339.11390686 28.85719299 C341.17772088 29.18619574 343.24173721 29.51390518 345.30578613 29.84143066 C353.2785069 31.1086468 361.24480952 32.40836665 369.2053833 33.75009155 C371.64667518 34.15911168 374.08916609 34.56105043 376.53289795 34.95523071 C396.0214706 38.11536977 412.51551922 42.1583526 424.79785156 58.89379883 C431.2690691 67.98092718 434.53756629 77.05152417 436.18383789 88.06811523 C436.34687912 89.10243683 436.50992035 90.13675842 436.67790222 91.2024231 C438.63251193 103.79532224 440.33756425 116.42405918 441.98461914 129.06030273 C442.15442291 130.35921448 442.32422668 131.65812622 442.49917603 132.99639893 C449.93298136 190.03624732 455.32523282 247.25127764 459.07446289 304.65014648 C459.13533585 305.57195206 459.1962088 306.49375763 459.25892639 307.4434967 C462.35010671 356.00260767 463.52251402 404.6223031 463.43286133 453.27197266 C463.42146191 459.50419592 463.4282771 465.73624829 463.43973827 471.96846581 C463.51190791 518.3377087 462.21091745 564.65183498 459.35961914 610.93530273 C459.27463793 612.3402923 459.18981342 613.74529134 459.10513306 615.15029907 C454.94735627 683.89208148 447.98551881 752.30123787 438.91381836 820.5612793 C438.35143822 824.80065023 437.80949456 829.04204027 437.28318787 833.286026 C436.88408069 836.48329917 436.46444513 839.67786441 436.04711914 842.87280273 C435.92506104 843.89801025 435.80300293 844.92321777 435.67724609 845.97949219 C433.77104162 859.94672865 427.29840713 871.56752846 416.45336914 880.55639648 C404.09649962 889.37970914 389.7849995 891.30910317 375.05883789 893.20092773 C373.70653074 893.37887077 372.354278 893.5572277 371.0020752 893.73596191 C367.3773136 894.21278579 363.75141883 894.68033787 360.12505722 895.14482117 C357.83770329 895.43811285 355.55061794 895.7334275 353.26358032 896.0291748 C274.41646954 906.21069982 195.28762367 913.66532394 115.85961914 917.37280273 C114.67642593 917.42819717 114.67642593 917.42819717 113.46932983 917.48471069 C108.63819189 917.70653068 103.80643961 917.89978761 98.97351074 918.07815552 C97.04696921 918.1518416 95.12061859 918.23064016 93.19445801 918.31369019 C65.07814603 919.51843728 36.93850758 919.37299632 8.80235916 919.37041372 C3.97522996 919.3707158 -0.85184252 919.37883252 -5.67895508 919.39111328 C-42.43333616 919.48238058 -79.1082791 918.94805192 -115.82788086 917.18530273 C-116.66408463 917.14529774 -117.50028839 917.10529274 -118.36183167 917.06407547 C-128.29336048 916.58395978 -138.21763566 916.00998133 -148.14038086 915.37280273 C-149.48703175 915.28783999 -150.83369133 915.20301492 -152.18035889 915.11831665 C-212.62695213 911.30158581 -272.87027576 905.09029871 -332.89038086 896.99780273 C-334.70647858 896.75433609 -334.70647858 896.75433609 -336.55926514 896.50595093 C-348.41980119 894.90702992 -360.25928103 893.20782633 -372.05053711 891.15405273 C-372.93467789 891.00575516 -373.81881866 890.85745758 -374.72975159 890.70466614 C-387.94438383 888.31197942 -398.72394313 881.08424847 -406.57788086 870.24780273 C-407.68210552 868.57389854 -408.76725853 866.88716866 -409.82788086 865.18530273 C-410.23006836 864.54979492 -410.63225586 863.91428711 -411.04663086 863.25952148 C-416.89618728 852.9120107 -417.46314343 839.5675166 -418.84350586 827.98608398 C-419.02137667 826.53184861 -419.19968849 825.07766712 -419.37840271 823.62353516 C-419.85501235 819.72768418 -420.32257952 815.83080358 -420.78719711 811.93350601 C-421.0809354 809.47220805 -421.37662017 807.01115046 -421.67276001 804.55014038 C-430.57450955 730.49060978 -437.69456055 656.27303218 -444.72073364 525.12130737 C-444.79518513 523.08121782 -444.87401352 521.04128519 -444.95626831 519.00149536 C-446.01415266 492.56569826 -446.01539919 466.12778613 -446.01318359 439.67431641 C-446.01310293 434.59420159 -446.01996497 429.51417812 -446.03369141 424.43408203 C-446.30491109 322.35634269 -439.19992079 220.66386056 -424.14038086 119.68530273 C-423.95415161 118.43066223 -423.76792236 117.17602173 -423.5760498 115.88336182 C-421.85003106 104.32522101 -420.07716837 92.78538714 -417.71459961 81.33764648 C-417.56138748 80.58644531 -417.40817535 79.83524414 -417.25032043 79.0612793 C-414.14681963 64.6889674 -404.30676603 54.23950471 -392.32788086 46.24780273 C-382.81409338 40.74771494 -373.23612219 37.44343314 -362.45288086 35.49780273 C-361.16873291 35.25852051 -359.88458496 35.01923828 -358.56152344 34.77270508 C-268.80659285 18.29133372 -177.95184858 6.9877368 -72.28793335 1.29244995 C-70.57212734 1.21771828 -68.85649711 1.13888665 -67.14102173 1.05691528 C-44.76746985 -0.00006027 -22.39375464 -0.00221973 0 0 Z " fill="#870005" transform="translate(490.827880859375,34.814697265625)"/>
<path d="M0 0 C1.39641724 -0.00845947 1.39641724 -0.00845947 2.82104492 -0.01708984 C8.7821775 0.04537474 14.09996845 0.83036 19.875 2.3125 C19.875 2.9725 19.875 3.6325 19.875 4.3125 C20.44347656 4.34988281 21.01195312 4.38726562 21.59765625 4.42578125 C30.47775419 5.18184969 37.25471517 8.94077197 44.875 13.3125 C44.875 13.9725 44.875 14.6325 44.875 15.3125 C45.59171875 15.56 46.3084375 15.8075 47.046875 16.0625 C57.70683562 20.77408481 67.05712964 31.42212038 72.875 41.3125 C73.7 42.3025 74.525 43.2925 75.375 44.3125 C79.37860646 49.11682775 81.60601374 53.91362363 83.8125 59.71484375 C84.86536326 62.39918125 84.86536326 62.39918125 86.37109375 65.203125 C89.00325222 70.64519809 90.32940629 76.48680064 91.875 82.3125 C92.09414063 83.09882813 92.31328125 83.88515625 92.5390625 84.6953125 C94.09397745 90.79893386 94.32430415 96.98389974 94.62890625 103.25 C94.53179702 106.18536244 94.53179702 106.18536244 95.875 107.3125 C95.96371273 110.34227804 95.9901935 113.34917022 95.97265625 116.37890625 C95.97053383 117.74184059 95.97053383 117.74184059 95.96836853 119.13230896 C95.96275193 122.04657221 95.95019665 124.96075981 95.9375 127.875 C95.93248714 129.84570202 95.92792386 131.81640524 95.92382812 133.78710938 C95.91277711 138.62893559 95.89550138 143.47070495 95.875 148.3125 C96.89907959 147.75747803 97.92315918 147.20245605 98.97827148 146.63061523 C100.33829312 145.89811544 101.69840534 145.16578381 103.05859375 144.43359375 C104.06811096 143.8856012 104.06811096 143.8856012 105.09802246 143.32653809 C114.86621611 138.08049081 123.82561451 136.63815015 134.875 136.3125 C135.67437988 136.28526855 136.47375977 136.25803711 137.29736328 136.22998047 C149.2145494 135.8715858 160.26481542 136.55364426 171.875 139.3125 C171.875 139.9725 171.875 140.6325 171.875 141.3125 C173.37740234 141.44978516 173.37740234 141.44978516 174.91015625 141.58984375 C179.1690457 142.19825653 182.54941119 143.8640372 186.3125 145.875 C186.94865234 146.20435547 187.58480469 146.53371094 188.24023438 146.87304688 C189.78994576 147.67703248 191.33318322 148.49347666 192.875 149.3125 C192.875 149.9725 192.875 150.6325 192.875 151.3125 C193.596875 151.56 194.31875 151.8075 195.0625 152.0625 C198.15106582 153.43519592 200.38511418 155.03603296 202.875 157.3125 C202.875 157.9725 202.875 158.6325 202.875 159.3125 C203.43832031 159.54324219 204.00164063 159.77398437 204.58203125 160.01171875 C207.4754941 161.65315509 209.32964341 163.66332174 211.5625 166.125 C212.35011719 166.97707031 213.13773438 167.82914063 213.94921875 168.70703125 C215.92027347 171.37375234 216.52988669 173.05439639 216.875 176.3125 C217.865 176.6425 218.855 176.9725 219.875 177.3125 C221.67557291 180.06631739 222.39360564 183.06358014 223.25 186.21484375 C223.98040346 188.66626035 224.85682978 191.04059398 225.75 193.4375 C229.23393753 202.94982382 232.47963787 212.11903293 232.875 222.3125 C232.91496094 223.02535156 232.95492187 223.73820313 232.99609375 224.47265625 C233.38993902 237.23787645 229.65112758 249.27789493 225.875 261.3125 C225.215 261.3125 224.555 261.3125 223.875 261.3125 C223.875 262.3025 223.875 263.2925 223.875 264.3125 C223.215 264.3125 222.555 264.3125 221.875 264.3125 C221.70484375 264.97636719 221.5346875 265.64023437 221.359375 266.32421875 C219.91110762 271.60115041 218.49411339 275.12790014 214.875 279.3125 C213.87015117 281.64374929 212.86977753 283.97693537 211.875 286.3125 C210.89649805 287.33354551 209.89519573 288.3331121 208.875 289.3125 C208.18489022 290.46545449 207.52067317 291.63408509 206.875 292.8125 C205.45054723 295.40587394 204.02116973 297.26388344 201.875 299.3125 C201.545 299.9725 201.215 300.6325 200.875 301.3125 C199.875 303.3125 199.875 303.3125 198.4375 304.6875 C196.63942459 306.39619126 196.63942459 306.39619126 195.3125 309.4375 C193.875 312.3125 193.875 312.3125 191.875 313.3125 C190.94106559 314.968111 190.07397217 316.66200522 189.25 318.375 C188.58097656 319.75365234 188.58097656 319.75365234 187.8984375 321.16015625 C187.56070313 321.87042969 187.22296875 322.58070313 186.875 323.3125 C186.215 323.3125 185.555 323.3125 184.875 323.3125 C183.885 326.2825 182.895 329.2525 181.875 332.3125 C181.215 332.3125 180.555 332.3125 179.875 332.3125 C179.75125 333.01375 179.6275 333.715 179.5 334.4375 C178.83661655 337.48906387 177.90288045 340.36590938 176.875 343.3125 C176.215 343.3125 175.555 343.3125 174.875 343.3125 C174.76542969 344.01375 174.65585937 344.715 174.54296875 345.4375 C173.09027334 354.13005138 173.09027334 354.13005138 171.375 358.1875 C163.76207539 377.37360798 166.7237892 402.60934565 166.7421875 422.78515625 C166.74112587 425.35337845 166.73973859 427.92160053 166.73805237 430.48982239 C166.73526095 437.36092827 166.73961649 444.23200889 166.74622726 451.10311127 C166.75027624 455.39517689 166.75209123 459.68724196 166.75369263 463.97930908 C166.77025723 503.24515822 166.91993271 542.50868242 167.28116608 581.77305222 C167.31206826 585.14045377 167.34195329 588.5078633 167.37176514 591.87527466 C167.55694997 612.42660598 167.80893387 632.96570818 168.47445297 653.50748253 C169.01762452 670.52265308 168.99143849 687.53363101 168.94366455 704.55578613 C168.93314196 708.72794042 168.92880731 712.9001017 168.92382812 717.07226562 C168.91333503 725.15236158 168.89644133 733.23242568 168.875 741.3125 C170.855 741.3125 172.835 741.3125 174.875 741.3125 C174.875 741.6425 174.875 741.9725 174.875 742.3125 C148.38071288 744.64438716 121.87104469 746.67356509 95.32500458 748.31233215 C93.38875575 748.43275727 91.45270414 748.55634081 89.5166626 748.68005371 C41.97120822 751.69943001 -5.59043931 752.65515943 -53.22341174 752.56963861 C-57.91378155 752.56208846 -62.60406685 752.564836 -67.29443359 752.57324219 C-114.40859179 752.65534518 -161.41509714 751.50919838 -208.4375 748.5 C-210.40588333 748.37751892 -210.40588333 748.37751892 -212.41403198 748.25256348 C-241.0306268 746.47104076 -269.58020825 744.00575235 -298.125 741.3125 C-297.135 740.9825 -296.145 740.6525 -295.125 740.3125 C-295.145625 739.178125 -295.16625 738.04375 -295.1875 736.875 C-295.125 733.3125 -295.125 733.3125 -294.125 732.3125 C-293.8196481 729.7747337 -293.5742033 727.25325046 -293.36328125 724.70703125 C-293.21542465 723.02976981 -293.06738439 721.35252455 -292.91918945 719.67529297 C-292.84109039 718.77373474 -292.76299133 717.87217651 -292.68252563 716.94329834 C-290.84998958 695.8653677 -288.57790539 674.84756049 -286.14379883 653.83129883 C-284.97136219 643.61177467 -283.8422408 633.43480548 -283.42500305 623.15194702 C-283.22071768 618.40821768 -283.22071768 618.40821768 -282.125 617.3125 C-281.91871673 615.35499132 -281.77650966 613.39068708 -281.66015625 611.42578125 C-281.58216797 610.17474609 -281.50417969 608.92371094 -281.42382812 607.63476562 C-281.34463278 606.29820186 -281.265856 604.96161323 -281.1875 603.625 C-280.65299118 594.66849125 -279.99922641 585.74483962 -279.15234375 576.8125 C-278.03206079 564.88992865 -277.30611592 552.95453275 -276.625 541 C-276.36943008 536.56635161 -276.11253212 532.13278076 -275.85546875 527.69921875 C-275.79324631 526.619216 -275.73102386 525.53921326 -275.66691589 524.42648315 C-275.31376229 518.35007386 -274.9272562 512.27781587 -274.48828125 506.20703125 C-273.39518254 490.87503421 -272.92136477 475.61680249 -272.875 460.25 C-272.86973297 459.36771729 -272.86446594 458.48543457 -272.85903931 457.57641602 C-272.79211777 443.18339751 -273.68764356 429.19031854 -277 415.125 C-277.17217041 414.37726318 -277.34434082 413.62952637 -277.52172852 412.85913086 C-280.03441101 402.18337255 -283.29458606 392.17331317 -288.125 382.3125 C-288.48851562 381.55839844 -288.85203125 380.80429687 -289.2265625 380.02734375 C-290.63664452 377.1479778 -292.09010753 374.37020678 -293.75 371.625 C-295.125 369.3125 -295.125 369.3125 -296 366.96875 C-297.2000784 364.13523155 -298.67232699 361.97015194 -300.5 359.5 C-302.72327754 356.41313532 -304.65437824 353.45282085 -306.25 350 C-307.927764 346.38186547 -310.26424895 344.09378574 -313.125 341.3125 C-313.125 340.3225 -313.125 339.3325 -313.125 338.3125 C-313.785 338.3125 -314.445 338.3125 -315.125 338.3125 C-319.07516185 333.29472684 -322.11974754 327.93138561 -325.125 322.3125 C-325.67285156 321.29671875 -326.22070312 320.2809375 -326.78515625 319.234375 C-327.98160294 317.01503212 -329.17424306 314.79363337 -330.36328125 312.5703125 C-331.46501449 310.53296101 -332.5846336 308.5050658 -333.73046875 306.4921875 C-343.47041356 289.31583238 -347.30136388 271.94115914 -347.3125 252.375 C-347.32474609 251.24642578 -347.33699219 250.11785156 -347.34960938 248.95507812 C-347.36691016 239.04172563 -345.52461422 230.56928089 -342.125 221.3125 C-341.69058594 220.12914062 -341.25617188 218.94578125 -340.80859375 217.7265625 C-335.24719632 203.0055435 -335.24719632 203.0055435 -330.125 197.3125 C-329.465 197.3125 -328.805 197.3125 -328.125 197.3125 C-327.898125 196.590625 -327.67125 195.86875 -327.4375 195.125 C-325.86094914 191.74667673 -323.81513425 189.87453262 -321.125 187.3125 C-320.568125 186.52875 -320.01125 185.745 -319.4375 184.9375 C-315.90098281 180.92307508 -311.57076496 178.24507914 -307.125 175.3125 C-306.21878906 174.69761719 -305.31257813 174.08273437 -304.37890625 173.44921875 C-298.49567977 169.55210277 -292.72934704 166.74508221 -286.125 164.3125 C-284.3615625 163.508125 -284.3615625 163.508125 -282.5625 162.6875 C-275.7069699 159.94528796 -268.65342141 158.93926003 -261.3125 158.5625 C-260.51223389 158.51939697 -259.71196777 158.47629395 -258.88745117 158.43188477 C-249.55029716 158.06194425 -240.37412483 159.13321222 -231.125 160.3125 C-231.37894531 159.75304687 -231.63289063 159.19359375 -231.89453125 158.6171875 C-234.60634434 152.29978023 -236.18742723 146.05623625 -237.51171875 139.31640625 C-238.06884204 136.28086279 -238.06884204 136.28086279 -239.125 133.3125 C-239.35585016 128.95712695 -239.35344863 124.59900799 -239.36523438 120.23828125 C-239.37477982 118.11155597 -239.40573168 115.98586674 -239.4375 113.859375 C-239.53118095 101.77594116 -237.51931833 90.93686594 -234.125 79.3125 C-233.57980754 77.33430167 -233.03783517 75.3552113 -232.5 73.375 C-232.23960937 72.41722656 -231.97921875 71.45945312 -231.7109375 70.47265625 C-231.51757812 69.75980469 -231.32421875 69.04695313 -231.125 68.3125 C-230.465 68.3125 -229.805 68.3125 -229.125 68.3125 C-228.96064453 67.35537109 -228.96064453 67.35537109 -228.79296875 66.37890625 C-228.63441406 65.55261719 -228.47585938 64.72632813 -228.3125 63.875 C-228.08626953 62.63943359 -228.08626953 62.63943359 -227.85546875 61.37890625 C-227.61441406 60.69699219 -227.37335938 60.01507813 -227.125 59.3125 C-226.135 58.9825 -225.145 58.6525 -224.125 58.3125 C-223.00819294 55.46270361 -223.00819294 55.46270361 -222.125 52.3125 C-220.61110811 48.46954367 -218.17635667 46.06616334 -215.125 43.3125 C-214.135 42.9825 -213.145 42.6525 -212.125 42.3125 C-211.43879969 40.98911368 -210.77713539 39.65300052 -210.125 38.3125 C-206.59781235 33.62684155 -202.96674798 30.43063988 -198.0625 27.25 C-197.4020166 26.81953369 -196.7415332 26.38906738 -196.06103516 25.94555664 C-186.9759928 20.16366839 -178.9737029 16.92715908 -168.125 16.4921875 C-165.52358119 16.33637335 -163.42439225 15.95915287 -160.9375 15.25 C-148.54938713 12.24957633 -135.28196358 14.29669798 -123.125 17.3125 C-122.32835937 17.50972656 -121.53171875 17.70695312 -120.7109375 17.91015625 C-120.18757812 18.04292969 -119.66421875 18.17570312 -119.125 18.3125 C-119.125 18.9725 -119.125 19.6325 -119.125 20.3125 C-117.76375 20.3434375 -117.76375 20.3434375 -116.375 20.375 C-102.8506944 22.36949355 -89.96355361 35.84803093 -82.125 46.3125 C-80.625 49.875 -80.625 49.875 -80.125 52.3125 C-77.38696565 50.94348283 -77.3690383 49.60568019 -76.375 46.75 C-74.43167047 41.67250366 -71.94998858 37.22491689 -68.125 33.3125 C-67.465 33.3125 -66.805 33.3125 -66.125 33.3125 C-65.898125 32.755625 -65.67125 32.19875 -65.4375 31.625 C-63.75122733 28.65394815 -61.594646 26.66727875 -59.125 24.3125 C-58.01318359 23.14847656 -58.01318359 23.14847656 -56.87890625 21.9609375 C-47.46739586 12.90986793 -36.36463723 7.58916157 -23.97607422 3.88232422 C-22.42563531 3.40504587 -20.89829846 2.85357752 -19.37890625 2.28515625 C-13.006643 0.07270645 -6.67849156 0.0385626 0 0 Z " fill="#B85B52" transform="translate(551.125,201.6875)"/>
<path d="M0 0 C2.25 0.0625 2.25 0.0625 5 1 C9.10720538 6.82593769 10.44889873 12.91678866 11.9375 19.8125 C12.19128418 20.94671387 12.44506836 22.08092773 12.70654297 23.24951172 C14.73482726 32.44330253 16.50565025 41.68174409 18.24804688 50.93310547 C20.96170699 65.24526306 24.82043702 78.97546514 29.30371094 92.82568359 C30.27961222 95.87315091 31.20186163 98.93619824 32.125 102 C33.63627625 106.97197186 35.37353997 111.82078493 37.265625 116.66015625 C38 119 38 119 38 123 C38.66 123 39.32 123 40 123 C40.09925781 122.48824219 40.19851563 121.97648438 40.30078125 121.44921875 C41.26081437 118.08642118 42.74347824 114.98773099 44.1875 111.8125 C55.37198742 86.5603617 60.67056311 60.15050894 65 33 C65.66 33.33 66.32 33.66 67 34 C67.75774926 36.73204127 68.410823 39.41882841 69 42.1875 C69.33062135 43.70241734 69.66391092 45.21675506 70 46.73046875 C70.144375 47.40489014 70.28875 48.07931152 70.4375 48.77416992 C70.98820181 51.11483733 70.98820181 51.11483733 72.00927734 53.75512695 C73.1692213 57.55424356 73.55505346 61.24945385 73.8515625 65.1875 C73.94719986 66.35684082 73.94719986 66.35684082 74.04476929 67.54980469 C74.17768472 69.19681373 74.3068974 70.8441253 74.43261719 72.49169922 C74.62234727 74.96541353 74.82582933 77.43770124 75.03125 79.91015625 C75.78766431 89.29365502 76.1866971 98.57988199 76 108 C75.98855957 108.93972656 75.97711914 109.87945313 75.96533203 110.84765625 C75.68911496 128.10346416 73.52308218 144.95736013 71 162 C75.30024818 160.90108252 75.30024818 160.90108252 78.4609375 158.0546875 C78.91339844 156.97574219 78.91339844 156.97574219 79.375 155.875 C79.69210937 155.15054688 80.00921875 154.42609375 80.3359375 153.6796875 C80.55507813 153.12539063 80.77421875 152.57109375 81 152 C81.66 152 82.32 152 83 152 C83.11698242 151.28158936 83.23396484 150.56317871 83.35449219 149.82299805 C84.02512108 146.89013802 85.01682812 144.53564621 86.328125 141.83203125 C86.79863281 140.85556641 87.26914062 139.87910156 87.75390625 138.87304688 C88.24761719 137.86306641 88.74132812 136.85308594 89.25 135.8125 C89.72824219 134.82185547 90.20648437 133.83121094 90.69921875 132.81054688 C92.98368843 128.08992864 95.30403652 123.39025848 97.671875 118.7109375 C103.77379302 106.53739296 112.29217671 89.53060284 112.0625 75.75 C112.0315625 73.89375 112.0315625 73.89375 112 72 C120.43226844 74.81075615 125.78791331 89.40730348 130 97 C130 93.94903468 129.46187822 91.75513722 128.6875 88.8125 C126.20492935 78.36452494 125.18977476 67.65812967 124 57 C123.90066162 56.16057861 123.80132324 55.32115723 123.69897461 54.45629883 C122.97697244 47.98537861 122.8166479 41.57056187 122.8125 35.0625 C122.80025391 34.05509766 122.78800781 33.04769531 122.77539062 32.00976562 C122.76212602 25.1342812 123.53987752 18.7165634 125 12 C126.32 11.67 127.64 11.34 129 11 C134.64737169 21.48262134 140.03056282 32.04920516 145.125 42.8125 C148.8593958 50.68604811 152.7173641 58.33980086 157.15234375 65.84375 C159.13136579 69.22440499 160.98527041 72.66109672 162.8125 76.125 C169.56851629 88.88280999 176.43132365 101.57200152 183.93505859 113.90795898 C186.5774511 118.25960809 189.05356268 122.67499366 191.453125 127.1640625 C192.64345384 129.34633204 193.8599023 131.50027989 195.109375 133.6484375 C195.47409912 134.2767749 195.83882324 134.9051123 196.21459961 135.55249023 C196.93009621 136.78094238 197.64947727 138.00714282 198.37329102 139.23071289 C201.6277979 144.82878577 202.12467855 148.68643869 202.11352539 155.15527344 C202.11367142 155.86786819 202.11381744 156.58046295 202.1139679 157.31465149 C202.11327291 159.66292395 202.10549994 162.01111645 202.09765625 164.359375 C202.0957906 165.99033566 202.09436739 167.62129688 202.09336853 169.2522583 C202.08955494 173.53974969 202.07973454 177.82720708 202.06866455 182.11468506 C202.05842553 186.49181661 202.05386557 190.86895367 202.04882812 195.24609375 C202.03811123 203.83074475 202.02104872 212.41536814 202 221 C203.98 221 205.96 221 208 221 C208 221.33 208 221.66 208 222 C181.50571288 224.33188716 154.99604469 226.36106509 128.45000458 227.99983215 C126.51375575 228.12025727 124.57770414 228.24384081 122.6416626 228.36755371 C75.09620822 231.38693001 27.53456069 232.34265943 -20.09841174 232.25713861 C-24.78878155 232.24958846 -29.47906685 232.252336 -34.16943359 232.26074219 C-81.28359179 232.34284518 -128.29009714 231.19669838 -175.3125 228.1875 C-176.62475555 228.10584595 -177.93701111 228.02419189 -179.28903198 227.94006348 C-207.9056268 226.15854076 -236.45520825 223.69325235 -265 221 C-264.01 220.67 -263.02 220.34 -262 220 C-262.020625 218.865625 -262.04125 217.73125 -262.0625 216.5625 C-262 213 -262 213 -261 212 C-260.67159207 209.22842155 -260.40191877 206.47147203 -260.16796875 203.69140625 C-260.0095152 201.90860335 -259.85098315 200.12580743 -259.69238281 198.34301758 C-259.61008423 197.39939362 -259.52778564 196.45576965 -259.44299316 195.48355103 C-258.09453116 180.06659713 -256.59941603 164.6777688 -254.75 149.3125 C-254.6613266 148.57540802 -254.5726532 147.83831604 -254.48129272 147.07888794 C-253.99506746 143.05164598 -253.50131073 139.02539618 -253 135 C-252.40050537 135.04189453 -251.80101074 135.08378906 -251.18334961 135.12695312 C-246.48530186 135.41335866 -241.80827783 135.56340744 -237.1015625 135.46484375 C-235.78792725 135.43958618 -235.78792725 135.43958618 -234.44775391 135.41381836 C-231.53957145 134.92215974 -230.04663341 133.95891898 -227.8125 132.0625 C-226.36310898 129.76648396 -226.36310898 129.76648396 -225 127 C-224.26830901 125.80162916 -223.52652179 124.609392 -222.77734375 123.421875 C-214.35151622 109.86238683 -207.18109414 95.49476042 -200.125 81.1875 C-198.08487199 77.07356263 -195.9535977 73.16424298 -193.44921875 69.3203125 C-191.33823423 65.94046127 -189.39215118 62.47202554 -187.4375 59 C-187.06125488 58.33500488 -186.68500977 57.67000977 -186.29736328 56.98486328 C-183.71973697 52.39124164 -181.31359263 47.73168242 -179 43 C-178.56816406 42.12214844 -178.13632812 41.24429688 -177.69140625 40.33984375 C-174.13029696 32.76170459 -171.52666466 24.96705749 -169 17 C-168.67 17 -168.34 17 -168 17 C-166.54151516 23.95492355 -166.65902595 31.06939913 -166.48242188 38.14648438 C-166.29582217 43.79024535 -165.74079077 48.58925854 -164 54 C-163.52865904 56.70816714 -163.0925374 59.40746742 -162.6875 62.125 C-161.56835282 69.19556946 -160.14798583 76.15887931 -158.5 83.125 C-158.29850342 83.98883301 -158.09700684 84.85266602 -157.8894043 85.74267578 C-155.95864381 93.72769967 -153.15974936 100.96892399 -149.5 108.3125 C-149.20480469 108.91900391 -148.90960938 109.52550781 -148.60546875 110.15039062 C-146.42966935 114.5775932 -146.42966935 114.5775932 -143 118 C-140.73606029 118.78356902 -140.73606029 118.78356902 -138.3125 119.1875 C-137.10013672 119.42533203 -137.10013672 119.42533203 -135.86328125 119.66796875 C-135.24839844 119.77753906 -134.63351562 119.88710938 -134 120 C-133.82984375 118.45699219 -133.82984375 118.45699219 -133.65625 116.8828125 C-133.02238932 113.13247017 -132.05706213 110.32648773 -130.5 106.875 C-129.95625831 105.65398975 -129.41334458 104.43261057 -128.87109375 103.2109375 C-128.57315918 102.54545898 -128.27522461 101.87998047 -127.96826172 101.19433594 C-126.90206781 98.77805987 -125.87226912 96.34825577 -124.84765625 93.9140625 C-120.94603981 84.65781385 -116.93361833 75.53851316 -112.3125 66.6171875 C-110.91804681 63.99181138 -110.91804681 63.99181138 -110 61 C-109.34 61 -108.68 61 -108 61 C-107.86271484 59.98873047 -107.86271484 59.98873047 -107.72265625 58.95703125 C-106.81647225 55.24902428 -105.18716901 52.05171507 -103.4375 48.6875 C-103.10814453 48.04232422 -102.77878906 47.39714844 -102.43945312 46.73242188 C-101.63175745 45.15214772 -100.81662387 43.57567895 -100 42 C-99.34 42 -98.68 42 -98 42 C-97.87238281 41.41863281 -97.74476563 40.83726562 -97.61328125 40.23828125 C-95.93164666 34.10085056 -92.18564609 28.46110759 -89 23 C-88.34 23 -87.68 23 -87 23 C-87.19335938 24.01578125 -87.38671875 25.0315625 -87.5859375 26.078125 C-87.84902628 27.46873715 -88.11204317 28.8593629 -88.375 30.25 C-88.50132812 30.91257812 -88.62765625 31.57515625 -88.7578125 32.2578125 C-92.67075453 52.99640527 -95.28683055 73.69186665 -95.3125 94.8125 C-95.3176059 95.81611069 -95.3176059 95.81611069 -95.32281494 96.83999634 C-95.34191235 103.35995327 -95.26906111 108.83469325 -93 115 C-92.70098046 116.51554348 -92.42896984 118.03672903 -92.1875 119.5625 C-90.33522929 129.09666862 -86.65301448 142.31880656 -78.2734375 148.21484375 C-74.50210019 150.0174433 -71.07966339 150.7199406 -67 150 C-61.22906969 147.24756901 -56.72475822 144.2767408 -53 139 C-52.34 139 -51.68 139 -51 139 C-50.79375 138.34 -50.5875 137.68 -50.375 137 C-49.16933466 134.36945744 -48.00096996 132.57225966 -46.25 130.3125 C-36.65873982 117.81831603 -30.43718233 103.58521757 -26.04296875 88.55859375 C-25.40632425 86.38637227 -24.72753311 84.22523728 -23.9765625 82.08984375 C-22.73070469 78.14794963 -21.96218931 74.18184073 -21.1875 70.125 C-20.83523564 68.33451722 -20.48234374 66.54415782 -20.12890625 64.75390625 C-19.56022486 61.85676562 -18.99208223 58.95952316 -18.42529297 56.06201172 C-16.27213529 45.13101021 -13.96738194 34.28828207 -10.9375 23.5625 C-10.58776123 22.31255249 -10.58776123 22.31255249 -10.23095703 21.03735352 C-7.99243484 13.37495887 -5.42306502 6.0041077 0 0 Z " fill="#FE9E52" transform="translate(518,722)"/>
<path d="M0 0 C12.43562432 9.90704738 18.01939679 22.88775675 24.26098633 37.15039062 C28.12246504 45.84524168 32.84259196 53.28439173 38.90625 60.6171875 C39.62941406 61.49890625 40.35257813 62.380625 41.09765625 63.2890625 C43.95059868 66.56374424 47.01179195 69.57372324 50.1262207 72.59814453 C67.4671605 89.4616522 78.99518901 105.21190678 80.34765625 130.21875 C80.32349981 152.7808617 71.56691875 173.61124647 55.6484375 189.56640625 C39.52330927 204.57829341 21.72919304 209.81918868 0.19921875 209.27734375 C-7.41623121 208.88883767 -13.66996081 206.97134907 -20.65625 203.8671875 C-22.09716612 203.2475569 -23.53859561 202.6291191 -24.98046875 202.01171875 C-27.7655864 200.81065218 -30.53277508 199.57741296 -33.29296875 198.3203125 C-41.80880836 194.64099504 -49.12455701 195.60506959 -57.65625 198.8671875 C-59.30097909 199.81606967 -60.94548652 200.76634017 -62.5625 201.76171875 C-82.28673828 212.17582217 -111.82535703 217.41985055 -133.65625 210.8671875 C-140.74406711 208.2402343 -147.84069818 204.76373854 -153.65625 199.8671875 C-153.65625 199.2071875 -153.65625 198.5471875 -153.65625 197.8671875 C-154.2234375 197.66480469 -154.790625 197.46242188 -155.375 197.25390625 C-158.50637783 195.35041459 -160.17856598 192.67873432 -162.15625 189.6796875 C-162.55207275 189.09034424 -162.94789551 188.50100098 -163.35571289 187.89379883 C-164.46774088 186.22610213 -165.56257427 184.54697675 -166.65625 182.8671875 C-167.35041016 181.81144531 -167.35041016 181.81144531 -168.05859375 180.734375 C-170.57156069 176.65673053 -171.80024469 172.5293593 -172.65625 167.8671875 C-172.9346875 166.44019531 -172.9346875 166.44019531 -173.21875 164.984375 C-175.03804854 154.2959961 -174.85739261 143.67628212 -174.65625 132.8671875 C-173.99625 132.8671875 -173.33625 132.8671875 -172.65625 132.8671875 C-172.69234375 131.87589844 -172.7284375 130.88460937 -172.765625 129.86328125 C-172.65158399 125.69671143 -171.95022225 121.93854096 -170.90625 117.9296875 C-170.72650635 117.22457031 -170.5467627 116.51945313 -170.36157227 115.79296875 C-169.19838771 111.41773387 -167.80756404 107.50182599 -165.57421875 103.57421875 C-164.60182864 101.76598694 -164.02169504 100.01078352 -163.40625 98.0546875 C-158.61417713 84.97844611 -146.14791173 73.9466701 -136.09375 64.6171875 C-135.58102539 64.13894531 -135.06830078 63.66070313 -134.54003906 63.16796875 C-130.90379266 59.8671875 -130.90379266 59.8671875 -128.65625 59.8671875 C-128.27339844 58.97386719 -128.27339844 58.97386719 -127.8828125 58.0625 C-126.5278156 55.63731447 -125.19785469 54.45993385 -123.03125 52.7421875 C-116.64088259 47.32075667 -111.90744007 40.63160437 -107.03125 33.8671875 C-76.36226634 -8.5743391 -76.36226634 -8.5743391 -52.26953125 -12.71484375 C-33.2866147 -14.91070545 -15.50507932 -11.43254266 0 0 Z " fill="#FECF8D" transform="translate(562.65625,453.1328125)"/>
<path d="M0 0 C1.59369024 1.19464024 3.17796416 2.40200482 4.75 3.625 C5.36488281 4.06328125 5.97976563 4.5015625 6.61328125 4.953125 C22.63202728 17.17892657 28.88266177 39.67998997 31.75 58.625 C32.76624425 70.45758857 32.44520444 82.05155185 29.75 93.625 C29.53859375 94.6253125 29.3271875 95.625625 29.109375 96.65625 C26.18289763 108.51223523 19.36623626 119.26177507 9 125.9375 C-1.28575861 131.60547809 -13.70391674 133.93654554 -25.27050781 131.13574219 C-41.61272092 126.10057382 -54.16543978 115.58746965 -62.25 100.625 C-63.81118729 97.01778464 -65.08555541 93.37709925 -66.25 89.625 C-66.641875 88.42875 -67.03375 87.2325 -67.4375 86 C-72.31558173 65.73719898 -70.20711448 42.44430325 -61.25 23.625 C-60.80785156 22.65175781 -60.36570312 21.67851562 -59.91015625 20.67578125 C-54.88168473 10.04529901 -47.78792559 -1.09677692 -36.75 -6.3125 C-24.06681293 -10.31508369 -10.72339881 -7.26164094 0 0 Z " fill="#FECF8D" transform="translate(433.25,276.375)"/>
<path d="M0 0 C12.98670979 8.67015718 20.66016898 24.32029413 23.82177734 39.28564453 C27.27264011 58.0490403 29.81822654 81.53121825 20.3125 98.875 C19.97605469 99.5865625 19.63960937 100.298125 19.29296875 101.03125 C13.16267312 113.33516491 3.25451903 121.93491007 -9.4375 126.96484375 C-21.54235841 130.78280055 -32.42277861 129.53595136 -43.6875 123.875 C-56.94467884 116.33085956 -63.67202067 104.29931442 -68.0625 89.9375 C-72.88249343 70.89148338 -70.62593268 48.7177577 -65.6875 29.875 C-65.0275 29.875 -64.3675 29.875 -63.6875 29.875 C-63.57535156 28.96621094 -63.57535156 28.96621094 -63.4609375 28.0390625 C-61.52761535 15.71887235 -54.40421431 6.80297402 -44.6484375 -0.69140625 C-30.01366031 -10.45764202 -14.7079109 -8.55769782 0 0 Z " fill="#FECF8D" transform="translate(575.6875,258.125)"/>
<path d="M0 0 C0.94875 0.61875 1.8975 1.2375 2.875 1.875 C5.5968947 4.5968947 7.26983503 7.60915459 9 11 C9.35191406 11.6084375 9.70382812 12.216875 10.06640625 12.84375 C18.66784036 28.33267931 15.91357693 50.16913898 11.3125 66.5 C5.87301072 83.0199304 -3.38162627 98.40513275 -19 107 C-30.66289566 112.26768248 -43.09312133 112.95871232 -55.125 108.4140625 C-60.18102887 105.92726569 -64.82897623 102.79333264 -69 99 C-69 98.34 -69 97.68 -69 97 C-69.60714844 96.74476563 -70.21429687 96.48953125 -70.83984375 96.2265625 C-76.64622651 92.92962907 -79.01095241 85.04762447 -81 79 C-81.350625 78.11183594 -81.70125 77.22367187 -82.0625 76.30859375 C-83.23014091 72.18779437 -83.34359411 68.448725 -83.3125 64.1875 C-83.30686035 63.3843335 -83.3012207 62.58116699 -83.29541016 61.75366211 C-83.17743818 56.00749251 -82.61366107 51.18801897 -80 46 C-79.57460938 45.13375 -79.14921875 44.2675 -78.7109375 43.375 C-69.26901379 25.19803456 -52.98573791 5.21422783 -33.53515625 -3.046875 C-21.79140962 -6.38632902 -10.40652118 -6.97801614 0 0 Z " fill="#FECF8D" transform="translate(708,391)"/>
<path d="M0 0 C17.66217608 10.11193287 29.59795104 24.18606501 35.49609375 43.71484375 C38.92464334 60.17188179 36.04373179 77.01696996 26.96875 91.08203125 C22.72361889 97.01522627 17.70903734 100.96298308 11.49609375 104.71484375 C10.85494629 105.1420874 10.21379883 105.56933105 9.55322266 106.00952148 C3.52320956 109.77744235 -1.34150083 110.48271313 -8.37890625 110.27734375 C-9.35053711 110.25857178 -10.32216797 110.2397998 -11.32324219 110.22045898 C-22.66651072 109.83276077 -30.02717519 107.18640626 -38.28125 99.20703125 C-41.70926235 95.36331969 -44.19268593 91.3008298 -46.50390625 86.71484375 C-46.88160156 85.99683594 -47.25929688 85.27882813 -47.6484375 84.5390625 C-52.87940877 73.82242848 -53.7732128 63.40677796 -53.81640625 51.65234375 C-53.82188477 50.56445557 -53.82736328 49.47656738 -53.83300781 48.35571289 C-53.67739828 30.56122635 -49.78867812 12.28244737 -37.6875 -1.328125 C-28.18168751 -9.4573619 -10.1436322 -5.20632604 0 0 Z " fill="#FECF8D" transform="translate(338.50390625,424.28515625)"/>
<path d="M0 0 C0 0.66 0 1.32 0 2 C-1.45565672 3.22407497 -2.9156288 4.44375301 -4.40625 5.625 C-6.23536089 7.11818763 -6.23536089 7.11818763 -8.25 9.8125 C-8.8275 10.534375 -9.405 11.25625 -10 12 C-10.66 12 -11.32 12 -12 12 C-12.33 13.32 -12.66 14.64 -13 16 C-13.99 16 -14.98 16 -16 16 C-16.309375 16.78375 -16.61875 17.5675 -16.9375 18.375 C-18 21 -18 21 -19 23 C-19.66 23 -20.32 23 -21 23 C-21.33 23.66 -21.66 24.32 -22 25 C-21.39096941 21.90694578 -20.40131197 19.80360238 -18.5625 17.25 C-18.13066406 16.63640625 -17.69882812 16.0228125 -17.25390625 15.390625 C-16.63322266 14.70226562 -16.63322266 14.70226562 -16 14 C-15.34 14 -14.68 14 -14 14 C-13.773125 13.443125 -13.54625 12.88625 -13.3125 12.3125 C-11.62622733 9.34144815 -9.469646 7.35477875 -7 5 C-6.113125 4.071875 -5.22625 3.14375 -4.3125 2.1875 C-2 0 -2 0 0 0 Z " fill="#B13533" transform="translate(499,221)"/>
<path d="M0 0 C0 0.99 0 1.98 0 3 C-1.42061098 3.91324992 -2.84452382 4.82179692 -4.28515625 5.703125 C-6.95246176 7.72031277 -8.63716652 10.33624325 -10.5546875 13.046875 C-12.4575306 15.6182846 -14.7412782 17.7412782 -17 20 C-17.53625 20.9075 -18.0725 21.815 -18.625 22.75 C-20 25 -20 25 -23 26 C-21.72414356 21.01256118 -19.91418193 18.34137482 -16 15 C-15.01 14.67 -14.02 14.34 -13 14 C-12.31379969 12.67661368 -11.65213539 11.34050052 -11 10 C-7.70784289 5.61045718 -4.6854515 2.8330637 0 0 Z " fill="#AD3835" transform="translate(352,230)"/>
<path d="M0 0 C6.7963281 5.30113592 11.26115928 11.24146668 15 19 C10.66128161 15.64735397 8.04111002 12.6107152 5 8 C4.0925 7.29875 3.185 6.5975 2.25 5.875 C1.13625 4.946875 1.13625 4.946875 0 4 C0 2.68 0 1.36 0 0 Z " fill="#AE3633" transform="translate(611,228)"/>
<path d="M0 0 C0 0.99 0 1.98 0 3 C-2.5 4.5 -2.5 4.5 -5 6 C-6.20806856 7.49419006 -7.41537665 8.98922856 -8.59765625 10.50390625 C-11.00222374 13.06922477 -13.88696127 14.41296065 -17 16 C-15.74456576 12.23369729 -14.11311137 11.40558606 -11 9 C-10.195625 8.175 -9.39125 7.35 -8.5625 6.5 C-5.84851881 3.85221347 -3.19929052 2.00885684 0 0 Z " fill="#AF3633" transform="translate(244,377)"/>
<path d="M0 0 C0 0.33 0 0.66 0 1 C-1.03898437 1.04898438 -2.07796875 1.09796875 -3.1484375 1.1484375 C-10.29477316 1.52149114 -17.13118953 1.93861338 -24.08203125 3.79296875 C-26 4 -26 4 -29 2 C-19.2648233 -0.10084738 -9.89613084 -0.21105492 0 0 Z " fill="#AB2626" transform="translate(411,215)"/>
<path d="M0 0 C5.638857 3.759238 8.06822514 10.6543442 10 17 C9.67 17.66 9.34 18.32 9 19 C7.49212623 16.40011448 5.99354539 13.79559803 4.5 11.1875 C4.07074219 10.44951172 3.64148438 9.71152344 3.19921875 8.95117188 C2.79316406 8.23896484 2.38710938 7.52675781 1.96875 6.79296875 C1.40317383 5.81106567 1.40317383 5.81106567 0.82617188 4.80932617 C0 3 0 3 0 0 Z " fill="#AB302E" transform="translate(626,247)"/>
<path d="M0 0 C0.33 0 0.66 0 1 0 C2.32594359 5.96674616 2.0884587 11.92583615 2 18 C1.67 18 1.34 18 1 18 C0.67 14.7 0.34 11.4 0 8 C-0.66 8 -1.32 8 -2 8 C-1.125 2.25 -1.125 2.25 0 0 Z " fill="#EC8E51" transform="translate(349,739)"/>
<path d="M0 0 C-0.84304688 0.27714844 -1.68609375 0.55429687 -2.5546875 0.83984375 C-4.19824219 1.38318359 -4.19824219 1.38318359 -5.875 1.9375 C-6.96554687 2.29714844 -8.05609375 2.65679687 -9.1796875 3.02734375 C-11.90758682 3.89914074 -11.90758682 3.89914074 -14 5 C-15.99960012 5.039992 -18.00047242 5.04346799 -20 5 C-15.3572011 0.3572011 -6.28683017 -2.01007495 0 0 Z " fill="#B22E2C" transform="translate(285,362)"/>
<path d="M0 0 C1 3 1 3 0.0625 5.1875 C-0.4634375 6.0846875 -0.4634375 6.0846875 -1 7 C-1.66 7 -2.32 7 -3 7 C-3.144375 7.763125 -3.28875 8.52625 -3.4375 9.3125 C-4 12 -4 12 -5 15 C-5.66 15 -6.32 15 -7 15 C-7.33 15.66 -7.66 16.32 -8 17 C-8 16.01 -8 15.02 -8 14 C-7.34 14 -6.68 14 -6 14 C-5.89042969 13.36191406 -5.78085937 12.72382813 -5.66796875 12.06640625 C-5.50941406 11.24011719 -5.35085938 10.41382813 -5.1875 9.5625 C-5.03667969 8.73878906 -4.88585937 7.91507812 -4.73046875 7.06640625 C-4.36888672 6.04353516 -4.36888672 6.04353516 -4 5 C-3.01 4.67 -2.02 4.34 -1 4 C-0.26676204 1.98491642 -0.26676204 1.98491642 0 0 Z " fill="#AB3834" transform="translate(328,256)"/>
<path d="M0 0 C3.60654039 2.40436026 3.85452932 3.94679607 5 8 C5.66 8 6.32 8 7 8 C7 8.66 7 9.32 7 10 C5.1875 9.8125 5.1875 9.8125 3 9 C0.46629412 5.65188866 0 4.29875783 0 0 Z " fill="#AF3633" transform="translate(466,246)"/>
<path d="M0 0 C0 3.58912412 -0.66436554 4.10857029 -3 6.6875 C-3.556875 7.31011719 -4.11375 7.93273437 -4.6875 8.57421875 C-5.120625 9.04472656 -5.55375 9.51523437 -6 10 C-6.99 9.67 -7.98 9.34 -9 9 C-7.71034824 7.62437146 -6.37310707 6.29233607 -5 5 C-4.34 5 -3.68 5 -3 5 C-2.690625 4.360625 -2.38125 3.72125 -2.0625 3.0625 C-1 1 -1 1 0 0 Z " fill="#C36E5B" transform="translate(623,636)"/>
<path d="M0 0 C3.99500618 1.3697164 6.80009492 3.25722422 10 6 C6.05879291 5.43697042 3.2491277 4.3208055 0 2 C0 1.34 0 0.68 0 0 Z " fill="#B23834" transform="translate(441,225)"/>
</svg>
