<?xml version="1.0" encoding="UTF-8"?>
<svg version="1.1" xmlns="http://www.w3.org/2000/svg" width="1000" height="1000">
<path d="M0 0 C4.28910601 0.0000806 8.5781037 -0.00677235 12.8671875 -0.02050781 C43.354502 -0.11643921 73.72728876 0.54845084 104.17211914 2.18530273 C104.89828556 2.22424778 105.62445198 2.26319283 106.37262344 2.30331802 C114.89529488 2.76526048 123.40942876 3.31764518 131.92211914 3.93530273 C133.07750183 4.01767181 134.23288452 4.10004089 135.42327881 4.18490601 C203.70143522 9.09324895 271.53954719 18.07584852 339.11390686 28.85719299 C341.17772088 29.18619574 343.24173721 29.51390518 345.30578613 29.84143066 C353.2785069 31.1086468 361.24480952 32.40836665 369.2053833 33.75009155 C371.64667518 34.15911168 374.08916609 34.56105043 376.53289795 34.95523071 C396.0214706 38.11536977 412.51551922 42.1583526 424.79785156 58.89379883 C431.2690691 67.98092718 434.53756629 77.05152417 436.18383789 88.06811523 C436.34687912 89.10243683 436.50992035 90.13675842 436.67790222 91.2024231 C438.63251193 103.79532224 440.33756425 116.42405918 441.98461914 129.06030273 C442.15442291 130.35921448 442.32422668 131.65812622 442.49917603 132.99639893 C449.93298136 190.03624732 455.32523282 247.25127764 459.07446289 304.65014648 C459.13533585 305.57195206 459.1962088 306.49375763 459.25892639 307.4434967 C462.35010671 356.00260767 463.52251402 404.6223031 463.43286133 453.27197266 C463.42146191 459.50419592 463.4282771 465.73624829 463.43973827 471.96846581 C463.51190791 518.3377087 462.21091745 564.65183498 459.35961914 610.93530273 C459.27463793 612.3402923 459.18981342 613.74529134 459.10513306 615.15029907 C454.94735627 683.89208148 447.98551881 752.30123787 438.91381836 820.5612793 C438.35143822 824.80065023 437.80949456 829.04204027 437.28318787 833.286026 C436.88408069 836.48329917 436.46444513 839.67786441 436.04711914 842.87280273 C435.92506104 843.89801025 435.80300293 844.92321777 435.67724609 845.97949219 C433.77104162 859.94672865 427.29840713 871.56752846 416.45336914 880.55639648 C404.09649591 889.37971179 389.78500151 891.30909522 375.05883789 893.20092773 C373.70657646 893.37887036 372.3543695 893.5572273 371.00221252 893.73596191 C367.37747385 894.21279638 363.75160174 894.68035537 360.1252594 895.14482117 C357.83750574 895.43813793 355.55001638 895.73344691 353.26257324 896.0291748 C274.12595118 906.24545955 194.70218608 913.63148737 114.98461914 917.37280273 C113.81410004 917.42819717 113.81410004 917.42819717 112.61993408 917.48471069 C107.7770314 917.70950732 102.93350751 917.90300734 98.08856201 918.07815552 C96.04875483 918.15309601 94.00908856 918.23192725 91.96954346 918.31369019 C63.65389048 919.4300717 35.32789642 919.37309297 6.99445218 919.37041372 C2.30608577 919.37071598 -2.3822049 919.37912702 -7.07055664 919.39111328 C-43.36928303 919.48231266 -79.56826856 918.91990414 -115.82788086 917.18530273 C-116.66475937 917.14529774 -117.50163788 917.10529274 -118.36387634 917.06407547 C-128.27392754 916.58458705 -138.17662239 916.00921172 -148.07788086 915.37280273 C-149.41988149 915.28815313 -150.76189227 915.20366432 -152.10391235 915.11932373 C-216.9518677 911.02923971 -281.48097235 904.17190758 -345.82788086 895.18530273 C-346.71461487 895.06199585 -347.60134888 894.93868896 -348.51495361 894.81164551 C-353.17965974 894.161066 -357.84153641 893.49493564 -362.49957275 892.79812622 C-364.42232981 892.51166587 -366.34651414 892.23483476 -368.27075195 891.95849609 C-379.25121476 890.25296696 -387.89192899 886.75788509 -396.82788086 880.18530273 C-397.85913086 879.44280273 -398.89038086 878.70030273 -399.95288086 877.93530273 C-403.94684451 874.11498968 -406.87757353 869.84103161 -409.82788086 865.18530273 C-410.4350293 864.22817383 -410.4350293 864.22817383 -411.05444336 863.25170898 C-416.88940393 852.89576752 -417.46290728 839.56949793 -418.84350586 827.98608398 C-419.02137667 826.53184861 -419.19968849 825.07766712 -419.37840271 823.62353516 C-419.85501235 819.72768418 -420.32257952 815.83080358 -420.78719711 811.93350601 C-421.0809354 809.47220805 -421.37662017 807.01115046 -421.67276001 804.55014038 C-430.57450955 730.49060978 -437.69456055 656.27303218 -444.72073364 525.12130737 C-444.79518513 523.08121782 -444.87401352 521.04128519 -444.95626831 519.00149536 C-446.01415266 492.56569826 -446.01539919 466.12778613 -446.01318359 439.67431641 C-446.01310293 434.59420159 -446.01996497 429.51417812 -446.03369141 424.43408203 C-446.30491109 322.35634269 -439.19992079 220.66386056 -424.14038086 119.68530273 C-423.95415161 118.43066223 -423.76792236 117.17602173 -423.5760498 115.88336182 C-421.85003106 104.32522101 -420.07716837 92.78538714 -417.71459961 81.33764648 C-417.56138748 80.58644531 -417.40817535 79.83524414 -417.25032043 79.0612793 C-414.14681963 64.6889674 -404.30676603 54.23950471 -392.32788086 46.24780273 C-382.81409338 40.74771494 -373.23612219 37.44343314 -362.45288086 35.49780273 C-361.16873291 35.25852051 -359.88458496 35.01923828 -358.56152344 34.77270508 C-268.80659285 18.29133372 -177.95184858 6.9877368 -72.28793335 1.29244995 C-70.57212734 1.21771828 -68.85649711 1.13888665 -67.14102173 1.05691528 C-44.76746985 -0.00006027 -22.39375464 -0.00221973 0 0 Z " fill="#880005" transform="translate(490.827880859375,34.814697265625)"/>
<path d="M0 0 C1.29866452 0.47700416 2.61364686 0.91066003 3.9375 1.3125 C13.34547482 4.36703728 23.03839438 7.99356744 31 14 C31 14.66 31 15.32 31 16 C32.32 16.33 33.64 16.66 35 17 C35 17.66 35 18.32 35 19 C35.84111328 19.35578125 35.84111328 19.35578125 36.69921875 19.71875 C49.73028377 26.97543816 59.3948054 44.18441621 64 58 C66.00728787 58.85267999 66.00728787 58.85267999 68.48046875 59.31640625 C69.8562207 59.62674805 69.8562207 59.62674805 71.25976562 59.94335938 C72.22591797 60.14767578 73.19207031 60.35199219 74.1875 60.5625 C76.07735915 60.97803744 77.96669846 61.39594727 79.85546875 61.81640625 C80.74540527 62.01379395 81.6353418 62.21118164 82.55224609 62.41455078 C85.43447197 63.1039162 88.21646298 63.98482768 91 65 C91 65.66 91 66.32 91 67 C92.28777344 67.12568359 92.28777344 67.12568359 93.6015625 67.25390625 C97.56772141 68.12463769 100.03104883 69.65453087 103.375 71.9375 C104.43460938 72.64777344 105.49421875 73.35804688 106.5859375 74.08984375 C107.38257813 74.72019531 108.17921875 75.35054688 109 76 C109 76.66 109 77.32 109 78 C109.73734375 78.23976563 110.4746875 78.47953125 111.234375 78.7265625 C123.80824485 84.51622573 134.99425045 104.37680549 140 117 C140.44279297 118.0209375 140.44279297 118.0209375 140.89453125 119.0625 C152.88336023 147.33894125 157.07965349 179.99764053 157.203125 210.48046875 C157.20995804 211.64092712 157.21679108 212.8013855 157.22383118 213.99700928 C157.2408115 217.72720275 157.24715357 221.45727017 157.25 225.1875 C157.25200409 226.45457794 157.25400818 227.72165588 157.256073 229.02713013 C157.26202785 244.38226544 157.07698016 259.6488988 155.5625 274.9375 C155.4951062 275.61831635 155.4277124 276.29913269 155.35827637 277.00057983 C154.29175357 287.41649286 154.29175357 287.41649286 153 290 C152.63074074 292.81271705 152.29809511 295.61724076 152 298.4375 C151.13276492 306.60170524 151.13276492 306.60170524 150 310 C149.75040216 312.0809844 149.52605093 314.16500812 149.3125 316.25 C147.89043133 328.6440004 145.2215936 340.85909689 142.78027344 353.08398438 C142.04621724 356.76804614 141.32215708 360.45391011 140.6015625 364.140625 C140.17225741 366.32299193 139.74259055 368.50528773 139.3125 370.6875 C139.12260498 371.65872803 138.93270996 372.62995605 138.73706055 373.63061523 C137.560416 379.53942832 136.19332384 385.3735199 134.67871094 391.20507812 C133.78444057 394.88767061 133.13599649 398.59316444 132.52734375 402.33203125 C131.87771614 405.61866578 130.92931049 408.78132972 130 412 C129.27880692 414.82554718 128.60525453 417.66140849 127.9375 420.5 C127.76412109 421.22058594 127.59074219 421.94117188 127.41210938 422.68359375 C126.36768924 427.10937411 125.57575892 431.48889918 125 436 C124.34 436 123.68 436 123 436 C122.98582031 436.57363281 122.97164062 437.14726563 122.95703125 437.73828125 C122.55717803 444.85999133 120.95796702 451.35862788 119.07714844 458.19604492 C117.36580593 464.46834518 115.90862521 470.76485717 114.5625 477.125 C112.64650806 486.14267412 110.56253609 495.10657183 108.37792969 504.06274414 C106.91501985 510.09327699 105.51045268 516.13314974 104.16796875 522.19140625 C104.01328125 522.88728851 103.85859375 523.58317078 103.69921875 524.30014038 C102.94119476 527.71347609 102.18959248 531.12803268 101.44775391 534.54492188 C99.1484155 544.93701659 99.1484155 544.93701659 97.41796875 549.29296875 C95.72154336 553.72797618 94.85082357 558.09210149 94 562.75 C92.80540538 569.16841518 91.41606198 575.48991292 89.80322266 581.81689453 C88.35710304 587.54774791 87.02819185 593.30623577 85.6875 599.0625 C85.4631427 600.02420609 85.4631427 600.02420609 85.23425293 601.00534058 C82.76847212 611.58170215 80.37674568 622.17345213 78.04174805 632.77954102 C76.40855024 640.19758972 74.72029891 647.6016639 73 655 C72.34 655 71.68 655 71 655 C70.96334229 655.61206299 70.92668457 656.22412598 70.88891602 656.85473633 C70.26486351 665.27443117 68.65031677 673.43735028 66.9375 681.6875 C66.65245056 683.0825712 66.36794179 684.47775299 66.08398438 685.87304688 C65.39553655 689.24999265 64.69983559 692.62539344 64 696 C63.34 696 62.68 696 62 696 C62.061875 697.546875 62.061875 697.546875 62.125 699.125 C62.00053389 702.9834494 61.2514362 705.38473987 60 709 C59.46458125 711.55762017 59.01938325 714.12438727 58.57421875 716.69921875 C57.87779556 720.70246773 57.12803856 724.6945827 56.375 728.6875 C56.11194299 730.08723278 55.84891923 731.48697182 55.5859375 732.88671875 C55.39257812 733.91410156 55.19921875 734.94148437 55 736 C54.34 736 53.68 736 53 736 C52.67 738.97 52.34 741.94 52 745 C48.1817414 746.27275287 44.48225078 746.3273446 40.49609375 746.5 C39.62654556 746.54060547 38.75699738 746.58121094 37.86109924 746.62304688 C35.99741856 746.70909043 34.13363875 746.79300859 32.26977539 746.875 C29.55523225 746.99480399 26.84110712 747.12172096 24.12695312 747.25 C18.08574109 747.52955009 12.04314966 747.7667193 6 748 C4.32185211 748.06835556 4.32185211 748.06835556 2.60980225 748.13809204 C-25.64238375 749.25856913 -53.90765007 749.18778192 -82.17767042 749.18511117 C-86.86603568 749.18541302 -91.5543252 749.19382429 -96.24267578 749.20581055 C-132.54140217 749.29700992 -168.74038771 748.7346014 -205 747 C-205.83687851 746.959995 -206.67375702 746.91999001 -207.53599548 746.87877274 C-217.44604668 746.39928432 -227.34874153 745.82390898 -237.25 745.1875 C-238.59200063 745.1028504 -239.93401141 745.01836159 -241.27603149 744.934021 C-288.32298433 741.9666801 -335.1813106 737.47625522 -382 732 C-382 731.67 -382 731.34 -382 731 C-380.35 731 -378.7 731 -377 731 C-376.88785156 729.77410156 -376.77570313 728.54820312 -376.66015625 727.28515625 C-375.98976431 721.25162876 -374.71352424 715.36725971 -373.4375 709.4375 C-373.20353516 708.33341797 -372.96957031 707.22933594 -372.72851562 706.09179688 C-372.15618938 703.39368745 -371.57993998 700.69648125 -371 698 C-370.34 698 -369.68 698 -369 698 C-368.95101562 697.32195313 -368.90203125 696.64390625 -368.8515625 695.9453125 C-368.77679688 695.01460937 -368.70203125 694.08390625 -368.625 693.125 C-368.52058594 691.76761719 -368.52058594 691.76761719 -368.4140625 690.3828125 C-367.86090042 685.86358272 -366.92218673 681.45649334 -366 677 C-365.53166452 674.6421032 -365.0642793 672.28401753 -364.59765625 669.92578125 C-364.08640535 667.38792654 -363.57467799 664.85016777 -363.0625 662.3125 C-362.81048828 661.03310547 -362.55847656 659.75371094 -362.29882812 658.43554688 C-360.17294709 647.96925276 -360.17294709 647.96925276 -358.42578125 644.26171875 C-356.46762789 639.78210763 -355.86641852 635.31022856 -355.125 630.5 C-353.75567709 622.13439868 -352.19557437 613.84200326 -350.375 605.5625 C-350.16891113 604.62277344 -349.96282227 603.68304687 -349.75048828 602.71484375 C-348.89585837 598.86658319 -348.00912775 595.03595443 -347.0390625 591.21484375 C-345.50907051 585.18563804 -344.28570698 579.08483107 -343 573 C-340.09555158 559.2541946 -340.09555158 559.2541946 -338.95703125 554.92578125 C-337.53813785 549.4153312 -336.67556427 543.7873169 -335.6875 538.1875 C-334.27677801 530.36753331 -332.79038383 522.6473457 -330.625 515 C-326.80497013 501.4610458 -324.41207223 487.55020639 -321.73193359 473.75097656 C-321.14467288 470.74141231 -320.54456547 467.73526748 -319.93359375 464.73046875 C-318.77543338 458.96272092 -317.76944642 453.16857077 -316.75 447.375 C-315.34393764 439.42424951 -313.91332797 431.47978282 -312.41015625 423.546875 C-312.27694977 422.84289581 -312.14374329 422.13891663 -312.00650024 421.41360474 C-311.36068739 418.00451884 -310.71093094 414.59624573 -310.05566406 411.18896484 C-307.77008918 399.16733449 -305.80428833 387.24370766 -305.375 375 C-305.33777832 374.05068604 -305.30055664 373.10137207 -305.26220703 372.12329102 C-304.54341429 352.65791985 -305.50303302 333.35034645 -307.25146484 313.96142578 C-307.51750374 310.9754136 -307.76311066 307.98846775 -308 305 C-308.09047607 303.8855249 -308.18095215 302.7710498 -308.27416992 301.62280273 C-309.34995121 286.2951179 -309.29208917 270.92092552 -309.3125 255.5625 C-309.31365059 254.81015453 -309.31480118 254.05780907 -309.31598663 253.28266525 C-309.35257844 218.78616788 -307.49564455 185.29377071 -299.58056641 151.61962891 C-298.87168213 148.42100475 -298.38612979 145.25186413 -298 142 C-297.34 142 -296.68 142 -296 142 C-295.90976562 141.00484375 -295.81953125 140.0096875 -295.7265625 138.984375 C-295.0982065 134.6274815 -293.40088609 131.12150465 -291.375 127.25 C-290.83975708 126.20827637 -290.83975708 126.20827637 -290.29370117 125.14550781 C-282.0859391 109.40260204 -282.0859391 109.40260204 -275 104 C-274.2575 103.195625 -273.515 102.39125 -272.75 101.5625 C-269.18142931 98.23724094 -265.30383361 96.23275804 -261 94 C-260.05125 93.4225 -259.1025 92.845 -258.125 92.25 C-249.76321258 88.90528503 -239.67753007 89.86998659 -230.8125 89.9375 C-229.09836914 89.94426758 -229.09836914 89.94426758 -227.34960938 89.95117188 C-224.5663489 89.96281732 -221.78320428 89.97917003 -219 90 C-219.10441406 88.74703125 -219.10441406 88.74703125 -219.2109375 87.46875 C-218.95504442 83.26073045 -217.53735135 80.17185844 -215.625 76.5 C-215.27066895 75.80583984 -214.91633789 75.11167969 -214.55126953 74.39648438 C-210.70862557 67.09330112 -205.96961687 60.56521292 -201 54 C-200.37351562 53.12601562 -199.74703125 52.25203125 -199.1015625 51.3515625 C-196.15940054 47.26123978 -196.15940054 47.26123978 -195 46 C-194.34 46 -193.68 46 -193 46 C-192.76539063 45.44054687 -192.53078125 44.88109375 -192.2890625 44.3046875 C-186.68273491 34.28125333 -174.39456223 25.6334735 -164 21 C-163.01 21 -162.02 21 -161 21 C-161 20.34 -161 19.68 -161 19 C-139.40626729 10.20887561 -119.49740263 10.24066493 -97 16 C-97 16.66 -97 17.32 -97 18 C-95.865625 18.144375 -94.73125 18.28875 -93.5625 18.4375 C-90 19 -90 19 -89 20 C-85.27157113 20.43738364 -83.49946698 20.328117 -80.32421875 18.2421875 C-79.45410156 17.46101563 -78.58398438 16.67984375 -77.6875 15.875 C-69.3442416 8.70114709 -61.39304926 3.74309054 -51 0 C-50.14535156 -0.32226562 -49.29070312 -0.64453125 -48.41015625 -0.9765625 C-36.82879758 -4.61593218 -10.59540454 -7.06360302 0 0 Z " fill="#57292B" transform="translate(580,205)"/>
<path d="M0 0 C1.37562854 1.28965176 2.70766393 2.62689293 4 4 C4 4.66 4 5.32 4 6 C4.680625 6.2475 5.36125 6.495 6.0625 6.75 C23.51248526 14.17552564 29.68542094 27.99478543 37.28613281 44.32592773 C40.07791326 50.2624909 43.08213771 55.7361759 46.8203125 61.13671875 C48 63 48 63 48 65 C48.66 65 49.32 65 50 65 C51.110682 66.20739046 52.16465549 67.46734831 53.1875 68.75 C58.59553359 75.10247189 63.92712962 77.50265977 72.1875 78.3125 C77.27585559 77.89542167 81.39242821 76.11469794 86 74 C86.71800781 73.70867187 87.43601562 73.41734375 88.17578125 73.1171875 C90.48622993 71.70222321 90.91231239 70.45720522 92 68 C93.12347182 66.35946043 94.27113956 64.73532989 95.4375 63.125 C98.00171124 59.51373583 100.19349555 56.03806877 102 52 C102.66 52.33 103.32 52.66 104 53 C103.95359375 53.72703125 103.9071875 54.4540625 103.859375 55.203125 C103.50891967 64.96580912 104.96071389 73.77485473 111.3125 81.5 C117.15536608 87.53094117 123.35744048 90.0781641 131.6875 90.4375 C138.21134825 90.37377499 142.33116982 88.53005391 147 84 C148.73153795 81.7060822 149.775923 79.64400631 151 77 C151.66288954 75.66478478 152.3286876 74.33100033 153 73 C153.6290625 73.74765625 154.258125 74.4953125 154.90625 75.265625 C161.38538935 82.72053835 166.27163587 87.91554799 176.5 88.6875 C185.93009877 88.38794159 194.68535454 83.54419632 202.6953125 78.87109375 C215.59823246 71.56553978 230.02273769 71.80324603 244.1875 74.89453125 C257.78822598 78.83818438 269.3527395 86.80488596 278 98 C278.33 98.66 278.66 99.32 279 100 C279.43699219 99.05640625 279.43699219 99.05640625 279.8828125 98.09375 C285.33185558 86.71587388 290.63825957 80.68087022 302 75 C309.07712186 74.42227577 315.74232424 75.94433445 321.375 80.375 C323.83008045 82.83008045 325.51835881 84.87209082 327 88 C327 88.99 327 89.98 327 91 C328.11375 90.38125 329.2275 89.7625 330.375 89.125 C331.00148438 88.77695312 331.62796875 88.42890625 332.2734375 88.0703125 C334.1612614 86.99102726 334.1612614 86.99102726 336 85 C345.3326489 81.14432169 355.7135323 82.32180581 365.13671875 85.19921875 C381.10382264 89.66477987 398.58874908 88.20096671 415 88 C414.32385836 93.98868314 413.32247467 99.84489591 412.125 105.75 C411.96386719 106.56726563 411.80273438 107.38453125 411.63671875 108.2265625 C410.51664568 113.80087964 409.1973742 119.30637641 407.79882812 124.81689453 C406.36024404 130.5492476 405.02810995 136.3065874 403.6875 142.0625 C403.4631427 143.02420609 403.4631427 143.02420609 403.23425293 144.00534058 C400.76847212 154.58170215 398.37674568 165.17345213 396.04174805 175.77954102 C394.40855024 183.19758972 392.72029891 190.6016639 391 198 C390.34 198 389.68 198 389 198 C388.96334229 198.61206299 388.92668457 199.22412598 388.88891602 199.85473633 C388.26486351 208.27443117 386.65031677 216.43735028 384.9375 224.6875 C384.65245056 226.0825712 384.36794179 227.47775299 384.08398438 228.87304688 C383.39553655 232.24999265 382.69983559 235.62539344 382 239 C381.34 239 380.68 239 380 239 C380.061875 240.546875 380.061875 240.546875 380.125 242.125 C380.00053389 245.9834494 379.2514362 248.38473987 378 252 C377.46458125 254.55762017 377.01938325 257.12438727 376.57421875 259.69921875 C375.87779556 263.70246773 375.12803856 267.6945827 374.375 271.6875 C374.11194299 273.08723278 373.84891923 274.48697182 373.5859375 275.88671875 C373.39257812 276.91410156 373.19921875 277.94148438 373 279 C372.34 279 371.68 279 371 279 C370.67 281.97 370.34 284.94 370 288 C366.1817414 289.27275287 362.48225078 289.3273446 358.49609375 289.5 C357.62654556 289.54060547 356.75699738 289.58121094 355.86109924 289.62304688 C353.99741856 289.70909043 352.13363875 289.79300859 350.26977539 289.875 C347.55523225 289.99480399 344.84110712 290.12172096 342.12695312 290.25 C336.08574109 290.52955009 330.04314966 290.7667193 324 291 C322.32185211 291.06835556 322.32185211 291.06835556 320.60980225 291.13809204 C292.35761625 292.25856913 264.09234993 292.18778192 235.82232958 292.18511117 C231.13396432 292.18541302 226.4456748 292.19382429 221.75732422 292.20581055 C185.45859783 292.29700992 149.25961229 291.7346014 113 290 C112.16312149 289.959995 111.32624298 289.91999001 110.46400452 289.87877274 C100.55395332 289.39928432 90.65125847 288.82390898 80.75 288.1875 C79.40799937 288.1028504 78.06598859 288.01836159 76.72396851 287.934021 C29.67701567 284.9666801 -17.1813106 280.47625522 -64 275 C-64 274.67 -64 274.34 -64 274 C-62.35 274 -60.7 274 -59 274 C-58.88785156 272.77410156 -58.77570313 271.54820312 -58.66015625 270.28515625 C-57.98976431 264.25162876 -56.71352424 258.36725971 -55.4375 252.4375 C-55.20353516 251.33341797 -54.96957031 250.22933594 -54.72851562 249.09179688 C-54.15618938 246.39368745 -53.57993998 243.69648125 -53 241 C-52.34 241 -51.68 241 -51 241 C-50.95101562 240.32195312 -50.90203125 239.64390625 -50.8515625 238.9453125 C-50.77679688 238.01460937 -50.70203125 237.08390625 -50.625 236.125 C-50.55539063 235.22007812 -50.48578125 234.31515625 -50.4140625 233.3828125 C-49.86090042 228.86358272 -48.92218673 224.45649334 -48 220 C-47.53166452 217.6421032 -47.0642793 215.28401753 -46.59765625 212.92578125 C-46.08640535 210.38792654 -45.57467799 207.85016777 -45.0625 205.3125 C-44.68448242 203.3934082 -44.68448242 203.3934082 -44.29882812 201.43554688 C-42.17294709 190.96925276 -42.17294709 190.96925276 -40.42578125 187.26171875 C-38.46762789 182.78210763 -37.86641852 178.31022856 -37.125 173.5 C-35.75567709 165.13439868 -34.19557437 156.84200326 -32.375 148.5625 C-32.16891113 147.62277344 -31.96282227 146.68304687 -31.75048828 145.71484375 C-30.89585837 141.86658319 -30.00912775 138.03595443 -29.0390625 134.21484375 C-27.50907051 128.18563804 -26.28570698 122.08483107 -25 116 C-22.09555158 102.2541946 -22.09555158 102.2541946 -20.95703125 97.92578125 C-19.53813785 92.4153312 -18.67556427 86.7873169 -17.6875 81.1875 C-16.27678115 73.3675507 -14.79050511 65.6473012 -12.625 58 C-9.61722393 47.34578878 -7.6091088 36.48039787 -5.49853516 25.62109375 C-5.21540812 24.16662015 -4.93204627 22.71219224 -4.6484375 21.2578125 C-4.51172638 20.55666321 -4.37501526 19.85551392 -4.23416138 19.13311768 C-2.97036183 12.71979251 -1.5244408 6.35668277 0 0 Z " fill="#CB8D76" transform="translate(262,662)"/>
<path d="M0 0 C1.41569395 0.39929829 2.83221105 0.79570544 4.25 1.1875 C5.1575 1.455625 6.065 1.72375 7 2 C7 2.66 7 3.32 7 4 C7.84498047 4.13148438 7.84498047 4.13148438 8.70703125 4.265625 C18.87147363 7.52101711 26.33936732 20.13894699 31.10302734 29.06738281 C34.52684332 35.81130897 37.623008 42.64907646 40.0625 49.8125 C45.3674092 65.01221809 55.24858705 74.41260536 68.12304688 83.37133789 C69.7809791 84.5362512 71.39511113 85.76303032 73 87 C73 87.66 73 88.32 73 89 C73.58910156 89.25523437 74.17820312 89.51046875 74.78515625 89.7734375 C84.90311735 95.37668227 89.56412289 107.91469935 92.984375 118.21875 C98.42715133 138.48262497 96.06570977 162.83446924 86.08203125 181.24560547 C83.85758722 185.06004149 81.21040507 187.99224508 78 191 C77.443125 191.598125 76.88625 192.19625 76.3125 192.8125 C75 194 75 194 73 194 C73 194.66 73 195.32 73 196 C55.21929163 207.18362576 35.07841811 209.73362335 14.6875 205.1875 C13.11841988 204.82061046 11.54941046 204.45341844 9.98046875 204.0859375 C3.63631972 202.63183043 -2.78770763 201.8018401 -9.2355957 200.9519043 C-10.07566162 200.84015869 -10.91572754 200.72841309 -11.78125 200.61328125 C-12.52439453 200.51829346 -13.26753906 200.42330566 -14.03320312 200.32543945 C-16 200 -16 200 -19 199 C-23.28626843 198.7706763 -27.57506961 198.77162369 -31.86669922 198.75976562 C-33.96493734 198.75016051 -36.06215216 198.71917546 -38.16015625 198.6875 C-46.22740901 198.62434163 -53.28473144 199.51099295 -61 202 C-63.24523736 202.48112229 -65.49478981 202.94303188 -67.75 203.375 C-72.67138066 204.39873249 -77.31850548 205.71589809 -82.0625 207.375 C-108.74842314 216.54915748 -108.74842314 216.54915748 -122 215 C-122.99128906 214.90460938 -123.98257813 214.80921875 -125.00390625 214.7109375 C-135.7568043 213.33822711 -144.38712333 208.60413782 -151.30859375 200.1953125 C-165.58710888 179.60281178 -172.60038833 157.37767151 -168.26953125 132.16796875 C-164.61930483 114.2838218 -157.22640669 100.46455441 -142 90 C-138.26911068 87.63461797 -134.48720329 85.35491029 -130.69946289 83.08203125 C-120.04396106 77.07300422 -120.04396106 77.07300422 -111.33984375 68.77734375 C-110.89769531 68.19082031 -110.45554687 67.60429688 -110 67 C-109.34 67 -108.68 67 -108 67 C-107.71785645 66.41605469 -107.43571289 65.83210937 -107.14501953 65.23046875 C-106.08606372 63.16764992 -104.94200755 61.25562759 -103.6796875 59.3125 C-103.23117432 58.62003174 -102.78266113 57.92756348 -102.32055664 57.21411133 C-101.6050061 56.11812622 -101.6050061 56.11812622 -100.875 55 C-100.3792749 54.24033936 -99.8835498 53.48067871 -99.37280273 52.69799805 C-98.37382835 51.16843464 -97.37408384 49.6393739 -96.37353516 48.11083984 C-95.20742328 46.31876673 -94.06057016 44.51418508 -92.91796875 42.70703125 C-89.18504983 36.88367773 -85.09377069 31.5185923 -80.625 26.25 C-79.83814819 25.31764526 -79.83814819 25.31764526 -79.03540039 24.36645508 C-77.7371048 22.86904089 -76.37365347 21.42859961 -75 20 C-74.34 20 -73.68 20 -73 20 C-73 19.34 -73 18.68 -73 18 C-71.35 17.34 -69.7 16.68 -68 16 C-68 15.34 -68 14.68 -68 14 C-65.79881339 12.43027693 -63.60780103 10.98187197 -61.3125 9.5625 C-60.37374023 8.96985352 -60.37374023 8.96985352 -59.41601562 8.36523438 C-58.1809411 7.58797805 -56.94227492 6.81639747 -55.69995117 6.05078125 C-54.27071208 5.16733374 -52.85616483 4.26018 -51.4453125 3.34765625 C-48.55668466 1.75568084 -45.72088454 0.81991127 -42.5625 -0.125 C-41.47066406 -0.45757812 -40.37882813 -0.79015625 -39.25390625 -1.1328125 C-26.37550681 -4.56499098 -12.64621437 -4.04442113 0 0 Z " fill="#FEB9AA" transform="translate(568,447)"/>
<path d="M0 0 C37.18023446 26.98034713 56.9079103 75.30790466 64.41796875 119.27929688 C66.28246806 131.40964061 67.09164396 143.6914076 67.05078125 155.95703125 C67.04908936 156.63890503 67.04739746 157.32077881 67.0456543 158.02331543 C67.04129753 159.67961164 67.03457469 161.33590135 67.02734375 162.9921875 C16.70414847 163.33907043 -33.36017876 161.98898437 -83.59765625 158.9296875 C-84.68810493 158.8635601 -84.68810493 158.8635601 -85.80058289 158.7960968 C-90.62146414 158.50319214 -95.44170057 158.20131785 -100.26171875 157.89453125 C-101.49131317 157.81853195 -102.72090759 157.74253265 -103.98776245 157.66423035 C-105.11666901 157.59061783 -106.24557556 157.51700531 -107.40869141 157.44116211 C-108.39165192 157.37835556 -109.37461243 157.31554901 -110.38735962 157.25083923 C-112.68244253 157.02122258 -114.75928763 156.62440041 -116.97265625 155.9921875 C-117.22265625 150.3671875 -117.22265625 150.3671875 -114.97265625 146.9921875 C-114.40605658 145.31949852 -113.88837829 143.62975435 -113.41015625 141.9296875 C-112.06079184 137.16845869 -112.06079184 137.16845869 -110.97265625 134.9921875 C-111.73578125 135.4871875 -112.49890625 135.9821875 -113.28515625 136.4921875 C-118.26384075 138.51741509 -122.66257975 138.72070409 -127.97265625 137.9921875 C-132.1638475 135.68275559 -133.62448437 133.4957789 -134.97265625 128.9921875 C-135.35175757 125.40763873 -135.4009068 121.84484805 -135.41015625 118.2421875 C-135.41402344 117.20191406 -135.41789062 116.16164063 -135.421875 115.08984375 C-135.24997496 103.09981568 -132.75912676 91.61236241 -129.97265625 79.9921875 C-129.31265625 79.9921875 -128.65265625 79.9921875 -127.97265625 79.9921875 C-127.78703125 78.72375 -127.78703125 78.72375 -127.59765625 77.4296875 C-125.4562109 65.65173807 -120.03716509 56.16168227 -113.97265625 45.9921875 C-113.30215986 44.80684566 -112.63474968 43.61974337 -111.97265625 42.4296875 C-104.6111692 29.77713164 -96.18110634 17.58927479 -84.97265625 7.9921875 C-84.31265625 7.9921875 -83.65265625 7.9921875 -82.97265625 7.9921875 C-82.47765625 6.5071875 -82.47765625 6.5071875 -81.97265625 4.9921875 C-80.046875 3.38671875 -80.046875 3.38671875 -77.66015625 1.8046875 C-76.88027344 1.27488281 -76.10039062 0.74507812 -75.296875 0.19921875 C-72.97265625 -1.0078125 -72.97265625 -1.0078125 -68.97265625 -1.0078125 C-68.97265625 -1.6678125 -68.97265625 -2.3278125 -68.97265625 -3.0078125 C-66.41191175 -3.99178835 -63.84924133 -4.97011217 -61.28515625 -5.9453125 C-60.56392578 -6.22310547 -59.84269531 -6.50089844 -59.09960938 -6.78710938 C-58.39384766 -7.05458984 -57.68808594 -7.32207031 -56.9609375 -7.59765625 C-56.31680908 -7.84378662 -55.67268066 -8.08991699 -55.0090332 -8.34350586 C-37.12309505 -14.17825442 -15.30823981 -10.33959956 0 0 Z " fill="#FDBC59" transform="translate(422.97265625,791.0078125)"/>
<path d="M0 0 C3.85871332 3.63886521 8.74036664 8.31966741 9.265625 13.7421875 C9.26046875 14.77601563 9.2553125 15.80984375 9.25 16.875 C9.25773438 18.41800781 9.25773438 18.41800781 9.265625 19.9921875 C8.99679588 23.036282 8.28164154 25.2434535 7 28 C6.34 28 5.68 28 5 28 C4.62875 28.89138672 4.62875 28.89138672 4.25 29.80078125 C2.80937117 32.33538759 1.3603228 33.49969565 -1 35.1875 C-1.70125 35.69667969 -2.4025 36.20585938 -3.125 36.73046875 C-5 38 -5 38 -7 39 C-7 40.98 -7 42.96 -7 45 C-5.515 45.495 -5.515 45.495 -4 46 C-4 46.66 -4 47.32 -4 48 C-3.360625 48.268125 -2.72125 48.53625 -2.0625 48.8125 C0 50 0 50 1 53 C2.485 53.495 2.485 53.495 4 54 C5.85110249 56.06627841 7.56121103 58.11998654 9.25 60.3125 C9.73799072 60.94188477 10.22598145 61.57126953 10.72875977 62.21972656 C23.44703815 78.91417357 30.20909115 96.2871055 27.5703125 117.4453125 C25.47002133 129.03580823 20.51371951 142.41728297 11 150 C10.01 150 9.02 150 8 150 C8 150.66 8 151.32 8 152 C6.3954444 151.85851011 4.79136233 151.71164314 3.1875 151.5625 C2.29417969 151.48128906 1.40085937 151.40007812 0.48046875 151.31640625 C-2 151 -2 151 -5 150 C-9.28626843 149.7706763 -13.57506961 149.77162369 -17.86669922 149.75976562 C-19.96493734 149.75016051 -22.06215216 149.71917546 -24.16015625 149.6875 C-32.22740901 149.62434163 -39.28473144 150.51099295 -47 153 C-49.24523736 153.48112229 -51.49478981 153.94303188 -53.75 154.375 C-60.15035933 155.70549045 -66.20325286 157.66325856 -72.3671875 159.79296875 C-85.02912621 164 -85.02912621 164 -91 164 C-91.95868411 161.12394766 -92.13163945 159.29911421 -92.14526367 156.31103516 C-92.15164352 155.35798492 -92.15802338 154.40493469 -92.16459656 153.42300415 C-92.16570938 152.38880341 -92.1668222 151.35460266 -92.16796875 150.2890625 C-92.17129715 149.2111142 -92.17462555 148.13316589 -92.17805481 147.02255249 C-92.18312715 144.72760443 -92.18546304 142.43264897 -92.18530273 140.13769531 C-92.18745244 136.70103874 -92.20550062 133.26472313 -92.22460938 129.828125 C-92.25243224 119.26452027 -92.09557698 108.77469559 -91.12890625 98.25 C-91.0532695 97.40660065 -90.97763275 96.56320129 -90.89970398 95.69424438 C-90.18570967 88.84422064 -88.26563971 83.07897475 -85 77 C-84.54496094 76.071875 -84.08992188 75.14375 -83.62109375 74.1875 C-78.09748936 63.35100092 -70.14879117 53.99243838 -61 46 C-60.34 46 -59.68 46 -59 46 C-59 45.34 -59 44.68 -59 44 C-58.21882813 43.29746094 -57.43765625 42.59492187 -56.6328125 41.87109375 C-53.52023331 38.47681229 -52.72988603 35.44684406 -51.875 31.0625 C-49.45960432 19.40984787 -44.07049109 10.65704064 -34.43359375 3.5390625 C-24.59951554 -2.68024218 -10.59964371 -6.43171994 0 0 Z " fill="#E97563" transform="translate(554,496)"/>
<path d="M0 0 C0 0.66 0 1.32 0 2 C1.2684375 2.12375 1.2684375 2.12375 2.5625 2.25 C9.28528847 3.71679021 14.17940504 7.68708603 19.0625 12.3125 C19.58416748 12.80250488 20.10583496 13.29250977 20.64331055 13.79736328 C37.04986986 29.36420669 44.11617844 49.43974733 45.18359375 71.85546875 C45.35719869 81.87349506 44.54010248 91.55972672 41 101 C40.65023242 102.32911682 40.30903983 103.66082739 40 105 C39.34 105 38.68 105 38 105 C37.896875 105.70125 37.79375 106.4025 37.6875 107.125 C35.18144829 117.60485261 27.38684187 126.60405331 19 133 C17.95005859 133.81984375 17.95005859 133.81984375 16.87890625 134.65625 C7.24826184 141.66035503 -3.29035922 143.12301512 -15 142 C-23.77928476 140.35388411 -31.06419533 137.64247364 -38 132 C-38.79792969 131.37480469 -39.59585937 130.74960937 -40.41796875 130.10546875 C-56.37164965 116.77363308 -65.74907317 97.56784389 -68 77 C-68.82695451 62.89008874 -67.89897613 47.98516758 -62 35 C-61.52820313 33.89140625 -61.05640625 32.7828125 -60.5703125 31.640625 C-54.64896825 18.66466486 -44.88231344 6.21936281 -31.19921875 0.9140625 C-21.02666015 -2.02317959 -10.37873263 -1.66059722 0 0 Z " fill="#FDB9AA" transform="translate(479,269)"/>
<path d="M0 0 C12.9946124 10.77553244 19.99177901 25.67255477 22.5390625 42.16796875 C24.05891678 59.8115668 21.82871295 76.39325158 13.5390625 92.16796875 C13.12140625 93.03292969 12.70375 93.89789063 12.2734375 94.7890625 C9.36497701 100.54747997 5.85400241 105.64610736 1.9140625 110.73046875 C1.44661621 111.33866455 0.97916992 111.94686035 0.49755859 112.57348633 C-1.87037541 115.54667134 -3.82667143 117.86270418 -7.4609375 119.16796875 C-7.4609375 119.82796875 -7.4609375 120.48796875 -7.4609375 121.16796875 C-20.23103023 131.41862346 -32.86394804 131.6043612 -48.4609375 131.16796875 C-48.4609375 130.50796875 -48.4609375 129.84796875 -48.4609375 129.16796875 C-49.5746875 129.12671875 -50.6884375 129.08546875 -51.8359375 129.04296875 C-61.25943278 127.84209855 -68.98447125 120.89754983 -74.64355469 113.65429688 C-87.73693477 96.07090833 -90.72755202 73.9700759 -88.15332031 52.61621094 C-87.48143292 48.40677472 -86.56962756 44.28596039 -85.4609375 40.16796875 C-84.8009375 40.16796875 -84.1409375 40.16796875 -83.4609375 40.16796875 C-83.3990625 39.23984375 -83.3371875 38.31171875 -83.2734375 37.35546875 C-81.24175046 23.38762034 -70.19610449 9.01792048 -59.2734375 0.640625 C-40.93192478 -12.75108211 -18.6055467 -13.85079588 0 0 Z " fill="#FDB9AA" transform="translate(632.4609375,282.83203125)"/>
<path d="M0 0 C13.59202196 11.74695111 21.09105209 26.11434214 23.33984375 43.92578125 C23.56566204 48.38358997 23.60980582 52.83911659 23.63500977 57.30175781 C23.64644971 58.70355386 23.66677296 60.10530915 23.6965332 61.50683594 C24.00551389 76.12386645 22.08253764 90.29555957 12.33984375 101.92578125 C4.83830544 109.15710977 -0.97654444 110.27081837 -11.29394531 110.30859375 C-27.8831864 109.94909778 -41.19951981 98.91905131 -52.66015625 87.92578125 C-53.62695312 87.01892578 -53.62695312 87.01892578 -54.61328125 86.09375 C-56.01002876 84.75248078 -57.343814 83.34604525 -58.66015625 81.92578125 C-58.66015625 81.26578125 -58.66015625 80.60578125 -58.66015625 79.92578125 C-59.32015625 79.92578125 -59.98015625 79.92578125 -60.66015625 79.92578125 C-62.37061192 77.70975727 -63.93580957 75.5087612 -65.47265625 73.17578125 C-66.14542603 72.16100708 -66.14542603 72.16100708 -66.83178711 71.12573242 C-76.83158295 55.65829162 -78.04786673 41.5816824 -75.390625 23.73046875 C-74.59801167 20.68717264 -73.35479995 18.55798107 -71.66015625 15.92578125 C-71.24765625 14.85328125 -70.83515625 13.78078125 -70.41015625 12.67578125 C-65.58252972 1.3210066 -55.5571031 -5.97993378 -44.66015625 -11.07421875 C-30.06377464 -15.24461349 -11.51367891 -8.97762629 0 0 Z " fill="#FDB9AA" transform="translate(414.66015625,386.07421875)"/>
<path d="M0 0 C8.30965469 7.18102995 13.66974709 15.03610149 15.1796875 26.01171875 C15.33966408 28.82563 15.36469592 31.63123668 15.3671875 34.44921875 C15.37943359 35.17431641 15.39167969 35.89941406 15.40429688 36.64648438 C15.41723085 41.44499004 14.63672029 45.39871919 13.1796875 50.01171875 C12.9940625 51.89890625 12.9940625 51.89890625 12.8046875 53.82421875 C10.85667025 70.31952611 -1.15606252 85.94302336 -12.8203125 97.01171875 C-13.66722656 97.81738281 -14.51414062 98.62304688 -15.38671875 99.453125 C-25.39522826 108.17643265 -36.27113863 109.97417523 -49.17578125 109.44921875 C-56.69985526 108.89541244 -63.52040084 107.09423758 -69.1328125 101.8515625 C-74.66241801 95.17367197 -75.08303032 89.39103463 -74.8203125 81.01171875 C-74.82675781 80.33367187 -74.83320312 79.655625 -74.83984375 78.95703125 C-74.60942047 73.14158648 -72.35324254 68.44331573 -69.82861328 63.30981445 C-66.75073897 57.02924523 -64.18512193 50.58555494 -61.66186523 44.06518555 C-59.89812705 39.54967022 -57.96695825 35.22730611 -55.7512207 30.91674805 C-54.2809959 27.9080504 -53.16883983 24.77517304 -52.0078125 21.63671875 C-47.80723997 10.79997028 -41.83829502 1.58227126 -31.2578125 -3.80078125 C-20.43933709 -7.53807275 -9.50142009 -6.69836957 0 0 Z " fill="#FCB8A9" transform="translate(703.8203125,366.98828125)"/>
<path d="M0 0 C5.11464771 0.78686888 7.96857841 3.61814808 11.25 7.5 C17.3205346 17.19928992 15.71924412 28.66432464 14.25 39.5 C13.59 39.5 12.93 39.5 12.25 39.5 C12.20875 40.28375 12.1675 41.0675 12.125 41.875 C9.90149011 51.08668385 2.91818829 60.4791628 -4.79296875 65.94921875 C-9.14882501 68.35041611 -12.73890925 69.20331098 -17.75 68.5 C-24.95335524 66.28549701 -29.0567167 63.13473133 -32.85546875 56.59765625 C-35.60122542 50.15891681 -33.75715755 42.86259467 -31.28515625 36.625 C-28.64354288 31.24766998 -25.39715463 26.26487909 -22.13671875 21.24609375 C-20.28318817 18.38479066 -18.65295248 15.4881901 -17.125 12.4375 C-14.46813158 7.51142013 -10.14243683 2.57331335 -4.67578125 0.84375 C-3.11665838 0.56544815 -1.55822011 0.28331275 0 0 Z " fill="#EA7563" transform="translate(674.75,383.5)"/>
<path d="M0 0 C2.95416589 2.47511196 4.57120392 4.14083524 5 8 C5.60325751 20.46732186 -0.55262453 29.31396378 -8.625 38.4375 C-14.77027966 45.17068548 -21.4502168 50.52564244 -30.8046875 51.203125 C-37.54155991 51.30597801 -42.24218281 51.0835677 -47.6328125 46.66015625 C-49.36820497 44.55289396 -49.37388758 43.45105347 -49.3125 40.75 C-49.30863281 40.02296875 -49.30476562 39.2959375 -49.30078125 38.546875 C-48.9081289 35.22207848 -47.98366555 32.19863272 -47 29 C-46.65582031 27.86820312 -46.31164062 26.73640625 -45.95703125 25.5703125 C-42.53780611 15.27762793 -37.94206579 6.22833273 -28 1 C-18.96381863 -2.76639434 -8.7863399 -5.46705594 0 0 Z " fill="#EA7563" transform="translate(630,342)"/>
<path d="M0 0 C1 3 1 3 -0.3125 6.125 C-2 9 -2 9 -4 10 C-3.43454163 6.04179141 -2.19097652 3.3340947 0 0 Z " fill="#713E3D" transform="translate(709,439)"/>
</svg>
