<?xml version="1.0" encoding="UTF-8"?>
<svg version="1.1" xmlns="http://www.w3.org/2000/svg" width="1000" height="1000">
<path d="M0 0 C4.28910601 0.0000806 8.5781037 -0.00677235 12.8671875 -0.02050781 C43.354502 -0.11643921 73.72728876 0.54845084 104.17211914 2.18530273 C104.89828556 2.22424778 105.62445198 2.26319283 106.37262344 2.30331802 C114.89529488 2.76526048 123.40942876 3.31764518 131.92211914 3.93530273 C133.07750183 4.01767181 134.23288452 4.10004089 135.42327881 4.18490601 C203.70143522 9.09324895 271.53954719 18.07584852 339.11390686 28.85719299 C341.17772088 29.18619574 343.24173721 29.51390518 345.30578613 29.84143066 C353.2785069 31.1086468 361.24480952 32.40836665 369.2053833 33.75009155 C371.64667518 34.15911168 374.08916609 34.56105043 376.53289795 34.95523071 C396.0214706 38.11536977 412.51551922 42.1583526 424.79785156 58.89379883 C431.2690691 67.98092718 434.53756629 77.05152417 436.18383789 88.06811523 C436.34687912 89.10243683 436.50992035 90.13675842 436.67790222 91.2024231 C438.63251193 103.79532224 440.33756425 116.42405918 441.98461914 129.06030273 C442.15442291 130.35921448 442.32422668 131.65812622 442.49917603 132.99639893 C449.93298136 190.03624732 455.32523282 247.25127764 459.07446289 304.65014648 C459.13533585 305.57195206 459.1962088 306.49375763 459.25892639 307.4434967 C462.35010671 356.00260767 463.52251402 404.6223031 463.43286133 453.27197266 C463.42146191 459.50419592 463.4282771 465.73624829 463.43973827 471.96846581 C463.51190791 518.3377087 462.21091745 564.65183498 459.35961914 610.93530273 C459.27463793 612.3402923 459.18981342 613.74529134 459.10513306 615.15029907 C454.94735627 683.89208148 447.98551881 752.30123787 438.91381836 820.5612793 C438.35143822 824.80065023 437.80949456 829.04204027 437.28318787 833.286026 C436.88408069 836.48329917 436.46444513 839.67786441 436.04711914 842.87280273 C435.92506104 843.89801025 435.80300293 844.92321777 435.67724609 845.97949219 C433.77104162 859.94672865 427.29840713 871.56752846 416.45336914 880.55639648 C404.09647248 889.37972852 389.7850148 891.30904572 375.05883789 893.20092773 C373.70721698 893.37882197 372.35565089 893.55713319 371.00413513 893.73582458 C367.37970745 894.2127052 363.75414413 894.68028314 360.1280899 895.14461899 C357.83471377 895.43849413 355.54157562 895.734172 353.24847412 896.03018188 C286.27182521 904.66281317 219.13136337 911.18451447 151.73461914 915.43530273 C150.53910431 915.512435 149.34358948 915.58956726 148.11184692 915.66903687 C102.75859651 918.55749573 57.35602232 919.52874254 11.91894531 919.44604492 C5.62849837 919.43467034 -0.6617788 919.44144314 -6.95221996 919.45292187 C-53.79902671 919.5252559 -100.63652469 918.43263052 -147.39038086 915.37280273 C-148.72278304 915.28772903 -150.05520135 915.20290757 -151.38763428 915.11831665 C-212.10265816 911.25224248 -272.60030285 905.12455456 -332.89038086 896.99780273 C-334.10120331 896.83549164 -335.31202576 896.67318054 -336.55953979 896.50595093 C-348.41998203 894.90702886 -360.25937291 893.20781033 -372.05053711 891.15405273 C-372.93467789 891.00575516 -373.81881866 890.85745758 -374.72975159 890.70466614 C-387.94438383 888.31197942 -398.72394313 881.08424847 -406.57788086 870.24780273 C-407.68210552 868.57389854 -408.76725853 866.88716866 -409.82788086 865.18530273 C-410.23006836 864.54979492 -410.63225586 863.91428711 -411.04663086 863.25952148 C-416.89618728 852.9120107 -417.46314343 839.5675166 -418.84350586 827.98608398 C-419.02137667 826.53184861 -419.19968849 825.07766712 -419.37840271 823.62353516 C-419.85501235 819.72768418 -420.32257952 815.83080358 -420.78719711 811.93350601 C-421.0809354 809.47220805 -421.37662017 807.01115046 -421.67276001 804.55014038 C-430.57450955 730.49060978 -437.69456055 656.27303218 -444.72073364 525.12130737 C-444.79518513 523.08121782 -444.87401352 521.04128519 -444.95626831 519.00149536 C-446.01415266 492.56569826 -446.01539919 466.12778613 -446.01318359 439.67431641 C-446.01310293 434.59420159 -446.01996497 429.51417812 -446.03369141 424.43408203 C-446.30491109 322.35634269 -439.19992079 220.66386056 -424.14038086 119.68530273 C-423.95415161 118.43066223 -423.76792236 117.17602173 -423.5760498 115.88336182 C-421.85003106 104.32522101 -420.07716837 92.78538714 -417.71459961 81.33764648 C-417.56138748 80.58644531 -417.40817535 79.83524414 -417.25032043 79.0612793 C-414.14681963 64.6889674 -404.30676603 54.23950471 -392.32788086 46.24780273 C-382.81409338 40.74771494 -373.23612219 37.44343314 -362.45288086 35.49780273 C-361.16873291 35.25852051 -359.88458496 35.01923828 -358.56152344 34.77270508 C-268.80659285 18.29133372 -177.95184858 6.9877368 -72.28793335 1.29244995 C-70.57212734 1.21771828 -68.85649711 1.13888665 -67.14102173 1.05691528 C-44.76746985 -0.00006027 -22.39375464 -0.00221973 0 0 Z " fill="#880005" transform="translate(490.827880859375,34.814697265625)"/>
<path d="M0 0 C1.22074219 -0.020625 2.44148438 -0.04125 3.69921875 -0.0625 C11.42643123 -0.09555759 18.06482911 0.74168165 25.375 3.25 C27.22738281 3.88421875 27.22738281 3.88421875 29.1171875 4.53125 C30.15101563 4.9334375 31.18484375 5.335625 32.25 5.75 C33.29929687 6.1521875 34.34859375 6.554375 35.4296875 6.96875 C40.83328426 9.31938626 43.72167626 11.68334532 47.375 16.25 C48.5815625 16.930625 48.5815625 16.930625 49.8125 17.625 C52.83956243 19.54460056 54.21712808 21.61369561 56.1875 24.55078125 C57.69261732 26.70448531 59.49011796 28.4259206 61.375 30.25 C64.94628337 34.13639661 66.19060968 37.21634113 67.375 42.25 C68.035 42.25 68.695 42.25 69.375 42.25 C83.94293614 74.5444071 85.01763546 106.39444109 84.375 141.25 C85.035 141.25 85.695 141.25 86.375 141.25 C86.58382813 140.7240625 86.79265625 140.198125 87.0078125 139.65625 C88.95063546 136.23688159 91.55785804 133.59708538 94.25 130.75 C94.77980469 130.18152344 95.30960938 129.61304688 95.85546875 129.02734375 C100.12172082 124.46467714 104.32848539 119.96848445 109.375 116.25 C110.035 116.25 110.695 116.25 111.375 116.25 C111.705 115.26 112.035 114.27 112.375 113.25 C114.58984375 111.86328125 114.58984375 111.86328125 117.3125 110.5625 C118.20839844 110.12550781 119.10429688 109.68851562 120.02734375 109.23828125 C122.375 108.25 122.375 108.25 124.375 108.25 C124.375 107.59 124.375 106.93 124.375 106.25 C127.28100261 104.99335022 129.17104584 104.25 132.375 104.25 C132.375 103.59 132.375 102.93 132.375 102.25 C143.54128003 99.18974707 153.881721 98.91917001 165.375 99.25 C165.375 99.91 165.375 100.57 165.375 101.25 C166.40625 101.311875 167.4375 101.37375 168.5 101.4375 C181.90012242 103.23680972 192.54386865 109.10799057 201.20703125 119.43359375 C202.375 121.25 202.375 121.25 202.375 123.25 C203.035 123.25 203.695 123.25 204.375 123.25 C207.375 129 207.375 129 207.375 131.25 C208.035 131.25 208.695 131.25 209.375 131.25 C209.55675781 131.89066406 209.73851562 132.53132812 209.92578125 133.19140625 C210.17714844 134.05636719 210.42851563 134.92132813 210.6875 135.8125 C211.05294922 137.08287109 211.05294922 137.08287109 211.42578125 138.37890625 C212.36204052 141.37383792 212.36204052 141.37383792 213.8828125 144.6171875 C215.4265892 148.37559673 216.23181448 151.81630374 216.9375 155.8125 C217.06044434 156.50577393 217.18338867 157.19904785 217.31005859 157.91333008 C221.89116295 184.17533423 223.12118548 209.94529549 218.375 236.25 C218.22514648 237.1167334 218.07529297 237.9834668 217.92089844 238.87646484 C216.22188151 248.61064145 214.12953653 257.80103533 210.58984375 267.04296875 C209.40577536 270.16875701 208.39813654 273.29920687 207.4375 276.5 C206.09471035 280.96871696 204.66272526 285.39430052 203.16113281 289.8112793 C200.60683145 297.32901656 198.30292391 304.83276281 196.33203125 312.52734375 C195.80079943 314.5937271 195.25548382 316.6571488 194.65454102 318.7043457 C186.11399467 348.18180971 189.26143423 378.39855004 193.375 408.25 C193.55654403 409.60934445 193.73785959 410.96871942 193.91894531 412.328125 C194.17949707 414.23851562 194.17949707 414.23851562 194.4453125 416.1875 C194.60016113 417.33089844 194.75500977 418.47429687 194.91455078 419.65234375 C195.10522941 422.17117559 195.10522941 422.17117559 196.375 423.25 C197.05762168 426.84865463 197.46664175 430.49330862 197.9375 434.125 C198.07607422 435.1253125 198.21464844 436.125625 198.35742188 437.15625 C199.24082199 443.89271984 199.54833626 450.45890306 199.375 457.25 C200.035 457.25 200.695 457.25 201.375 457.25 C201.47989746 458.19746094 201.47989746 458.19746094 201.58691406 459.1640625 C203.04538733 472.18246051 204.71147722 485.11738672 207.01660156 498.015625 C208.02126347 503.72002741 208.7157122 509.35766293 209.12451172 515.13720703 C209.15201115 517.23332414 209.15201115 517.23332414 210.375 518.25 C210.68738898 520.00272263 210.94138784 521.76588909 211.171875 523.53125 C211.32358154 524.66844482 211.47528809 525.80563965 211.6315918 526.97729492 C211.7944165 528.2222876 211.95724121 529.46728027 212.125 530.75 C212.4786657 533.38177212 212.83365733 536.01331577 213.19140625 538.64453125 C213.28496902 539.33380203 213.3785318 540.02307281 213.47492981 540.73323059 C214.49989315 548.23958447 215.60179468 555.73409636 216.7298584 563.22558594 C216.95151536 564.69950304 217.17181305 566.1736252 217.39074707 567.64794922 C217.69839847 569.7176679 218.01059443 571.78664781 218.32421875 573.85546875 C218.50299561 575.04293701 218.68177246 576.23040527 218.8659668 577.45385742 C219.22991079 580.19297666 219.22991079 580.19297666 220.375 582.25 C220.6587678 584.62501307 220.90035753 586.99421721 221.125 589.375 C222.40261884 601.83603372 224.48209963 614.1846677 226.46617126 626.54812622 C227.09497739 630.47083295 227.70594963 634.39563457 228.296875 638.32421875 C228.42908447 639.19506104 228.56129395 640.06590332 228.69750977 640.96313477 C228.93099583 642.50601689 229.1609895 644.04943414 229.38647461 645.59350586 C229.85005724 648.6163831 230.4328686 651.42338577 231.40234375 654.328125 C232.47486032 657.54998199 232.88324399 660.49934772 233.25 663.875 C234.16839671 671.83022232 235.25291589 679.75858735 236.375 687.6875 C236.62419189 689.4821167 236.62419189 689.4821167 236.87841797 691.31298828 C237.59676214 696.36965097 238.34493424 701.37050229 239.5 706.34765625 C240.375 710.25 240.375 710.25 240.375 714.25 C242.025 714.25 243.675 714.25 245.375 714.25 C245.375 714.58 245.375 714.91 245.375 715.25 C186.42385268 721.02092398 127.32566818 726.08716231 68.11239624 728.1499939 C65.11844881 728.25937266 62.12540607 728.3857827 59.13208008 728.51098633 C33.74121776 729.50315338 8.33892907 729.43738317 -17.06762695 729.43530273 C-22.26590515 729.43522227 -27.46409371 729.44205091 -32.66235352 729.45581055 C-70.37086817 729.55416065 -107.95150886 728.7915297 -145.625 727.25 C-145.625 726.92 -145.625 726.59 -145.625 726.25 C-143.975 726.25 -142.325 726.25 -140.625 726.25 C-140.74617187 725.54101562 -140.86734375 724.83203125 -140.9921875 724.1015625 C-142.44753292 714.85452162 -143.19047623 705.61479537 -143.87451172 696.28393555 C-144.85287384 682.96924708 -146.05621902 669.6886145 -147.6875 656.4375 C-148.5061273 649.78615317 -148.97027589 643.15317486 -149.3515625 636.4609375 C-150.11543262 623.97254932 -151.56788786 611.54256234 -153.57177734 599.19458008 C-154.3931704 593.87505633 -154.80354126 588.5877367 -155.07421875 583.21484375 C-155.49752056 575.03261276 -156.4429605 566.97973618 -157.55212402 558.86529541 C-160.027507 540.73136033 -162.0841002 522.55973865 -164.01269531 504.36035156 C-164.11352417 503.42417999 -164.21435303 502.48800842 -164.3182373 501.52346802 C-164.50829766 499.75879547 -164.69474173 497.99372862 -164.8770752 496.22824097 C-164.96386595 492.42266981 -164.96386595 492.42266981 -166.625 489.25 C-167.11977336 486.60624113 -167.57213791 483.96715155 -168 481.3125 C-168.97285257 475.50930723 -170.10542975 469.92140354 -171.9765625 464.328125 C-172.70550282 461.992003 -173.17937189 459.65471017 -173.625 457.25 C-174.285 457.25 -174.945 457.25 -175.625 457.25 C-176.615 453.95 -177.605 450.65 -178.625 447.25 C-179.285 447.25 -179.945 447.25 -180.625 447.25 C-181.81640625 445.5625 -181.81640625 445.5625 -183.1875 443.25 C-186.13264403 438.63545503 -189.57323496 435.3582474 -193.76953125 431.87890625 C-195.625 430.25 -195.625 430.25 -196.625 428.25 C-197.346875 427.96125 -198.06875 427.6725 -198.8125 427.375 C-202.11092366 426.05563053 -204.77887082 424.36804962 -207.625 422.25 C-207.625 421.59 -207.625 420.93 -207.625 420.25 C-208.2037085 420.12778076 -208.78241699 420.00556152 -209.37866211 419.87963867 C-211.69300321 419.230939 -213.47854094 418.35808476 -215.56640625 417.17578125 C-216.30914795 416.75868896 -217.05188965 416.34159668 -217.81713867 415.91186523 C-218.59935791 415.46657471 -219.38157715 415.02128418 -220.1875 414.5625 C-221.82009189 413.64283743 -223.4529035 412.72356479 -225.0859375 411.8046875 C-225.87194336 411.36092773 -226.65794922 410.91716797 -227.46777344 410.45996094 C-230.06540813 409.00298068 -232.68613866 407.59192887 -235.3125 406.1875 C-250.29012808 398.01997624 -263.87765459 388.87464714 -276.67578125 377.55371094 C-277.59617187 376.74015137 -277.59617187 376.74015137 -278.53515625 375.91015625 C-279.08308838 375.42168213 -279.63102051 374.93320801 -280.19555664 374.42993164 C-281.63610371 373.15091085 -281.63610371 373.15091085 -283.625 372.25 C-283.625 371.59 -283.625 370.93 -283.625 370.25 C-284.22441406 369.99992187 -284.82382812 369.74984375 -285.44140625 369.4921875 C-287.93543641 368.07340111 -288.95724018 366.73175264 -290.5625 364.375 C-292.24763349 361.90597433 -293.68142562 360.20558758 -296.046875 358.34375 C-298.90084109 356.0259836 -300.801321 353.61001849 -302.9375 350.625 C-303.63488281 349.66335938 -304.33226562 348.70171875 -305.05078125 347.7109375 C-306.625 345.25 -306.625 345.25 -306.625 343.25 C-307.285 343.25 -307.945 343.25 -308.625 343.25 C-310.625 340.25 -310.625 340.25 -310.625 337.25 C-311.285 337.25 -311.945 337.25 -312.625 337.25 C-313.56685192 334.79326003 -314.50350968 332.33472864 -315.4375 329.875 C-315.82905273 328.85599609 -315.82905273 328.85599609 -316.22851562 327.81640625 C-317.05370537 325.63627532 -317.84534726 323.4468181 -318.625 321.25 C-318.90802979 320.47277588 -319.19105957 319.69555176 -319.48266602 318.89477539 C-321.68725972 312.33599455 -322.0579181 306.32497517 -321.9375 299.4375 C-321.9269458 298.38449707 -321.9163916 297.33149414 -321.90551758 296.24658203 C-321.73779769 286.40954519 -321.52308052 277.02572759 -316.625 268.25 C-316.33625 266.991875 -316.0475 265.73375 -315.75 264.4375 C-313.63873303 255.44758902 -307.50276347 247.19172949 -301.625 240.25 C-300.965 240.25 -300.305 240.25 -299.625 240.25 C-299.295 239.26 -298.965 238.27 -298.625 237.25 C-293.50932625 232.22387853 -288.67702561 229.40396783 -281.625 228.25 C-281.625 227.59 -281.625 226.93 -281.625 226.25 C-279.25425875 225.4433322 -276.87952308 224.65502782 -274.5 223.875 C-273.85417969 223.65328125 -273.20835937 223.4315625 -272.54296875 223.203125 C-258.54748345 218.67125357 -244.27596114 218.9942244 -229.75 219.125 C-227.79036919 219.13505604 -225.83073335 219.14417722 -223.87109375 219.15234375 C-219.12226913 219.17413511 -214.37369177 219.20851835 -209.625 219.25 C-210.73674512 217.96611613 -211.85039476 216.68388128 -212.96484375 215.40234375 C-213.58480225 214.68812256 -214.20476074 213.97390137 -214.84350586 213.23803711 C-216.69600632 211.11766218 -216.69600632 211.11766218 -219.1875 208.8125 C-221.96324817 205.89440577 -223.97013681 202.76680557 -226.14453125 199.390625 C-228.01368662 196.68799402 -230.27497424 194.53651155 -232.625 192.25 C-233.63687895 190.59051852 -234.6376546 188.92419438 -235.625 187.25 C-236.32625 186.569375 -237.0275 185.88875 -237.75 185.1875 C-239.72232587 183.14942993 -240.23048202 182.01162584 -240.625 179.25 C-241.285 179.25 -241.945 179.25 -242.625 179.25 C-243.94921964 177.04799468 -245.25926729 174.83938174 -246.5625 172.625 C-246.93568359 172.00753906 -247.30886719 171.39007813 -247.69335938 170.75390625 C-249.93549171 166.91602208 -251.18808177 163.75788649 -251.625 159.25 C-252.285 159.25 -252.945 159.25 -253.625 159.25 C-262.38843015 135.99108476 -265.92864178 112.91802506 -255.42578125 89.5859375 C-251.68576772 82.35441632 -246.49379082 74.76377682 -239.625 70.25 C-238.965 70.25 -238.305 70.25 -237.625 70.25 C-237.625 69.59 -237.625 68.93 -237.625 68.25 C-236.19205502 67.40885829 -234.75345595 66.57734313 -233.3125 65.75 C-232.11173828 65.05390625 -232.11173828 65.05390625 -230.88671875 64.34375 C-228.625 63.25 -228.625 63.25 -225.625 63.25 C-225.625 62.59 -225.625 61.93 -225.625 61.25 C-224.98433594 61.06824219 -224.34367187 60.88648438 -223.68359375 60.69921875 C-219.65441822 59.52829591 -215.83644285 58.34478473 -212 56.625 C-195.19290131 49.7776635 -169.14867754 53.18734815 -152.625 59.8125 C-149.72180026 61.10684322 -147.87392053 62.00107947 -145.625 64.25 C-144.03839977 64.9183378 -142.43089186 65.53781734 -140.8125 66.125 C-136.76199333 67.69312472 -133.95293713 69.4340532 -130.625 72.25 C-129.21830896 73.01854718 -127.8002831 73.76650663 -126.375 74.5 C-120.17087508 77.84627843 -114.5499408 82.3625888 -110.625 88.25 C-109.8825 88.6625 -109.14 89.075 -108.375 89.5 C-105.27230063 91.47444505 -103.412296 93.66409513 -101.1015625 96.484375 C-99.49933443 98.4533694 -99.49933443 98.4533694 -97 100.875 C-90.625 107.25 -90.625 107.25 -90.625 110.25 C-89.965 109.92 -89.305 109.59 -88.625 109.25 C-88.65980469 108.36441406 -88.69460938 107.47882813 -88.73046875 106.56640625 C-89.15711012 87.04248472 -84.33626739 68.12922172 -76.625 50.25 C-76.2125 49.13625 -75.8 48.0225 -75.375 46.875 C-72.05398884 39.21112808 -66.81187514 31.82431325 -60.625 26.25 C-59.965 26.25 -59.305 26.25 -58.625 26.25 C-58.315625 25.38375 -58.315625 25.38375 -58 24.5 C-56.12426262 21.43061157 -53.63905737 20.15685262 -50.625 18.25 C-49.60631338 17.26904252 -48.60148017 16.27297922 -47.625 15.25 C-44.625 13.25 -44.625 13.25 -41.625 13.25 C-41.625 12.59 -41.625 11.93 -41.625 11.25 C-40.19070999 10.57645501 -38.75242943 9.91140299 -37.3125 9.25 C-36.51199219 8.87875 -35.71148437 8.5075 -34.88671875 8.125 C-32.625 7.25 -32.625 7.25 -29.625 7.25 C-29.625 6.59 -29.625 5.93 -29.625 5.25 C-27.89755984 4.59956281 -26.1679631 3.95485156 -24.4375 3.3125 C-23.47457031 2.95285156 -22.51164062 2.59320313 -21.51953125 2.22265625 C-14.40486562 -0.16810184 -7.43914487 0.03083583 0 0 Z " fill="#FDBC58" transform="translate(521.625,224.75)"/>
<path d="M0 0 C1.18118408 0.01450195 1.18118408 0.01450195 2.38623047 0.02929688 C23.39223094 0.45685642 39.06276433 8.37303119 53.6484375 23.39453125 C56.53858298 26.6171113 58.3125 28.87515276 58.3125 33.25 C58.9725 33.25 59.6325 33.25 60.3125 33.25 C61.15411854 35.33000011 61.98550763 37.41414146 62.8125 39.5 C63.2765625 40.66015625 63.740625 41.8203125 64.21875 43.015625 C65.3125 46.25 65.3125 46.25 65.3125 50.25 C65.9725 50.25 66.6325 50.25 67.3125 50.25 C68.3125 51.91666667 69.3125 53.58333333 70.3125 55.25 C78.06685019 64.41423204 90.41777696 69.0206687 101.375 73.1875 C114.60578513 78.49239483 122.29832252 86.23022857 128.40234375 99.12109375 C130.68105672 104.45113054 130.97687038 109.51263327 131.3125 115.25 C131.3736499 116.28882324 131.3736499 116.28882324 131.43603516 117.34863281 C132.43454772 136.95347102 127.9384935 153.36490446 115 168.5625 C104.03618676 180.07911055 88.08313866 188.05402434 72 188.515625 C70.10416679 188.52087662 68.20827715 188.51549682 66.3125 188.5 C65.36632812 188.50773438 64.42015625 188.51546875 63.4453125 188.5234375 C55.01420191 188.50008262 48.30174617 186.73074156 40.4375 183.625 C32.0343099 180.60904011 32.0343099 180.60904011 23.3125 181.25 C19.67592423 183.22333569 16.53838321 185.67240522 13.3125 188.25 C6.97286694 192.94397918 0.81946823 195.84122203 -6.6875 198.25 C-7.780625 198.62125 -8.87375 198.9925 -10 199.375 C-11.3303125 199.808125 -11.3303125 199.808125 -12.6875 200.25 C-13.48027344 200.59160156 -14.27304687 200.93320312 -15.08984375 201.28515625 C-20.36930303 202.70103729 -25.49560053 202.57848678 -30.9375 202.5625 C-32.01902344 202.57861328 -33.10054688 202.59472656 -34.21484375 202.61132812 C-49.19837737 202.62036524 -62.60277467 196.54272959 -74.4296875 187.51171875 C-75.6875 186.25 -75.6875 186.25 -75.6875 184.25 C-76.3475 184.25 -77.0075 184.25 -77.6875 184.25 C-87.09557001 174.23944274 -93.21181731 160.68340334 -92.95703125 146.85546875 C-91.63918622 134.11630008 -84.74024156 124.20911013 -77.74609375 113.921875 C-66.12090521 96.78972923 -59.0515 80.68683758 -55.40234375 60.21875 C-52.22151226 42.38165927 -52.22151226 42.38165927 -48.6875 34.25 C-48.25824219 33.17878906 -48.25824219 33.17878906 -47.8203125 32.0859375 C-42.07799622 18.27590413 -33.68056177 9.59271674 -19.99609375 3.4765625 C-13.25794365 0.97859422 -7.18351893 -0.09371845 0 0 Z " fill="#E07743" transform="translate(508.6875,460.75)"/>
<path d="M0 0 C3.23417962 20.70422606 3.23417962 20.70422606 3.7890625 29.19921875 C3.81374678 31.02042657 3.81374678 31.02042657 5 32 C5.31238898 33.75272263 5.56638784 35.51588909 5.796875 37.28125 C6.02443481 38.98704224 6.02443481 38.98704224 6.2565918 40.72729492 C6.50082886 42.59478394 6.50082886 42.59478394 6.75 44.5 C7.1036657 47.13177212 7.45865733 49.76331577 7.81640625 52.39453125 C7.90996902 53.08380203 8.0035318 53.77307281 8.09992981 54.48323059 C9.12489315 61.98958447 10.22679468 69.48409636 11.3548584 76.97558594 C11.57651536 78.44950304 11.79681305 79.9236252 12.01574707 81.39794922 C12.32339847 83.4676679 12.63559443 85.53664781 12.94921875 87.60546875 C13.12799561 88.79293701 13.30677246 89.98040527 13.4909668 91.20385742 C13.85491079 93.94297666 13.85491079 93.94297666 15 96 C15.2837678 98.37501307 15.52535753 100.74421721 15.75 103.125 C17.02761884 115.58603372 19.10709963 127.9346677 21.09117126 140.29812622 C21.71997739 144.22083295 22.33094963 148.14563457 22.921875 152.07421875 C23.05408447 152.94506104 23.18629395 153.81590332 23.32250977 154.71313477 C23.55599583 156.25601689 23.7859895 157.79943414 24.01147461 159.34350586 C24.47505724 162.3663831 25.0578686 165.17338577 26.02734375 168.078125 C27.09986032 171.29998199 27.50824399 174.24934772 27.875 177.625 C28.79339671 185.58022232 29.87791589 193.50858735 31 201.4375 C31.16612793 202.63391113 31.33225586 203.83032227 31.50341797 205.06298828 C32.22176214 210.11965097 32.96993424 215.12050229 34.125 220.09765625 C35 224 35 224 35 228 C36.65 228 38.3 228 40 228 C40 228.33 40 228.66 40 229 C-23.8681431 235.04937438 -23.8681431 235.04937438 -49.1875 236.875 C-50.02731415 236.93611969 -50.8671283 236.99723938 -51.73239136 237.06021118 C-65.70553245 238.06881838 -65.70553245 238.06881838 -72 238 C-71.01 237.34 -70.02 236.68 -69 236 C-70.4540625 234.8553125 -70.4540625 234.8553125 -71.9375 233.6875 C-76.94219279 229.41094899 -81.15738295 224.33261142 -85 219 C-85 218.34 -85 217.68 -85 217 C-85.66 217 -86.32 217 -87 217 C-105.50264471 193.39662621 -111.58723184 162.896431 -108.765625 133.56347656 C-105.41957445 107.92876695 -95.1197743 84.75594017 -80 64 C-79.443125 63.17628906 -78.88625 62.35257813 -78.3125 61.50390625 C-66.70317955 44.66538758 -50.90668584 29.43437065 -34 18 C-33.05398926 17.35780518 -33.05398926 17.35780518 -32.08886719 16.70263672 C-7.34205342 0 -7.34205342 0 0 0 Z " fill="#FEE8C9" transform="translate(727,711)"/>
<path d="M0 0 C0.82927002 0.00757324 1.65854004 0.01514648 2.51293945 0.02294922 C13.08378301 0.30594005 20.60945835 3.66330329 28.625 10.4375 C29.635625 11.200625 30.64625 11.96375 31.6875 12.75 C45.87663245 25.73154671 52.59025166 46.63101703 53.56640625 65.5625 C53.58574219 66.51125 53.60507812 67.46 53.625 68.4375 C53.64933105 69.07300781 53.67366211 69.70851563 53.69873047 70.36328125 C54.66766015 96.69891029 47.61096872 123.43680973 29.625 143.4375 C28.965 143.4375 28.305 143.4375 27.625 143.4375 C27.41746094 144.02144531 27.20992187 144.60539063 26.99609375 145.20703125 C25.10415589 148.28479911 22.82283031 149.37301543 19.6875 151.125 C18.62660156 151.72699219 17.56570313 152.32898438 16.47265625 152.94921875 C8.55578072 157.08684506 -3.21132668 156.61460264 -11.8125 154.375 C-17.31645146 152.37526212 -21.85427311 149.10174651 -26.375 145.4375 C-27.06464844 144.88578125 -27.75429688 144.3340625 -28.46484375 143.765625 C-37.72892924 135.47380986 -46.18997517 120.50185759 -47.0625 107.9375 C-47.12824219 107.0815625 -47.19398438 106.225625 -47.26171875 105.34375 C-47.29910156 104.7146875 -47.33648437 104.085625 -47.375 103.4375 C-48.035 103.4375 -48.695 103.4375 -49.375 103.4375 C-55.24336945 77.08223363 -52.54230399 44.84435006 -38.375 21.4375 C-36.21986917 18.28145066 -34.05433347 15.17207745 -31.375 12.4375 C-30.715 12.4375 -30.055 12.4375 -29.375 12.4375 C-29.375 11.7775 -29.375 11.1175 -29.375 10.4375 C-27.28515625 8.81640625 -27.28515625 8.81640625 -24.4375 7 C-23.06271484 6.10474609 -23.06271484 6.10474609 -21.66015625 5.19140625 C-14.55613835 1.39865472 -8.02750999 -0.10349598 0 0 Z " fill="#E17743" transform="translate(527.375,263.5625)"/>
<path d="M0 0 C1.91796875 1.39453125 1.91796875 1.39453125 3.4921875 3.0078125 C4.981309 4.65717193 4.981309 4.65717193 7.91796875 5.39453125 C9.62905564 7.01556093 11.29050181 8.68956588 12.91796875 10.39453125 C13.66046875 11.13703125 14.40296875 11.87953125 15.16796875 12.64453125 C16.07546875 13.55203125 16.98296875 14.45953125 17.91796875 15.39453125 C18.58957031 16.01972656 19.26117188 16.64492188 19.953125 17.2890625 C26.01884487 23.06346134 30.54114209 29.27258963 34.91796875 36.39453125 C35.40265625 37.14476562 35.88734375 37.895 36.38671875 38.66796875 C39.81450872 44.29038035 41.47285258 50.22802004 43.12109375 56.55078125 C43.63351878 59.27344249 43.63351878 59.27344249 44.91796875 60.39453125 C46.92945534 76.40115445 43.89052569 89.25789513 34.60546875 102.39453125 C33.1796875 104.20703125 33.1796875 104.20703125 31.91796875 105.39453125 C31.25796875 105.39453125 30.59796875 105.39453125 29.91796875 105.39453125 C29.91796875 106.05453125 29.91796875 106.71453125 29.91796875 107.39453125 C18.05527889 118.02542939 3.37904104 121.15109564 -12.08203125 120.39453125 C-21.40407758 118.53012198 -29.43352525 113.87864167 -37.08203125 108.39453125 C-37.82839844 107.88019531 -38.57476562 107.36585938 -39.34375 106.8359375 C-39.91738281 106.36027344 -40.49101562 105.88460937 -41.08203125 105.39453125 C-41.08203125 104.73453125 -41.08203125 104.07453125 -41.08203125 103.39453125 C-41.65179688 103.17667969 -42.2215625 102.95882812 -42.80859375 102.734375 C-50.38783845 98.26756927 -56.6605076 86.21707356 -60.08203125 78.39453125 C-60.08203125 77.40453125 -60.08203125 76.41453125 -60.08203125 75.39453125 C-60.74203125 75.39453125 -61.40203125 75.39453125 -62.08203125 75.39453125 C-64.5582322 69.51528319 -66.75471694 63.56987622 -68.76953125 57.51953125 C-68.98375732 56.87749756 -69.1979834 56.23546387 -69.41870117 55.57397461 C-71.88505009 48.08842379 -72.32866612 41.71389206 -72.39453125 33.83203125 C-72.42353516 32.70216797 -72.45253906 31.57230469 -72.48242188 30.40820312 C-72.57620641 17.87714613 -68.92848301 8.45810093 -60.234375 -0.51171875 C-42.51054913 -17.14322136 -18.68706314 -11.67539401 0 0 Z " fill="#E07743" transform="translate(391.08203125,326.60546875)"/>
<path d="M0 0 C16.27815537 -0.59626943 30.63897157 5.07808859 43.13671875 15.1953125 C43.95398438 15.80761719 44.77125 16.41992188 45.61328125 17.05078125 C55.55035698 25.49575737 63.18043817 40.57853148 64.88671875 53.5078125 C64.99820048 55.06855672 65.07808294 56.63169089 65.13671875 58.1953125 C65.18828125 59.2678125 65.23984375 60.3403125 65.29296875 61.4453125 C65.64362786 74.77035849 63.19777295 87.01660475 53.82421875 96.9453125 C41.67114787 108.16552506 27.14389728 110.02270389 11.16796875 109.51171875 C-4.39021191 108.69701672 -17.98198356 103.64781399 -28.74609375 92.19140625 C-40.04131279 79.10224066 -47.69924845 62.79748614 -47.14453125 45.30078125 C-45.82324788 30.71161069 -41.19576447 19.69009574 -29.86328125 10.1953125 C-26.59376425 7.88971685 -23.97578966 6.1953125 -19.86328125 6.1953125 C-19.86328125 5.5353125 -19.86328125 4.8753125 -19.86328125 4.1953125 C-13.21800764 1.74948263 -7.04861941 0.48080624 0 0 Z " fill="#E17743" transform="translate(316.86328125,479.8046875)"/>
<path d="M0 0 C6.39343864 4.93178079 9.43434682 11.48750133 12.375 18.83203125 C12.9628125 20.06953125 12.9628125 20.06953125 13.5625 21.33203125 C18.79016273 37.41714736 17.49785841 61.23886934 11.375 76.83203125 C11.07464844 77.65703125 10.77429688 78.48203125 10.46484375 79.33203125 C4.05848856 95.30631952 -7.51341632 107.0077595 -22.625 114.83203125 C-27.66585557 116.73495423 -32.28832125 117.46130882 -37.625 117.83203125 C-38.43324219 117.89777344 -39.24148438 117.96351563 -40.07421875 118.03125 C-49.62511952 118.46606338 -57.34968853 114.84207116 -64.625 108.83203125 C-64.625 108.17203125 -64.625 107.51203125 -64.625 106.83203125 C-65.22183594 106.58582031 -65.81867187 106.33960938 -66.43359375 106.0859375 C-72.29644842 102.73125595 -75.27479256 95.17391545 -77.1015625 88.94140625 C-82.052407 68.99024185 -76.9629126 47.95252289 -66.73974609 30.62011719 C-57.24142924 15.38453405 -41.63825558 2.01508756 -24.4375 -3.53515625 C-15.37382078 -5.57448408 -7.95161596 -4.93508723 0 0 Z " fill="#E07743" transform="translate(688.625,375.16796875)"/>
<path d="M0 0 C27.2037129 5.07187868 53.52368457 22.94644303 71 44 C71.75925781 44.88300781 72.51851563 45.76601563 73.30078125 46.67578125 C77.96179821 52.14867053 82.37033176 57.72522676 86.5625 63.5625 C87.20699097 64.45606201 87.20699097 64.45606201 87.86450195 65.36767578 C89.65818009 67.90279917 91.01168368 70.03505103 92 73 C70.8136564 73.33600399 49.67079456 72.74684831 28.5 72 C27.82188137 71.97608437 27.14376274 71.95216873 26.44509506 71.92752838 C17.96305734 71.62753437 9.48137872 71.31808366 1 71 C1 70.67 1 70.34 1 70 C2.65 70 4.3 70 6 70 C5.87882812 69.29101562 5.75765625 68.58203125 5.6328125 67.8515625 C4.17844633 58.61074358 3.42996575 49.37693727 2.75488281 40.05151367 C2.16886916 31.99845846 1.46240058 23.96651595 0.609375 15.93725586 C0.06555514 10.59608966 -0.07509948 5.36961307 0 0 Z " fill="#FEE7C9" transform="translate(375,881)"/>
</svg>
