<?xml version="1.0" encoding="UTF-8"?>
<svg version="1.1" xmlns="http://www.w3.org/2000/svg" width="1000" height="1000">
<path d="M0 0 C0.96963306 0.00026688 1.93926613 0.00053375 2.93828201 0.00080872 C34.12625313 0.01156481 65.23379393 0.32269773 96.375 2.1875 C97.45378418 2.25066406 98.53256836 2.31382813 99.64404297 2.37890625 C187.31017002 7.53499387 274.23106978 19.06206209 360.80511475 33.48883057 C363.06852951 33.86575223 365.3323947 34.23998091 367.59674072 34.61126709 C390.00215352 38.30035222 407.53918876 43.00700954 421.625 62.375 C429.95040543 76.15923291 431.23464636 91.67329417 433.25 107.3125 C433.59232396 109.89265943 433.93527313 112.47273597 434.27880859 115.05273438 C435.25633612 122.4375657 436.19806015 129.82674017 437.12728882 137.2177887 C437.3691116 139.14067756 437.61191178 141.06344343 437.85473633 142.98620605 C446.54430354 211.97864714 452.52077243 281.27548672 455.5625 350.75 C455.59952026 351.59437622 455.63654053 352.43875244 455.67468262 353.30871582 C455.89860737 358.53768245 456.09237229 363.76726744 456.26785278 368.99807739 C456.34410677 371.2679094 456.42288695 373.53765715 456.50338745 375.80734253 C457.4707717 403.57788649 457.57530356 431.3396953 457.5625 459.125 C457.56238041 460.2778159 457.56226082 461.43063179 457.5621376 462.6183815 C457.55740542 498.74812653 457.27307384 534.80893562 455.53320312 570.90252686 C455.37323964 574.22405254 455.21948297 577.54582625 455.06640625 580.86767578 C451.29936344 661.40789518 443.67374306 741.72848044 432.85357666 821.61846924 C432.35293603 825.35204411 431.87068097 829.08777139 431.38818359 832.82373047 C431.05512677 835.3187871 430.72132943 837.81374503 430.38671875 840.30859375 C430.24418167 841.44047623 430.10164459 842.5723587 429.95478821 843.73854065 C427.96546134 858.23950296 422.9090783 870.00111835 411.5 879.5625 C398.441864 889.26679864 384.02370254 891.15641846 368.19921875 893.203125 C366.85115839 893.38114455 365.50314228 893.55949942 364.15516663 893.73815918 C360.54410007 894.21455679 356.93197227 894.68233164 353.31938171 895.14701843 C351.03872716 895.44055979 348.75830169 895.73583255 346.47790527 896.03137207 C266.02529575 906.43948002 185.23537857 913.73795497 104.1875 917.375 C102.96335388 917.43039444 102.96335388 917.43039444 101.71447754 917.48690796 C95.60251932 917.7579814 89.4893715 917.97875893 83.375 918.1875 C82.18435944 918.22986786 80.99371887 918.27223572 79.76699829 918.31588745 C52.325619 919.27011697 24.89348362 919.38956366 -2.5625 919.375 C-3.6934761 919.37473312 -4.82445221 919.37446625 -5.98970032 919.37419128 C-42.90856818 919.36328237 -79.74564192 919.03823589 -116.625 917.1875 C-117.90705322 917.12433594 -119.18910645 917.06117188 -120.51000977 916.99609375 C-196.17508127 913.25495578 -271.52492772 906.18508256 -346.5620079 895.7333107 C-348.66192094 895.44105991 -350.76205674 895.15045094 -352.86221313 894.85995483 C-356.77541211 894.31732104 -360.68665839 893.76141353 -364.59765625 893.203125 C-365.74179993 893.0439711 -366.8859436 892.8848172 -368.0647583 892.72084045 C-385.0104988 890.2611954 -396.29097218 886.28960593 -408.625 874.1875 C-409.20378906 873.63320313 -409.78257812 873.07890625 -410.37890625 872.5078125 C-418.94588688 863.51583805 -421.61238652 851.55646038 -423 839.625 C-423.1927594 838.10040652 -423.38700727 836.57600071 -423.58251953 835.05175781 C-424.15796477 830.50424248 -424.7004804 825.95317605 -425.24023438 821.40130615 C-425.65441992 817.9417662 -426.08000264 814.48375994 -426.5078125 811.02587891 C-436.64109078 729.03565252 -444.45263633 646.70758143 -449.75 539.75 C-449.78870209 538.85811981 -449.82740417 537.96623962 -449.86727905 537.04733276 C-450.15016494 530.42838898 -450.39276736 523.80839368 -450.625 517.1875 C-450.66843536 516.00292206 -450.71187073 514.81834412 -450.75662231 513.59786987 C-451.73202785 486.4427264 -451.82524026 459.29542705 -451.8125 432.125 C-451.81238041 430.99256992 -451.81226082 429.86013985 -451.8121376 428.69339371 C-451.8074901 393.8498646 -451.57599969 359.06743759 -449.78320312 324.262146 C-449.62299063 321.14844822 -449.4693476 318.03447278 -449.31640625 314.92041016 C-446.23755598 253.20752016 -440.15443861 191.72736387 -431.35203552 130.57548523 C-431.06885342 128.60667194 -430.78727691 126.63762793 -430.5057373 124.6685791 C-428.59586918 111.38322716 -426.54961622 98.12236311 -424.16015625 84.9140625 C-423.98077011 83.86245941 -423.80138397 82.81085632 -423.61656189 81.72738647 C-420.97333067 67.67688986 -412.14690239 56.49504062 -400.625 48.1875 C-385.19750783 37.81894913 -368.06324751 35.58503968 -350.0625 32.5 C-348.20396896 32.17810196 -348.20396896 32.17810196 -346.30789185 31.84970093 C-261.63804822 17.20252208 -176.27647701 6.51399945 -90.4375 2.0625 C-89.32331192 2.00444687 -89.32331192 2.00444687 -88.18661499 1.94522095 C-83.56938456 1.7084978 -78.95146793 1.49644539 -74.33227539 1.30178833 C-72.44253305 1.22201237 -70.55289045 1.13985339 -68.66333008 1.05587769 C-45.7772807 0.05760102 -22.90388826 -0.01415259 0 0 Z " fill="#950005" transform="translate(496.625,34.8125)"/>
<path d="M0 0 C3.76803859 0.3864655 7.22015598 1.35850751 10.8125 2.5 C14.95232724 3.79017309 18.86961655 4.46522124 23.1875 4.7890625 C25 5 25 5 27 6 C25.75023244 9.65316671 25.32901247 10.78065836 22 13 C27.21510413 14.14477896 32.18958202 14.44779108 37.0625 11.9375 C39.84704964 10.59013727 41.94817571 10.68210164 45 11 C47.375 12.0625 47.375 12.0625 49 14 C49.48044363 18.40406661 49.10650943 21.16615283 47 25 C47.72445312 24.77183594 48.44890625 24.54367188 49.1953125 24.30859375 C58.95478997 21.40677578 58.95478997 21.40677578 64 23 C65.63012838 24.63012838 65.20976456 26.44437445 65.25 28.6875 C65.28867187 29.96173828 65.28867187 29.96173828 65.328125 31.26171875 C64.92316974 34.6411668 63.6437751 37.04553055 62 40 C63.27875 39.97679687 64.5575 39.95359375 65.875 39.9296875 C67.58332745 39.91091467 69.29166127 39.89271611 71 39.875 C71.83917969 39.85824219 72.67835938 39.84148437 73.54296875 39.82421875 C79.560811 39.77756881 85.81147626 39.81267271 90.953125 43.33984375 C93.86997503 46.93319213 95.51010592 50.14179428 96.9375 54.5625 C99.0578979 60.9063134 102.11093741 63.98316715 107.99609375 67.03515625 C110.30883419 68.08331568 112.64952778 69.03940282 115 70 C117.29767515 71.00723667 119.5891199 72.02877422 121.875 73.0625 C122.96554687 73.54847656 124.05609375 74.03445312 125.1796875 74.53515625 C127.6752425 75.83132401 129.2910043 76.79503702 131 79 C131 79.66 131 80.32 131 81 C131.66 81 132.32 81 133 81 C134.49297212 83.98594424 134.11755228 86.70853624 134 90 C133.67 90.66 133.34 91.32 133 92 C133.804375 92.20625 134.60875 92.4125 135.4375 92.625 C140.110473 94.42860362 143.92616004 97.12115309 148 100 C147.39043915 104.10889169 146.00514855 107.21769099 144.0625 110.875 C138.19797712 122.44934611 137.31075189 132.81470629 141.25 145.1875 C142.96018895 150.35025435 144.91576071 155.39799804 147.0234375 160.41015625 C148.71949203 164.90809286 149.9152289 169.55477152 151.16796875 174.19140625 C151.72173475 176.88077925 151.72173475 176.88077925 153 178 C155.66039957 191.82251083 156.93382447 209.81735075 149 222 C148.49210937 222.81082031 147.98421875 223.62164062 147.4609375 224.45703125 C141.91178246 232.38627411 134.05902591 237.74633939 125 241 C122.09202506 241.47047893 119.25536981 241.57195045 116.3125 241.5625 C115.52375488 241.56008301 114.73500977 241.55766602 113.92236328 241.55517578 C106.56055852 241.3255415 101.1168181 239.10886565 95 235 C93.75863281 234.17628906 93.75863281 234.17628906 92.4921875 233.3359375 C88.67643923 230.6369936 88.67643923 230.6369936 87 229 C87 228.34 87 227.68 87 227 C86.2575 226.731875 85.515 226.46375 84.75 226.1875 C82.12332094 225.05325222 80.24078383 223.74761987 78 222 C78.02094727 222.84071045 78.04189453 223.6814209 78.06347656 224.54760742 C78.13254377 227.73278577 78.18222574 230.91757677 78.21972656 234.10327148 C78.23957267 235.4696119 78.26665914 236.83587059 78.30175781 238.2019043 C78.63637667 251.58173759 76.16486922 262.63604759 69 274 C68.34 274 67.68 274 67 274 C67 274.66 67 275.32 67 276 C66.34 276 65.68 276 65 276 C64.76023437 276.60457031 64.52046875 277.20914062 64.2734375 277.83203125 C62.7210994 280.47481545 61.31809563 281.26937489 58.625 282.6875 C57.46871094 283.31205078 57.46871094 283.31205078 56.2890625 283.94921875 C49.02139925 287.28539864 38.86444829 287.29138723 31.16015625 285.24609375 C28.98328795 284.29720244 27.01086019 283.26002398 25 282 C23.9275 281.34 22.855 280.68 21.75 280 C20.8425 279.34 19.935 278.68 19 278 C18.175 277.443125 17.35 276.88625 16.5 276.3125 C13.54219964 273.57653467 11.57762418 270.60900682 9.4296875 267.21875 C8.05577484 264.99697259 8.05577484 264.99697259 6.44921875 263.09375 C-0.63343341 252.86113125 -1.42677704 237.04459653 -1 225 C-1.66 225 -2.32 225 -3 225 C-3.20625 225.53625 -3.4125 226.0725 -3.625 226.625 C-5.53250426 229.91978009 -8.04819384 232.59363628 -11 235 C-11.66 235 -12.32 235 -13 235 C-13 235.66 -13 236.32 -13 237 C-14.8359375 238.3671875 -14.8359375 238.3671875 -17.375 239.875 C-18.18710937 240.36742187 -18.99921875 240.85984375 -19.8359375 241.3671875 C-28.05522536 245.60874593 -34.76529277 247.65549336 -44.0625 247.5 C-44.99126953 247.51546875 -45.92003906 247.5309375 -46.87695312 247.546875 C-55.80545018 247.4967501 -62.96858121 244.40878369 -70 239 C-70 238.34 -70 237.68 -70 237 C-70.66 237 -71.32 237 -72 237 C-72 236.34 -72 235.68 -72 235 C-72.8971875 234.62875 -72.8971875 234.62875 -73.8125 234.25 C-76.35858793 232.79509261 -77.51734865 231.52050729 -79 229 C-79 227.68 -79 226.36 -79 225 C-79.66 225 -80.32 225 -81 225 C-85.25625271 216.41939454 -83.92336256 203.89053883 -81.3125 194.9375 C-79.4070649 189.60896746 -77.03482122 184.76900478 -74 180 C-73.54753906 179.27425781 -73.09507812 178.54851562 -72.62890625 177.80078125 C-68.63548135 171.59960925 -64.22837429 165.22837429 -59 160 C-59.92111572 160.02356567 -59.92111572 160.02356567 -60.86083984 160.04760742 C-63.69879589 160.11076194 -66.53660333 160.14924177 -69.375 160.1875 C-70.34050781 160.21263672 -71.30601562 160.23777344 -72.30078125 160.26367188 C-80.62073297 160.34742978 -89.19409211 159.21786272 -96 154 C-96 153.34 -96 152.68 -96 152 C-96.66 152 -97.32 152 -98 152 C-98 151.34 -98 150.68 -98 150 C-98.99 149.67 -99.98 149.34 -101 149 C-101.69937532 147.68352881 -102.36729133 146.34977849 -103 145 C-103.66 144.67 -104.32 144.34 -105 144 C-108.63572707 136.58871021 -109.44959085 129.06014585 -107.15625 121.0546875 C-103.95878108 112.95299259 -99.44993179 105.46440171 -95 98 C-94.34 98 -93.68 98 -93 98 C-92.73574219 97.41992188 -92.47148438 96.83984375 -92.19921875 96.2421875 C-88.97445445 90.21282363 -83.65907953 85.46177236 -78.3828125 81.2265625 C-76.85896891 80.02824461 -76.85896891 80.02824461 -76 78 C-74.35114904 76.97088957 -72.68131842 75.97516468 -71 75 C-69.40780726 73.88757395 -67.82459065 72.76220435 -66.25 71.625 C-63.09868286 69.39533839 -59.9730453 67.36880317 -56.5625 65.5625 C-48.11940803 61.00591068 -40.74550677 55.02109136 -33.77734375 48.46875 C-32 47 -32 47 -30 47 C-29.65001953 46.21109375 -29.65001953 46.21109375 -29.29296875 45.40625 C-27.58417046 42.22612992 -25.44850676 39.39966096 -23.3125 36.5 C-19.49719114 31.24028517 -16.06904888 25.89898833 -12.8671875 20.23828125 C-10.54201578 16.20571355 -8.09383396 12.25825697 -5.625 8.3125 C-5.18349609 7.60432129 -4.74199219 6.89614258 -4.28710938 6.16650391 C-1.12883691 1.12883691 -1.12883691 1.12883691 0 0 Z " fill="#AF4537" transform="translate(765,166)"/>
<path d="M0 0 C1.40088867 -0.02416992 1.40088867 -0.02416992 2.83007812 -0.04882812 C9.41419232 -0.05339725 14.99826274 1.08659796 21.1875 3.3125 C21.1875 3.9725 21.1875 4.6325 21.1875 5.3125 C21.89261719 5.5290625 22.59773437 5.745625 23.32421875 5.96875 C26.88475724 7.63972577 29.30390259 10.02641269 32 12.8125 C32.50208984 13.31136719 33.00417969 13.81023438 33.52148438 14.32421875 C37.1875 18.04509991 37.1875 18.04509991 37.1875 20.3125 C38.18716797 20.07466797 38.18716797 20.07466797 39.20703125 19.83203125 C50.25839978 17.90564591 60.83926166 18.48856656 70.359375 24.73828125 C72.36622372 26.19815052 74.28072765 27.72488697 76.1875 29.3125 C76.76757812 29.77140625 77.34765625 30.2303125 77.9453125 30.703125 C80.52447712 32.77144059 82.33789253 34.5380888 84.1875 37.3125 C84.1875 38.3025 84.1875 39.2925 84.1875 40.3125 C85.1775 40.6425 86.1675 40.9725 87.1875 41.3125 C92.72210093 50.21384631 94.44191305 59.70375248 93.8125 70 C93.69415798 74.56942609 93.69415798 74.56942609 95.75 78.4921875 C97.14441687 79.76512108 98.56770793 81.00701799 100.015625 82.21875 C107.47386209 89.40870518 110.39257263 100.84484237 110.61889648 110.88647461 C110.65674244 128.25474136 106.02206376 142.00341678 98.1875 157.3125 C97.78273438 158.11107422 97.37796875 158.90964844 96.9609375 159.73242188 C95.65136634 162.30647417 94.32904394 164.87345172 93 167.4375 C92.58403564 168.24364746 92.16807129 169.04979492 91.73950195 169.88037109 C89.55978601 174.01646607 87.41154171 177.87444268 84.1875 181.3125 C83.5275 181.3125 82.8675 181.3125 82.1875 181.3125 C82.06818115 181.9012793 81.9488623 182.49005859 81.82592773 183.09667969 C80.77210072 186.75424525 78.46259451 189.50893338 76.25 192.5625 C75.79431641 193.2121875 75.33863281 193.861875 74.86914062 194.53125 C73.69657797 196.16562724 72.44738848 197.74445244 71.1875 199.3125 C70.5275 199.3125 69.8675 199.3125 69.1875 199.3125 C69.12691406 199.85390625 69.06632813 200.3953125 69.00390625 200.953125 C67.83751773 204.32393203 65.54127196 206.52990133 63.125 209.0625 C62.65255859 209.56910156 62.18011719 210.07570313 61.69335938 210.59765625 C60.53119289 211.84199613 59.36019839 213.07808064 58.1875 214.3125 C58.8475 214.9725 59.5075 215.6325 60.1875 216.3125 C42.45082604 215.01797082 24.79071159 213.29035461 7.125 211.25 C5.84231232 211.10276489 4.55962463 210.95552979 3.23806763 210.80383301 C-17.46731117 208.42026635 -38.12808738 205.74318778 -58.76914597 202.85652542 C-60.8584273 202.56481393 -62.94799689 202.27524631 -65.03762817 201.98605347 C-68.95482297 201.442831 -72.87011436 200.88666406 -76.78515625 200.328125 C-77.92952148 200.16895096 -79.07388672 200.00977692 -80.25292969 199.84577942 C-97.19843042 197.38598162 -108.47861393 193.41446685 -120.8125 181.3125 C-121.68068359 180.48105469 -121.68068359 180.48105469 -122.56640625 179.6328125 C-131.9979883 169.73334517 -133.99440159 156.96425757 -135.5 144 C-135.70019241 142.41057005 -135.90227978 140.8213777 -136.10620117 139.23242188 C-136.50801624 136.07472612 -136.8979817 132.91595893 -137.27636719 129.75537109 C-137.75553175 125.75670305 -138.2664399 121.76277907 -138.7890625 117.76953125 C-139.3119101 113.74322309 -139.83434866 109.71700522 -140.33203125 105.6875 C-140.42589111 104.93210937 -140.51975098 104.17671875 -140.61645508 103.3984375 C-140.80637744 101.37764463 -140.8125 99.34219809 -140.8125 97.3125 C-139.8225 96.8175 -139.8225 96.8175 -138.8125 96.3125 C-137.66193184 94.01432907 -136.59594075 91.72504313 -135.5625 89.375 C-133.09309986 83.90962694 -130.41799734 78.76786537 -127.234375 73.67578125 C-124.83492299 69.68768107 -122.82818911 65.50441982 -120.8125 61.3125 C-120.1525 61.3125 -119.4925 61.3125 -118.8125 61.3125 C-118.73 60.796875 -118.6475 60.28125 -118.5625 59.75 C-117.49109775 56.26794268 -115.67726395 53.44049115 -113.8125 50.3125 C-113.1525 50.3125 -112.4925 50.3125 -111.8125 50.3125 C-111.8125 49.3225 -111.8125 48.3325 -111.8125 47.3125 C-111.1525 47.3125 -110.4925 47.3125 -109.8125 47.3125 C-109.544375 46.549375 -109.27625 45.78625 -109 45 C-107.84646359 42.38936496 -106.82620135 41.23864911 -104.8125 39.3125 C-104.4825 38.3225 -104.1525 37.3325 -103.8125 36.3125 C-103.1525 36.3125 -102.4925 36.3125 -101.8125 36.3125 C-101.544375 35.549375 -101.27625 34.78625 -101 34 C-99.86115495 31.42261382 -98.99833329 30.04295136 -96.8125 28.3125 C-96.1525 28.3125 -95.4925 28.3125 -94.8125 28.3125 C-94.5340625 27.2915625 -94.5340625 27.2915625 -94.25 26.25 C-92.25476615 22.172783 -89.38009063 19.11238125 -85.8125 16.3125 C-83.5859375 15.609375 -83.5859375 15.609375 -81.8125 15.3125 C-81.8125 14.6525 -81.8125 13.9925 -81.8125 13.3125 C-73.26125369 6.86401918 -65.5039737 4.55067526 -54.921875 5.625 C-50.48135205 6.60682417 -46.94772438 8.58085045 -43.08984375 10.9375 C-40.78193657 12.44470655 -40.78193657 12.44470655 -37.8125 13.3125 C-36.09479604 12.26763513 -36.09479604 12.26763513 -34.375 10.6875 C-24.4881213 2.84366635 -12.37008403 -0.04216116 0 0 Z " fill="#8C2628" transform="translate(208.8125,727.6875)"/>
<path d="M0 0 C2.75 1.6875 2.75 1.6875 3.75 4.6875 C4.49894531 4.97882813 5.24789062 5.27015625 6.01953125 5.5703125 C9.42736528 6.96464803 11.02499301 8.80183835 13.4375 11.5625 C14.58798828 12.85800781 14.58798828 12.85800781 15.76171875 14.1796875 C18.38067195 17.48296442 19.75 19.44128249 19.75 23.6875 C20.41 23.6875 21.07 23.6875 21.75 23.6875 C26.27069062 33.94841639 26.91657337 42.58260883 26.75 53.6875 C27.74 53.6875 28.73 53.6875 29.75 53.6875 C29.82992187 53.12160156 29.90984375 52.55570312 29.9921875 51.97265625 C31.7252101 46.74678914 37.17711658 42.28618484 41.76171875 39.4375 C44.95740875 37.99562686 47.20646705 37.6875 50.75 37.6875 C50.75 37.0275 50.75 36.3675 50.75 35.6875 C52.49991334 35.66034617 54.24994945 35.64103449 56 35.625 C57.46179688 35.60759766 57.46179688 35.60759766 58.953125 35.58984375 C61.40758678 35.67554423 63.41168914 35.98043934 65.75 36.6875 C65.75 37.3475 65.75 38.0075 65.75 38.6875 C66.74 38.9659375 66.74 38.9659375 67.75 39.25 C74.05175706 42.26959192 78.51433451 46.26139183 81.125 52.8125 C81.67907876 54.43330983 82.2209217 56.05835792 82.75 57.6875 C83.0907959 58.45690918 83.4315918 59.22631836 83.78271484 60.01904297 C84.79372738 62.80813107 85.00791296 64.85989189 85.015625 67.8125 C85.01820313 68.76640625 85.02078125 69.7203125 85.0234375 70.703125 C85.01570312 71.68796875 85.00796875 72.6728125 85 73.6875 C85.00773438 74.67234375 85.01546875 75.6571875 85.0234375 76.671875 C85.02085937 77.62578125 85.01828125 78.5796875 85.015625 79.5625 C85.01336914 80.42617188 85.01111328 81.28984375 85.00878906 82.1796875 C84.71909588 84.98697846 83.85669158 87.102772 82.75 89.6875 C82.37875 91.481875 82.37875 91.481875 82 93.3125 C78.99225452 105.69321977 70.46216317 116.27910624 60.1796875 123.375 C57.6678071 124.73190002 55.56270264 125.28711528 52.75 125.6875 C52.75 126.6775 52.75 127.6675 52.75 128.6875 C53.79027344 128.79384766 53.79027344 128.79384766 54.8515625 128.90234375 C58.57130826 129.90998377 61.15898914 131.89230142 64.125 134.25 C64.69790771 134.70036621 65.27081543 135.15073242 65.86108398 135.61474609 C73.86574386 142.03982279 79.47943086 148.87579258 82.75 158.6875 C83.42862508 168.9582295 83.19279987 176.70561013 76.625 184.8125 C71.07305045 190.77614072 65.01982 195.41828488 56.68603516 195.77612305 C54.24800873 195.82227268 51.81341479 195.82382391 49.375 195.8125 C48.55 195.81636719 47.725 195.82023438 46.875 195.82421875 C42.06223769 195.81657944 37.51732326 195.40846682 32.75 194.6875 C21.8276404 194.15800568 13.08971117 194.06430139 4.37109375 201.2265625 C0.35014804 205.00181704 -3.36544491 209.05630314 -7.02587891 213.18041992 C-14.30047019 221.26620663 -22.38214224 227.55233644 -33.390625 229.140625 C-41.66440666 229.57195959 -47.70819619 227.80496084 -54.25 222.6875 C-61.78590577 215.30156251 -65.25512386 208.31021204 -65.5456543 197.80908203 C-65.6241024 187.92916927 -63.87021376 179.8167347 -60.25 170.6875 C-59.92 169.6975 -59.59 168.7075 -59.25 167.6875 C-60.22582031 168.17347656 -61.20164062 168.65945313 -62.20703125 169.16015625 C-66.48008935 170.98165326 -70.33574307 171.18704616 -74.9375 171.125 C-76.12388062 171.11364014 -76.12388062 171.11364014 -77.33422852 171.10205078 C-84.18606933 170.91108299 -89.99507202 169.55022887 -96.25 166.6875 C-97.15878906 166.28660156 -98.06757813 165.88570312 -99.00390625 165.47265625 C-110.46291545 159.84910266 -119.78172606 150.62410803 -126.25 139.6875 C-126.68183594 139.01847656 -127.11367188 138.34945312 -127.55859375 137.66015625 C-131.81237001 129.99158383 -131.61225159 119.41747075 -129.625 111.05859375 C-126.93393161 104.91959399 -121.7314116 100.12914181 -115.58984375 97.5859375 C-108.50529681 95.54543542 -96.11761127 93.25369437 -89.25 96.6875 C-89.78109375 95.93726563 -90.3121875 95.18703125 -90.859375 94.4140625 C-95.26818504 88.02611511 -98.70294079 82.00328241 -101.25 74.6875 C-101.77207031 73.49769531 -102.29414063 72.30789063 -102.83203125 71.08203125 C-104.74726389 65.9735498 -104.69089219 61.02449852 -104.625 55.625 C-104.63660156 54.67044922 -104.64820313 53.71589844 -104.66015625 52.73242188 C-104.62516102 44.28107487 -102.47349541 38.46392648 -97.25 31.6875 C-88.97721368 23.56543246 -88.97721368 23.56543246 -82.125 23.5546875 C-81.33609375 23.55339844 -80.5471875 23.55210937 -79.734375 23.55078125 C-78.50460937 23.55658203 -78.50460937 23.55658203 -77.25 23.5625 C-76.43015625 23.55863281 -75.6103125 23.55476563 -74.765625 23.55078125 C-73.58226562 23.55271484 -73.58226562 23.55271484 -72.375 23.5546875 C-71.65570313 23.55581543 -70.93640625 23.55694336 -70.1953125 23.55810547 C-68.25 23.6875 -68.25 23.6875 -65.25 24.6875 C-65.25 25.3475 -65.25 26.0075 -65.25 26.6875 C-64.68796875 26.79964844 -64.1259375 26.91179687 -63.546875 27.02734375 C-55.26985168 29.40628413 -48.89957575 35.46981049 -43.25 41.6875 C-43.15203125 40.82769531 -43.0540625 39.96789062 -42.953125 39.08203125 C-41.36015687 26.4893435 -39.57407168 13.26145767 -29.0390625 4.94140625 C-20.32337045 -1.09587545 -10.39822979 -4.09888726 0 0 Z " fill="#FBF8F7" transform="translate(422.25,383.3125)"/>
<path d="M0 0 C1.85595703 2.50585937 1.85595703 2.50585937 3.7578125 5.84375 C4.10236984 6.43990112 4.44692719 7.03605225 4.80192566 7.65026855 C5.92159977 9.59357716 7.02319015 11.54651705 8.125 13.5 C8.8948044 14.84317834 9.66588703 16.1856249 10.43823242 17.52734375 C11.95626533 20.1673382 13.46829982 22.8106091 14.97509766 25.45703125 C17.37473967 29.66561277 19.83742508 33.83545593 22.3125 38 C31.28679466 53.22556317 39.94338785 68.62770127 48.48071289 84.10180664 C51.8011946 90.10509005 55.19044661 96.05098298 58.71142578 101.9387207 C66.35300459 114.77102999 72.59669071 127.0985009 69.25 142.4375 C67.79391106 145.42248233 66.35423625 147.64576375 64 150 C61.25 150.8125 61.25 150.8125 59 151 C59.33 151.66 59.66 152.32 60 153 C60.82543963 163.06765708 59.9608513 171.17676166 54.23046875 179.6015625 C51.66704044 182.35803357 49.54572166 183.42887475 46.0625 184.8125 C45.04285156 185.23144531 44.02320313 185.65039062 42.97265625 186.08203125 C40.11386207 186.96483891 37.96550514 187.19114674 35 187 C34.76152344 187.74765625 34.52304687 188.4953125 34.27734375 189.265625 C32.80358618 192.42045772 31.33897065 193.68930257 28.5625 195.75 C27.78003906 196.34296875 26.99757813 196.9359375 26.19140625 197.546875 C21.45013799 200.69081759 16.49484716 200.57351014 11 200 C5.83877058 198.51274131 1.08451709 196.55297034 -3 193 C-3 192.34 -3 191.68 -3 191 C-3.49628906 191.28875 -3.99257812 191.5775 -4.50390625 191.875 C-10.75239269 195.28973263 -15.44389538 195.85947008 -22.375 193.9375 C-35.1052287 189.26328743 -44.0718823 177.33298884 -51.07421875 166.234375 C-52.04345993 164.71753496 -53.0138765 163.20144545 -53.98535156 161.68603516 C-54.48208374 160.91076477 -54.97881592 160.13549438 -55.49060059 159.33673096 C-57.9205561 155.57486897 -60.40885746 151.85275675 -62.90234375 148.1328125 C-63.39357727 147.39929565 -63.88481079 146.66577881 -64.39093018 145.91003418 C-65.39382684 144.41297489 -66.39698193 142.9160887 -67.40039062 141.41937256 C-76.12528812 128.39611884 -84.77351326 115.34549328 -93 102 C-94.21081987 100.04810411 -95.42176647 98.09628683 -96.6328125 96.14453125 C-103.91394399 84.38214747 -111.08519773 72.5583726 -118.1875 60.6875 C-123.57780897 51.67902857 -128.98849747 42.68513665 -134.5 33.75 C-135.03391357 32.88076904 -135.56782715 32.01153809 -136.11791992 31.1159668 C-136.60494385 30.3300415 -137.09196777 29.54411621 -137.59375 28.734375 C-138.01333984 28.05600586 -138.43292969 27.37763672 -138.86523438 26.67871094 C-140.02520139 24.84825156 -140.02520139 24.84825156 -142 23 C-129.52514669 18.44504226 -116.47618678 16.54931061 -103.4375 14.3125 C-102.21443146 14.09989532 -100.99136292 13.88729065 -99.73123169 13.66824341 C-71.44529071 8.75448285 -43.06290019 4.39919732 -14.63717651 0.37399292 C-12.9661021 0.1370084 -11.29609133 -0.10771202 -9.62771606 -0.36300659 C-2.58301542 -1.38129167 -2.58301542 -1.38129167 0 0 Z " fill="#BD6855" transform="translate(250,53)"/>
<path d="M0 0 C10.23466865 0.80502598 20.31722103 2.56194936 30.43017578 4.28662109 C33.59434596 4.82388249 36.7608423 5.34551041 39.92773438 5.86645508 C61.42291006 9.46768182 77.91810158 14.72674514 91.35351562 33.20043945 C99.77060349 47.14791079 101.00359768 62.8798067 103.04101562 78.70043945 C103.3812976 81.25865998 103.72245553 83.81676413 104.06445312 86.37475586 C106.94008846 108.0586419 109.57629763 129.77441439 112.07226562 151.50512695 C112.17809464 152.41594528 112.28392365 153.32676361 112.39295959 154.2651825 C112.4875798 155.10088272 112.58220001 155.93658295 112.6796875 156.79760742 C112.76214722 157.51979462 112.84460693 158.24198181 112.92956543 158.98605347 C113.10141745 160.9884913 113.10351562 163.00314086 113.10351562 165.01293945 C112.44351563 165.01293945 111.78351563 165.01293945 111.10351562 165.01293945 C110.82967041 165.74778564 110.5558252 166.48263184 110.27368164 167.23974609 C109.17143838 169.85196834 107.93891377 172.02312936 106.38085938 174.3840332 C105.84614014 175.1996875 105.3114209 176.0153418 104.76049805 176.85571289 C104.19306885 177.71197266 103.62563965 178.56823242 103.04101562 179.45043945 C101.86884027 181.2353985 100.69696714 183.02055604 99.52539062 184.8059082 C98.94724609 185.68424316 98.36910156 186.56257812 97.7734375 187.4675293 C95.42248557 191.05101246 93.10335801 194.65446454 90.79101562 198.26293945 C90.41259521 198.85260498 90.0341748 199.44227051 89.64428711 200.04980469 C88.79684974 201.37052024 87.95009016 202.69167067 87.10351562 204.01293945 C86.25080078 203.43286133 86.25080078 203.43286133 85.38085938 202.84106445 C80.71573094 199.69463392 76.02732664 196.7367498 71.10351562 194.01293945 C71.10351562 190.38293945 71.10351562 186.75293945 71.10351562 183.01293945 C70.44351563 183.01293945 69.78351563 183.01293945 69.10351562 183.01293945 C69.10351562 182.35293945 69.10351562 181.69293945 69.10351562 181.01293945 C68.11351562 180.68293945 67.12351562 180.35293945 66.10351562 180.01293945 C66.10351562 179.35293945 66.10351562 178.69293945 66.10351562 178.01293945 C65.59175781 177.90208008 65.08 177.7912207 64.55273438 177.67700195 C53.49445363 174.67874402 41.56811543 169.99369553 35.10351562 160.01293945 C34.44823922 158.21828449 33.84628333 156.40351259 33.29101562 154.57543945 C31.4408451 149.30632263 29.90091034 146.89137628 25.10351562 144.01293945 C19.87741958 142.83310868 14.56303668 142.69547393 9.22851562 142.45043945 C8.349375 142.40725586 7.47023438 142.36407227 6.56445312 142.31958008 C4.41095766 142.21424606 2.25725498 142.11316297 0.10351562 142.01293945 C0.4309375 141.13379883 0.75835938 140.2546582 1.09570312 139.34887695 C2.0477215 136.19762233 2.3166186 133.89774936 2.22851562 130.63793945 C2.21046875 129.76395508 2.19242188 128.8899707 2.17382812 127.98950195 C2.150625 127.33723633 2.12742187 126.6849707 2.10351562 126.01293945 C-2.52297753 124.9639898 -5.7154556 125.1848759 -10.27148438 126.45043945 C-11.33109375 126.73790039 -12.39070312 127.02536133 -13.48242188 127.3215332 C-14.2790625 127.54969727 -15.07570313 127.77786133 -15.89648438 128.01293945 C-15.57292969 127.26399414 -15.249375 126.51504883 -14.91601562 125.7434082 C-13.63542198 122.31377234 -13.55384204 119.64494821 -13.89648438 116.01293945 C-17.21900688 113.79792445 -17.77380028 113.81883069 -21.52148438 114.32543945 C-22.318125 114.42469727 -23.11476563 114.52395508 -23.93554688 114.6262207 C-25.89218284 114.82299438 -25.89218284 114.82299438 -26.89648438 116.01293945 C-28.49121599 116.30051401 -30.09873205 116.51890295 -31.70898438 116.70043945 C-33.01802734 116.86092773 -33.01802734 116.86092773 -34.35351562 117.0246582 C-37.12234744 117.01189861 -38.55667957 116.43645706 -40.89648438 115.01293945 C-40.27773438 114.78606445 -39.65898438 114.55918945 -39.02148438 114.32543945 C-36.27674863 112.63016149 -35.96184784 110.98347991 -34.89648438 108.01293945 C-35.50492188 107.99875977 -36.11335937 107.98458008 -36.74023438 107.9699707 C-45.62694176 107.48642927 -53.5370316 104.85536317 -61.89648438 102.01293945 C-59.07806453 96.15162386 -56.07059224 90.49454823 -52.67773438 84.9465332 C-50.91030351 82.03569861 -49.18502212 79.10343507 -47.46655273 76.16357422 C-33.20277215 51.77032181 -33.20277215 51.77032181 -26.58398438 42.07543945 C-24.60301497 39.1708302 -22.87510357 36.21030844 -21.21679688 33.1105957 C-17.94160437 27.0581608 -14.53343035 21.08774387 -11.09008789 15.12963867 C-10.06570772 13.35630013 -9.0444891 11.58116493 -8.0234375 9.8059082 C-7.37697266 8.68571289 -6.73050781 7.56551758 -6.06445312 6.41137695 C-5.18696411 4.89036377 -5.18696411 4.89036377 -4.29174805 3.33862305 C-2.29819166 0.01568025 -2.29819166 0.01568025 0 0 Z " fill="#98352A" transform="translate(826.896484375,63.987060546875)"/>
<path d="M0 0 C6.6 0 13.2 0 20 0 C20 84.15 20 168.3 20 255 C9.77 255 -0.46 255 -11 255 C-11.33 189.99 -11.66 124.98 -12 58 C-17.94 62.95 -17.94 62.95 -24 68 C-27.00612202 70.09647403 -29.95082856 72.08871118 -33.0625 74 C-33.85833496 74.49564453 -34.65416992 74.99128906 -35.47412109 75.50195312 C-65.60136794 94 -65.60136794 94 -74 94 C-74 83.77 -74 73.54 -74 63 C-71.69 61.88625 -69.38 60.7725 -67 59.625 C-53.95876621 53.17250996 -41.94030555 45.63627532 -31 36 C-30.12601563 35.23558594 -29.25203125 34.47117187 -28.3515625 33.68359375 C-25.87312841 31.48426259 -23.43137457 29.25111749 -21 27 C-20.39671875 26.46246094 -19.7934375 25.92492187 -19.171875 25.37109375 C-11.44422815 18.16704914 -5.82271245 8.73406867 0 0 Z " fill="#FEFDFD" transform="translate(647,367)"/>
<path d="M0 0 C5.66395798 3.17896839 11.10943721 6.78722435 16.265625 10.734375 C18.1665703 12.1215513 19.6999484 12.5892765 22 13 C22 13.66 22 14.32 22 15 C22.86625 15.28875 23.7325 15.5775 24.625 15.875 C27.75 16.91666667 30.875 17.95833333 34 19 C34 19.66 34 20.32 34 21 C34.69480469 21.09023438 35.38960938 21.18046875 36.10546875 21.2734375 C46.0076129 23.75899595 56.13179003 32.11384004 62.375 40 C65.98835689 46.67081272 67.02560774 53.50766557 66 61 C63.68453318 67.26791484 58.79434587 71.82847357 53 75 C48.89234035 76.1706129 44.87773375 76.13362623 40.625 76.125 C39.35914063 76.12757813 38.09328125 76.13015625 36.7890625 76.1328125 C33.11491723 76.00402803 29.63519364 75.52614645 26 75 C13.16937287 73.97020997 1.06512457 74.57315992 -9.25 83.25 C-10.51879376 84.48091932 -11.76769201 85.73255492 -13 87 C-13.80824219 87.78503906 -14.61648438 88.57007813 -15.44921875 89.37890625 C-19.73437875 93.29936069 -19.73437875 93.29936069 -23 98 C-23.66 98 -24.32 98 -25 98 C-25 98.66 -25 99.32 -25 100 C-26.79296875 101.47265625 -26.79296875 101.47265625 -29.1875 103.0625 C-29.96480469 103.58972656 -30.74210937 104.11695313 -31.54296875 104.66015625 C-34.06985506 106.03809267 -36.16642955 106.59232823 -39 107 C-39 107.66 -39 108.32 -39 109 C-46.52111736 109.68720869 -51.95736336 109.54108444 -58.08984375 104.85546875 C-63.47552558 99.62397822 -66.09391737 93.95569433 -66.29296875 86.45483398 C-66.42197448 71.89169969 -62.57497028 60.17804622 -55.8046875 47.4609375 C-53.7517419 43.52390331 -52.22539086 39.93623897 -51.1875 35.625 C-47.72931722 21.47057746 -43.37937373 7.7555492 -31 -1 C-21.30265956 -6.7811068 -9.76312919 -4.55612696 0 0 Z " fill="#FDB0BD" transform="translate(431,495)"/>
<path d="M0 0 C6.98860869 3.38841634 10.63582894 9.27165788 14 16 C15.21751313 25.15446585 15.21751313 25.15446585 12.765625 28.87109375 C12.24484375 29.42925781 11.7240625 29.98742187 11.1875 30.5625 C5.87953284 36.49788645 5.92456877 45.40880382 5 53 C5.88945312 53.38285156 5.88945312 53.38285156 6.796875 53.7734375 C9.21224538 55.11816498 10.51211706 56.49214367 12.25 58.625 C12.77078125 59.25664062 13.2915625 59.88828125 13.828125 60.5390625 C14.40820312 61.26222656 14.40820312 61.26222656 15 62 C15.61681641 61.28650391 15.61681641 61.28650391 16.24609375 60.55859375 C19.3844032 57.76976196 22.93220222 57.8119662 27 58 C34.67327769 59.65845576 39.72727186 63.48408959 44 70 C46.60475236 74.88391067 47.70749718 79.44109362 47 85 C45.45418494 89.4442183 43.74185671 91.5741193 39.625 93.9375 C36.18036774 94.94713359 33.55974472 95.26046913 30 95 C30.165 95.763125 30.33 96.52625 30.5 97.3125 C31.52559253 104.87624491 32.23144515 112.33226825 28 119 C21.87495181 124.68021228 17.15808906 127.36275408 8.76953125 127.2890625 C2.61194675 126.6463809 -3.32449236 124.06705117 -8 120 C-8 119.34 -8 118.68 -8 118 C-8.49628906 118.28875 -8.99257812 118.5775 -9.50390625 118.875 C-15.75239269 122.28973263 -20.44389538 122.85947008 -27.375 120.9375 C-42.0251873 115.55832801 -51.24798145 101.09603052 -59.171875 88.4609375 C-62.05557995 83.86769438 -65.10037014 79.39579532 -68.1875 74.9375 C-68.66952881 74.24052002 -69.15155762 73.54354004 -69.64819336 72.82543945 C-70.76346844 71.21557655 -71.88141286 69.60756334 -73 68 C-69.08011392 59.37249954 -60.5353688 54.24614283 -53 49 C-53.2165625 48.443125 -53.433125 47.88625 -53.65625 47.3125 C-55.61187757 41.95263184 -56.82694552 37.6967358 -56 32 C-51.65418498 24.98200099 -46.10587788 21.82554634 -38.3125 19.6875 C-27.95886031 16.61992731 -21.38793728 11.79589089 -13.9453125 3.953125 C-9.59383474 -0.41582858 -5.91348328 -1.07343619 0 0 Z " fill="#C3766C" transform="translate(255,126)"/>
<path d="M0 0 C9.21246306 4.86477144 14.49625759 10.41048394 19.09765625 19.61328125 C19.19654641 22.20769376 19.23660198 24.76937605 19.22265625 27.36328125 C19.22652344 28.06710937 19.23039062 28.7709375 19.234375 29.49609375 C19.22664873 33.65282677 18.84633864 37.51254364 18.09765625 41.61328125 C17.20675665 50.35682447 18.91820604 57.16981358 21.90625 65.265625 C23.53320297 69.83709612 24.23762092 73.83471186 24.22265625 78.67578125 C24.22523438 79.51238281 24.2278125 80.34898437 24.23046875 81.2109375 C24.10461305 83.48744498 23.68089014 85.41905922 23.09765625 87.61328125 C6.91552422 86.26697342 -9.17355491 84.43888947 -25.27734375 82.36328125 C-26.46114624 82.21187683 -27.64494873 82.06047241 -28.86462402 81.90447998 C-44.98410332 79.83980278 -61.08142334 77.65282286 -77.15234375 75.23828125 C-78.00076843 75.11126831 -78.84919312 74.98425537 -79.72332764 74.85339355 C-82.0805131 74.49874763 -84.43691331 74.13941349 -86.79296875 73.77734375 C-87.82017532 73.6215535 -87.82017532 73.6215535 -88.86813354 73.46261597 C-96.27954877 72.30424284 -96.27954877 72.30424284 -98.47265625 69.87109375 C-99.24222656 68.81535156 -99.24222656 68.81535156 -100.02734375 67.73828125 C-100.80464844 66.69027344 -100.80464844 66.69027344 -101.59765625 65.62109375 C-105.85155464 59.07467527 -104.58543026 48.0996545 -103.44140625 40.5859375 C-100.61328854 30.05535801 -93.59117399 21.96722759 -84.90234375 15.61328125 C-78.84407722 12.24588844 -73.48845848 12.227809 -66.65234375 12.17578125 C-58.34383169 11.94843552 -51.39750121 11.48137935 -43.90234375 7.61328125 C-42.70890957 7.01707432 -41.51485077 6.42211673 -40.3203125 5.828125 C-37.88450387 4.61443705 -35.47471877 3.37095522 -33.06640625 2.1015625 C-30.2334463 0.76902208 -27.96579103 0.09227387 -24.90234375 -0.38671875 C-17.58320938 -2.82643021 -7.21417088 -2.99694576 0 0 Z " fill="#BC493D" transform="translate(206.90234375,852.38671875)"/>
<path d="M0 0 C0.66644531 0.48597656 1.33289063 0.97195312 2.01953125 1.47265625 C2.71691406 1.90707031 3.41429687 2.34148437 4.1328125 2.7890625 C9.20628513 6.1427139 11.90804119 9.98219971 14.79296875 15.30078125 C15.95738807 17.58917075 15.95738807 17.58917075 18.01953125 19.47265625 C20.30311863 19.7880366 22.59772478 20.02538453 24.89453125 20.22265625 C34.989376 21.33512952 45.37953193 25.45153708 52.01953125 33.47265625 C57.15131413 41.79337992 59.00399882 49.72369268 58.01953125 59.47265625 C56.36173302 64.81545163 53.40144768 68.98704091 49.01953125 72.47265625 C44.8788247 74.52234732 41.67491189 75.47265625 37.01953125 75.47265625 C37.01953125 76.13265625 37.01953125 76.79265625 37.01953125 77.47265625 C35.53453125 77.87484375 35.53453125 77.87484375 34.01953125 78.28515625 C23.96808941 81.24028015 17.12699115 85.73220903 8.85546875 92.15234375 C1.48121646 97.82258555 -4.60332572 102.37179961 -14.2734375 101.8984375 C-20.87824712 100.85958577 -26.72986114 97.51158518 -31.98046875 93.47265625 C-31.98046875 92.81265625 -31.98046875 92.15265625 -31.98046875 91.47265625 C-32.64046875 91.47265625 -33.30046875 91.47265625 -33.98046875 91.47265625 C-35.19921875 89.93359375 -35.19921875 89.93359375 -36.48046875 87.84765625 C-36.90328125 87.17476563 -37.32609375 86.501875 -37.76171875 85.80859375 C-40.43706248 80.68085161 -41.25575437 76.23777679 -41.23046875 70.47265625 C-41.235625 69.29703125 -41.24078125 68.12140625 -41.24609375 66.91015625 C-40.9773618 63.43244863 -40.15196122 60.74026744 -38.98046875 57.47265625 C-37.42430047 49.43015824 -40.56715144 43.43267314 -44.3515625 36.57421875 C-47.26438848 31.02797455 -47.77542602 25.67697795 -46.98046875 19.47265625 C-43.43404253 9.81937949 -36.51096337 2.65611438 -27.3125 -1.6171875 C-18.49549311 -5.05833089 -8.01982777 -5.34159215 0 0 Z " fill="#BC6353" transform="translate(802.98046875,223.52734375)"/>
<path d="M0 0 C6.105 -0.0825 12.21 -0.165 18.5 -0.25 C20.41103516 -0.28641602 22.32207031 -0.32283203 24.29101562 -0.36035156 C25.82941571 -0.37204922 27.3678283 -0.38223849 28.90625 -0.390625 C29.68581055 -0.41108887 30.46537109 -0.43155273 31.26855469 -0.45263672 C37.87285122 -0.45677994 43.10905018 1.39979086 48.05859375 5.8515625 C48.74115234 6.72941406 48.74115234 6.72941406 49.4375 7.625 C49.91058594 8.21539063 50.38367188 8.80578125 50.87109375 9.4140625 C54.01246774 13.82720382 53.4070494 18.77496593 53 24 C51.32373434 28.76412345 48.69510166 31.60450118 45 35 C45.886875 35.53625 46.77375 36.0725 47.6875 36.625 C52.01729597 39.50811058 55.3296847 42.98905409 57 48 C57.70579711 55.16210512 57.33881346 61.08466116 53 67 C47.84926664 72.26779548 41.84827005 75.07913368 34.51171875 75.34057617 C32.9035677 75.33983894 31.2953562 75.3237709 29.6875 75.29296875 C28.92888672 75.28994751 28.17027344 75.28692627 27.38867188 75.28381348 C24.59230676 75.26828122 21.79613769 75.22639899 19 75.1875 C12.73 75.125625 6.46 75.06375 0 75 C0 50.25 0 25.5 0 0 Z " fill="#D49D9F" transform="translate(466,732)"/>
<path d="M0 0 C3.61341864 1.28218081 6.78244415 2.92415752 10 5 C10 5.66 10 6.32 10 7 C10.58265625 7.27199219 11.1653125 7.54398437 11.765625 7.82421875 C23.63542937 14.07039203 30.15259446 27.18148501 34.14453125 39.45703125 C36.52227557 49.3045842 35.91335184 57.64444322 30.8125 66.48828125 C28.00763083 70.37520125 25.65539298 72.65510869 21 74 C9.9964175 75.54943047 2.89130479 72.96761343 -6.0625 66.9375 C-10.73930993 62.75937009 -14.54555103 57.19702657 -18 52 C-18 51.34 -18 50.68 -18 50 C-18.66 50 -19.32 50 -20 50 C-21.76462683 46.91190305 -22 45.76687864 -22 42 C-22.66 42 -23.32 42 -24 42 C-26.04611139 36.07361362 -26.3344673 30.68060767 -26.3125 24.4375 C-26.32861328 23.51775391 -26.34472656 22.59800781 -26.36132812 21.65039062 C-26.3659379 15.23819451 -25.49145327 10.95756035 -21.24609375 5.91796875 C-20.64925781 5.34691406 -20.05242187 4.77585937 -19.4375 4.1875 C-18.83808594 3.60355469 -18.23867188 3.01960938 -17.62109375 2.41796875 C-12.90788192 -1.70467196 -5.86227803 -0.58005698 0 0 Z " fill="#FCB1BD" transform="translate(352,415)"/>
<path d="M0 0 C6.13255514 -0.3272312 10.67502678 -0.43164941 16 3 C17.11375 3.66 18.2275 4.32 19.375 5 C28.52294994 11.84072363 34.22906301 22.85472085 36 34 C36.38263573 38.10719089 36.51952703 42.18867487 36.5625 46.3125 C36.57732422 47.31434326 36.59214844 48.31618652 36.60742188 49.34838867 C36.48770269 57.96603235 34.32067451 65.68639176 28.9375 72.5625 C28.45152344 73.20316406 27.96554687 73.84382813 27.46484375 74.50390625 C26 76 26 76 23 77 C22.505 78.485 22.505 78.485 22 80 C17.11292759 82.15031186 11.35632286 81.42831248 6.4375 79.875 C-4.36709151 73.98158645 -11.33172461 63.41709245 -15.5625 52 C-18.74200088 40.00327212 -19.28608174 24.66156245 -13.5625 13.42578125 C-7.09032291 3.37772633 -7.09032291 3.37772633 -1 2 C-0.67 1.34 -0.34 0.68 0 0 Z " fill="#FCB0BD" transform="translate(405,390)"/>
<path d="M0 0 C5.92619147 3.77121275 8.85627091 9.96454539 11.19140625 16.39453125 C11.59111024 19.15969096 11.61972575 21.8544612 11.56640625 24.64453125 C11.56060547 25.3830835 11.55480469 26.12163574 11.54882812 26.88256836 C11.40450787 33.01952005 10.28988706 38.61121805 8.19140625 44.39453125 C7.53140625 44.39453125 6.87140625 44.39453125 6.19140625 44.39453125 C5.91296875 45.63203125 5.91296875 45.63203125 5.62890625 46.89453125 C3.69875546 51.59402881 0.6737682 54.75705295 -2.80859375 58.39453125 C-3.52595703 59.17376953 -3.52595703 59.17376953 -4.2578125 59.96875 C-6.1000534 61.66249793 -7.99761745 62.80344204 -10.18359375 64.01953125 C-10.93382812 64.44492187 -11.6840625 64.8703125 -12.45703125 65.30859375 C-18.34900373 68.0294714 -25.73767782 68.53993233 -31.98828125 66.78125 C-38.6773043 63.82714838 -42.93733088 58.45092728 -46.68359375 52.33203125 C-50.3775581 42.68667989 -49.7165655 31.94625651 -46.203125 22.38671875 C-41.23249279 11.72144068 -33.2096186 3.25871644 -22.515625 -1.66015625 C-15.17448988 -4.22372724 -6.98355308 -3.17230421 0 0 Z " fill="#BF483C" transform="translate(223.80859375,757.60546875)"/>
<path d="M0 0 C6.65136612 4.16300042 11.29510307 9.35863333 13.3125 17 C14.35061443 27.62382037 13.18795358 36.62600457 6.625 45.1875 C-2.02873034 55.26246343 -11.66205118 62.67551426 -25.09375 64.2890625 C-31.76087907 64.68003612 -36.38907455 63.04220221 -41.6875 59 C-47.21081478 53.80784756 -50.08963627 48.52283038 -50.76953125 40.8515625 C-50.43441181 29.20217232 -46.64851612 20.41193305 -38.6875 12 C-37.99914062 11.1234375 -37.31078125 10.246875 -36.6015625 9.34375 C-34.51639084 6.79047858 -32.62228453 5.46739226 -29.6875 4 C-29.0275 4 -28.3675 4 -27.6875 4 C-27.6875 3.34 -27.6875 2.68 -27.6875 2 C-9.09886557 -4.5264171 -9.09886557 -4.5264171 0 0 Z " fill="#C0483C" transform="translate(279.6875,795)"/>
<path d="M0 0 C0.72131104 -0.02312256 1.44262207 -0.04624512 2.18579102 -0.07006836 C7.83286831 0.01287125 10.24815416 1.69547668 14.25 5.625 C15.11625 6.305625 15.11625 6.305625 16 7 C20.39223922 12.70991099 19.77454011 20.83220557 19.25 27.625 C17.35392173 40.83571928 7.27148738 53.32199873 -2.75 61.625 C-3.74 61.955 -4.73 62.285 -5.75 62.625 C-6.245 63.615 -6.245 63.615 -6.75 64.625 C-8.07 64.625 -9.39 64.625 -10.75 64.625 C-10.75 65.285 -10.75 65.945 -10.75 66.625 C-25.85454372 70.62431181 -25.85454372 70.62431181 -32.9375 66.625 C-37.67144041 63.3207096 -41.1770271 58.77094579 -43.75 53.625 C-44.85061752 36.50193121 -39.99854705 25.66554207 -28.75 12.625 C-25.59550219 10.01285444 -22.1987718 7.82880032 -18.75 5.625 C-17.99847656 5.11066406 -17.24695313 4.59632813 -16.47265625 4.06640625 C-11.08180223 0.81346357 -6.17751167 0.12097214 0 0 Z " fill="#CC6354" transform="translate(741.75,324.375)"/>
<path d="M0 0 C7.4991604 3.64628598 12.49508349 8.47526591 15.26171875 16.3828125 C17.48093242 27.25578531 16.91748146 37.65373331 13 48 C12.69835937 48.91652344 12.39671875 49.83304687 12.0859375 50.77734375 C11.85132813 51.49019531 11.61671875 52.20304687 11.375 52.9375 C11.13523437 53.66839844 10.89546875 54.39929688 10.6484375 55.15234375 C10 57 10 57 9 59 C8.34 59 7.68 59 7 59 C6.73832031 59.5775 6.47664063 60.155 6.20703125 60.75 C2.83763284 67.03082034 -3.17563378 73.72521126 -10 76 C-15.05725276 76.48428951 -19.5300142 76.62191707 -24.25 74.625 C-31.43426412 67.76729334 -35.84021693 60.38373544 -36.3359375 50.328125 C-36.3653752 48.63562257 -36.37788374 46.94275596 -36.375 45.25 C-36.37483887 44.36908691 -36.37467773 43.48817383 -36.37451172 42.58056641 C-36.24511584 35.18593237 -35.466498 27.466498 -30 22 C-29.4740625 20.515 -29.4740625 20.515 -28.9375 19 C-25.69642679 11.21490957 -18.80061288 4.41525911 -11.2421875 0.79296875 C-7.22470361 -0.62784872 -4.15817601 -1.14451424 0 0 Z " fill="#FCB1BD" transform="translate(483,427)"/>
<path d="M0 0 C15.40999204 12.62824563 15.40999204 12.62824563 19.3515625 20.984375 C19.3515625 22.304375 19.3515625 23.624375 19.3515625 24.984375 C20.0115625 24.984375 20.6715625 24.984375 21.3515625 24.984375 C21.3515625 29.934375 21.3515625 34.884375 21.3515625 39.984375 C20.6915625 39.984375 20.0315625 39.984375 19.3515625 39.984375 C18.9803125 41.1290625 18.9803125 41.1290625 18.6015625 42.296875 C17.23025578 45.24518445 16.1164546 46.34272032 13.3515625 47.984375 C12.6915625 47.984375 12.0315625 47.984375 11.3515625 47.984375 C11.3515625 48.644375 11.3515625 49.304375 11.3515625 49.984375 C0.40070792 53.63465986 -11.7569479 51.46834793 -21.86328125 46.58984375 C-24.30217058 45.18397627 -26.53486364 43.8433014 -28.6484375 41.984375 C-28.6484375 41.324375 -28.6484375 40.664375 -28.6484375 39.984375 C-29.22335937 39.90703125 -29.79828125 39.8296875 -30.390625 39.75 C-33.40780361 38.72687369 -34.69146111 37.12508553 -36.7734375 34.734375 C-37.45664062 33.96609375 -38.13984375 33.1978125 -38.84375 32.40625 C-40.6484375 29.984375 -40.6484375 29.984375 -41.703125 27.25 C-42.17105469 26.12851562 -42.17105469 26.12851562 -42.6484375 24.984375 C-43.6384375 24.654375 -44.6284375 24.324375 -45.6484375 23.984375 C-47.51685967 19.75551282 -47.92011338 16.01174263 -47.8984375 11.421875 C-47.90359375 10.32746094 -47.90875 9.23304688 -47.9140625 8.10546875 C-47.43819155 2.51398511 -45.41943189 -0.96801273 -41.39453125 -4.72265625 C-29.93563357 -13.20788026 -10.25835286 -7.807242 0 0 Z " fill="#FCB1BD" transform="translate(347.6484375,495.015625)"/>
<path d="M0 0 C6.98860869 3.38841634 10.63582894 9.27165788 14 16 C14.30859375 18.3203125 14.30859375 18.3203125 14.4375 21.125 C14.49808594 22.03507812 14.55867188 22.94515625 14.62109375 23.8828125 C13.95796289 27.21097869 13.20815131 28.18825899 11.1015625 30.734375 C7.46270961 35.26666982 6.7138618 39.46561946 5.9375 45.125 C4.98398666 51.9156294 4.06802778 56.17110291 -1 61 C-6.09393739 62.69797913 -12.19442158 63.16940046 -17.23046875 61.0703125 C-17.91753906 60.69648438 -18.60460937 60.32265625 -19.3125 59.9375 C-24.48728672 57.26152921 -29.11022497 58.16463059 -34.75390625 58.75390625 C-40.02622983 59.15361309 -43.183115 58.14083477 -47.6875 55.3125 C-53.0151837 49.9848163 -55.55727533 43.48645679 -56.5 36.0625 C-56.40164394 31.78401122 -54.56031576 29.58053772 -51.703125 26.54296875 C-47.51639701 22.74994684 -43.74212289 21.17707044 -38.3125 19.6875 C-27.95886031 16.61992731 -21.38793728 11.79589089 -13.9453125 3.953125 C-9.59383474 -0.41582858 -5.91348328 -1.07343619 0 0 Z " fill="#8F212A" transform="translate(255,126)"/>
<path d="M0 0 C4.39941149 2.0751941 7.0573791 4.64009959 9.3125 9 C10.77929268 13.26703326 10.96427092 17.98070325 9.00390625 22.0859375 C8.67261719 22.71757813 8.34132812 23.34921875 8 24 C7.41654524 26.95746492 7.41654524 26.95746492 8 30 C9.89303141 32.07701656 9.89303141 32.07701656 11.42578125 33.3828125 C18.12806775 40.26803982 21.44536153 47.87248278 21.34765625 57.3359375 C20.35807317 64.91903482 15.12863282 70.80333847 9.26953125 75.33984375 C7.53806815 76.61352129 5.81246926 77.84439879 4 79 C3.4328125 79.36996094 2.865625 79.73992187 2.28125 80.12109375 C-1.07835031 81.41546031 -4.38769075 81.36852815 -7.9375 81.375 C-8.64068359 81.39949219 -9.34386719 81.42398438 -10.06835938 81.44921875 C-13.41056177 81.46801277 -15.71231816 81.16128908 -18.640625 79.51953125 C-21.87728726 76.06316178 -24.33579801 72.3367274 -26.8125 68.3125 C-27.31458984 67.54744141 -27.81667969 66.78238281 -28.33398438 65.99414062 C-31.67917823 60.59176633 -33.02824522 56.34272049 -32 50 C-29.65962073 42.52674346 -26.15140328 37.53549908 -19.64453125 33.29296875 C-17.692756 31.99119006 -17.692756 31.99119006 -16.875 28.9375 C-16.82879991 26.04644937 -16.82879991 26.04644937 -17.9375 23.75 C-19.77114457 19.0040964 -19.93125721 13.79377162 -18.3125 8.9375 C-14.34159215 1.26041149 -8.23460561 -1.43403365 0 0 Z " fill="#BC776C" transform="translate(181,83)"/>
<path d="M0 0 C6.16957943 3.76150997 10.25983192 7.78908245 12.62109375 14.859375 C15.27176651 28.09219097 12.71032282 42.27784798 5.9375 53.859375 C2.15507462 59.10912056 -2.82893172 63.87692388 -8.875 66.375 C-15.40559092 67.03912789 -20.28242672 65.86127945 -25.875 62.375 C-32.55834323 56.92162903 -35.0663393 48.55242498 -36.875 40.375 C-37.89531883 27.46023707 -37.7527851 15.51682047 -29.375 5.06640625 C-21.5811407 -3.72198197 -10.42249615 -5.34451014 0 0 Z " fill="#C56354" transform="translate(811.875,359.625)"/>
<path d="M0 0 C6.55860414 3.95991193 11.03504321 9.66152813 13.3125 17 C15.69845823 28.84959089 12.60192946 38.85145141 6.3125 49 C-3.54228321 61.83413627 -3.54228321 61.83413627 -10.7734375 63.47265625 C-14.41011376 63.81398252 -16.77731308 63.57468592 -19.90234375 61.6015625 C-21.97275011 59.83574106 -23.83927027 57.99558289 -25.6875 56 C-26.43 55.236875 -27.1725 54.47375 -27.9375 53.6875 C-34.89822077 42.99782167 -35.84449065 30.42425112 -34.6875 18 C-33.15001117 11.98182945 -29.28761881 8.00010331 -24.6875 4 C-24.0275 4 -23.3675 4 -22.6875 4 C-22.6875 3.34 -22.6875 2.68 -22.6875 2 C-14.94433993 -1.14215191 -8.15450145 -2.21139022 0 0 Z " fill="#BC483C" transform="translate(157.6875,781)"/>
<path d="M0 0 C6.0293854 3.19995314 10.43777235 8.24631091 13 14.5625 C15.55856212 23.82129668 15.18681232 34.2684174 11.45703125 43.125 C8.33895791 48.43533219 3.06387494 52.93269813 -2.765625 55.05859375 C-10.82592996 56.69674925 -19.03310609 56.74528667 -26.0390625 52.109375 C-32.83545433 46.34782472 -36.34811832 39.2264615 -37.25390625 30.42578125 C-37.57754752 21.60394667 -36.06242288 13.37424373 -30.75 6.125 C-22.01126387 -2.03115372 -11.48799768 -4.37918544 0 0 Z " fill="#D19D9F" transform="translate(411.9375,752.5)"/>
<path d="M0 0 C2.50187457 1.45705764 4.84210565 2.86740367 7.0625 4.7265625 C7.0625 5.3865625 7.0625 6.0465625 7.0625 6.7265625 C7.65675781 6.97664063 8.25101563 7.22671875 8.86328125 7.484375 C11.36464604 8.89722403 12.55756466 10.29567374 14.25 12.6015625 C14.75917969 13.27960938 15.26835938 13.95765625 15.79296875 14.65625 C19.78200283 21.16144404 18.97387714 30.72938122 17.34375 37.87890625 C14.94643165 44.9258622 12.00664291 50.11839306 5.5 54.0390625 C-0.63891681 57.05271257 -7.50648378 58.16196212 -14.15625 56.0078125 C-23.60192158 51.50295375 -28.09898758 45.07942362 -32.25 35.7890625 C-34.22187545 27.00525367 -32.96453891 19.11956286 -28.578125 11.3046875 C-22.12611418 1.12780445 -12.08558922 -5.2392315 0 0 Z " fill="#B96353" transform="translate(873.9375,320.2734375)"/>
<path d="M0 0 C3.82791342 2.54946467 7.19653164 5.85451719 8.65234375 10.29296875 C9.81388998 16.90873206 9.59179724 23.52356007 6.01171875 29.33984375 C-1.88255589 38.84460794 -9.72083225 43.96147869 -21.98828125 45.33984375 C-30.66204938 45.83548764 -38.53959909 45.99778154 -45.92578125 40.90234375 C-48.1358025 38.87111074 -48.9033553 37.74003437 -49.53125 34.78125 C-49.87606075 22.94274753 -44.69853173 15.50733961 -36.890625 7.07421875 C-34.98828125 5.33984375 -34.98828125 5.33984375 -32.98828125 5.33984375 C-32.65828125 4.34984375 -32.32828125 3.35984375 -31.98828125 2.33984375 C-29.84375 1.20703125 -29.84375 1.20703125 -27.17578125 0.21484375 C-26.30308594 -0.11773437 -25.43039062 -0.4503125 -24.53125 -0.79296875 C-16.28114609 -3.60636824 -7.93427998 -4.00275166 0 0 Z " fill="#C76354" transform="translate(728.98828125,260.66015625)"/>
<path d="M0 0 C4.91182019 2.87295143 7.52382943 6.57148828 9.3125 11.9375 C10.20314773 20.39865344 6.90392279 26.23546745 2.125 33.0625 C1.526875 33.68125 0.92875 34.3 0.3125 34.9375 C-0.3475 34.9375 -1.0075 34.9375 -1.6875 34.9375 C-2.0175 35.9275 -2.3475 36.9175 -2.6875 37.9375 C-11.86314206 45.39270917 -20.77023343 48.30288789 -32.6875 47.9375 C-39.03859696 46.72682214 -43.87988324 43.52841736 -47.5625 38.25 C-49.02081233 33.95608036 -49.06795225 30.27498657 -47.6875 25.9375 C-44.47233544 20.88628539 -39.76382266 17.87132833 -34.9375 14.5 C-33.37969861 13.39785552 -31.82240353 12.29499505 -30.265625 11.19140625 C-29.50443359 10.65418945 -28.74324219 10.11697266 -27.95898438 9.56347656 C-25.06824919 7.49422717 -22.23224799 5.35765054 -19.40527344 3.20239258 C-12.99018546 -1.5213952 -7.48692133 -2.15724852 0 0 Z " fill="#BD483C" transform="translate(292.6875,855.0625)"/>
<path d="M0 0 C6.78808566 4.33074999 11.27167361 9.9309372 14.1796875 17.390625 C13.6846875 18.875625 13.6846875 18.875625 13.1796875 20.390625 C10.2096875 20.720625 7.2396875 21.050625 4.1796875 21.390625 C3.81617188 20.78734375 3.45265625 20.1840625 3.078125 19.5625 C-0.36775881 14.0844283 -3.27735199 9.74797296 -9.7421875 7.81640625 C-17.26614512 6.2748435 -24.22680162 7.39421858 -30.8203125 11.390625 C-36.48569321 16.77565698 -38.76533977 23.11900978 -39.15625 30.87890625 C-39.18598219 32.486757 -39.1985204 34.09500257 -39.1953125 35.703125 C-39.19289551 36.96116943 -39.19289551 36.96116943 -39.19042969 38.24462891 C-39.06423637 44.62234003 -38.13803427 49.84182205 -34.8203125 55.390625 C-34.2634375 56.339375 -33.7065625 57.288125 -33.1328125 58.265625 C-28.49263763 62.52956948 -23.16637837 64.59689134 -16.8828125 64.953125 C-11.14944085 64.67627995 -6.42664109 62.79423547 -1.8203125 59.390625 C1.46476739 55.57470082 3.54778603 51.13797472 5.1796875 46.390625 C8.4796875 47.050625 11.7796875 47.710625 15.1796875 48.390625 C14.37776292 56.40987085 10.91773414 62.38414236 5.11328125 67.8515625 C-3.91867196 75.04063232 -13.79486233 74.9424385 -24.8203125 74.390625 C-32.87678172 73.3296428 -38.63017588 68.43368617 -43.8203125 62.390625 C-51.06630775 50.30267966 -52.7087895 36.59066243 -50.16796875 22.8671875 C-47.09483087 12.60580866 -41.61083204 5.85168231 -32.34765625 0.58203125 C-22.59417532 -4.01582298 -9.90023037 -4.73344348 0 0 Z " fill="#D39D9F" transform="translate(439.8203125,185.609375)"/>
<path d="M0 0 C2.97 0 5.94 0 9 0 C9.33 13.53 9.66 27.06 10 41 C17.83522855 32.47753839 17.83522855 32.47753839 25.4375 23.75 C28.11849514 21.04463217 29.4384554 20.09585689 33.2265625 19.44921875 C36.20966957 19.43873945 39.04671686 19.59523531 42 20 C36.17371096 27.15801225 29.5617015 33.52591766 23 40 C27.16938755 47.88613331 32.06200984 55.17877029 37.09179688 62.53515625 C37.99575195 63.87126953 37.99575195 63.87126953 38.91796875 65.234375 C39.46219482 66.03069336 40.0064209 66.82701172 40.56713867 67.64746094 C42.01951481 70.03204033 43.04043569 72.38274264 44 75 C40.02129563 76.02115036 36.95169129 76.22052237 33 75 C29.15555441 71.4176143 26.68157912 66.52879804 24.12695312 61.99316406 C22.50502041 59.12456383 20.76027209 56.34838517 19 53.5625 C18.46375 52.67691406 17.9275 51.79132813 17.375 50.87890625 C16.92125 50.25886719 16.4675 49.63882813 16 49 C13.87452058 48.82352485 13.87452058 48.82352485 11.921875 50.296875 C8.86714851 54.59336023 9.32185973 59.10223043 9.25 64.25 C9.22035156 65.28125 9.19070313 66.3125 9.16015625 67.375 C9.08955222 69.91674495 9.03680991 72.45757783 9 75 C6.03 75 3.06 75 0 75 C0 50.25 0 25.5 0 0 Z " fill="#D5A0A2" transform="translate(565,184)"/>
<path d="M0 0 C3.3 0 6.6 0 10 0 C10.01401855 1.778302 10.01401855 1.778302 10.02832031 3.5925293 C10.06825998 8.00046045 10.13402981 12.40769658 10.20751953 16.81518555 C10.2357061 18.72101905 10.25693216 20.62696895 10.27099609 22.53295898 C10.29245783 25.27648406 10.33912365 28.01861313 10.390625 30.76171875 C10.39185364 31.61086349 10.39308228 32.46000824 10.39434814 33.33488464 C10.49454617 37.40229507 10.68478419 39.50324144 12.91308594 43.01489258 C16.13696794 46.08150285 18.44875003 46.35426497 22.90234375 46.2734375 C26.45500147 45.810335 28.38125709 44.37513892 31 42 C33.74073681 36.75452177 34.46034568 32.52474242 34.51171875 26.66015625 C34.52966995 25.89319931 34.54762115 25.12624237 34.56611633 24.33604431 C34.6198448 21.91158374 34.65399275 19.48731568 34.6875 17.0625 C34.72070634 15.40817654 34.75519902 13.75387838 34.79101562 12.09960938 C34.87554886 8.06654607 34.94253679 4.03353612 35 0 C38.3 0 41.6 0 45 0 C45 18.15 45 36.3 45 55 C42.03 55 39.06 55 36 55 C35.505 51.535 35.505 51.535 35 48 C34.278125 48.763125 33.55625 49.52625 32.8125 50.3125 C28.38555399 54.54269285 25.25529337 56.4228208 19.0625 56.375 C12.46223939 56.18087469 8.92484448 54.96859095 4.25 50.1875 C-0.05260715 44.09213987 -0.28117761 38.64767785 -0.1953125 31.4453125 C-0.1924826 30.54376434 -0.18965271 29.64221619 -0.18673706 28.71334839 C-0.17559439 25.85042724 -0.1505008 22.98782566 -0.125 20.125 C-0.11496255 18.17708787 -0.10583804 16.22917081 -0.09765625 14.28125 C-0.07567443 9.5207113 -0.0411855 4.76040973 0 0 Z " fill="#D29C9E" transform="translate(534,752)"/>
<path d="M0 0 C3.3 0 6.6 0 10 0 C11.51775931 4.06879652 13.02908308 8.13991252 14.53491211 12.21313477 C15.04624196 13.59364508 15.55921623 14.97354763 16.07397461 16.3527832 C18.86675764 23.83918212 21.51700994 31.28026692 23.44604492 39.04760742 C23.82516258 40.98757774 23.82516258 40.98757774 25 42 C25.38478516 40.59427734 25.38478516 40.59427734 25.77734375 39.16015625 C29.51080633 25.86608154 34.224361 12.94995932 39 0 C42.3 0 45.6 0 49 0 C47.02186591 6.76630664 44.85901866 13.41390086 42.453125 20.0390625 C41.95168976 21.42585709 41.95168976 21.42585709 41.44012451 22.84066772 C40.73562816 24.78574548 40.02965497 26.73028891 39.32226562 28.67431641 C38.26105057 31.59459081 37.20842893 34.51786602 36.15625 37.44140625 C33.03518574 46.06688294 29.85561585 54.65594289 26.234375 63.0859375 C25.96586731 63.72109283 25.69735962 64.35624817 25.42071533 65.01065063 C23.44927757 69.47814978 21.18272476 73.51823157 17.078125 76.3046875 C14.5335461 77.15606916 12.42774924 77.19546709 9.75 77.125 C8.85796875 77.10695313 7.9659375 77.08890625 7.046875 77.0703125 C6.37140625 77.04710937 5.6959375 77.02390625 5 77 C3.68373308 73.38026598 3 70.90432869 3 67 C4.216875 67.061875 5.43375 67.12375 6.6875 67.1875 C10.64801968 67.15251308 12.97863967 66.76238659 16 64 C18.58705203 59.34934615 19.22974169 56.18539254 18 51 C17.44683122 49.34562989 16.85578009 47.7036042 16.23413086 46.07373047 C15.87383286 45.1227951 15.51353485 44.17185974 15.14231873 43.19210815 C14.75375198 42.17738434 14.36518524 41.16266052 13.96484375 40.1171875 C13.14774977 37.95964931 12.33069361 35.8020968 11.51367188 33.64453125 C10.22240636 30.24895382 8.92949817 26.85400889 7.63549805 23.45947266 C6.38700538 20.18025344 5.14443084 16.89883724 3.90234375 13.6171875 C3.51175278 12.59841522 3.1211618 11.57964294 2.71873474 10.52999878 C2.3615889 9.58536774 2.00444305 8.64073669 1.63647461 7.66748047 C1.31972275 6.83650848 1.00297089 6.0055365 0.67662048 5.14938354 C0 3 0 3 0 0 Z " fill="#D09D9F" transform="translate(588,752)"/>
<path d="M0 0 C5.150879 3.02710239 9.34726438 7.38567376 11.46875 13.04296875 C11.59375 15.79296875 11.59375 15.79296875 11.46875 18.04296875 C8.49875 18.04296875 5.52875 18.04296875 2.46875 18.04296875 C2.076875 17.11484375 1.685 16.18671875 1.28125 15.23046875 C-0.75773139 11.64467388 -1.7181958 10.53503344 -5.53125 9.04296875 C-10.39417366 8.22029369 -14.2704244 8.45088955 -18.46875 11.16796875 C-21.75446867 13.54487162 -22.55369991 16.16504598 -23.53125 20.04296875 C-24.5126295 31.56844615 -24.5126295 31.56844615 -20.53125 42.04296875 C-17.14024888 45.1917555 -14.50665458 46.29925459 -9.96875 46.48046875 C-6.03698339 46.26277026 -3.51879195 45.77443567 -0.53125 43.04296875 C1.03356967 40.43322015 2.23175007 37.83767228 3.46875 35.04296875 C6.43875 35.37296875 9.40875 35.70296875 12.46875 36.04296875 C11.88490001 42.02743118 10.00678136 46.76078733 5.53125 50.78515625 C-1.8218327 56.43513524 -8.31991153 57.03799034 -17.53125 56.04296875 C-24.83542668 53.58230736 -28.79104813 49.10967635 -32.47265625 42.5078125 C-36.08230012 34.10306977 -36.06059497 21.89462584 -32.78125 13.35546875 C-29.60153485 6.79867682 -26.16321961 3.09762175 -19.515625 0 C-13.22271962 -2.01801285 -6.24266197 -2.36026571 0 0 Z " fill="#D59C9F" transform="translate(544.53125,203.95703125)"/>
<path d="M0 0 C4.9710149 2.53240382 8.49430567 5.98861134 11 11 C12.1491239 27.4644965 12.1491239 27.4644965 8.3203125 33.515625 C5.29381239 36.91819909 2.25378079 38.62306105 -2.2421875 39.375 C-7.6221554 39.66482992 -10.86645053 38.65290418 -15 35 C-20.26940881 28.02159374 -20.39672697 22.48554907 -20 14 C-19.15071586 8.14937593 -17.12984803 5.70882026 -12.65625 2.1640625 C-8.64851348 -0.65269572 -4.76608986 -0.57868207 0 0 Z " fill="#A20208" transform="translate(405,760)"/>
<path d="M0 0 C5.75518084 5.11860327 8.50753375 10.9899177 9.4375 18.5625 C8.89669364 22.81169286 7.83504338 25.76353455 5 29 C0.26782385 31.82110501 -4.53686149 33.10513871 -10 32 C-16.81113617 29.04850766 -20.73862884 24.35306758 -24.8125 18.3125 C-26.66223534 13.15271194 -27.35283238 7.2074195 -25.16796875 2.02734375 C-23.40901136 -0.65391339 -21.37380393 -3.41877526 -18.375 -4.6875 C-11.61662935 -5.5767593 -5.56046567 -3.79907593 0 0 Z " fill="#97212A" transform="translate(293,189)"/>
<path d="M0 0 C7.51873443 2.24242957 11.03692184 6.66276713 14.875 13.1875 C16.60429647 19.0478936 17.52865803 25.49379229 15.015625 31.2578125 C12.88935009 34.39472425 10.7118204 37.0455319 7 38 C0.74118126 38.62588187 -3.88486411 37.80464653 -9 34 C-14.24857999 28.33339152 -17.47214522 23.09769916 -17.2421875 15.3046875 C-16.67912027 9.94646711 -14.56529669 6.23204378 -10.75 2.5625 C-7.12155689 -0.28841959 -4.63941095 -0.74561962 0 0 Z " fill="#96212A" transform="translate(254,202)"/>
<path d="M0 0 C0 6.27 0 12.54 0 19 C2.97 19 5.94 19 9 19 C9 21.97 9 24.94 9 28 C6.03 28 3.06 28 0 28 C0.11794522 33.10881026 0.24217047 38.21741364 0.37231445 43.32592773 C0.41572573 45.06514288 0.45739612 46.80440235 0.49731445 48.54370117 C0.55486768 51.03838488 0.6186042 53.5328441 0.68359375 56.02734375 C0.70030624 56.80963852 0.71701874 57.59193329 0.73423767 58.39793396 C0.50648731 61.99871781 0.50648731 61.99871781 2 65 C3.155 65.144375 4.31 65.28875 5.5 65.4375 C7.2325 65.7159375 7.2325 65.7159375 9 66 C10.35439668 68.70879335 10.06501451 71.00933268 10 74 C6.05749412 75.97125294 1.29780285 75.44717024 -3 75 C-7.18316493 72.69499076 -8.62454506 70.48473677 -10 66 C-10.26282952 63.06319638 -10.23307703 60.14571771 -10.1953125 57.19921875 C-10.19106766 55.9446563 -10.19106766 55.9446563 -10.18673706 54.66474915 C-10.1755832 52.00551774 -10.15048763 49.34662882 -10.125 46.6875 C-10.11496399 44.87956217 -10.10583923 43.07161904 -10.09765625 41.26367188 C-10.07565959 36.84231688 -10.04116294 32.42121642 -10 28 C-11.98 28 -13.96 28 -16 28 C-16 25.03 -16 22.06 -16 19 C-14.02 19 -12.04 19 -10 19 C-10 14.38 -10 9.76 -10 5 C-1.125 0 -1.125 0 0 0 Z " fill="#CF9C9E" transform="translate(361,733)"/>
<path d="M0 0 C6.001875 -0.0928125 6.001875 -0.0928125 12.125 -0.1875 C13.37555176 -0.21481201 14.62610352 -0.24212402 15.91455078 -0.27026367 C23.11958967 -0.32424052 27.77802946 0.20197295 33.375 5.0625 C35.75603132 9.36667201 35.63418873 13.18809298 35 18 C33.66691476 21.6855886 32.57631737 22.66861751 29.1875 24.6171875 C23.71434707 26.86500099 17.87226641 26.31531562 12.0625 26.1875 C8.081875 26.125625 4.10125 26.06375 0 26 C0 17.42 0 8.84 0 0 Z " fill="#A50107" transform="translate(477,772)"/>
<path d="M0 0 C0.80816162 0.14469727 1.61632324 0.28939453 2.44897461 0.43847656 C18.37015528 3.45219146 30.49508842 12.14424382 39.75 25.5 C41.95618967 28.81544705 43.20833243 32.0697011 44.375 35.875 C24.61499552 38.06177383 24.61499552 38.06177383 17.0234375 31.99609375 C12.85534319 27.99737429 10.51918031 25.47024556 10.1875 19.5 C10.43854226 14.64651624 11.70528978 11.87956533 14.375 7.875 C13.62814941 7.85518066 12.88129883 7.83536133 12.11181641 7.81494141 C8.74084395 7.71991789 5.37051071 7.61014741 2 7.5 C0.824375 7.4690625 -0.35125 7.438125 -1.5625 7.40625 C-2.68398438 7.36757812 -3.80546875 7.32890625 -4.9609375 7.2890625 C-6.51627197 7.24193115 -6.51627197 7.24193115 -8.10302734 7.19384766 C-10.625 6.875 -10.625 6.875 -12.625 4.875 C-12.625 3.555 -12.625 2.235 -12.625 0.875 C-8.62937482 -2.0522762 -4.53742807 -0.8357318 0 0 Z " fill="#A44839" transform="translate(878.625,72.125)"/>
<path d="M0 0 C5.70330764 1.01653701 9.08198031 3.93528446 12.51953125 8.37109375 C15.89964018 13.86263802 16.10299893 19.09694193 15.08203125 25.37109375 C13.8062973 29.19829561 11.88471143 31.69857792 8.76953125 34.30859375 C5.24672127 35.70133258 2.84637975 35.83338216 -0.91796875 35.37109375 C-7.03378196 32.13331029 -10.7039536 27.88961047 -12.91796875 21.37109375 C-13.7886122 13.60314503 -12.773082 8.38940129 -8.23046875 1.99609375 C-5.47035196 0.05655222 -3.34954349 -0.20507409 0 0 Z " fill="#92222A" transform="translate(218.91796875,189.62890625)"/>
<path d="M0 0 C5.57771992 3.56044455 10.56415503 7.40730885 12.71875 13.87109375 C13.21329882 18.6544348 13.41631528 22.58328092 11.09375 26.87109375 C7.36939493 30.00739276 4.12234705 30.71513852 -0.65625 31.24609375 C-6.25321824 30.66709704 -10.18837408 29.05283914 -14.12109375 24.953125 C-17.75859611 20.11738657 -19.07355807 16.15028918 -18.6796875 10.1015625 C-17.90318206 5.75465459 -15.6267073 2.65897483 -12.28125 -0.12890625 C-7.87014393 -1.59927494 -4.30653782 -2.13114628 0 0 Z " fill="#93212A" transform="translate(290.28125,151.12890625)"/>
<path d="M0 0 C3.3 0 6.6 0 10 0 C10 24.75 10 49.5 10 75 C6.7 75 3.4 75 0 75 C0 50.25 0 25.5 0 0 Z " fill="#D3999B" transform="translate(465,184)"/>
<path d="M0 0 C3.87575108 -0.1081605 7.74846959 -0.1874032 11.625 -0.25 C13.26662109 -0.30027344 13.26662109 -0.30027344 14.94140625 -0.3515625 C21.30703343 -0.42872162 25.18329427 -0.32063305 30 4 C32 6 32 6 32.265625 8.0234375 C32.26046875 8.79945313 32.2553125 9.57546875 32.25 10.375 C32.25773437 11.53128906 32.25773437 11.53128906 32.265625 12.7109375 C31.9561994 15.37745812 31.56966647 16.80787959 30 19 C24.44841795 23.10374421 18.20784801 22.33869616 11.625 22.1875 C9.94857422 22.16719727 9.94857422 22.16719727 8.23828125 22.14648438 C5.49197912 22.11127537 2.74592643 22.05747288 0 22 C0 14.74 0 7.48 0 0 Z " fill="#AE0208" transform="translate(477,741)"/>
<path d="M0 0 C3.63 0 7.26 0 11 0 C11.21672084 19.44652725 11.22769398 38.64690857 9 58 C6.69 58 4.38 58 2 58 C0.59091895 38.62138805 -0.29959506 19.44039051 0 0 Z " fill="#D19EA0" transform="translate(647,732)"/>
<path d="M0 0 C2.97 0 5.94 0 9 0 C9 18.15 9 36.3 9 55 C6.03 55 3.06 55 0 55 C0 36.85 0 18.7 0 0 Z " fill="#D8A3A5" transform="translate(490,204)"/>
<path d="M0 0 C1.8125 2.3125 1.8125 2.3125 3 5 C2.57421875 7.16796875 2.57421875 7.16796875 2 9 C-0.35424675 9.02726927 -2.70816962 9.04696719 -5.0625 9.0625 C-7.02896484 9.07990234 -7.02896484 9.07990234 -9.03515625 9.09765625 C-12.8163519 9.00452335 -16.27920707 8.61448726 -20 8 C-20 7.34 -20 6.68 -20 6 C-22.97 5.505 -22.97 5.505 -26 5 C-26 4.01 -26 3.02 -26 2 C-22.4184073 1.46669495 -18.83454729 0.95053833 -15.25 0.4375 C-14.23421875 0.28603516 -13.2184375 0.13457031 -12.171875 -0.02148438 C-11.1921875 -0.16005859 -10.2125 -0.29863281 -9.203125 -0.44140625 C-7.85202637 -0.63778687 -7.85202637 -0.63778687 -6.47363281 -0.83813477 C-3.99177242 -1.00053838 -2.31834113 -0.88093164 0 0 Z " fill="#BD786E" transform="translate(250,53)"/>
<path d="M0 0 C3.63 0 7.26 0 11 0 C11 2.97 11 5.94 11 9 C7.37 9 3.74 9 0 9 C0 6.03 0 3.06 0 0 Z " fill="#CC9EA0" transform="translate(647,798)"/>
<path d="M0 0 C2.97 0 5.94 0 9 0 C9 2.97 9 5.94 9 9 C6.03 9 3.06 9 0 9 C0 6.03 0 3.06 0 0 Z " fill="#D3A3A5" transform="translate(490,184)"/>
<path d="M0 0 C0.66 0.33 1.32 0.66 2 1 C-4.27 7.27 -10.54 13.54 -17 20 C-17.66 19.67 -18.32 19.34 -19 19 C-16.58858849 16.39092446 -14.1699725 13.78863495 -11.75 11.1875 C-11.06808594 10.44951172 -10.38617188 9.71152344 -9.68359375 8.95117188 C-9.01972656 8.23896484 -8.35585938 7.52675781 -7.671875 6.79296875 C-7.0644043 6.1383667 -6.45693359 5.48376465 -5.83105469 4.80932617 C-3.99943782 2.99944449 -2.09400985 1.49370007 0 0 Z " fill="#8A2A24" transform="translate(431,580)"/>
<path d="M0 0 C1.32 0.33 2.64 0.66 4 1 C2.54782324 2.50596108 1.08807139 4.00462104 -0.375 5.5 C-1.18710937 6.3353125 -1.99921875 7.170625 -2.8359375 8.03125 C-5 10 -5 10 -7 10 C-7 10.99 -7 11.98 -7 13 C-7.66 13 -8.32 13 -9 13 C-7.47987323 7.59510481 -3.72614782 4.01507372 0 0 Z " fill="#F7B7C2" transform="translate(397,496)"/>
<path d="M0 0 C1.32 0.33 2.64 0.66 4 1 C2.71451591 2.33929505 1.42141845 3.67128643 0.125 5 C-0.59429687 5.7425 -1.31359375 6.485 -2.0546875 7.25 C-4 9 -4 9 -6 9 C-6 9.99 -6 10.98 -6 12 C-6.66 12 -7.32 12 -8 12 C-6.49087042 7.01987239 -3.44338151 3.75740058 0 0 Z " fill="#F8B3BF" transform="translate(400,393)"/>
<path d="M0 0 C0.66 0.33 1.32 0.66 2 1 C-1.63 4.63 -5.26 8.26 -9 12 C-9 7.8407692 -6.75316432 5.85455565 -4 3 C-1.6875 1.125 -1.6875 1.125 0 0 Z " fill="#EEC4B8" transform="translate(304,482)"/>
<path d="M0 0 C0.58265625 0.22558594 1.1653125 0.45117188 1.765625 0.68359375 C-1.11386647 2.92319822 -4.00179526 4.98223599 -7.234375 6.68359375 C-7.894375 6.35359375 -8.554375 6.02359375 -9.234375 5.68359375 C-8.16544282 4.64769037 -7.07859012 3.63025433 -5.984375 2.62109375 C-5.38109375 2.05261719 -4.7778125 1.48414063 -4.15625 0.8984375 C-2.234375 -0.31640625 -2.234375 -0.31640625 0 0 Z " fill="#F4BCC6" transform="translate(470.234375,430.31640625)"/>
<path d="M0 0 C0.66 0.33 1.32 0.66 2 1 C1.2575 1.6496875 1.2575 1.6496875 0.5 2.3125 C-1.33218192 3.99740483 -1.33218192 3.99740483 -1 7 C-2.65 6.67 -4.3 6.34 -6 6 C-6 5.01 -6 4.02 -6 3 C-4.03533587 1.93224776 -2.03144641 0.93446535 0 0 Z " fill="#913731" transform="translate(481,506)"/>
<path d="M0 0 C0.33 0.99 0.66 1.98 1 3 C0.2884375 3.6496875 0.2884375 3.6496875 -0.4375 4.3125 C-2.23686957 6.02309613 -2.23686957 6.02309613 -3 9 C-3.66 9 -4.32 9 -5 9 C-3.7508258 5.54074837 -2.32472205 2.85306797 0 0 Z " fill="#F3BCC6" transform="translate(397,396)"/>
</svg>
