<svg width="41" height="40" viewBox="0 0 41 40" fill="none" xmlns="http://www.w3.org/2000/svg">
<g id="11" clip-path="url(#clip0_1316_19042)">
<g id="Icons-Crypto/Binance-USD">
<path id="Combined-Shape" fill-rule="evenodd" clip-rule="evenodd" d="M20.833 0C31.8787 0 40.833 8.95432 40.833 20C40.833 31.0457 31.8787 40 20.833 40C9.78733 40 0.833008 31.0457 0.833008 20C0.833008 8.95432 9.78733 0 20.833 0ZM31.0356 16.5874L17.4198 30.2032L20.8168 33.6L34.433 19.9844L31.0356 16.5874ZM25.9432 11.4854L12.3274 25.1012L15.7246 28.4984L29.3404 14.8826L25.9432 11.4854ZM10.6302 16.61L7.23301 20.0072L10.6302 23.4044L14.0274 20.0072L10.6302 16.61ZM20.8412 6.40002L12.3212 14.92L15.7184 18.3172L24.2384 9.79723L20.8412 6.40002Z" fill="#F0B90B"/>
</g>
</g>
<defs>
<clipPath id="clip0_1316_19042">
<rect width="40" height="40" fill="white" transform="translate(0.833008)"/>
</clipPath>
</defs>
</svg>
