<svg width="20" height="20" viewBox="0 0 20 20" fill="none" xmlns="http://www.w3.org/2000/svg">
<g id="Layer 3">
<g id="Layer 1">
<path id="Vector" d="M19.4665 16.4179C19.2155 17.4144 18.9594 18.2469 18.9173 18.2297C18.815 18.1971 0.847322 16.7422 0.847322 16.7422C0.847322 16.7422 0.661663 16.3672 0.463971 15.9269C0.463971 15.9269 0.463971 15.9269 0.463971 15.9224C0.206111 15.3417 -0.0740961 14.6541 0.0178738 14.5526C0.083145 14.4982 0.154432 14.4523 0.230178 14.4159C0.480302 14.2782 0.905771 14.068 1.32092 13.8397C1.47048 13.7582 1.61832 13.6739 1.75757 13.5906C1.79367 13.5707 1.82719 13.548 1.86071 13.5263C2.13232 13.356 2.35236 13.1875 2.44605 13.0452C2.52513 12.9275 2.57928 12.7037 2.62312 12.4283C2.76838 11.5224 2.79502 10.073 3.10789 9.92169C3.51961 9.7242 5.50427 9.57292 5.63492 9.38358C5.76557 9.19425 5.42691 8.30647 5.34611 8.02926C5.34351 8.02483 5.34176 8.01991 5.34096 8.01477C5.31001 7.91421 5.21461 7.65784 5.09771 7.34803V7.33806C4.83985 6.66226 4.48744 5.73824 4.47455 5.61685C4.4479 5.42571 7.50612 0.0419419 8.36393 0.000270541C9.22174 -0.0414009 16 4.74447 15.9734 4.96098C15.8676 5.82793 15.7499 6.73111 15.6296 7.6044C15.2453 10.4227 14.8508 12.9284 14.8508 12.9284C14.8508 12.9284 15.8135 12.8487 16.985 12.8459C17.9494 12.8459 19.0548 12.8939 19.8774 13.0806C20.1963 13.1521 19.8344 14.963 19.4665 16.4179Z" fill="#FFE603"/>
<path id="Vector_2" d="M0.491699 16.0039C0.491699 16.0039 1.07962 17.6418 1.19738 17.8157C1.31513 17.9896 3.38403 19.7 3.87482 19.632C4.18683 19.5886 9.54773 18.3719 10.0248 18.3294C10.2457 18.3103 10.935 19.7072 11.6811 19.8558C12.1607 19.9509 18.4559 20.1529 18.737 19.7951C19.0181 19.4373 19.5346 16.1489 19.5346 16.1489L0.491699 16.0039Z" fill="#FF7B00"/>
<path id="Vector_3" d="M19.8267 14.1268C19.8087 14.2808 19.7872 14.4493 19.7614 14.6287C19.5483 16.1606 19.0893 18.4942 18.7687 19.3657C18.6956 19.5668 18.6294 19.69 18.5753 19.7072C18.5223 19.7202 18.4686 19.7295 18.4145 19.7353C17.3092 19.8594 11.901 19.7507 11.6801 19.7072C11.6628 19.7033 11.6461 19.6972 11.6302 19.6891C11.5957 19.6731 11.5629 19.6534 11.5323 19.6302C11.5211 19.6229 11.5108 19.6139 11.5005 19.6057C11.197 19.3675 10.7269 18.765 10.3736 18.4208C10.304 18.3525 10.2296 18.2898 10.151 18.2333C10.1101 18.2026 10.0635 18.1813 10.0143 18.1708C9.98214 18.1696 9.94993 18.1714 9.91805 18.1762C9.86304 18.1835 9.78912 18.197 9.69715 18.2152C9.50891 18.2514 9.2502 18.3103 8.94506 18.3837C7.50019 18.7252 5.02216 19.3729 4.10933 19.5142C4.0072 19.5355 3.90311 19.5446 3.79904 19.5414C3.77749 19.538 3.75622 19.5329 3.73544 19.526C3.70612 19.5175 3.6774 19.5069 3.64948 19.4943C3.00569 19.2361 1.4422 17.9706 1.27803 17.7559C1.23131 17.6879 1.18937 17.6165 1.15254 17.5421C0.860498 16.9573 0.607191 16.3519 0.394435 15.7303C0.334268 15.5491 0.280977 15.3752 0.243157 15.2203C0.166659 14.915 0.143452 14.6822 0.214793 14.5988L0.226826 14.587C0.448586 14.3696 2.27509 13.3016 2.39113 13.1765C2.39967 13.1661 2.40637 13.1541 2.4109 13.1412C2.42378 13.1116 2.43526 13.0814 2.44528 13.0506C2.56218 12.7009 2.79941 11.738 3.02632 10.9725C3.05297 10.8819 3.08133 10.7913 3.10712 10.7007C3.23949 10.2777 3.36498 9.95879 3.44577 9.91893C3.51449 9.89472 3.5849 9.87624 3.65636 9.86367L3.83342 9.82834C4.50386 9.69789 5.78026 9.49316 5.81035 9.38445C5.8284 9.32013 5.55249 8.60175 5.26025 7.80093C5.25988 7.79641 5.25988 7.79187 5.26025 7.78735C5.04708 7.20576 4.8236 6.5825 4.69639 6.13589C4.62076 5.87046 4.57864 5.66754 4.59239 5.57333C4.63021 5.3088 6.39311 2.37459 7.55692 0.968636C7.92738 0.521121 8.23681 0.228516 8.41043 0.228516C8.50909 0.24195 8.60494 0.272563 8.69408 0.319106H8.69924C10.1364 0.977695 15.7534 4.82686 15.7792 5.11494V5.12038C15.7792 5.16748 15.7861 5.22455 15.7861 5.2925V5.32602C15.7861 6.74103 15.1569 12.0297 15.0735 12.7064C15.074 12.7139 15.074 12.7215 15.0735 12.729C15.0735 12.729 19.1821 12.9256 19.8414 13.2028C19.8989 13.2264 19.8878 13.5887 19.8267 14.1268Z" fill="url(#paint0_linear_428_14136)"/>
<path id="Vector_4" style="mix-blend-mode:screen" d="M15.7876 5.29719C14.0075 5.73927 10.8478 6.22211 10.0287 5.92316C8.88551 5.50826 8.2125 0.475986 8.39558 0.397173C8.49281 0.357364 8.5945 0.330876 8.69813 0.318359C10.1293 0.972419 15.7575 4.82884 15.7833 5.11963C15.7841 5.16402 15.7876 5.22653 15.7876 5.29719Z" fill="url(#paint1_linear_428_14136)"/>
<path id="Vector_5" style="mix-blend-mode:screen" d="M7.36525 12.5435C6.43265 13.0771 3.95118 10.5994 3.81882 10.4056C3.6727 10.1909 3.6366 10.0097 3.65551 9.86203C4.24085 9.73793 5.77597 9.49967 5.80949 9.38281C5.80949 9.38281 7.4598 12.4901 7.36525 12.5435Z" fill="url(#paint2_linear_428_14136)"/>
<path id="Vector_6" style="mix-blend-mode:screen" d="M19.837 13.2043C19.6651 14.535 18.2194 15.3304 17.7467 15.4391C17.2739 15.5478 12.7227 14.5042 12.4717 14.3964C12.2207 14.2886 15.0692 12.7305 15.0692 12.7305C15.0692 12.7305 19.1778 12.927 19.837 13.2043Z" fill="url(#paint3_linear_428_14136)"/>
<path id="Vector_7" style="mix-blend-mode:screen" d="M3.97449 16.5584C3.79743 16.621 0.708272 15.2349 0.429783 14.9867C0.324693 14.8776 0.253637 14.7373 0.226074 14.5845C0.447834 14.3671 2.27434 13.299 2.39038 13.174C2.39892 13.1636 2.40562 13.1516 2.41015 13.1387C3.05394 14.0283 4.45411 16.052 4.47302 16.1444C4.5074 16.264 4.15328 16.4968 3.97449 16.5584Z" fill="url(#paint4_linear_428_14136)"/>
<path id="Vector_8" d="M12.4717 14.3953C12.4717 14.3953 17.4183 15.5585 17.7466 15.438C18.075 15.3175 18.8941 14.8211 19.1606 14.3953C19.427 13.9695 19.837 13.2031 19.837 13.2031C19.837 13.2031 19.7021 14.3011 19.1107 14.7268C18.5193 15.1526 17.8996 15.4117 17.83 15.5675C17.7604 15.7233 18.5297 19.4919 18.5297 19.4919C18.5297 19.4919 17.8205 15.8583 17.3083 15.6608C16.796 15.4633 15.3313 15.3709 14.5698 15.1526C13.8083 14.9343 12.4717 14.3953 12.4717 14.3953Z" fill="#FFE603"/>
<path id="Vector_9" d="M0.255095 14.6935C0.247359 14.6645 0.452787 14.9462 0.678844 15.0395C0.904901 15.1328 3.61501 16.566 3.90037 16.4509C4.18574 16.3359 4.40148 16.2281 4.47626 16.1475C4.55104 16.0668 4.38343 16.441 4.22527 16.6593C4.06712 16.8776 3.87115 19.377 3.84106 19.3897C3.81098 19.4024 4.16597 16.7943 3.84106 16.701C3.51616 16.6077 0.512954 15.6655 0.255095 14.6935Z" fill="#FFE603"/>
<g id="Vector_10" style="mix-blend-mode:multiply" opacity="0.5">
<path d="M10.1508 18.2332C10.1099 18.2025 10.0633 18.1812 10.0141 18.1707C9.98192 18.1696 9.94971 18.1714 9.91783 18.1762C9.35312 17.2295 8.07413 14.3714 6.91892 11.6954C6.28029 10.2196 5.68034 8.80191 5.25917 7.79998C5.2588 7.79546 5.2588 7.79092 5.25917 7.78639C5.11562 7.39505 4.96692 6.98377 4.84831 6.62141C4.789 6.44657 4.73657 6.2817 4.69531 6.13494C5.06835 5.37398 8.07671 4.35938 8.48155 4.35938C8.79872 4.35938 9.34108 5.40931 9.72272 6.08059C10.0734 6.69026 10.1396 16.5084 10.1508 18.2332Z" fill="#CF4A76"/>
</g>
<g id="Vector_11" style="mix-blend-mode:multiply" opacity="0.5">
<path d="M18.4147 19.7354C17.3093 19.8596 11.9011 19.7508 11.6802 19.7074C11.663 19.7035 11.6462 19.6974 11.6304 19.6892C11.6905 18.5542 11.9252 14.6379 12.2802 14.5582C12.4813 14.5129 13.5695 14.9124 14.7255 15.167C15.9418 15.4333 17.2276 15.5629 17.3901 15.8011C17.6737 16.216 18.4826 18.8341 18.4147 19.7354Z" fill="#CF4A76"/>
</g>
<g id="Vector_12" style="mix-blend-mode:multiply" opacity="0.5">
<path d="M3.73542 19.5263C3.16298 19.3623 1.44993 17.9863 1.27802 17.7553C1.10611 17.5243 0.458027 16.0866 0.246582 15.2188C0.653141 15.322 1.33045 15.8339 2.06277 16.1455C2.92231 16.5078 3.8102 16.6836 3.84029 16.8131C3.89873 17.094 3.89873 18.778 3.73542 19.5263Z" fill="#CF4A76"/>
</g>
<g id="Vector_13" style="mix-blend-mode:multiply" opacity="0.5">
<path d="M4.62067 16.0347C4.50807 16.1788 2.85777 13.9512 2.44434 13.0453C2.56123 12.6956 2.79846 11.7326 3.02538 10.9671C3.20244 10.6392 3.49898 10.3547 3.65112 10.3991C4.09378 10.5259 3.94164 11.2941 5.54209 12.2598C5.89364 12.4736 5.14069 15.3607 4.62067 16.0347Z" fill="#CF4A76"/>
</g>
<g id="Vector_14" style="mix-blend-mode:multiply" opacity="0.2">
<path d="M9.69701 18.2153C8.61572 18.4282 5.21455 19.3422 4.11005 19.5143C4.03699 18.7579 3.98456 17.1327 4.56904 16.3482C5.43975 15.1796 5.71652 12.7427 5.95632 12.596C6.21418 12.4402 7.19405 12.6866 7.27055 12.7301C7.34705 12.7735 9.24919 16.7595 9.69701 18.2153Z" fill="#F42774"/>
</g>
<g id="Vector_15" style="mix-blend-mode:multiply" opacity="0.2">
<path d="M15.7845 5.32812C15.7845 6.74314 15.1553 12.0318 15.0719 12.7085C14.1084 13.1614 12.1366 14.0737 11.9544 14.7468C11.7902 15.3546 11.6965 18.1828 11.5006 19.6069C11.1971 19.3687 10.727 18.7662 10.3737 18.422C10.2585 16.8974 9.60013 6.81471 10.4279 6.46412C11.467 6.01933 13.4096 6.26573 14.0448 6.08274C14.5175 5.94504 15.3126 5.56004 15.7845 5.32812Z" fill="#F42774"/>
</g>
<g id="Vector_16" style="mix-blend-mode:multiply" opacity="0.2">
<path d="M19.8266 14.127C19.6547 15.5963 19.1261 18.3928 18.7685 19.3658C18.4858 18.5351 17.7414 15.9904 18.1084 15.5329C18.3749 15.2004 19.1871 14.5346 19.8266 14.127Z" fill="#F42774"/>
</g>
<path id="Vector_17" d="M7.26523 12.6254C7.16381 12.5892 6.77702 12.5801 6.41344 12.3699C5.93382 12.0927 4.02909 10.8299 3.91048 10.3561C3.86904 10.1824 3.84285 10.005 3.83226 9.82617L3.6552 9.8615C3.58374 9.87407 3.51332 9.89255 3.44461 9.91676C3.35866 9.95662 3.23832 10.2791 3.10596 10.6986C3.29076 10.4829 3.50822 10.2791 3.65004 10.3145C3.93627 10.3878 4.24312 11.1769 4.76743 11.5918C5.01584 11.7884 5.64158 12.1054 5.68885 12.6789C5.73183 13.1934 4.77689 15.7861 4.77689 15.7861C5.00724 15.7861 5.87193 12.8673 6.23809 12.7341C6.60425 12.6009 7.53599 12.7232 7.26523 12.6254Z" fill="#FFE603"/>
<g id="Vector_18" style="mix-blend-mode:overlay">
<path d="M10.2052 6.38062C10.6788 6.2547 11.8659 6.01826 13.7723 5.9467C14.2803 5.92858 15.4493 5.31981 15.7148 5.15856C15.4106 5.3325 14.3396 5.62873 13.2953 5.78454C12.5311 5.89868 10.6006 6.06809 10.2646 5.88147C9.92847 5.69486 8.74576 3.59951 8.5644 2.27237C8.38303 0.945224 8.34178 0.658054 8.45953 0.495897C8.52629 0.42136 8.6067 0.36188 8.6959 0.321059H8.69075C8.60161 0.274516 8.50576 0.243903 8.4071 0.230469C8.2352 0.230469 7.92405 0.523074 7.55359 0.970589C7.58109 0.945224 7.8656 0.68976 8.11572 0.812962C8.30997 0.903552 8.29966 3.12482 8.3306 3.39025C8.36155 3.65568 8.03836 4.07873 7.69713 4.29615C7.40489 4.48186 5.79498 5.20205 5.13916 5.49647C5.74083 5.23285 8.37444 4.28799 8.58245 4.33148C8.79045 4.37496 9.75657 5.88238 9.82963 6.15687C9.9087 6.45128 9.93191 14.8155 10.2242 16.148C10.2981 16.4687 9.73336 6.50564 10.2052 6.38062Z" fill="#FFE603"/>
</g>
<g id="Vector_19" style="mix-blend-mode:overlay">
<path d="M5.14068 5.48828C4.96877 5.56347 4.86133 5.61239 4.86133 5.61239L5.14068 5.48828Z" fill="#FFE603"/>
</g>
<g id="Vector_20" style="mix-blend-mode:multiply" opacity="0.5">
<path d="M19.7611 14.628C19.548 16.1599 19.089 18.4935 18.7684 19.3649C18.6953 19.566 18.6291 19.6892 18.575 19.7065C18.522 19.7194 18.4683 19.7288 18.4143 19.7345C17.3089 19.8587 11.9007 19.7499 11.6798 19.7065C11.6626 19.7026 11.6458 19.6965 11.63 19.6883C11.5835 19.6665 11.5399 19.6385 11.5002 19.605C11.1968 19.3667 10.7266 18.7643 10.3733 18.4201C10.3037 18.3518 10.2293 18.2891 10.1507 18.2326C10.1098 18.2019 10.0633 18.1806 10.014 18.1701C9.98187 18.1689 9.94965 18.1707 9.91778 18.1755C9.86277 18.1827 9.78885 18.1963 9.69688 18.2144C8.61559 18.4273 5.21442 19.3414 4.10992 19.5135C4.00778 19.5348 3.9037 19.5439 3.79963 19.5407C3.77807 19.5373 3.75681 19.5322 3.73602 19.5253C3.16357 19.3613 1.45053 17.9853 1.27862 17.7542C1.13851 17.5731 0.676946 16.5621 0.39502 15.7296C0.611622 15.8473 1.38004 17.5504 1.73417 17.737C2.0883 17.9236 3.07934 18.1528 3.87441 18.4436C4.66947 18.7344 4.62134 19.0705 6.06965 18.8966C7.51796 18.7227 8.53221 18.0876 8.59152 17.7751C8.65083 17.4625 7.83169 15.1543 7.84716 13.8797C7.86264 12.6051 9.46566 16.698 9.69774 16.3438C9.92981 15.9896 9.93067 15.3926 10.0201 15.4379C10.1095 15.4832 10.5444 18.0595 11.0928 18.767C11.6411 19.4745 16.1692 17.5894 17.2401 17.6872C18.3111 17.785 18.7254 17.5386 18.9179 17.3647C19.0933 17.2116 19.3701 15.061 19.7611 14.628Z" fill="#DE376D"/>
</g>
<g id="Vector_21" style="mix-blend-mode:multiply" opacity="0.2">
<path d="M3.64836 19.4936C3.00543 19.2354 1.44194 17.9699 1.27777 17.7552C1.23105 17.6872 1.18911 17.6158 1.15228 17.5414C0.874646 16.8167 0.664061 16.0168 1.08437 16.0294C1.85022 16.0521 3.50653 17.4898 3.50653 17.8213C3.50653 18.0179 3.66641 18.8423 3.64836 19.4936Z" fill="#F42774"/>
</g>
<g id="Vector_22" style="mix-blend-mode:multiply" opacity="0.2">
<path d="M9.85511 17.1729C9.50098 17.0886 5.20762 8.15285 5.67005 6.94347C6.13248 5.7341 9.12451 6.94347 9.24312 7.60659C9.36174 8.26971 10.4499 17.3142 9.85511 17.1729Z" fill="#F42774"/>
</g>
<g id="Vector_23" style="mix-blend-mode:multiply" opacity="0.2">
<path d="M12.0752 19.3861C11.9643 19.2955 12.1886 15.4771 12.9012 15.4436C13.6138 15.4101 18.1057 18.607 17.6527 19.1261C17.1997 19.6452 12.4482 19.6896 12.0752 19.3861Z" fill="#F42774"/>
</g>
<g id="Vector_24" style="mix-blend-mode:soft-light" opacity="0.4">
<path d="M14.6779 12.545C14.4965 12.6302 11.624 14.008 10.9939 13.6412C10.3639 13.2743 9.79058 7.01268 10.8555 7.08063C11.9205 7.14857 15.6999 12.0658 14.6779 12.545Z" fill="white"/>
</g>
<g id="Vector_25" style="mix-blend-mode:multiply" opacity="0.1">
<path d="M10.4276 5.69139C10.2729 5.59446 12.6538 4.10878 13.4592 4.20571C14.2646 4.30265 15.1929 4.65866 15.0244 4.94674C14.8559 5.23482 10.6889 5.85355 10.4276 5.69139Z" fill="#F42774"/>
</g>
<g id="Vector_26" style="mix-blend-mode:soft-light">
<path d="M9.00447 2.98288C9.00447 2.98288 8.2945 0.89387 8.86609 0.808716C9.43768 0.723561 13.3778 3.28635 13.2402 3.53366C13.1027 3.78097 10.0161 1.8804 9.69726 2.27084C9.37837 2.66128 9.38954 3.39778 9.00447 2.98288Z" fill="white"/>
</g>
<g id="Vector_27" style="mix-blend-mode:soft-light" opacity="0.5">
<path d="M6.66483 2.55452C6.66483 2.55452 7.62579 1.04348 7.83208 1.26905C8.03836 1.49462 8.24895 2.76741 7.93522 2.98301C7.62149 3.19862 6.59177 2.66685 6.66483 2.55452Z" fill="white"/>
</g>
<g id="Vector_28" style="mix-blend-mode:multiply" opacity="0.1">
<path d="M13.2433 14.1262C13.1083 14.3074 17.4808 15.3383 17.6845 15.2196C17.8882 15.101 14.8154 13.8508 14.3822 13.8834C13.949 13.9161 13.3645 13.9623 13.2433 14.1262Z" fill="#F42774"/>
</g>
<g id="Vector_29" style="mix-blend-mode:multiply" opacity="0.5">
<path d="M11.532 19.631C11.5209 19.6238 11.5105 19.6147 11.5002 19.6065C11.1968 19.3683 10.7266 18.7659 10.3734 18.4216C10.3038 18.3533 10.2293 18.2906 10.1508 18.2341C10.1099 18.2034 10.0633 18.1821 10.0141 18.1716C9.98192 18.1704 9.9497 18.1722 9.91783 18.177C9.86282 18.1843 9.7889 18.1979 9.69693 18.216C9.50869 18.2522 9.24997 18.3111 8.94484 18.3845C8.71534 17.6136 8.02256 15.1876 8.36379 15.231C8.77035 15.2818 9.25685 16.7557 9.69693 16.9224C10.0536 17.0564 11.1788 18.7912 11.532 19.631Z" fill="#DE376D"/>
</g>
<g id="Vector_30" style="mix-blend-mode:multiply" opacity="0.2">
<path d="M8.48016 14.6899C8.43202 14.5912 7.73064 13.2704 6.91925 11.695C6.28061 10.2193 5.68066 8.8016 5.25949 7.79967C5.25912 7.79515 5.25912 7.7906 5.25949 7.78608C5.11595 7.39473 4.96725 6.98345 4.84863 6.62109C5.80701 7.45724 7.84668 9.44297 8.27559 11.0011C8.836 13.0557 8.59705 14.9318 8.48016 14.6899Z" fill="#F42774"/>
</g>
<g id="Vector_31" style="mix-blend-mode:soft-light" opacity="0.5">
<path d="M0.635693 14.7118C0.606468 14.5669 2.04619 13.6175 2.37539 13.7027C2.70459 13.7878 4.09445 15.5788 3.87441 15.5942C3.65437 15.6096 0.709612 15.0787 0.635693 14.7118Z" fill="white"/>
</g>
<g id="Vector_32" style="mix-blend-mode:soft-light" opacity="0.4">
<path d="M4.47904 19.1771C4.27963 18.9806 7.04045 13.5171 7.37738 14.1277C7.71432 14.7382 8.17159 17.4541 7.9653 17.7621C7.75902 18.0701 4.73174 19.4263 4.47904 19.1771Z" fill="white"/>
</g>
<g id="Vector_33" style="mix-blend-mode:soft-light" opacity="0.5">
<path d="M4.03691 10.008C4.06442 10.2055 5.84967 10.1213 5.87975 10.008C5.90983 9.89478 5.88491 9.66016 5.63135 9.66016C5.37778 9.66016 4.01371 9.82594 4.03691 10.008Z" fill="white"/>
</g>
<g id="Vector_34" style="mix-blend-mode:soft-light">
<path d="M13.5727 14.1274C13.5977 14.044 14.8062 12.9787 15.168 12.9316C15.5299 12.8845 19.5267 13.2822 19.4975 13.3519C19.4683 13.4217 15.9365 13.4543 15.3081 13.7034C14.6798 13.9525 13.5246 14.2841 13.5727 14.1274Z" fill="white"/>
</g>
<path id="Vector_35" d="M4.36712 14.7927C4.23733 14.6958 4.03448 14.0209 4.36712 14.0798C4.69976 14.1387 4.79517 15.1116 4.36712 14.7927Z" fill="url(#paint5_linear_428_14136)"/>
<path id="Vector_36" d="M9.96097 11.2965C9.81399 11.2059 9.22264 8.79716 9.90167 8.96113C10.5807 9.1251 10.4286 11.5855 9.96097 11.2965Z" fill="url(#paint6_linear_428_14136)"/>
<path id="Vector_37" d="M10.2402 12.0636C10.1543 11.9894 10.4585 11.5455 10.5539 11.6823C10.6494 11.819 10.3975 12.1995 10.2402 12.0636Z" fill="url(#paint7_linear_428_14136)"/>
<path id="Vector_38" d="M18.948 14.5859H18.9171C18.5294 14.6765 17.761 15.2137 18.1753 15.2708C18.5896 15.3279 19.3572 14.7336 18.948 14.5859Z" fill="url(#paint8_linear_428_14136)"/>
<g id="Vector_39" style="mix-blend-mode:multiply" opacity="0.7">
<path d="M4.27665 14.0843C4.2268 14.1033 4.08928 14.3823 4.27665 14.5318C4.46403 14.6813 4.61531 14.3787 4.57577 14.2772C4.53623 14.1758 4.40043 14.0417 4.27665 14.0843Z" fill="#DE376D"/>
</g>
<g id="Vector_40" style="mix-blend-mode:multiply" opacity="0.7">
<path d="M9.76599 8.96888C9.62502 8.99877 9.40326 10.479 9.93016 10.4473C10.4571 10.4156 10.335 9.52329 10.2637 9.38559C10.1923 9.2479 10.0608 8.90456 9.76599 8.96888Z" fill="#DE376D"/>
</g>
<g id="Vector_41" style="mix-blend-mode:multiply" opacity="0.7">
<path d="M10.513 11.6562C10.4646 11.6626 10.4188 11.6828 10.3806 11.7148C10.3424 11.7467 10.3133 11.7892 10.2964 11.8374C10.2672 11.9461 10.4606 12.0449 10.5302 11.9135C10.5999 11.7822 10.5801 11.6735 10.513 11.6562Z" fill="#DE376D"/>
</g>
<g id="Vector_42" style="mix-blend-mode:multiply" opacity="0.7">
<path d="M18.1224 15.0539C18.0657 15.1037 18.333 15.1816 18.663 14.995C18.9931 14.8084 19.1022 14.716 19.0464 14.6526C18.9905 14.5892 18.8057 14.4479 18.1224 15.0539Z" fill="#DE376D"/>
</g>
<g id="Vector_43" style="mix-blend-mode:overlay">
<path d="M4.25266 14.602C4.24664 14.5748 4.36869 14.6654 4.44175 14.611C4.51481 14.5567 4.55865 14.3945 4.60077 14.4452C4.64288 14.496 4.70649 14.7677 4.58272 14.8275C4.45894 14.8873 4.29477 14.7841 4.25266 14.602Z" fill="#FFE603"/>
</g>
<g id="Vector_44" style="mix-blend-mode:overlay">
<path d="M9.7644 10.473C9.7962 10.4422 9.91052 10.598 10.0223 10.5219C10.134 10.4458 10.2861 10.1451 10.33 10.2773C10.3738 10.4096 10.2646 11.3481 10.048 11.2956C9.7962 11.233 9.7326 10.5083 9.7644 10.473Z" fill="#FFE603"/>
</g>
<g id="Vector_45" style="mix-blend-mode:overlay">
<path d="M10.2679 11.9023C10.2885 11.9023 10.2946 11.9775 10.3461 11.9857C10.3977 11.9938 10.4854 11.9712 10.4665 11.9984C10.4476 12.0255 10.3238 12.1478 10.2473 12.0582C10.2353 12.0484 10.226 12.0355 10.2202 12.0207C10.2145 12.0059 10.2126 11.9898 10.2147 11.9739C10.2168 11.9581 10.2228 11.9432 10.2322 11.9306C10.2415 11.918 10.2538 11.9083 10.2679 11.9023Z" fill="#FFE603"/>
</g>
<g id="Vector_46" style="mix-blend-mode:overlay">
<path d="M18.0774 15.1334C18.1015 15.1017 18.3224 15.1805 18.4668 15.1126C18.6112 15.0446 19.0435 14.8037 18.9937 14.877C18.9438 14.9504 18.4891 15.3155 18.2536 15.2702C18.0181 15.2249 18.0654 15.1488 18.0774 15.1334Z" fill="#FFE603"/>
</g>
<path id="Vector_47" d="M8.76459 4.35875C8.60557 4.26816 8.01508 3.25446 8.36061 3.12945C8.70614 3.00443 9.09465 3.87229 9.09465 4.0589C9.09465 4.24552 9.08777 4.54356 8.76459 4.35875Z" fill="white"/>
<path id="Vector_48" d="M8.36396 1.75204C8.23073 1.88339 8.46968 2.85542 8.53587 2.54923C8.60205 2.24303 8.48945 1.63065 8.36396 1.75204Z" fill="white"/>
<path id="Vector_49" d="M17.3231 15.415C16.9724 15.5328 17.9196 16.5347 17.8998 16.1796C17.8801 15.8245 17.8053 15.2529 17.3231 15.415Z" fill="white"/>
<path id="Vector_50" d="M1.3184 13.8418C1.31398 13.8532 1.30851 13.8641 1.30207 13.8744C1.25356 13.9691 1.19408 14.057 1.12501 14.1362C0.93763 14.3573 0.644529 14.4315 0.425349 14.4352C0.359234 14.4378 0.293073 14.4314 0.228516 14.4161C0.47778 14.2803 0.903249 14.0701 1.3184 13.8418Z" fill="white"/>
<g id="Vector_51" style="mix-blend-mode:multiply" opacity="0.15">
<path d="M4.65359 18.0533C4.48168 18.2589 5.05413 18.8007 5.14094 18.4736C5.22776 18.1466 4.75845 17.9283 4.65359 18.0533Z" fill="#F42774"/>
</g>
<g id="Vector_52" style="mix-blend-mode:multiply" opacity="0.15">
<path d="M4.88612 17.2664C4.68499 17.3679 4.73656 17.6396 4.88612 17.5119C5.03568 17.3842 5.00989 17.2048 4.88612 17.2664Z" fill="#F42774"/>
</g>
<g id="Vector_53" style="mix-blend-mode:multiply" opacity="0.15">
<path d="M6.65354 13.219C6.44983 13.4427 6.88991 13.9437 6.94922 13.6375C7.00853 13.3313 6.80912 13.0496 6.65354 13.219Z" fill="#F42774"/>
</g>
<g id="Vector_54" style="mix-blend-mode:multiply" opacity="0.15">
<path d="M11.19 17.5112C10.9588 17.33 10.7018 16.8164 10.9381 16.714C11.1745 16.6117 11.3963 17.6697 11.19 17.5112Z" fill="#F42774"/>
</g>
<g id="Vector_55" style="mix-blend-mode:multiply" opacity="0.15">
<path d="M14.867 9.38297C14.653 9.42011 14.4329 9.80693 14.677 9.70275C14.9211 9.59857 15.0269 9.35579 14.867 9.38297Z" fill="#F42774"/>
</g>
<g id="Vector_56" style="mix-blend-mode:multiply" opacity="0.15">
<path d="M14.9429 8.68683C14.7796 8.8816 14.9575 9.27114 15.0289 9.02926C15.1002 8.78739 15.0538 8.55457 14.9429 8.68683Z" fill="#F42774"/>
</g>
<g id="Vector_57" style="mix-blend-mode:multiply" opacity="0.15">
<path d="M17.0411 16.0436C16.6689 16.0898 16.2435 16.7683 16.7308 16.5627C17.2182 16.3571 17.1821 16.0264 17.0411 16.0436Z" fill="#F42774"/>
</g>
<g id="Vector_58" style="mix-blend-mode:multiply" opacity="0.15">
<path d="M17.3072 16.708C17.1353 16.9915 17.5711 17.507 17.572 17.1184C17.5728 16.7297 17.3734 16.6011 17.3072 16.708Z" fill="#F42774"/>
</g>
<g id="Vector_59" style="mix-blend-mode:multiply" opacity="0.15">
<path d="M18.3413 16.0052C18.2622 16.0288 18.2734 16.2652 18.4178 16.1393C18.5622 16.0134 18.423 15.9817 18.3413 16.0052Z" fill="#F42774"/>
</g>
</g>
</g>
<defs>
<linearGradient id="paint0_linear_428_14136" x1="9.1333" y1="0.939647" x2="10.6858" y2="21.5626" gradientUnits="userSpaceOnUse">
<stop stop-color="#FFCF00"/>
<stop offset="1" stop-color="#FF9600"/>
</linearGradient>
<linearGradient id="paint1_linear_428_14136" x1="11.0936" y1="-1.03324" x2="12.991" y2="6.53413" gradientUnits="userSpaceOnUse">
<stop stop-color="#FFF601"/>
<stop offset="0.1" stop-color="#EDE401"/>
<stop offset="0.31" stop-color="#BDB601"/>
<stop offset="0.61" stop-color="#706C00"/>
<stop offset="0.97" stop-color="#080800"/>
<stop offset="1"/>
</linearGradient>
<linearGradient id="paint2_linear_428_14136" x1="3.34865" y1="7.68697" x2="7.44071" y2="13.2355" gradientUnits="userSpaceOnUse">
<stop stop-color="#FFF601"/>
<stop offset="0.1" stop-color="#EDE401"/>
<stop offset="0.31" stop-color="#BDB601"/>
<stop offset="0.61" stop-color="#706C00"/>
<stop offset="0.97" stop-color="#080800"/>
<stop offset="1"/>
</linearGradient>
<linearGradient id="paint3_linear_428_14136" x1="16.5364" y1="12.0728" x2="15.592" y2="15.8544" gradientUnits="userSpaceOnUse">
<stop stop-color="#FFF601"/>
<stop offset="0.1" stop-color="#EDE401"/>
<stop offset="0.31" stop-color="#BDB601"/>
<stop offset="0.61" stop-color="#706C00"/>
<stop offset="0.97" stop-color="#080800"/>
<stop offset="1"/>
</linearGradient>
<linearGradient id="paint4_linear_428_14136" x1="-2.09122" y1="11.0723" x2="6.58839" y2="17.7294" gradientUnits="userSpaceOnUse">
<stop stop-color="#FFF601"/>
<stop offset="0.1" stop-color="#EDE401"/>
<stop offset="0.31" stop-color="#BDB601"/>
<stop offset="0.61" stop-color="#706C00"/>
<stop offset="0.97" stop-color="#080800"/>
<stop offset="1"/>
</linearGradient>
<linearGradient id="paint5_linear_428_14136" x1="4.41955" y1="14.8562" x2="4.41955" y2="14.0762" gradientUnits="userSpaceOnUse">
<stop offset="0.04" stop-color="#EF6300"/>
<stop offset="1" stop-color="#E13E00"/>
</linearGradient>
<linearGradient id="paint6_linear_428_14136" x1="9.97215" y1="11.3201" x2="9.97215" y2="8.95298" gradientUnits="userSpaceOnUse">
<stop offset="0.04" stop-color="#EF6300"/>
<stop offset="1" stop-color="#E13E00"/>
</linearGradient>
<linearGradient id="paint7_linear_428_14136" x1="10.4001" y1="12.0926" x2="10.4001" y2="11.656" gradientUnits="userSpaceOnUse">
<stop offset="0.04" stop-color="#EF6300"/>
<stop offset="1" stop-color="#E13E00"/>
</linearGradient>
<linearGradient id="paint8_linear_428_14136" x1="18.5604" y1="15.2717" x2="18.5604" y2="14.5832" gradientUnits="userSpaceOnUse">
<stop offset="0.04" stop-color="#EF6300"/>
<stop offset="1" stop-color="#E13E00"/>
</linearGradient>
</defs>
</svg>
