<svg width="24" height="24" viewBox="0 0 24 24" fill="none" xmlns="http://www.w3.org/2000/svg">
<g id="material-symbols-light:description-rounded">
<path id="Vector" d="M9 17.5H15C15.142 17.5 15.2607 17.452 15.356 17.356C15.4513 17.26 15.4993 17.141 15.5 16.999C15.5007 16.857 15.4527 16.7383 15.356 16.643C15.2593 16.5477 15.1407 16.5 15 16.5H9C8.858 16.5 8.73933 16.548 8.644 16.644C8.54867 16.74 8.50067 16.859 8.5 17.001C8.49933 17.143 8.54733 17.2617 8.644 17.357C8.74067 17.4523 8.85933 17.5 9 17.5ZM9 13.5H15C15.142 13.5 15.2607 13.452 15.356 13.356C15.4513 13.26 15.4993 13.141 15.5 12.999C15.5007 12.857 15.4527 12.7383 15.356 12.643C15.2593 12.5477 15.1407 12.5 15 12.5H9C8.858 12.5 8.73933 12.548 8.644 12.644C8.54867 12.74 8.50067 12.859 8.5 13.001C8.49933 13.143 8.54733 13.2617 8.644 13.357C8.74067 13.4523 8.85933 13.5 9 13.5ZM6.616 21C6.15533 21 5.771 20.846 5.463 20.538C5.155 20.23 5.00067 19.8457 5 19.385V4.615C5 4.155 5.15433 3.771 5.463 3.463C5.77167 3.155 6.156 3.00067 6.616 3H13.829C14.0497 3 14.2603 3.04333 14.461 3.13C14.6617 3.21667 14.8343 3.333 14.979 3.479L18.52 7.02C18.6647 7.16533 18.7807 7.338 18.868 7.538C18.9553 7.738 18.999 7.94867 18.999 8.17V19.384C18.999 19.844 18.8447 20.2283 18.536 20.537C18.2273 20.8457 17.8437 21 17.385 21H6.616ZM14 7.2C14 7.42667 14.0767 7.61667 14.23 7.77C14.3833 7.92333 14.5733 8 14.8 8H18L14 4V7.2Z" fill="white"/>
</g>
</svg>
