<svg width="28" height="30" viewBox="0 0 28 30" fill="none" xmlns="http://www.w3.org/2000/svg">
<g id="Group">
<path id="Vector" d="M13.9999 10.9993C12.5266 10.9993 11.3333 11.8953 11.3333 12.9993C11.3333 14.1033 12.5266 14.9993 13.9999 14.9993C15.4733 14.9993 16.6666 15.8953 16.6666 16.9993C16.6666 18.1033 15.4733 18.9993 13.9999 18.9993M13.9999 10.9993C15.1599 10.9993 16.1493 11.5553 16.5146 12.3327M13.9999 10.9993V9.66602M13.9999 18.9993C12.8399 18.9993 11.8506 18.4433 11.4853 17.666M13.9999 18.9993V20.3327" stroke="#FBFBFB" stroke-width="2" stroke-linecap="round" stroke-linejoin="round"/>
<path id="Vector_2" d="M13.9972 1.66602C9.98655 1.66602 7.38655 4.35802 4.31188 5.33935C3.06121 5.73935 2.43588 5.93802 2.18255 6.21935C1.92921 6.49935 1.85588 6.91135 1.70788 7.73268C0.121212 16.5273 3.58788 24.658 11.8545 27.8233C12.7412 28.1633 13.1852 28.3327 14.0012 28.3327C14.8172 28.3327 15.2625 28.162 16.1505 27.822C24.4159 24.658 27.8785 16.5273 26.2919 7.73268C26.1439 6.91135 26.0692 6.49935 25.8159 6.21802C25.5625 5.93668 24.9385 5.73802 23.6879 5.33935C20.6119 4.35802 18.0079 1.66602 13.9972 1.66602Z" stroke="#FBFBFB" stroke-width="2.5" stroke-linecap="round" stroke-linejoin="round"/>
</g>
</svg>
