<svg width="32" height="32" viewBox="0 0 32 32" fill="none" xmlns="http://www.w3.org/2000/svg">
<g id="material-symbols:favorite-outline">
<path id="Vector" d="M16.0001 27.9999L14.0667 26.2665C11.8223 24.2443 9.96675 22.4999 8.50008 21.0332C7.03341 19.5665 5.86675 18.2496 5.00008 17.0825C4.13341 15.9154 3.52808 14.8434 3.18408 13.8665C2.84008 12.8896 2.66764 11.8896 2.66675 10.8665C2.66675 8.77765 3.36675 7.0332 4.76675 5.6332C6.16675 4.2332 7.91119 3.5332 10.0001 3.5332C11.1556 3.5332 12.2556 3.77765 13.3001 4.26654C14.3445 4.75543 15.2445 5.44431 16.0001 6.3332C16.7556 5.44431 17.6556 4.75543 18.7001 4.26654C19.7445 3.77765 20.8445 3.5332 22.0001 3.5332C24.089 3.5332 25.8334 4.2332 27.2334 5.6332C28.6334 7.0332 29.3334 8.77765 29.3334 10.8665C29.3334 11.8888 29.1614 12.8888 28.8174 13.8665C28.4734 14.8443 27.8676 15.9163 27.0001 17.0825C26.1325 18.2488 24.9659 19.5656 23.5001 21.0332C22.0343 22.5008 20.1787 24.2452 17.9334 26.2665L16.0001 27.9999ZM16.0001 24.3999C18.1334 22.4888 19.889 20.8501 21.2667 19.4839C22.6445 18.1176 23.7334 16.9288 24.5334 15.9172C25.3334 14.9056 25.889 14.0052 26.2001 13.2159C26.5112 12.4265 26.6667 11.6434 26.6667 10.8665C26.6667 9.5332 26.2223 8.42209 25.3334 7.5332C24.4445 6.64431 23.3334 6.19987 22.0001 6.19987C20.9556 6.19987 19.989 6.49409 19.1001 7.08254C18.2112 7.67098 17.6001 8.4212 17.2667 9.3332H14.7334C14.4001 8.42209 13.789 7.67231 12.9001 7.08387C12.0112 6.49543 11.0445 6.20076 10.0001 6.19987C8.66675 6.19987 7.55564 6.64431 6.66675 7.5332C5.77786 8.42209 5.33341 9.5332 5.33341 10.8665C5.33341 11.6443 5.48897 12.4279 5.80008 13.2172C6.11119 14.0065 6.66675 14.9065 7.46675 15.9172C8.26675 16.9279 9.35564 18.1168 10.7334 19.4839C12.1112 20.851 13.8667 22.4896 16.0001 24.3999Z" fill="#FBFBFB"/>
</g>
</svg>
