<svg width="17" height="17" viewBox="0 0 17 17" fill="none" xmlns="http://www.w3.org/2000/svg">
<g id="ic:outline-telegram">
<path id="Vector" d="M8.50065 1.83398C4.82065 1.83398 1.83398 4.82065 1.83398 8.50065C1.83398 12.1807 4.82065 15.1673 8.50065 15.1673C12.1807 15.1673 15.1673 12.1807 15.1673 8.50065C15.1673 4.82065 12.1807 1.83398 8.50065 1.83398ZM11.594 6.36732C11.494 7.42065 11.0607 9.98065 10.8407 11.1607C10.7473 11.6607 10.5607 11.8273 10.3873 11.8473C10.0007 11.8807 9.70732 11.594 9.33398 11.3473C8.74732 10.9607 8.41398 10.7207 7.84732 10.3473C7.18732 9.91399 7.61398 9.67399 7.99398 9.28732C8.09398 9.18732 9.80065 7.63398 9.83398 7.49398C9.83862 7.47278 9.838 7.45077 9.83219 7.42985C9.82638 7.40894 9.81555 7.38976 9.80065 7.37398C9.76065 7.34065 9.70732 7.35398 9.66065 7.36065C9.60065 7.37398 8.66732 7.99398 6.84732 9.22065C6.58065 9.40065 6.34065 9.49398 6.12732 9.48732C5.88732 9.48065 5.43398 9.35398 5.09398 9.24065C4.67398 9.10732 4.34732 9.03398 4.37398 8.80065C4.38732 8.68065 4.55398 8.56065 4.86732 8.43398C6.81398 7.58732 8.10732 7.02732 8.75398 6.76065C10.6073 5.98732 10.9873 5.85398 11.2407 5.85398C11.294 5.85398 11.4207 5.86732 11.5007 5.93398C11.5673 5.98732 11.5873 6.06065 11.594 6.11398C11.5873 6.15398 11.6007 6.27398 11.594 6.36732Z" fill="#FBFBFB"/>
</g>
</svg>
