<svg width="66" height="84" viewBox="0 0 66 84" fill="none" xmlns="http://www.w3.org/2000/svg">
<path d="M7.87434 84C5.79923 84 4.02434 83.2611 2.54967 81.7833C1.07501 80.3056 0.336119 78.5338 0.333008 76.468V35.5413C0.333008 33.4693 1.0719 31.696 2.54967 30.2213C4.02745 28.7467 5.80078 28.0062 7.86967 28H14.333V18.6667C14.333 13.468 16.1452 9.058 19.7697 5.43667C23.391 1.81222 27.801 0 32.9997 0C38.1983 0 42.6099 1.81222 46.2343 5.43667C49.8588 9.06111 51.6695 13.4711 51.6663 18.6667V28H58.1297C60.2017 28 61.975 28.7389 63.4497 30.2167C64.9243 31.6944 65.6632 33.4678 65.6663 35.5367V76.4633C65.6663 78.5353 64.9274 80.3087 63.4497 81.7833C61.9719 83.258 60.1986 83.9969 58.1297 84H7.87434ZM32.9997 63C34.969 63 36.6272 62.3249 37.9743 60.9747C39.3246 59.6276 39.9997 57.9693 39.9997 56C39.9997 54.0307 39.3246 52.3724 37.9743 51.0253C36.6241 49.6782 34.9659 49.0031 32.9997 49C31.0335 48.9969 29.3752 49.672 28.025 51.0253C26.6748 52.3724 25.9997 54.0307 25.9997 56C25.9997 57.9693 26.6748 59.6276 28.025 60.9747C29.3721 62.3249 31.0303 63 32.9997 63ZM18.9997 28H46.9997V18.6667C46.9997 14.7778 45.6386 11.4722 42.9163 8.75C40.1941 6.02778 36.8886 4.66667 32.9997 4.66667C29.1108 4.66667 25.8052 6.02778 23.083 8.75C20.3608 11.4722 18.9997 14.7778 18.9997 18.6667V28Z" fill="white"/>
</svg>
