<svg width="16" height="14" viewBox="0 0 16 14" fill="none" xmlns="http://www.w3.org/2000/svg">
<path id="Vector" d="M13.0102 1.32536C13.6707 1.86848 14.1222 2.55083 14.3651 3.37268H12.8444C12.6253 2.89218 12.3035 2.53105 11.8789 2.28987C11.4529 2.04788 11.0084 1.92676 10.5455 1.92676C9.9249 1.92676 9.3889 2.09312 8.93803 2.42624C8.48975 2.75745 8.07193 3.1935 7.68448 3.73417H6.86109C6.48549 3.19336 6.05843 2.75724 5.57984 2.42602C5.09901 2.09325 4.5723 1.92676 4 1.92676C3.30589 1.92676 2.70585 2.16596 2.2005 2.6441C1.69485 3.12253 1.44205 3.72533 1.44205 4.45155C1.44205 4.851 1.52729 5.25628 1.69754 5.6673C1.86789 6.07854 2.17173 6.55255 2.60849 7.08922C3.0453 7.62597 3.63965 8.25294 4.39137 8.97008C5.14307 9.6872 6.1008 10.5519 7.26452 11.5641L7.27277 11.5713L7.28098 11.5641C7.59607 11.287 7.96572 10.9677 8.38993 10.6063C8.80938 10.2489 9.14602 9.95024 9.39978 9.71045L9.55482 9.86457L9.90937 10.217L10.2639 10.5695L10.4182 10.7228C10.1531 10.9622 9.81707 11.2574 9.41002 11.6085C8.99787 11.9639 8.63421 12.2803 8.31902 12.5574L8.31896 12.5575L7.27273 13.4899L4.97199 11.4369C4.09936 10.6538 3.35102 9.95507 2.72695 9.34072C2.10303 8.72652 1.58833 8.14862 1.18273 7.60702C0.777216 7.06553 0.480908 6.54243 0.293537 6.03772C0.106189 5.53308 0.0125 5.00438 0.0125 4.45155C0.0125 3.32205 0.393122 2.38246 1.15423 1.63186C1.91537 0.881236 2.86366 0.505832 4 0.505832C4.62849 0.505832 5.22669 0.637979 5.79473 0.902295C6.36279 1.16662 6.85226 1.53905 7.26323 2.01968L7.27273 2.03079L7.28223 2.01968C7.6932 1.53905 8.18267 1.16662 8.75073 0.902295C9.31877 0.637979 9.91697 0.505832 10.5455 0.505832C11.5248 0.505832 12.3461 0.7792 13.0102 1.32536ZM13.8057 8.44592V10.6023H12.3761V8.44592V8.43342H12.3636H10.1943V7.0125H12.3636H12.3761V7V4.84361H13.8057V7V7.0125H13.8182H15.9875V8.43342H13.8182H13.8057V8.44592Z" fill="url(#paint0_linear_332_332)" stroke="white" stroke-width="0.025"/>
<defs>
<linearGradient id="paint0_linear_332_332" x1="8" y1="0.493332" x2="8" y2="13.5067" gradientUnits="userSpaceOnUse">
<stop stop-color="white"/>
<stop offset="1" stop-color="#BFBFBF"/>
</linearGradient>
</defs>
</svg>
