<svg width="94" height="76" viewBox="0 0 94 76" fill="none" xmlns="http://www.w3.org/2000/svg">
<g id="Group">
<path id="Vector" d="M93.6663 17.1641V61.3341C93.6665 64.9051 92.3022 68.3411 89.8523 70.9393C87.4025 73.5374 84.0525 75.1012 80.4877 75.3107L79.6663 75.3341H14.333C10.762 75.3343 7.32594 73.9699 4.72779 71.5201C2.12964 69.0703 0.565839 65.7202 0.356342 62.1554L0.333008 61.3341V17.1641L44.4097 46.5501L44.951 46.8581C45.589 47.1698 46.2896 47.3318 46.9997 47.3318C47.7097 47.3318 48.4104 47.1698 49.0483 46.8581L49.5897 46.5501L93.6663 17.1641Z" fill="#FBFBFB"/>
<path id="Vector_2" d="M79.6668 0.666992C84.7068 0.666992 89.1262 3.32699 91.5902 7.32633L47.0002 37.053L2.41016 7.32633C3.58052 5.42617 5.18818 3.83333 7.09909 2.68061C9.01001 1.52789 11.1688 0.848699 13.3955 0.699659L14.3335 0.666992H79.6668Z" fill="#FBFBFB"/>
</g>
</svg>
