<svg width="15" height="11" viewBox="0 0 15 11" fill="none" xmlns="http://www.w3.org/2000/svg">
<g id="Group">
<path id="Vector" d="M14.1673 2.52344V8.83344C14.1673 9.34358 13.9724 9.83445 13.6225 10.2056C13.2725 10.5768 12.7939 10.8002 12.2847 10.8301L12.1673 10.8334H2.83398C2.32384 10.8335 1.83297 10.6386 1.46181 10.2886C1.09065 9.93861 0.867246 9.46003 0.837318 8.95077L0.833984 8.83344V2.52344L7.13065 6.72144L7.20798 6.76544C7.29912 6.80997 7.39922 6.83311 7.50065 6.83311C7.60208 6.83311 7.70218 6.80997 7.79332 6.76544L7.87065 6.72144L14.1673 2.52344Z" fill="#FBFBFB"/>
<path id="Vector_2" d="M12.1675 0.166016C12.8875 0.166016 13.5189 0.546016 13.8709 1.11735L7.50086 5.36402L1.13086 1.11735C1.29805 0.845898 1.52772 0.618349 1.80071 0.453675C2.0737 0.289001 2.38209 0.191974 2.70019 0.170682L2.83419 0.166016H12.1675Z" fill="#FBFBFB"/>
</g>
</svg>
