<svg width="17" height="17" viewBox="0 0 17 17" fill="none" xmlns="http://www.w3.org/2000/svg">
<g id="mdi:instagram">
<path id="Vector" d="M5.70065 1.83398H11.3007C13.434 1.83398 15.1673 3.56732 15.1673 5.70065V11.3007C15.1673 12.3262 14.7599 13.3097 14.0348 14.0348C13.3097 14.7599 12.3262 15.1673 11.3007 15.1673H5.70065C3.56732 15.1673 1.83398 13.434 1.83398 11.3007V5.70065C1.83398 4.67515 2.24136 3.69165 2.9665 2.9665C3.69165 2.24136 4.67515 1.83398 5.70065 1.83398ZM5.56732 3.16732C4.9308 3.16732 4.32035 3.42017 3.87026 3.87026C3.42017 4.32035 3.16732 4.9308 3.16732 5.56732V11.434C3.16732 12.7607 4.24065 13.834 5.56732 13.834H11.434C12.0705 13.834 12.681 13.5811 13.131 13.131C13.5811 12.681 13.834 12.0705 13.834 11.434V5.56732C13.834 4.24065 12.7607 3.16732 11.434 3.16732H5.56732ZM12.0007 4.16732C12.2217 4.16732 12.4336 4.25512 12.5899 4.4114C12.7462 4.56768 12.834 4.77964 12.834 5.00065C12.834 5.22166 12.7462 5.43363 12.5899 5.58991C12.4336 5.74619 12.2217 5.83398 12.0007 5.83398C11.7796 5.83398 11.5677 5.74619 11.4114 5.58991C11.2551 5.43363 11.1673 5.22166 11.1673 5.00065C11.1673 4.77964 11.2551 4.56768 11.4114 4.4114C11.5677 4.25512 11.7796 4.16732 12.0007 4.16732ZM8.50065 5.16732C9.38471 5.16732 10.2326 5.51851 10.8577 6.14363C11.4828 6.76875 11.834 7.6166 11.834 8.50065C11.834 9.38471 11.4828 10.2326 10.8577 10.8577C10.2326 11.4828 9.38471 11.834 8.50065 11.834C7.6166 11.834 6.76875 11.4828 6.14363 10.8577C5.51851 10.2326 5.16732 9.38471 5.16732 8.50065C5.16732 7.6166 5.51851 6.76875 6.14363 6.14363C6.76875 5.51851 7.6166 5.16732 8.50065 5.16732ZM8.50065 6.50065C7.97022 6.50065 7.46151 6.71136 7.08644 7.08644C6.71136 7.46151 6.50065 7.97022 6.50065 8.50065C6.50065 9.03108 6.71136 9.53979 7.08644 9.91487C7.46151 10.2899 7.97022 10.5007 8.50065 10.5007C9.03108 10.5007 9.53979 10.2899 9.91487 9.91487C10.2899 9.53979 10.5007 9.03108 10.5007 8.50065C10.5007 7.97022 10.2899 7.46151 9.91487 7.08644C9.53979 6.71136 9.03108 6.50065 8.50065 6.50065Z" fill="#FBFBFB"/>
</g>
</svg>
