<?xml version="1.0" encoding="UTF-8"?>
<svg version="1.1" xmlns="http://www.w3.org/2000/svg" width="1270" height="1270">
<path d="M0 0 C0.85184875 -0.0033284 1.70369751 -0.0066568 2.58135986 -0.01008606 C4.37650009 -0.01512582 6.17164959 -0.0174953 7.96679688 -0.01733398 C10.68115078 -0.0195136 13.39509317 -0.03768202 16.109375 -0.05664062 C24.92934317 -0.08543638 33.33793354 0.03652865 41.953125 2.16796875 C43.61021484 2.51988281 43.61021484 2.51988281 45.30078125 2.87890625 C50.91248831 4.25155402 56.21845038 5.89351141 61.5390625 8.1484375 C63.11251955 8.81295577 64.70129236 9.44262819 66.3046875 10.03125 C72.83897408 12.44702045 78.67642216 15.73817917 84.65625 19.265625 C86.77439539 20.48782501 88.93019117 21.64807885 91.125 22.7265625 C93.67145872 24.02441231 95.73135122 25.38866687 97.953125 27.16796875 C98.5203125 27.59335937 99.0875 28.01875 99.671875 28.45703125 C100.95437608 29.41890706 102.23545525 30.38267981 103.515625 31.34765625 C105.38106555 32.74075768 107.25830961 34.11806637 109.140625 35.48828125 C109.68783203 35.88966309 110.23503906 36.29104492 110.79882812 36.70458984 C112.3994644 37.87861025 114.00434995 39.04683047 115.609375 40.21484375 C116.3828125 40.859375 117.15625 41.50390625 117.953125 42.16796875 C117.953125 42.82796875 117.953125 43.48796875 117.953125 44.16796875 C118.943125 44.16796875 119.933125 44.16796875 120.953125 44.16796875 C122.53125 45.70703125 122.53125 45.70703125 124.203125 47.79296875 C127.063804 51.23795665 130.01419846 54.0351548 133.5703125 56.74609375 C134.953125 58.16796875 134.953125 58.16796875 135.4609375 60.27734375 C135.62335937 60.90125 135.78578125 61.52515625 135.953125 62.16796875 C136.943125 62.49796875 137.933125 62.82796875 138.953125 63.16796875 C138.953125 63.82796875 138.953125 64.48796875 138.953125 65.16796875 C139.613125 65.16796875 140.273125 65.16796875 140.953125 65.16796875 C144.953125 69.63855699 144.953125 69.63855699 144.953125 72.16796875 C145.613125 72.16796875 146.273125 72.16796875 146.953125 72.16796875 C148.4609375 73.84765625 148.4609375 73.84765625 150.078125 76.04296875 C150.61695313 76.76226562 151.15578125 77.4815625 151.7109375 78.22265625 C152.953125 80.16796875 152.953125 80.16796875 152.953125 82.16796875 C153.613125 82.16796875 154.273125 82.16796875 154.953125 82.16796875 C154.953125 83.15796875 154.953125 84.14796875 154.953125 85.16796875 C155.613125 85.16796875 156.273125 85.16796875 156.953125 85.16796875 C159.953125 89.55258413 159.953125 89.55258413 159.953125 92.16796875 C160.613125 92.16796875 161.273125 92.16796875 161.953125 92.16796875 C164.953125 97.91796875 164.953125 97.91796875 164.953125 100.16796875 C165.613125 100.16796875 166.273125 100.16796875 166.953125 100.16796875 C166.953125 101.15796875 166.953125 102.14796875 166.953125 103.16796875 C167.613125 103.16796875 168.273125 103.16796875 168.953125 103.16796875 C170.96274543 106.82943628 172.96045008 110.4972518 174.953125 114.16796875 C175.29005371 114.78849121 175.62698242 115.40901367 175.97412109 116.04833984 C177.03319096 118.00297922 178.0874492 119.96014821 179.140625 121.91796875 C179.47320313 122.53099854 179.80578125 123.14402832 180.1484375 123.77563477 C185.953125 134.60260083 185.953125 134.60260083 185.953125 139.16796875 C186.613125 139.16796875 187.273125 139.16796875 187.953125 139.16796875 C188.20707031 139.95300781 188.46101562 140.73804688 188.72265625 141.546875 C190.57826164 147.21098884 192.53049732 152.71705648 194.953125 158.16796875 C197.89116638 165.1130834 200.2996453 172.13146223 202.453125 179.35546875 C202.75500732 180.3606958 203.05688965 181.36592285 203.36791992 182.40161133 C209.88495796 204.24112431 209.88495796 204.24112431 211.4609375 215.2890625 C211.93579942 218.31882481 211.93579942 218.31882481 212.9140625 221.828125 C214.20778162 226.88457919 214.83089179 231.9922931 215.453125 237.16796875 C215.57985596 238.21106201 215.70658691 239.25415527 215.8371582 240.32885742 C217.9234297 257.95580365 219.3300325 275.41143784 218.953125 293.16796875 C221.30469227 290.28067272 223.57853414 287.34838671 225.79296875 284.35546875 C226.5519043 283.33066406 226.5519043 283.33066406 227.32617188 282.28515625 C228.3677627 280.87556267 229.40683524 279.46410472 230.44335938 278.05078125 C233.3743252 274.10310174 236.40419178 270.59143463 239.953125 267.16796875 C241.54377003 265.31161778 243.08470119 263.42467262 244.62109375 261.5234375 C245.06066406 261.07613281 245.50023437 260.62882812 245.953125 260.16796875 C246.613125 260.16796875 247.273125 260.16796875 247.953125 260.16796875 C248.2109375 259.5853125 248.46875 259.00265625 248.734375 258.40234375 C250.05146517 255.98767845 251.50400884 254.35056698 253.453125 252.41796875 C254.0615625 251.804375 254.67 251.19078125 255.296875 250.55859375 C256.953125 249.16796875 256.953125 249.16796875 258.953125 249.16796875 C258.953125 248.50796875 258.953125 247.84796875 258.953125 247.16796875 C260.6328125 245.44140625 260.6328125 245.44140625 262.828125 243.54296875 C263.54742188 242.91132813 264.26671875 242.2796875 265.0078125 241.62890625 C266.953125 240.16796875 266.953125 240.16796875 268.953125 240.16796875 C268.953125 239.50796875 268.953125 238.84796875 268.953125 238.16796875 C270.933125 237.67296875 270.933125 237.67296875 272.953125 237.16796875 C272.953125 236.50796875 272.953125 235.84796875 272.953125 235.16796875 C275.25390625 233.22265625 275.25390625 233.22265625 278.265625 231.04296875 C279.25175781 230.31851563 280.23789062 229.5940625 281.25390625 228.84765625 C283.953125 227.16796875 283.953125 227.16796875 286.953125 227.16796875 C286.953125 226.50796875 286.953125 225.84796875 286.953125 225.16796875 C291.00221919 222.83900071 295.05782048 220.52205055 299.11962891 218.21533203 C300.69915724 217.31304488 302.27034024 216.39617687 303.83984375 215.4765625 C310.92139553 211.42240057 318.24263574 208.78520442 325.953125 206.16796875 C327.24755418 205.65403954 328.53977748 205.13445912 329.828125 204.60546875 C358.54341431 193.89807274 394.84680126 193.52174023 422.953125 206.16796875 C423.90316406 206.59078125 424.85320312 207.01359375 425.83203125 207.44921875 C433.73890907 211.04011523 441.38419599 214.91254866 448.953125 219.16796875 C448.953125 219.82796875 448.953125 220.48796875 448.953125 221.16796875 C449.613125 221.37421875 450.273125 221.58046875 450.953125 221.79296875 C455.02492686 223.65921127 458.64109498 226.14358402 461.953125 229.16796875 C461.953125 229.82796875 461.953125 230.48796875 461.953125 231.16796875 C462.613125 231.16796875 463.273125 231.16796875 463.953125 231.16796875 C465.66305934 232.79021415 467.32660184 234.462103 468.953125 236.16796875 C469.8503125 237.00328125 469.8503125 237.00328125 470.765625 237.85546875 C471.953125 239.16796875 471.953125 239.16796875 471.953125 241.16796875 C472.51773437 241.38839844 473.08234375 241.60882813 473.6640625 241.8359375 C476.6745986 243.58780236 478.39093684 245.77757235 480.578125 248.48046875 C481.35414062 249.42535156 482.13015625 250.37023437 482.9296875 251.34375 C484.78251173 253.92983478 485.93792119 256.17148007 486.953125 259.16796875 C487.613125 259.16796875 488.273125 259.16796875 488.953125 259.16796875 C498.953125 276.66796875 498.953125 276.66796875 499.94628906 278.41308594 C500.62766374 279.60070019 501.317385 280.7835581 502.01464844 281.96191406 C504.10890576 285.52781167 505.81696585 289.02352163 507.203125 292.91796875 C507.70585937 294.30242187 507.70585937 294.30242187 508.21875 295.71484375 C508.953125 298.16796875 508.953125 298.16796875 508.953125 301.16796875 C509.613125 301.16796875 510.273125 301.16796875 510.953125 301.16796875 C511.33404297 302.52728516 511.33404297 302.52728516 511.72265625 303.9140625 C513.98364878 311.96741574 513.98364878 311.96741574 516.578125 319.91796875 C517.85970956 323.68003957 518.69970632 327.42239608 519.421875 331.328125 C519.81019813 333.40394053 520.23151123 335.47366067 520.671875 337.5390625 C522.41438575 345.77242577 523.62740266 353.930986 524.5234375 362.29296875 C524.7912113 364.70780155 525.10946781 367.11822254 525.50390625 369.515625 C526.08383571 374.23070365 526.06003098 378.86086057 526.015625 383.60546875 C526.01111328 384.52779297 526.00660156 385.45011719 526.00195312 386.40039062 C525.99026438 388.65631923 525.97387955 390.91210842 525.953125 393.16796875 C526.613125 393.49796875 527.273125 393.82796875 527.953125 394.16796875 C527.293125 394.16796875 526.633125 394.16796875 525.953125 394.16796875 C525.953125 396.14796875 525.953125 398.12796875 525.953125 400.16796875 C526.613125 400.49796875 527.273125 400.82796875 527.953125 401.16796875 C527.293125 401.16796875 526.633125 401.16796875 525.953125 401.16796875 C525.96472656 402.4725 525.97632813 403.77703125 525.98828125 405.12109375 C526.13969274 429.4517548 522.95240653 453.56423815 516.953125 477.16796875 C516.70691406 478.19921875 516.46070313 479.23046875 516.20703125 480.29296875 C514.95745317 485.47256702 513.5812181 490.53930054 511.828125 495.5703125 C510.89965811 498.32669857 510.05633102 501.1048609 509.21435547 503.88867188 C506.88982149 511.53126862 504.14911814 518.84008417 500.953125 526.16796875 C500.0967304 528.25038724 499.2425608 530.33372215 498.390625 532.41796875 C496.69498881 536.49493727 494.87397486 540.45152003 492.8515625 544.375 C491.98379709 546.10675792 491.21615007 547.88757693 490.453125 549.66796875 C489.3138001 552.32639352 488.14613496 554.93929126 486.890625 557.54296875 C486.56964844 558.21070313 486.24867187 558.8784375 485.91796875 559.56640625 C484.953125 561.16796875 484.953125 561.16796875 482.953125 562.16796875 C482.705625 562.97234375 482.458125 563.77671875 482.203125 564.60546875 C479.47393029 572.38367369 474.35826286 579.14272937 469.828125 585.98046875 C469.40853516 586.61460693 468.98894531 587.24874512 468.55664062 587.90209961 C466.6969503 590.68171969 464.82187599 593.32962912 462.7109375 595.9296875 C460.77759852 598.13247554 460.77759852 598.13247554 459.953125 601.16796875 C458.80983577 602.31125798 457.66195165 603.45042163 456.48828125 604.5625 C453.8883151 607.28154857 451.7306851 610.34835824 449.50390625 613.375 C448.73626953 614.26251953 448.73626953 614.26251953 447.953125 615.16796875 C447.293125 615.16796875 446.633125 615.16796875 445.953125 615.16796875 C445.664375 615.76609375 445.375625 616.36421875 445.078125 616.98046875 C443.953125 619.16796875 443.953125 619.16796875 441.953125 622.16796875 C441.293125 622.16796875 440.633125 622.16796875 439.953125 622.16796875 C439.6953125 622.750625 439.4375 623.33328125 439.171875 623.93359375 C437.85478483 626.34825905 436.40224116 627.98537052 434.453125 629.91796875 C433.8446875 630.5315625 433.23625 631.14515625 432.609375 631.77734375 C430.953125 633.16796875 430.953125 633.16796875 428.953125 633.16796875 C428.953125 633.82796875 428.953125 634.48796875 428.953125 635.16796875 C427.2734375 636.89453125 427.2734375 636.89453125 425.078125 638.79296875 C423.99917969 639.74042969 423.99917969 639.74042969 422.8984375 640.70703125 C420.953125 642.16796875 420.953125 642.16796875 418.953125 642.16796875 C418.953125 642.82796875 418.953125 643.48796875 418.953125 644.16796875 C417.02724921 645.79936812 415.10985783 647.305201 413.078125 648.79296875 C412.52253906 649.21320312 411.96695312 649.6334375 411.39453125 650.06640625 C407.21547788 653.16796875 407.21547788 653.16796875 404.953125 653.16796875 C404.953125 653.82796875 404.953125 654.48796875 404.953125 655.16796875 C397.52455357 659.59654018 397.52455357 659.59654018 393.953125 660.16796875 C393.953125 660.82796875 393.953125 661.48796875 393.953125 662.16796875 C392.963125 662.16796875 391.973125 662.16796875 390.953125 662.16796875 C390.953125 662.82796875 390.953125 663.48796875 390.953125 664.16796875 C388.30573584 665.62859725 387.05864166 666.16796875 383.953125 666.16796875 C383.953125 666.82796875 383.953125 667.48796875 383.953125 668.16796875 C382.633125 668.16796875 381.313125 668.16796875 379.953125 668.16796875 C379.953125 668.82796875 379.953125 669.48796875 379.953125 670.16796875 C379.28667969 670.39871094 378.62023438 670.62945313 377.93359375 670.8671875 C372.9117957 672.64413142 368.06658493 674.54240122 363.265625 676.85546875 C358.71724338 678.98588888 354.95394065 679.88490371 349.953125 680.16796875 C349.953125 680.82796875 349.953125 681.48796875 349.953125 682.16796875 C350.7575 682.39484375 351.561875 682.62171875 352.390625 682.85546875 C360.40109773 685.80669554 367.48176407 690.71207846 374.69921875 695.203125 C377.55490226 696.92750532 380.43225839 698.50496667 383.390625 700.04296875 C388.55946578 702.79766574 393.22425753 706.08392096 397.91967773 709.56591797 C400.71581586 711.62846233 403.49108107 713.51878655 406.53515625 715.19921875 C409.80527786 717.0828088 412.51654587 719.10875611 415.390625 721.54296875 C419.35095687 724.86330224 423.36330244 728.00358455 427.58984375 730.9765625 C428.03972656 731.36972656 428.48960938 731.76289062 428.953125 732.16796875 C428.953125 732.82796875 428.953125 733.48796875 428.953125 734.16796875 C429.943125 734.16796875 430.933125 734.16796875 431.953125 734.16796875 C433.66305934 735.79021415 435.32660184 737.462103 436.953125 739.16796875 C438.0978125 740.00328125 438.0978125 740.00328125 439.265625 740.85546875 C440.1009375 741.50515625 440.1009375 741.50515625 440.953125 742.16796875 C440.953125 742.82796875 440.953125 743.48796875 440.953125 744.16796875 C441.613125 744.16796875 442.273125 744.16796875 442.953125 744.16796875 C442.953125 744.82796875 442.953125 745.48796875 442.953125 746.16796875 C443.571875 746.45671875 444.190625 746.74546875 444.828125 747.04296875 C446.953125 748.16796875 446.953125 748.16796875 448.953125 750.16796875 C450.0359375 750.97234375 450.0359375 750.97234375 451.140625 751.79296875 C454.80737944 754.88933917 458.06770582 758.32628673 460.953125 762.16796875 C460.953125 762.82796875 460.953125 763.48796875 460.953125 764.16796875 C461.943125 764.49796875 462.933125 764.82796875 463.953125 765.16796875 C465.55859375 766.7265625 465.55859375 766.7265625 467.140625 768.60546875 C467.93533203 769.53166016 467.93533203 769.53166016 468.74609375 770.4765625 C469.953125 772.16796875 469.953125 772.16796875 469.953125 774.16796875 C470.613125 774.16796875 471.273125 774.16796875 471.953125 774.16796875 C472.283125 775.48796875 472.613125 776.80796875 472.953125 778.16796875 C473.613125 778.16796875 474.273125 778.16796875 474.953125 778.16796875 C477.05003228 780.42175085 478.77491495 782.98846907 480.578125 785.48046875 C481.09375 786.17076172 481.609375 786.86105469 482.140625 787.57226562 C482.87152344 788.57290039 482.87152344 788.57290039 483.6171875 789.59375 C484.06529785 790.20645752 484.5134082 790.81916504 484.97509766 791.45043945 C485.953125 793.16796875 485.953125 793.16796875 485.953125 796.16796875 C486.613125 796.16796875 487.273125 796.16796875 487.953125 796.16796875 C487.953125 797.15796875 487.953125 798.14796875 487.953125 799.16796875 C488.613125 799.16796875 489.273125 799.16796875 489.953125 799.16796875 C494.5676006 805.05331631 497.59692216 812.33406682 500.828125 819.04296875 C501.23361572 819.87546143 501.63910645 820.7079541 502.05688477 821.56567383 C502.43256592 822.35997803 502.80824707 823.15428223 503.1953125 823.97265625 C503.5341748 824.68405762 503.87303711 825.39545898 504.22216797 826.12841797 C504.953125 828.16796875 504.953125 828.16796875 504.953125 832.16796875 C505.613125 832.16796875 506.273125 832.16796875 506.953125 832.16796875 C516.97263254 862.16893164 521.58605838 890.77264887 515.953125 922.16796875 C515.7984375 923.14507813 515.64375 924.1221875 515.484375 925.12890625 C515.3296875 926.06992187 515.175 927.0109375 515.015625 927.98046875 C514.88285156 928.79128906 514.75007813 929.60210938 514.61328125 930.4375 C513.88862166 933.43476069 512.86995911 936.20583173 511.75805664 939.07788086 C510.9894336 941.07368974 510.26736034 943.07993135 509.55859375 945.09765625 C506.72763895 953.033449 503.5693947 960.07913244 498.953125 967.16796875 C498.05597308 968.75055532 497.16018065 970.33391319 496.265625 971.91796875 C492.1476441 978.80305851 487.01568049 984.96425587 481.953125 991.16796875 C481.50855957 991.71767334 481.06399414 992.26737793 480.60595703 992.83374023 C477.67350651 996.41949203 474.54730261 999.24769944 470.953125 1002.16796875 C470.06625 1003.07546875 469.179375 1003.98296875 468.265625 1004.91796875 C465.953125 1007.16796875 465.953125 1007.16796875 462.953125 1008.16796875 C462.953125 1008.82796875 462.953125 1009.48796875 462.953125 1010.16796875 C461.45605469 1011.48071289 461.45605469 1011.48071289 459.375 1012.953125 C458.62605469 1013.48357422 457.87710937 1014.01402344 457.10546875 1014.56054688 C456.31269531 1015.11162109 455.51992187 1015.66269531 454.703125 1016.23046875 C453.92582031 1016.78541016 453.14851563 1017.34035156 452.34765625 1017.91210938 C445.94957599 1022.40170245 445.94957599 1022.40170245 441.953125 1023.16796875 C441.953125 1023.82796875 441.953125 1024.48796875 441.953125 1025.16796875 C440.633125 1025.16796875 439.313125 1025.16796875 437.953125 1025.16796875 C437.953125 1025.82796875 437.953125 1026.48796875 437.953125 1027.16796875 C436.963125 1027.16796875 435.973125 1027.16796875 434.953125 1027.16796875 C434.953125 1027.82796875 434.953125 1028.48796875 434.953125 1029.16796875 C433.633125 1029.16796875 432.313125 1029.16796875 430.953125 1029.16796875 C430.953125 1029.82796875 430.953125 1030.48796875 430.953125 1031.16796875 C423.0630537 1034.58140385 415.13413656 1037.5355212 406.953125 1040.16796875 C405.36936869 1040.70839744 403.78599824 1041.24995906 402.203125 1041.79296875 C394.19051099 1044.43527462 386.30574095 1045.79323057 377.95207214 1046.89750671 C376.0935438 1047.14896977 374.23766 1047.41977044 372.38208008 1047.69213867 C361.9369696 1049.14808224 351.6787772 1049.52542442 341.140625 1049.48046875 C340.29140472 1049.47931061 339.44218445 1049.47815247 338.56723022 1049.47695923 C324.61737125 1049.43959951 310.99388577 1048.47573645 297.16455078 1046.58691406 C291.52347698 1045.85100995 285.86228408 1045.30704741 280.203125 1044.73046875 C271.68802732 1043.84587568 263.210027 1042.80992673 254.73046875 1041.63330078 C224.88859448 1037.53118149 194.61721592 1034.69885062 164.953125 1041.16796875 C164.07011719 1041.34457031 163.18710937 1041.52117187 162.27734375 1041.703125 C141.17155546 1046.0409295 121.19200935 1057.38221749 104.6953125 1070.91796875 C102.953125 1072.16796875 102.953125 1072.16796875 100.953125 1072.16796875 C100.953125 1072.82796875 100.953125 1073.48796875 100.953125 1074.16796875 C96.48253676 1078.16796875 96.48253676 1078.16796875 93.953125 1078.16796875 C93.623125 1079.15796875 93.293125 1080.14796875 92.953125 1081.16796875 C91.29523715 1082.51220214 89.62736183 1083.84415358 87.953125 1085.16796875 C87.31375 1085.97234375 86.674375 1086.77671875 86.015625 1087.60546875 C83.953125 1090.16796875 83.953125 1090.16796875 81.015625 1092.60546875 C77.88392353 1095.22587202 75.52292969 1098.00513221 72.953125 1101.16796875 C71.28645833 1102.83463542 69.61979167 1104.50130208 67.953125 1106.16796875 C67.293125 1106.99296875 66.633125 1107.81796875 65.953125 1108.66796875 C63.78758173 1111.37489784 61.40384738 1113.71724637 58.953125 1116.16796875 C57.94392179 1117.32668355 56.94430605 1118.49380043 55.953125 1119.66796875 C53.4268803 1122.65940429 50.72234808 1125.39874567 47.953125 1128.16796875 C47.128125 1129.15796875 46.303125 1130.14796875 45.453125 1131.16796875 C43.08451761 1134.01029762 40.56712277 1136.55397098 37.953125 1139.16796875 C37.14875 1140.15796875 36.344375 1141.14796875 35.515625 1142.16796875 C33.61076054 1144.39805397 32.00128728 1146.04848929 29.765625 1147.85546875 C26.82557745 1150.044686 26.82557745 1150.044686 24.953125 1153.16796875 C24.293125 1153.16796875 23.633125 1153.16796875 22.953125 1153.16796875 C22.623125 1154.15796875 22.293125 1155.14796875 21.953125 1156.16796875 C20.3134529 1157.53436217 18.64202372 1158.86291065 16.953125 1160.16796875 C14.33359781 1162.72200776 11.79316169 1165.33537222 9.265625 1167.98046875 C6.953125 1170.16796875 6.953125 1170.16796875 4.953125 1170.16796875 C4.953125 1170.82796875 4.953125 1171.48796875 4.953125 1172.16796875 C3.34264106 1173.64819296 1.66210382 1175.05264328 -0.046875 1176.41796875 C-1.04460938 1177.21847656 -2.04234375 1178.01898437 -3.0703125 1178.84375 C-6.1977839 1181.28580444 -9.36029639 1183.6659502 -12.5859375 1185.9765625 C-14.19517924 1187.12247822 -14.19517924 1187.12247822 -15.046875 1189.16796875 C-16.60178036 1190.06635852 -18.1612708 1190.95741095 -19.73828125 1191.81640625 C-23.76265572 1194.17246981 -27.54808846 1196.89723903 -31.375 1199.55859375 C-34.046875 1201.16796875 -34.046875 1201.16796875 -37.046875 1201.16796875 C-37.046875 1201.82796875 -37.046875 1202.48796875 -37.046875 1203.16796875 C-57.18739808 1213.64587206 -79.98220138 1223.42670708 -103.046875 1223.16796875 C-103.046875 1223.82796875 -103.046875 1224.48796875 -103.046875 1225.16796875 C-103.706875 1225.16796875 -104.366875 1225.16796875 -105.046875 1225.16796875 C-105.046875 1224.50796875 -105.046875 1223.84796875 -105.046875 1223.16796875 C-105.706875 1223.16796875 -106.366875 1223.16796875 -107.046875 1223.16796875 C-107.046875 1223.82796875 -107.046875 1224.48796875 -107.046875 1225.16796875 C-116.616875 1225.16796875 -126.186875 1225.16796875 -136.046875 1225.16796875 C-136.046875 1224.50796875 -136.046875 1223.84796875 -136.046875 1223.16796875 C-136.706875 1223.16796875 -137.366875 1223.16796875 -138.046875 1223.16796875 C-138.376875 1223.82796875 -138.706875 1224.48796875 -139.046875 1225.16796875 C-139.046875 1224.50796875 -139.046875 1223.84796875 -139.046875 1223.16796875 C-140.03300781 1223.14669922 -140.03300781 1223.14669922 -141.0390625 1223.125 C-150.14851496 1222.66829303 -158.39736475 1220.35464251 -167.07470703 1217.74511719 C-168.64645004 1217.28515179 -170.23349658 1216.87757191 -171.82421875 1216.48828125 C-188.01098612 1212.44850683 -207.19569815 1200.56436004 -219.046875 1189.16796875 C-219.046875 1188.50796875 -219.046875 1187.84796875 -219.046875 1187.16796875 C-219.92666016 1186.76191406 -219.92666016 1186.76191406 -220.82421875 1186.34765625 C-225.60605308 1183.80967037 -230.22606612 1179.81400691 -233.046875 1175.16796875 C-233.046875 1174.50796875 -233.046875 1173.84796875 -233.046875 1173.16796875 C-234.036875 1172.83796875 -235.026875 1172.50796875 -236.046875 1172.16796875 C-239.046875 1168.72352431 -239.046875 1168.72352431 -239.046875 1166.16796875 C-239.706875 1166.16796875 -240.366875 1166.16796875 -241.046875 1166.16796875 C-241.376875 1165.17796875 -241.706875 1164.18796875 -242.046875 1163.16796875 C-242.706875 1162.83796875 -243.366875 1162.50796875 -244.046875 1162.16796875 C-244.046875 1161.17796875 -244.046875 1160.18796875 -244.046875 1159.16796875 C-244.706875 1159.16796875 -245.366875 1159.16796875 -246.046875 1159.16796875 C-246.3871875 1158.53632812 -246.7275 1157.9046875 -247.078125 1157.25390625 C-247.5628125 1156.35929687 -248.0475 1155.4646875 -248.546875 1154.54296875 C-249.09214844 1153.53621094 -249.63742187 1152.52945312 -250.19921875 1151.4921875 C-251.77350538 1148.65980289 -253.41254832 1145.87849933 -255.0769043 1143.09863281 C-259.4345651 1135.74140933 -262.46438836 1128.34293492 -265.046875 1120.16796875 C-265.26472656 1119.48847168 -265.48257812 1118.80897461 -265.70703125 1118.10888672 C-267.19308191 1113.47347011 -268.64133297 1108.82845022 -270.046875 1104.16796875 C-270.39363281 1103.03230469 -270.74039062 1101.89664062 -271.09765625 1100.7265625 C-282.57466333 1057.69959359 -277.93758221 1008.64660995 -266.56298828 966.1015625 C-266.04680939 964.16772294 -265.54359747 962.23088636 -265.04296875 960.29296875 C-261.1276249 945.30718208 -256.23292071 930.75077568 -251.046875 916.16796875 C-250.78132813 915.4207959 -250.51578125 914.67362305 -250.2421875 913.90380859 C-248.84985344 909.98966328 -247.45153418 906.07771134 -246.046875 902.16796875 C-246.58957031 902.38453125 -247.13226563 902.60109375 -247.69140625 902.82421875 C-248.40683594 903.10265625 -249.12226563 903.38109375 -249.859375 903.66796875 C-250.92091797 904.085625 -250.92091797 904.085625 -252.00390625 904.51171875 C-254.046875 905.16796875 -254.046875 905.16796875 -257.046875 905.16796875 C-257.046875 905.82796875 -257.046875 906.48796875 -257.046875 907.16796875 C-261.09758333 908.27824861 -265.1503637 909.38053987 -269.20507812 910.47607422 C-270.57869254 910.84833527 -271.95176029 911.22262057 -273.32421875 911.59912109 C-284.70187613 914.71799647 -295.9695537 917.28361988 -307.796875 917.79296875 C-308.58634521 917.82946533 -309.37581543 917.86596191 -310.18920898 917.90356445 C-326.23573581 918.56590055 -342.10985779 918.64348736 -358.03857422 916.43017578 C-360.18532254 916.14989281 -362.33379025 915.93860953 -364.48828125 915.7265625 C-388.20366666 913.11518267 -412.21264503 904.45863252 -434.046875 895.16796875 C-434.90796875 894.82636719 -435.7690625 894.48476563 -436.65625 894.1328125 C-449.25192747 889.04926293 -461.44660291 882.82276933 -473.109375 875.8828125 C-475.90637839 874.24998738 -478.74125105 872.7337894 -481.609375 871.23046875 C-486.54891884 868.56852438 -490.97208689 865.42971686 -495.453125 862.0625 C-497.82089872 860.33302673 -500.2183661 858.79460082 -502.734375 857.29296875 C-503.8275 856.59171875 -504.920625 855.89046875 -506.046875 855.16796875 C-506.046875 854.50796875 -506.046875 853.84796875 -506.046875 853.16796875 C-506.60890625 853.07386719 -507.1709375 852.97976563 -507.75 852.8828125 C-510.61219331 851.99202785 -512.44457961 850.57924993 -514.796875 848.73046875 C-515.59609375 848.11300781 -516.3953125 847.49554687 -517.21875 846.859375 C-517.82203125 846.30121094 -518.4253125 845.74304688 -519.046875 845.16796875 C-519.046875 844.50796875 -519.046875 843.84796875 -519.046875 843.16796875 C-520.366875 842.83796875 -521.686875 842.50796875 -523.046875 842.16796875 C-523.046875 841.50796875 -523.046875 840.84796875 -523.046875 840.16796875 C-524.036875 840.16796875 -525.026875 840.16796875 -526.046875 840.16796875 C-527.75917748 838.54822316 -529.41850762 836.87207415 -531.046875 835.16796875 C-532.14087234 834.25974454 -533.24499381 833.36356328 -534.359375 832.48046875 C-535.24625 831.71734375 -536.133125 830.95421875 -537.046875 830.16796875 C-537.046875 829.50796875 -537.046875 828.84796875 -537.046875 828.16796875 C-537.68625 827.89984375 -538.325625 827.63171875 -538.984375 827.35546875 C-541.046875 826.16796875 -541.046875 826.16796875 -542.046875 823.16796875 C-543.37026132 822.48176844 -544.70637448 821.82010414 -546.046875 821.16796875 C-549.5246787 818.4708965 -552.7089128 815.93468562 -555.046875 812.16796875 C-555.046875 811.50796875 -555.046875 810.84796875 -555.046875 810.16796875 C-556.036875 809.83796875 -557.026875 809.50796875 -558.046875 809.16796875 C-559.65234375 807.609375 -559.65234375 807.609375 -561.234375 805.73046875 C-561.76417969 805.11300781 -562.29398438 804.49554687 -562.83984375 803.859375 C-564.046875 802.16796875 -564.046875 802.16796875 -564.046875 800.16796875 C-565.036875 799.83796875 -566.026875 799.50796875 -567.046875 799.16796875 C-569.33650407 796.67019158 -570.88476662 794.58754339 -572.109375 791.41796875 C-572.41875 790.67546875 -572.728125 789.93296875 -573.046875 789.16796875 C-574.036875 788.83796875 -575.026875 788.50796875 -576.046875 788.16796875 C-577.4855957 786.453125 -577.4855957 786.453125 -578.97265625 784.23046875 C-579.52244141 783.41707031 -580.07222656 782.60367188 -580.63867188 781.765625 C-581.20650391 780.90839844 -581.77433594 780.05117188 -582.359375 779.16796875 C-582.91560547 778.34167969 -583.47183594 777.51539063 -584.04492188 776.6640625 C-585.16405893 774.99903671 -586.27880764 773.33105298 -587.38916016 771.66015625 C-588.49710709 769.99448286 -589.61141277 768.33302213 -590.73193359 766.67578125 C-591.26254395 765.88945313 -591.7931543 765.103125 -592.33984375 764.29296875 C-592.81317139 763.59429688 -593.28649902 762.895625 -593.77416992 762.17578125 C-595.79068903 758.99453185 -597.046875 756.99400294 -597.046875 753.16796875 C-597.706875 753.16796875 -598.366875 753.16796875 -599.046875 753.16796875 C-600.26198396 750.73775083 -601.47647424 748.3072568 -602.6875 745.875 C-603.4767174 744.3033688 -604.27440789 742.73582606 -605.09375 741.1796875 C-616.046875 720.21612449 -616.046875 720.21612449 -616.046875 710.16796875 C-616.706875 710.16796875 -617.366875 710.16796875 -618.046875 710.16796875 C-619.03280056 706.00287199 -620.00939006 701.83563892 -620.984375 697.66796875 C-621.26216797 696.49492188 -621.53996094 695.321875 -621.82617188 694.11328125 C-622.09365234 692.96601562 -622.36113281 691.81875 -622.63671875 690.63671875 C-622.88284912 689.58935547 -623.12897949 688.54199219 -623.38256836 687.46289062 C-624.7659566 680.60136631 -625.21318275 673.95724996 -625.25 666.98046875 C-625.25855011 665.68931152 -625.25855011 665.68931152 -625.26727295 664.37207031 C-625.27666927 662.55681566 -625.28323541 660.74154437 -625.28710938 658.92626953 C-625.29675051 656.20313199 -625.32779874 653.48077149 -625.359375 650.7578125 C-625.42483596 639.84657566 -624.54925597 629.80582313 -622.046875 619.16796875 C-621.80332275 618.12793701 -621.55977051 617.08790527 -621.30883789 616.01635742 C-615.74897362 593.33577659 -601.60134538 572.27502101 -585.046875 556.16796875 C-583.7165625 554.77578125 -583.7165625 554.77578125 -582.359375 553.35546875 C-580.046875 551.16796875 -580.046875 551.16796875 -578.046875 551.16796875 C-578.046875 550.50796875 -578.046875 549.84796875 -578.046875 549.16796875 C-575.70010921 547.03310538 -573.02060027 545.29511736 -570.421875 543.48046875 C-569.65367432 542.94099609 -568.88547363 542.40152344 -568.09399414 541.84570312 C-561.35587098 537.20745782 -554.46686405 533.58887279 -547.046875 530.16796875 C-545.64813272 529.44439792 -544.25179192 528.71613842 -542.859375 527.98046875 C-534.91742827 524.06752631 -526.60265755 521.69781142 -518.046875 519.54296875 C-517.22864258 519.33679932 -516.41041016 519.13062988 -515.56738281 518.91821289 C-504.91901602 516.31111872 -494.53243203 514.8058092 -483.57666016 514.16259766 C-481.54925321 514.04310891 -479.52273945 513.91296483 -477.49609375 513.78125 C-466.85613778 513.12343133 -456.40970305 512.81837169 -445.796875 513.91796875 C-444.95769531 514.00377197 -444.11851562 514.0895752 -443.25390625 514.17797852 C-428.73207694 515.76530402 -414.11377919 518.17478304 -400.046875 522.16796875 C-400.48 521.59175781 -400.913125 521.01554688 -401.359375 520.421875 C-402.42694872 518.99597214 -403.4900413 517.56669364 -404.546875 516.1328125 C-405.041875 515.46378906 -405.536875 514.79476562 -406.046875 514.10546875 C-406.541875 513.43386719 -407.036875 512.76226563 -407.546875 512.0703125 C-408.99161055 510.15280723 -408.99161055 510.15280723 -410.671875 508.5859375 C-412.046875 507.16796875 -412.046875 507.16796875 -413.046875 504.54296875 C-413.376875 503.75921875 -413.706875 502.97546875 -414.046875 502.16796875 C-415.036875 501.83796875 -416.026875 501.50796875 -417.046875 501.16796875 C-417.046875 500.17796875 -417.046875 499.18796875 -417.046875 498.16796875 C-417.706875 498.16796875 -418.366875 498.16796875 -419.046875 498.16796875 C-419.376875 496.84796875 -419.706875 495.52796875 -420.046875 494.16796875 C-420.706875 494.16796875 -421.366875 494.16796875 -422.046875 494.16796875 C-422.376875 492.84796875 -422.706875 491.52796875 -423.046875 490.16796875 C-423.706875 490.16796875 -424.366875 490.16796875 -425.046875 490.16796875 C-425.046875 489.17796875 -425.046875 488.18796875 -425.046875 487.16796875 C-425.706875 487.16796875 -426.366875 487.16796875 -427.046875 487.16796875 C-427.88536304 485.71259307 -428.71751434 484.25356502 -429.546875 482.79296875 C-430.0109375 481.98085938 -430.475 481.16875 -430.953125 480.33203125 C-432.046875 478.16796875 -432.046875 478.16796875 -432.046875 476.16796875 C-432.706875 476.16796875 -433.366875 476.16796875 -434.046875 476.16796875 C-434.046875 475.17796875 -434.046875 474.18796875 -434.046875 473.16796875 C-434.706875 473.16796875 -435.366875 473.16796875 -436.046875 473.16796875 C-437.47039746 470.55817757 -438.89324037 467.94805106 -440.3125 465.3359375 C-441.45560955 463.24796037 -442.61160205 461.16697734 -443.78125 459.09375 C-444.59335937 457.64548828 -444.59335937 457.64548828 -445.421875 456.16796875 C-445.92460937 455.28109375 -446.42734375 454.39421875 -446.9453125 453.48046875 C-448.046875 451.16796875 -448.046875 451.16796875 -448.046875 448.16796875 C-448.706875 448.16796875 -449.366875 448.16796875 -450.046875 448.16796875 C-450.541875 447.03359375 -451.036875 445.89921875 -451.546875 444.73046875 C-452.95104925 441.5523377 -454.40612272 438.40530105 -455.91796875 435.27734375 C-460.20977609 426.37284628 -463.8812859 417.54298263 -467.046875 408.16796875 C-467.55990096 406.76924704 -468.07946841 405.37288286 -468.609375 403.98046875 C-468.82400391 403.41102539 -469.03863281 402.84158203 -469.25976562 402.25488281 C-469.80716597 400.80352482 -470.35927465 399.35393749 -470.91503906 397.90576172 C-473.80173528 390.21328894 -476.06590815 382.40167881 -478.234375 374.48046875 C-478.58951172 373.21396484 -478.94464844 371.94746094 -479.31054688 370.64257812 C-481.01480493 364.45615374 -482.43156998 358.55091316 -483.046875 352.16796875 C-483.27571213 350.64938338 -483.51594435 349.13248533 -483.765625 347.6171875 C-483.89324219 346.83537109 -484.02085937 346.05355469 -484.15234375 345.24804688 C-484.41348352 343.66440221 -484.67647744 342.08106208 -484.94140625 340.49804688 C-486.64492964 330.0101933 -487.23571128 319.52756809 -487.609375 308.91796875 C-487.67415039 307.22027344 -487.67415039 307.22027344 -487.74023438 305.48828125 C-488.02879738 297.6650175 -488.25717463 290.02304836 -487.375 282.234375 C-487.13550601 279.99624667 -486.94417433 277.75281394 -486.78125 275.5078125 C-485.99263273 265.67591443 -484.06157231 256.29805751 -481.671875 246.73046875 C-481.37974121 245.55822754 -481.08760742 244.38598633 -480.78662109 243.17822266 C-478.14064241 232.91869122 -474.74213617 223.16414789 -470.171875 213.60546875 C-469.82310303 212.87368408 -469.47433105 212.14189941 -469.11499023 211.38793945 C-464.66691717 202.17443827 -459.39131019 194.07790103 -453.1640625 185.953125 C-451.40973279 183.64530751 -449.74336447 181.31094149 -448.109375 178.91796875 C-447.42875 178.01046875 -446.748125 177.10296875 -446.046875 176.16796875 C-445.386875 176.16796875 -444.726875 176.16796875 -444.046875 176.16796875 C-443.77359375 175.57113281 -443.5003125 174.97429687 -443.21875 174.359375 C-434.77586458 158.57117926 -409.35552708 145.11383149 -393.046875 139.16796875 C-390.72294322 138.77439966 -388.38976574 138.42568673 -386.046875 138.16796875 C-386.046875 137.50796875 -386.046875 136.84796875 -386.046875 136.16796875 C-355.25253998 127.52541696 -322.68754229 127.41286955 -292.03271484 136.58496094 C-289.38635036 137.36188722 -286.71812723 138.04475943 -284.046875 138.73046875 C-270.31256799 142.48757401 -257.17512882 149.22359258 -244.734375 156.04296875 C-243.79335938 156.55859375 -242.85234375 157.07421875 -241.8828125 157.60546875 C-237.93161449 159.78243735 -233.9862582 161.96969566 -230.046875 164.16796875 C-230.046875 164.82796875 -230.046875 165.48796875 -230.046875 166.16796875 C-229.304375 166.45671875 -228.561875 166.74546875 -227.796875 167.04296875 C-221.60703815 169.57517473 -221.60703815 169.57517473 -219.83984375 171.4453125 C-217.29250512 173.8927555 -214.38271869 175.79121549 -211.484375 177.79296875 C-206.10186017 181.57101331 -201.12629339 185.56359462 -196.3125 190.05859375 C-193.44341143 192.72981414 -190.45238979 195.24399097 -187.4453125 197.7578125 C-186.046875 199.16796875 -186.046875 199.16796875 -186.046875 201.16796875 C-185.46550781 201.43351563 -184.88414062 201.6990625 -184.28515625 201.97265625 C-177.52694046 205.58175578 -171.5517576 212.04414396 -167.046875 218.16796875 C-167.046875 218.82796875 -167.046875 219.48796875 -167.046875 220.16796875 C-166.386875 220.16796875 -165.726875 220.16796875 -165.046875 220.16796875 C-164.77875 220.97234375 -164.510625 221.77671875 -164.234375 222.60546875 C-163.8425 223.45109375 -163.450625 224.29671875 -163.046875 225.16796875 C-162.056875 225.49796875 -161.066875 225.82796875 -160.046875 226.16796875 C-158.859375 228.73046875 -158.859375 228.73046875 -158.046875 231.16796875 C-157.056875 231.16796875 -156.066875 231.16796875 -155.046875 231.16796875 C-155.07007813 230.265625 -155.09328125 229.36328125 -155.1171875 228.43359375 C-155.43765534 209.37808308 -154.16307886 189.97569561 -151.046875 171.16796875 C-150.75876953 169.38326172 -150.75876953 169.38326172 -150.46484375 167.5625 C-149.01165095 159.22576236 -147.12143519 151.01181913 -145.109375 142.79296875 C-144.74827637 141.29552124 -144.74827637 141.29552124 -144.37988281 139.76782227 C-142.95099588 134.06318569 -141.20024574 128.68462056 -138.8996582 123.27026367 C-137.92879817 121.00439979 -137.92879817 121.00439979 -137.171875 117.85546875 C-135.71963749 113.09535693 -133.61735079 108.74382029 -131.484375 104.25390625 C-130.61889535 102.39594722 -129.78806225 100.52044106 -129.02734375 98.6171875 C-125.38351775 89.51488112 -120.60203658 80.24299744 -115.046875 72.16796875 C-114.386875 72.16796875 -113.726875 72.16796875 -113.046875 72.16796875 C-112.82 71.50796875 -112.593125 70.84796875 -112.359375 70.16796875 C-107.966875 60.12796875 -107.966875 60.12796875 -104.046875 58.16796875 C-103.716875 57.17796875 -103.386875 56.18796875 -103.046875 55.16796875 C-101.4031936 53.47862953 -99.7325874 51.81536951 -98.046875 50.16796875 C-97.2425 49.17796875 -96.438125 48.18796875 -95.609375 47.16796875 C-92.97936268 44.08892994 -90.1843716 41.71718474 -87.046875 39.16796875 C-86.16 38.26046875 -85.273125 37.35296875 -84.359375 36.41796875 C-82.046875 34.16796875 -82.046875 34.16796875 -79.046875 33.16796875 C-79.046875 32.50796875 -79.046875 31.84796875 -79.046875 31.16796875 C-77.726875 30.83796875 -76.406875 30.50796875 -75.046875 30.16796875 C-75.046875 29.50796875 -75.046875 28.84796875 -75.046875 28.16796875 C-72.85049771 26.50625592 -70.66357216 24.9800833 -68.359375 23.48046875 C-67.68543701 23.03783691 -67.01149902 22.59520508 -66.31713867 22.13916016 C-49.39214159 11.16796875 -49.39214159 11.16796875 -43.046875 11.16796875 C-43.046875 10.50796875 -43.046875 9.84796875 -43.046875 9.16796875 C-42.4178125 8.98621094 -41.78875 8.80445313 -41.140625 8.6171875 C-37.02854908 7.40957484 -32.97077871 6.18392355 -28.984375 4.60546875 C-19.69707443 1.02910906 -9.88405636 0.01367526 0 0 Z " fill="#FEFEFC" transform="translate(684.046875,22.83203125)"/>
<path d="M0 0 C0.71671875 0.24121582 1.4334375 0.48243164 2.171875 0.73095703 C16.37270592 5.58579937 29.49457207 12.38453022 42.42578125 19.9453125 C45.34420205 21.64452603 48.30401653 23.25887104 51.2734375 24.8671875 C56.68304405 27.80802043 62.01273369 30.86609308 67.3125 34 C68.25109863 34.55469971 69.18969727 35.10939941 70.15673828 35.6809082 C79.7484889 41.38693797 89.14377875 47.38946594 98.53417969 53.41894531 C122.92974079 69.06108924 147.92882893 84.37439691 174.00854492 97.04785156 C176.55473894 98.287119 179.08917962 99.54548993 181.61230469 100.83105469 C190.78542084 105.4991253 200.08041186 109.79817809 209.50738525 113.92694092 C213.46156554 115.66044803 217.40833937 117.41066753 221.35546875 119.16015625 C222.11935913 119.49857544 222.88324951 119.83699463 223.67028809 120.18566895 C256.81302367 134.88498027 288.15838565 153.02057904 316.45751953 175.77490234 C319.42909444 178.13504209 322.4784987 180.39582903 325.5234375 182.66015625 C326.01070312 183.10230469 326.49796875 183.54445313 327 184 C327 184.66 327 185.32 327 186 C327.57419678 186.25040039 328.14839355 186.50080078 328.73999023 186.75878906 C333.18318336 189.19901741 336.51521422 193.1792816 340.0625 196.75 C340.91505371 197.60674316 341.76760742 198.46348633 342.64599609 199.34619141 C349.35671847 206.17681645 355.42588293 213.22324519 361 221 C361.39864258 221.54849609 361.79728516 222.09699219 362.20800781 222.66210938 C383.63757268 252.26440708 395.53561405 286.10517835 390.6015625 322.97753906 C389.54847009 328.48399724 387.94262593 333.7470069 386 339 C385.64711914 339.97477295 385.64711914 339.97477295 385.28710938 340.96923828 C374.75985507 369.32467325 351.92720468 390.69689317 324.921875 403.2890625 C315.66903182 407.4140985 306.18099037 410.10557087 296.3125 412.25 C295.56508545 412.41338867 294.8176709 412.57677734 294.04760742 412.74511719 C267.18869186 418.22021505 237.94440798 415.20104968 211 412 C210.06128052 411.88875793 209.12256104 411.77751587 208.15539551 411.66290283 C202.77590176 411.02484581 197.39671518 410.3842202 192.01757812 409.74316406 C189.76172787 409.47453282 187.50586846 409.2059784 185.25 408.9375 C183.57442017 408.73803772 183.57442017 408.73803772 181.86499023 408.5345459 C116.47399976 400.77117771 52.78374721 401.11810669 -1.3125 443.5625 C-2.33988281 444.38878906 -3.36726563 445.21507812 -4.42578125 446.06640625 C-7 448 -7 448 -10 449 C-10 449.66 -10 450.32 -10 451 C-11.54379113 452.36191365 -13.14937034 453.65398218 -14.77734375 454.9140625 C-20.60214376 459.57651662 -25.88212914 464.60746617 -31.11938477 469.91357422 C-32.58736857 471.40018411 -34.06357075 472.87826644 -35.54101562 474.35546875 C-40.62798627 479.3738341 -40.62798627 479.3738341 -45 485 C-45.66 485 -46.32 485 -47 485 C-47.26425781 485.59296875 -47.52851562 486.1859375 -47.80078125 486.796875 C-49.04370425 489.08029054 -50.30401646 490.47426723 -52.1875 492.25 C-56.88218108 496.80717996 -61.36461829 501.54692744 -65 507 C-65.66 507 -66.32 507 -67 507 C-67.27497314 507.59643311 -67.54994629 508.19286621 -67.83325195 508.80737305 C-68.94877076 510.90372675 -70.05239158 512.35880414 -71.66796875 514.08203125 C-72.22000977 514.67298584 -72.77205078 515.26394043 -73.34082031 515.87280273 C-73.95022461 516.51290283 -74.55962891 517.15300293 -75.1875 517.8125 C-75.83170898 518.49320557 -76.47591797 519.17391113 -77.13964844 519.87524414 C-82.77735918 525.79196538 -88.4977038 531.62863369 -94.25430298 537.42953491 C-95.23596159 538.41924532 -96.21613613 539.4104304 -97.19467163 540.40322876 C-103.78522351 547.07965379 -110.61126699 553.21941991 -118 559 C-118.67466309 559.52859619 -119.34932617 560.05719238 -120.04443359 560.60180664 C-144.28520207 579.28834803 -171.34683202 590.45522712 -202.3125 590.3125 C-204.23388794 590.30404053 -204.23388794 590.30404053 -206.1940918 590.29541016 C-234.01756196 589.93781386 -259.87755421 578.67547391 -279.38305664 558.71289062 C-308.3866099 527.6735459 -314.96068409 485.7802973 -314.13183594 444.80859375 C-312.36863643 393.87171919 -294.08889804 343.48194961 -271.91210938 298.12451172 C-251.42257517 256.18158653 -236.3182671 212.46675347 -222.4074707 167.99682617 C-182.33762084 39.98442489 -182.33762084 39.98442489 -123 8 C-83.99463374 -12.3816773 -41.42322455 -14.04810279 0 0 Z " fill="#FDAFBC" transform="translate(766,612)"/>
<path d="M0 0 C1.15215257 0.93643319 2.30450131 1.87262505 3.45703125 2.80859375 C24.75662164 20.34597228 42.75590181 43.26319249 55 68 C55.34708008 68.68771484 55.69416016 69.37542969 56.05175781 70.08398438 C67.34007807 92.54802319 75.73602862 115.67137582 82 140 C82.41519268 141.57817023 82.8305428 143.15629906 83.24609375 144.734375 C96.35600588 195.37011798 95.8931051 255.64947149 78 305 C77.72849121 305.75667969 77.45698242 306.51335937 77.17724609 307.29296875 C64.9204591 340.91622539 44.5545619 372.14822678 12 389 C-13.20112979 400.20050213 -39.34892456 400.74415193 -65.18359375 391.56640625 C-85.78293002 383.41574415 -105.006205 369.24091595 -120 353 C-120 352.34 -120 351.68 -120 351 C-120.66 351 -121.32 351 -122 351 C-124.7660502 348.02530377 -127.2228234 344.79558144 -129.73242188 341.60302734 C-130.92573416 340.0939194 -132.14185575 338.60292815 -133.359375 337.11328125 C-181.31294285 277.17132144 -199.15409734 192.8222864 -191.10766602 117.61376953 C-185.44646279 70.30697778 -168.319235 22.06445136 -130.16796875 -8.68359375 C-89.03339857 -38.76102916 -37.76902363 -31.55256119 0 0 Z " fill="#FCAFBC" transform="translate(767,95)"/>
<path d="M0 0 C1.20959556 0.65502152 2.41923088 1.30996964 3.62890625 1.96484375 C21.07722234 11.55023583 36.71420748 23.72316133 51.16015625 37.34765625 C53.3524807 39.39523301 55.55963724 41.34717404 57.875 43.25 C60.95804764 45.84943233 63.53534378 48.75987441 66.140625 51.83203125 C68.07860823 54.09165455 70.09736385 56.25816114 72.125 58.4375 C111.69999285 102.43952595 138.37343438 159.14284559 147.5625 217.4375 C147.68818359 218.20642578 147.81386719 218.97535156 147.94335938 219.76757812 C151.44855166 241.88148757 151.62452826 265.05548905 147 287 C146.77521973 288.07145264 146.77521973 288.07145264 146.54589844 289.16455078 C141.72117665 311.4084645 132.8860056 330.79293806 118 348 C117.35675781 348.75667969 116.71351563 349.51335937 116.05078125 350.29296875 C101.18451164 366.4491533 78.00229039 375.99472656 56.34643555 377.14038086 C35.75370628 377.83717307 17.37837146 374.78142387 -2 368 C-3.14855469 367.61714844 -4.29710937 367.23429687 -5.48046875 366.83984375 C-25.4830659 359.58029961 -43.32419746 346.97516785 -60 334 C-61.1310079 333.13736158 -62.26246943 332.27531737 -63.39453125 331.4140625 C-68.3690192 327.55970401 -68.3690192 327.55970401 -70 326 C-70 325.34 -70 324.68 -70 324 C-70.85235229 323.63442993 -70.85235229 323.63442993 -71.72192383 323.26147461 C-74.42081501 321.76697555 -76.26424299 319.99489359 -78.44921875 317.81640625 C-79.71463501 316.55727417 -79.71463501 316.55727417 -81.00561523 315.27270508 C-81.89063721 314.3783374 -82.77565918 313.48396973 -83.6875 312.5625 C-84.59508057 311.64815186 -85.50266113 310.73380371 -86.43774414 309.79174805 C-92.36432738 303.7730889 -97.91014685 297.74592669 -103 291 C-104.01928874 289.69540631 -105.04026925 288.39213347 -106.0625 287.08984375 C-113.15867301 277.99657526 -119.71300403 268.66525428 -126 259 C-127.08150297 257.41541587 -128.16455612 255.83188721 -129.25 254.25 C-141.46024405 235.86207729 -150.26881717 214.5991482 -158 194 C-158.47651001 192.77410156 -158.47651001 192.77410156 -158.96264648 191.5234375 C-161.91263101 183.75071335 -164.05566895 175.80685575 -166.0625 167.75 C-166.32487961 166.70484726 -166.32487961 166.70484726 -166.59255981 165.63858032 C-169.69622511 153.18533449 -171.80597191 140.78693268 -173 128 C-173.0920874 127.10684082 -173.1841748 126.21368164 -173.27905273 125.29345703 C-176.9270651 88.58068776 -171.34865273 46.8530624 -147.96875 16.99609375 C-132.07683549 -2.35113108 -110.50060372 -15.98344755 -85.26147461 -18.82128906 C-54.84598378 -21.22484507 -26.65702512 -14.83047046 0 0 Z " fill="#FCAFBC" transform="translate(415,217)"/>
<path d="M0 0 C10.54284999 9.73529065 10.54284999 9.73529065 12.625 12.25 C12.625 12.91 12.625 13.57 12.625 14.25 C13.285 14.25 13.945 14.25 14.625 14.25 C16.04206502 15.79888502 17.38309496 17.41761534 18.6875 19.0625 C22.19399294 23.46932467 22.19399294 23.46932467 25.796875 27.796875 C53.49956642 60.35259265 73.45806592 103.70849428 70.3515625 147.06640625 C68.38541467 167.71223026 60.61021987 185.87123509 46.625 201.25 C46.02429688 201.94351562 45.42359375 202.63703125 44.8046875 203.3515625 C31.08947403 218.25424034 10.94940354 226.64380265 -8.375 231.25 C-9.40077148 231.4977417 -9.40077148 231.4977417 -10.44726562 231.75048828 C-67.72400056 244.82570138 -131.68844258 222.45327861 -179.8671875 192.18359375 C-195.4871344 182.12106662 -210.41950357 171.05830285 -224.03515625 158.40234375 C-225.91720383 156.67111133 -227.81783922 155.03422347 -229.8125 153.4375 C-232.39963187 151.22897279 -234.29639777 148.93206739 -236.375 146.25 C-238.49380688 144.07392807 -240.6350985 141.93552554 -242.86328125 139.87109375 C-273.65252483 110.5515038 -298.01287381 63.65386791 -299.59765625 21.19921875 C-299.99577774 4.3176332 -297.43278337 -10.36542295 -290.375 -25.75 C-289.71371094 -27.19826172 -289.71371094 -27.19826172 -289.0390625 -28.67578125 C-278.43699575 -49.84927293 -257.41406679 -65.73292747 -235.265625 -73.1953125 C-151.37750348 -99.64765348 -61.22342164 -55.98727139 0 0 Z " fill="#FCAFBC" transform="translate(402.375,661.75)"/>
<path d="M0 0 C2.46283976 2.17778886 4.8157208 4.43020307 7.15625 6.73828125 C7.88972656 7.39957031 8.62320312 8.06085938 9.37890625 8.7421875 C28.27732811 26.30738736 38.80049865 52.57527003 45.40625 76.98828125 C45.75743896 78.25200562 45.75743896 78.25200562 46.11572266 79.54125977 C50.76662103 97.63642171 51.67697347 116.02125681 51.53125 134.61328125 C51.52476944 136.18952271 51.52476944 136.18952271 51.51815796 137.79760742 C51.44502375 152.98067406 51.00888241 167.78723045 48.15625 182.73828125 C47.98996094 183.67752441 47.82367187 184.61676758 47.65234375 185.58447266 C42.23801483 215.91975443 32.60632481 245.70259741 18.10644531 272.93945312 C17.14903951 274.75193153 16.22447953 276.57834233 15.3046875 278.41015625 C8.38057034 292.02489246 -0.12568757 304.95207282 -9.84375 316.73828125 C-10.56175781 317.62773438 -11.27976562 318.5171875 -12.01953125 319.43359375 C-14.276138 322.21737418 -16.55325659 324.98233998 -18.84375 327.73828125 C-19.45347656 328.47433594 -20.06320312 329.21039062 -20.69140625 329.96875 C-24.09684346 333.9792535 -27.68217392 337.51062547 -31.703125 340.90234375 C-33.18387274 342.17232812 -34.63031782 343.48301036 -36.046875 344.82421875 C-43.05938521 351.44198501 -50.73587806 356.58958728 -58.84375 361.73828125 C-59.73191406 362.31707031 -60.62007812 362.89585937 -61.53515625 363.4921875 C-78.24863599 374.03792513 -97.43459128 380.15298158 -117.15625 380.05078125 C-118.25984863 380.0465918 -119.36344727 380.04240234 -120.50048828 380.03808594 C-128.3735225 379.92885122 -135.34227849 379.26051515 -142.84375 376.73828125 C-143.75382813 376.45984375 -144.66390625 376.18140625 -145.6015625 375.89453125 C-156.84349557 372.17924853 -166.7921405 366.30324387 -175.84375 358.73828125 C-176.854375 357.97515625 -177.865 357.21203125 -178.90625 356.42578125 C-179.545625 355.86890625 -180.185 355.31203125 -180.84375 354.73828125 C-180.84375 354.07828125 -180.84375 353.41828125 -180.84375 352.73828125 C-181.83375 352.40828125 -182.82375 352.07828125 -183.84375 351.73828125 C-185.72493635 349.56588958 -187.48370848 347.39697103 -189.21875 345.11328125 C-189.68796875 344.50871094 -190.1571875 343.90414063 -190.640625 343.28125 C-192.05778258 341.44520883 -193.4543523 339.59539943 -194.84375 337.73828125 C-195.28178955 337.15788086 -195.7198291 336.57748047 -196.17114258 335.97949219 C-199.16109794 331.92434737 -201.56915861 327.76052872 -203.78125 323.23828125 C-204.12260986 322.54541016 -204.46396973 321.85253906 -204.81567383 321.13867188 C-214.27132696 301.65670865 -219.68999687 282.09520973 -222.84375 260.73828125 C-222.96379395 259.96210449 -223.08383789 259.18592773 -223.20751953 258.38623047 C-231.96199234 200.05352118 -217.54459061 136.20847974 -189.84375 84.73828125 C-189.46782715 84.02655762 -189.0919043 83.31483398 -188.70458984 82.58154297 C-174.43970173 55.63415916 -155.32189627 29.27478446 -130.84375 10.73828125 C-129.93625 10.01511719 -129.02875 9.29195313 -128.09375 8.546875 C-90.68467599 -20.67896407 -39.59500793 -31.49108461 0 0 Z " fill="#FCAFBC" transform="translate(1113.84375,284.26171875)"/>
<path d="M0 0 C0.66 0 1.32 0 2 0 C2 2 2 2 -0.1875 4.3125 C-1.115625 5.199375 -2.04375 6.08625 -3 7 C-5.62911205 9.61140759 -8.23837263 12.24039147 -10.82421875 14.89453125 C-11.7786209 15.86721196 -12.73304812 16.83986808 -13.6875 17.8125 C-14.17283203 18.31458984 -14.65816406 18.81667969 -15.15820312 19.33398438 C-16.40124606 20.59417273 -17.69699892 21.80191044 -19 23 C-19.66 23 -20.32 23 -21 23 C-21.33 23.66 -21.66 24.32 -22 25 C-22 22 -22 22 -19.8125 19.6875 C-18.884375 18.800625 -17.95625 17.91375 -17 17 C-16.195625 16.01 -15.39125 15.02 -14.5625 14 C-11.93248768 10.92096119 -9.1374966 8.54921599 -6 6 C-4.31471312 4.35216394 -2.64302953 2.68997323 -1 1 C-0.67 0.67 -0.34 0.34 0 0 Z " fill="#FDF0BD" transform="translate(603,56)"/>
<path d="M0 0 C2.89852365 1.31307372 4.98277217 2.72684638 7.234375 4.96875 C8.09482422 5.82533203 8.09482422 5.82533203 8.97265625 6.69921875 C9.85244141 7.59060547 9.85244141 7.59060547 10.75 8.5 C11.35199219 9.09425781 11.95398438 9.68851563 12.57421875 10.30078125 C13.14269531 10.87183594 13.71117187 11.44289063 14.296875 12.03125 C14.81604492 12.55267578 15.33521484 13.07410156 15.87011719 13.61132812 C17 15 17 15 17 17 C17.66 17 18.32 17 19 17 C18.67 17.66 18.34 18.32 18 19 C15.95880212 17.38405168 13.95927063 15.7143618 12 14 C12 13.34 12 12.68 12 12 C11.01 11.67 10.02 11.34 9 11 C7.73495563 9.54033341 6.47385906 8.0757587 5.2734375 6.5625 C3.89320499 4.8150402 3.89320499 4.8150402 1.6875 2.6875 C1.130625 2.130625 0.57375 1.57375 0 1 C0 0.67 0 0.34 0 0 Z " fill="#B89DA5" transform="translate(398,659)"/>
<path d="M0 0 C0.33 0.99 0.66 1.98 1 3 C-0.59792764 4.65189143 -2.20355876 6.2963339 -3.8125 7.9375 C-4.70582031 8.85402344 -5.59914063 9.77054687 -6.51953125 10.71484375 C-9 13 -9 13 -12 14 C-11.67 13.01 -11.34 12.02 -11 11 C-10.34 11 -9.68 11 -9 11 C-8.61714844 10.12601562 -8.61714844 10.12601562 -8.2265625 9.234375 C-6.88258913 6.78611777 -5.38189704 5.18256752 -3.375 3.25 C-2.74335937 2.63640625 -2.11171875 2.0228125 -1.4609375 1.390625 C-0.73777344 0.70226562 -0.73777344 0.70226562 0 0 Z " fill="#FDEEB1" transform="translate(941,272)"/>
<path d="M0 0 C0.33 0.99 0.66 1.98 1 3 C0.03542166 4.35917857 -0.96854629 5.69084721 -2 7 C-2.0825 7.66 -2.165 8.32 -2.25 9 C-3.54332837 12.44887565 -6.81933834 13.38075407 -10 15 C-8.37815499 11.41486894 -6.20743761 8.41007677 -3.875 5.25 C-3.15054688 4.26515625 -2.42609375 3.2803125 -1.6796875 2.265625 C-1.12539063 1.51796875 -0.57109375 0.7703125 0 0 Z " fill="#FCECAE" transform="translate(919,295)"/>
<path d="M0 0 C1.77074917 -0.02705729 3.54161711 -0.04642195 5.3125 -0.0625 C6.29863281 -0.07410156 7.28476562 -0.08570313 8.30078125 -0.09765625 C11 0 11 0 14 1 C14 1.66 14 2.32 14 3 C10.37 3 6.74 3 3 3 C3 2.34 3 1.68 3 1 C2.34 1 1.68 1 1 1 C0.67 1.66 0.34 2.32 0 3 C0 2.01 0 1.02 0 0 Z " fill="#FDD897" transform="translate(545,1245)"/>
<path d="M0 0 C0.33 0.66 0.66 1.32 1 2 C0.35191436 3.34246312 -0.31822584 4.67432801 -1 6 C-1.12375 6.78375 -1.2475 7.5675 -1.375 8.375 C-2.19354674 11.81289632 -3.94988926 14.156298 -6 17 C-7.18407653 13.4477704 -6.48730675 12.21520541 -4.96875 8.91796875 C-3.42977214 5.87104082 -1.73856674 2.93757828 0 0 Z " fill="#FBE996" transform="translate(74,612)"/>
<path d="M0 0 C3.78145709 1.2604857 4.52164768 2.9020596 7 6 C9.26731585 8.0816305 11.61719623 10.05225872 14 12 C13.67 12.66 13.34 13.32 13 14 C11.38869977 12.61240749 9.78624159 11.21454377 8.1875 9.8125 C7.29417969 9.03519531 6.40085937 8.25789063 5.48046875 7.45703125 C3.1068383 5.10582881 1.56759953 2.93208816 0 0 Z " fill="#B4979F" transform="translate(483,1165)"/>
<path d="M0 0 C3.36016893 1.12005631 4.69064913 2.37211797 7 5 C7 5.66 7 6.32 7 7 C7.99 7.33 8.98 7.66 10 8 C11.6875 9.4375 11.6875 9.4375 13 11 C13 11.66 13 12.32 13 13 C9.84164893 11.60249952 7.67727175 9.94801766 5.25 7.5 C4.32960938 6.58734375 4.32960938 6.58734375 3.390625 5.65625 C2 4 2 4 2 2 C1.34 2 0.68 2 0 2 C0 1.34 0 0.68 0 0 Z " fill="#B69BA3" transform="translate(645,444)"/>
<path d="M0 0 C0.33 0.99 0.66 1.98 1 3 C-1.64 5.64 -4.28 8.28 -7 11 C-7 7.65399937 -6.54040834 6.97685525 -4.625 4.375 C-4.18414062 3.76398437 -3.74328125 3.15296875 -3.2890625 2.5234375 C-2 1 -2 1 0 0 Z " fill="#FBEFB8" transform="translate(91,588)"/>
<path d="M0 0 C1.77074917 -0.02705729 3.54161711 -0.04642195 5.3125 -0.0625 C6.29863281 -0.07410156 7.28476562 -0.08570313 8.30078125 -0.09765625 C11 0 11 0 14 1 C13.67 1.66 13.34 2.32 13 3 C8.71 2.67 4.42 2.34 0 2 C0 1.34 0 0.68 0 0 Z " fill="#FCDA9B" transform="translate(996,1069)"/>
<path d="M0 0 C1.3340394 4.00211819 0.40012984 6.07963644 -1 10 C-2.625 11.9375 -2.625 11.9375 -4 13 C-3.40895235 8.15340923 -2.02055843 4.39251833 0 0 Z " fill="#FCDCA3" transform="translate(439,924)"/>
<path d="M0 0 C0 3 0 3 -1.3125 4.60546875 C-1.869375 5.12753906 -2.42625 5.64960937 -3 6.1875 C-3.556875 6.71730469 -4.11375 7.24710938 -4.6875 7.79296875 C-5.120625 8.19128906 -5.55375 8.58960938 -6 9 C-6.99 8.67 -7.98 8.34 -9 8 C-7.625 6.5 -7.625 6.5 -6 5 C-5.34 5 -4.68 5 -4 5 C-4 4.34 -4 3.68 -4 3 C-2 1.375 -2 1.375 0 0 Z " fill="#FDEEB3" transform="translate(110,569)"/>
<path d="M0 0 C4.61513112 1.31860889 8.09897612 3.21355437 12 6 C11.01 6.495 11.01 6.495 10 7 C7.375 6.0625 7.375 6.0625 5 5 C5 4.34 5 3.68 5 3 C3.35 2.67 1.7 2.34 0 2 C0 1.34 0 0.68 0 0 Z " fill="#B0939B" transform="translate(415,218)"/>
<path d="M0 0 C1.6498275 0.42218816 3.29483665 0.86324425 4.9375 1.3125 C6.31228516 1.67794922 6.31228516 1.67794922 7.71484375 2.05078125 C8.46894531 2.36402344 9.22304687 2.67726563 10 3 C10.33 3.99 10.66 4.98 11 6 C6.95743617 4.77782954 3.50711041 3.37245704 0 1 C0 0.67 0 0.34 0 0 Z " fill="#B5969F" transform="translate(237,861)"/>
<path d="M0 0 C0.66 1.32 1.32 2.64 2 4 C-1.625 7 -1.625 7 -5 7 C-3.88820837 3.66462511 -2.52588702 2.36292656 0 0 Z " fill="#FBEEB7" transform="translate(906,313)"/>
<path d="M0 0 C1.13199353 0.9080162 2.25532363 1.82683826 3.375 2.75 C4.00148438 3.26046875 4.62796875 3.7709375 5.2734375 4.296875 C7.08312318 6.08199481 8.00117455 7.67949644 9 10 C8.01 10.495 8.01 10.495 7 11 C6.401875 10.05125 5.80375 9.1025 5.1875 8.125 C3.18437474 4.86035803 3.18437474 4.86035803 0 3 C0 2.01 0 1.02 0 0 Z " fill="#AE8F97" transform="translate(479,268)"/>
<path d="M0 0 C4.30764815 1.56641751 8.06171464 3.68336156 12 6 C11.34 6.66 10.68 7.32 10 8 C8.33055479 6.85821872 6.6645052 5.71147095 5 4.5625 C4.071875 3.92441406 3.14375 3.28632812 2.1875 2.62890625 C1.465625 2.09136719 0.74375 1.55382812 0 1 C0 0.67 0 0.34 0 0 Z " fill="#FDE0B2" transform="translate(195,888)"/>
<path d="M0 0 C-3.37097383 1.49821059 -5.20442119 2 -9 2 C-9 2.66 -9 3.32 -9 4 C-9.99 4 -10.98 4 -12 4 C-11.67 3.01 -11.34 2.02 -11 1 C-9.2578125 0.234375 -9.2578125 0.234375 -7.125 -0.25 C-6.07699219 -0.50523437 -6.07699219 -0.50523437 -5.0078125 -0.765625 C-3 -1 -3 -1 0 0 Z " fill="#FCCA72" transform="translate(1043,701)"/>
<path d="M0 0 C1.9375 0.375 1.9375 0.375 4 1 C4.33 1.66 4.66 2.32 5 3 C7.01669827 4.13350534 7.01669827 4.13350534 9 5 C9 5.66 9 6.32 9 7 C4.58110387 5.64978174 2.65654657 3.73884332 0 0 Z " fill="#BE9CA5" transform="translate(937,641)"/>
<path d="M0 0 C2.97 0.495 2.97 0.495 6 1 C6 1.66 6 2.32 6 3 C3.69 3 1.38 3 -1 3 C-0.67 2.01 -0.34 1.02 0 0 Z " fill="#FCD48F" transform="translate(569,1245)"/>
<path d="M0 0 C2.97 1.65 5.94 3.3 9 5 C8.67 5.66 8.34 6.32 8 7 C5.03 5.35 2.06 3.7 -1 2 C-0.67 1.34 -0.34 0.68 0 0 Z " fill="#FEE692" transform="translate(1124,237)"/>
<path d="M0 0 C0.33 0.66 0.66 1.32 1 2 C-0.98 4.31 -2.96 6.62 -5 9 C-5 4.61031544 -2.87194899 3.23094261 0 0 Z " fill="#FEF0C4" transform="translate(234,205)"/>
</svg>
