<svg width="293" height="282" viewBox="0 0 293 282" fill="none" xmlns="http://www.w3.org/2000/svg">
<path d="M229.787 111.997C238.667 111.997 245.874 104.782 245.874 95.8961C245.874 87.0102 238.667 79.7949 229.787 79.7949C220.906 79.7949 213.717 87.0102 213.717 95.8961C213.717 104.782 220.906 111.997 229.787 111.997Z" fill="#7E7E80" fill-opacity="0.25"/>
<path d="M183.697 62.109C186.86 65.2852 189.691 68.7 192.155 72.2801V70.9766C192.155 48.725 174.136 30.6777 151.908 30.6777H43.3198C38.1901 30.6777 33.8877 34.2762 32.7846 39.0863C32.6007 39.8758 32.5088 40.6836 32.5088 41.5098V239.956C32.5088 245.923 37.3627 250.788 43.3198 250.788H181.344C181.877 250.788 182.41 250.733 182.943 250.66C188.147 249.889 192.155 245.391 192.155 239.956V198.739L178.31 184.896C176.931 183.501 176.931 181.261 178.31 179.884L179.34 178.856L173.732 173.22C145.454 192.92 106.292 190.129 81.0847 164.885C52.7518 136.501 52.7518 90.4926 81.0847 62.109C109.418 33.7438 155.364 33.7438 183.697 62.109ZM112.929 228.316H54.2043C52.6967 228.316 51.4832 227.105 51.4832 225.599C51.4832 224.094 52.6967 222.864 54.2043 222.864H112.929C114.437 222.864 115.669 224.094 115.669 225.599C115.669 227.105 114.437 228.316 112.929 228.316ZM167.867 215.41H54.2043C52.6967 215.41 51.4832 214.198 51.4832 212.674C51.4832 211.169 52.6967 209.957 54.2043 209.957H167.867C169.375 209.957 170.588 211.169 170.588 212.674C170.588 214.198 169.375 215.41 167.867 215.41ZM167.867 197.032C169.375 197.032 170.588 198.262 170.588 199.768C170.588 201.273 169.375 202.503 167.867 202.503H54.2043C52.6967 202.503 51.4832 201.273 51.4832 199.768C51.4832 199.015 51.7774 198.336 52.2738 197.84C52.7702 197.344 53.4505 197.032 54.2043 197.032H167.867ZM94.0285 183.52C95.5362 183.52 96.7496 184.75 96.7496 186.255C96.7496 187.761 95.5362 188.991 94.0285 188.991H54.2043C52.6967 188.991 51.4832 187.761 51.4832 186.255C51.4832 184.75 52.6967 183.52 54.2043 183.52H94.0285ZM68.8028 170.613C70.2921 170.613 71.524 171.843 71.524 173.348C71.524 174.854 70.2921 176.066 68.8028 176.066H54.2043C52.6967 176.066 51.4832 174.854 51.4832 173.348C51.4832 171.843 52.6967 170.613 54.2043 170.613H68.8028ZM61.4852 77.3656C60.9888 77.8613 60.3085 78.1734 59.5547 78.1734H54.2043C52.6967 78.1734 51.4832 76.9434 51.4832 75.4379C51.4832 73.9324 52.6967 72.7023 54.2043 72.7023H59.5547C61.0623 72.7023 62.2758 73.9324 62.2758 75.4379C62.2758 76.1906 61.9632 76.8699 61.4852 77.3656ZM68.8028 65.2484H54.2043C52.6967 65.2484 51.4832 64.0367 51.4832 62.5313C51.4832 61.0258 52.6967 59.7957 54.2043 59.7957H68.8028C70.2921 59.7957 71.524 61.0258 71.524 62.5313C71.524 64.0367 70.2921 65.2484 68.8028 65.2484ZM68.8028 52.3418H54.2043C52.6967 52.3418 51.4832 51.1117 51.4832 49.6063C51.4832 48.1008 52.6967 46.8891 54.2043 46.8891H68.8028C70.2921 46.8891 71.524 48.1008 71.524 49.6063C71.524 51.1117 70.2921 52.3418 68.8028 52.3418Z" fill="#7E7E80" fill-opacity="0.25"/>
<path d="M71.5242 62.5363C71.5242 64.0418 70.2923 65.2535 68.8031 65.2535H54.2045C52.6969 65.2535 51.4834 64.0418 51.4834 62.5363C51.4834 61.0309 52.6969 59.8008 54.2045 59.8008H68.8031C70.2923 59.8008 71.5242 61.0309 71.5242 62.5363Z" fill="#7E7E80" fill-opacity="0.75"/>
<path d="M115.669 225.595C115.669 227.1 114.437 228.312 112.93 228.312H54.2045C52.6969 228.312 51.4834 227.1 51.4834 225.595C51.4834 224.089 52.6969 222.859 54.2045 222.859H112.93C114.437 222.859 115.669 224.089 115.669 225.595Z" fill="#7E7E80" fill-opacity="0.75"/>
<path d="M170.588 212.693C170.588 214.198 169.375 215.41 167.867 215.41H54.2045C52.6969 215.41 51.4834 214.198 51.4834 212.693C51.4834 211.187 52.6969 209.957 54.2045 209.957H167.867C169.375 209.957 170.588 211.187 170.588 212.693Z" fill="#7E7E80" fill-opacity="0.75"/>
<path d="M170.588 199.763C170.588 201.268 169.375 202.498 167.867 202.498H54.2045C52.6969 202.498 51.4834 201.268 51.4834 199.763C51.4834 199.01 51.7776 198.331 52.274 197.835C52.7704 197.339 53.4507 197.027 54.2045 197.027H167.867C169.375 197.027 170.588 198.257 170.588 199.763Z" fill="#7E7E80" fill-opacity="0.5"/>
<path d="M96.7498 186.255C96.7498 187.761 95.5364 188.991 94.0287 188.991H54.2045C52.6969 188.991 51.4834 187.761 51.4834 186.255C51.4834 184.75 52.6969 183.52 54.2045 183.52H94.0287C95.5364 183.52 96.7498 184.75 96.7498 186.255Z" fill="#7E7E80" fill-opacity="0.75"/>
<path d="M71.5242 173.355C71.5242 174.86 70.2923 176.072 68.8031 176.072H54.2045C52.6969 176.072 51.4834 174.86 51.4834 173.355C51.4834 171.849 52.6969 170.619 54.2045 170.619H68.8031C70.2923 170.619 71.5242 171.849 71.5242 173.355Z" fill="#7E7E80" fill-opacity="0.5"/>
<path d="M62.276 75.4387C62.276 76.1914 61.9634 76.8707 61.4854 77.3664C60.989 77.8621 60.3087 78.1742 59.5549 78.1742H54.2045C52.6969 78.1742 51.4834 76.9441 51.4834 75.4387C51.4834 73.9332 52.6969 72.7031 54.2045 72.7031H59.5549C61.0625 72.7031 62.276 73.9332 62.276 75.4387Z" fill="#7E7E80" fill-opacity="0.5"/>
<path d="M71.5242 49.602C71.5242 51.1074 70.2923 52.3375 68.8031 52.3375H54.2045C52.6969 52.3375 51.4834 51.1074 51.4834 49.602C51.4834 48.0965 52.6969 46.8848 54.2045 46.8848H68.8031C70.2923 46.8848 71.5242 48.0965 71.5242 49.602Z" fill="#7E7E80" fill-opacity="0.75"/>
<path d="M181.341 251.637H43.3174C36.9007 251.637 31.6606 246.387 31.6606 239.961V41.5145C31.6606 40.6332 31.7526 39.752 31.9548 38.9074C33.1683 33.5648 37.8567 29.8379 43.3174 29.8379H151.905C174.557 29.8379 192.998 48.2891 192.998 70.9812V75.002L191.454 72.7621C188.99 69.2004 186.177 65.8223 183.088 62.7195C155.141 34.7215 109.636 34.7215 81.6707 62.7195C53.7239 90.7176 53.7239 136.286 81.6707 164.284C106.253 188.885 144.753 192.355 173.252 172.527L173.822 172.123L180.532 178.861L178.914 180.495C178.4 180.991 178.124 181.67 178.124 182.386C178.124 183.102 178.4 183.781 178.914 184.295L192.998 198.395V239.943C192.998 245.689 188.733 250.664 183.07 251.509C182.5 251.582 181.911 251.637 181.341 251.637ZM43.3174 31.527C38.6473 31.527 34.6392 34.7215 33.6096 39.293C33.4441 40.009 33.3522 40.7617 33.3522 41.5145V239.943C33.3522 245.45 37.82 249.93 43.3174 249.93H181.341C181.838 249.93 182.334 249.893 182.812 249.82C187.648 249.104 191.307 244.863 191.307 239.943V199.093L177.719 185.489C176.892 184.662 176.432 183.561 176.432 182.386C176.432 181.229 176.874 180.109 177.719 179.283L178.142 178.861L173.638 174.326C161.484 182.606 147.051 187.012 132.361 187.012C130.302 187.012 128.243 186.939 126.183 186.755C108.956 185.305 92.7207 177.741 80.4756 165.477C66.6125 151.597 58.9823 133.146 58.9823 113.502C58.9823 93.857 66.6125 75.4059 80.4756 61.5262C94.3387 47.6281 112.78 39.9906 132.379 39.9906C151.997 39.9906 170.42 47.6281 184.283 61.5262C186.82 64.0414 189.155 66.7586 191.288 69.6043C190.553 48.491 173.178 31.527 151.924 31.527H43.3174Z" fill="#7E7E80"/>
<path d="M182.943 250.665C181.84 255.475 177.538 259.074 172.39 259.074H34.3842C28.4088 259.074 23.5732 254.227 23.5732 248.242V49.8137C23.5732 44.3793 27.563 39.8813 32.7847 39.0918C32.6008 39.8813 32.5089 40.6891 32.5089 41.5152V239.962C32.5089 245.929 37.3628 250.794 43.3199 250.794H181.344C181.877 250.794 182.41 250.739 182.943 250.665Z" fill="#7E7E80" fill-opacity="0.5"/>
<path d="M172.387 259.909H34.3818C27.9467 259.909 22.7251 254.676 22.7251 248.232V49.8039C22.7251 44.0574 26.9907 39.1004 32.6536 38.2559L33.8854 38.0723L33.6096 39.284C33.4442 40 33.3522 40.7527 33.3522 41.5055V239.934C33.3522 245.441 37.82 249.921 43.3359 249.921H181.341C181.838 249.921 182.334 249.884 182.812 249.811L184.044 249.627L183.768 250.839C182.555 256.182 177.867 259.909 172.387 259.909ZM31.7343 40.1836C27.4871 41.3586 24.4166 45.3059 24.4166 49.8039V248.232C24.4166 253.74 28.8844 258.22 34.3818 258.22H172.387C176.671 258.22 180.367 255.557 181.764 251.61C181.617 251.629 181.47 251.629 181.323 251.629H43.3175C36.9007 251.629 31.6607 246.378 31.6607 239.952V41.5055C31.6607 41.0648 31.6791 40.6242 31.7343 40.1836Z" fill="#7E7E80"/>
<path d="M171.061 74.7545C149.697 53.3475 115.057 53.3475 93.6929 74.7545C72.3283 96.1432 72.3283 130.842 93.6929 152.231C111.913 170.48 139.768 173.161 160.839 160.309C164.479 158.088 167.917 155.389 171.061 152.231C174.224 149.073 176.908 145.64 179.133 141.987C191.966 120.892 189.282 92.9854 171.061 74.7545ZM158.927 134.588L153.448 140.077C151.627 141.913 148.649 141.913 146.829 140.077L132.377 125.61L117.926 140.077C116.105 141.913 113.145 141.913 111.325 140.077L105.828 134.588C103.989 132.752 103.989 129.796 105.828 127.96L120.279 113.493L105.828 99.0256C104.007 97.1897 103.989 94.2338 105.828 92.3979L111.325 86.9084C113.145 85.0725 116.105 85.0725 117.926 86.9084L132.377 101.376L146.829 86.9084C148.649 85.0725 151.627 85.0725 153.448 86.9084L158.927 92.3979C160.765 94.2338 160.765 97.1897 158.927 99.0256L144.494 113.493L158.927 127.96C160.765 129.796 160.765 132.752 158.927 134.588Z" fill="#7E7E80" fill-opacity="0.5"/>
<path d="M132.322 169.149C130.244 169.149 128.167 169.021 126.107 168.8C113.495 167.368 102.077 161.842 93.0861 152.846C82.6061 142.345 76.8145 128.373 76.8145 113.502C76.8145 98.6492 82.5877 84.6777 93.0861 74.1578C103.585 63.6563 117.54 57.873 132.377 57.873C147.215 57.873 161.17 63.6563 171.668 74.1578C180.659 83.1723 186.156 94.5918 187.59 107.223C188.969 119.469 186.23 131.971 179.85 142.455C177.57 146.2 174.812 149.707 171.668 152.846C168.524 156.004 165.031 158.758 161.28 161.053C152.583 166.359 142.508 169.149 132.322 169.149ZM132.377 59.5805C118.588 59.5805 104.798 64.8496 94.2996 75.3695C84.1137 85.559 78.5244 99.0898 78.5244 113.502C78.5244 127.914 84.1137 141.463 94.2996 151.653C111.932 169.314 139.106 172.582 160.397 159.602C164.038 157.381 167.421 154.7 170.473 151.653C173.525 148.605 176.191 145.209 178.416 141.555C191.378 120.258 188.124 93.0313 170.473 75.3512C159.975 64.8496 146.167 59.5805 132.377 59.5805Z" fill="#7E7E80"/>
<path d="M179.135 141.995C176.91 145.649 174.226 149.082 171.064 152.24C167.92 155.416 164.481 158.097 160.841 160.318C139.771 173.17 111.916 170.489 93.6951 152.24C72.3306 130.851 72.3306 96.1521 93.6951 74.7634C115.06 53.3563 149.699 53.3563 171.064 74.7634C189.284 92.9942 191.969 120.9 179.135 141.995ZM192.152 72.2849C189.689 68.7048 186.857 65.2899 183.695 62.1138C155.362 33.7485 109.415 33.7485 81.0823 62.1138C52.731 90.4974 52.731 136.506 81.0823 164.89C106.29 190.134 145.433 192.924 173.73 173.225C177.223 170.801 180.569 168.011 183.695 164.89C186.802 161.768 189.597 158.409 192.024 154.902C192.06 154.847 192.097 154.792 192.152 154.737C209.196 129.988 209.215 97.0149 192.152 72.2849Z" fill="#7E7E80" fill-opacity="0.75"/>
<path d="M132.364 187.008C130.304 187.008 128.245 186.935 126.186 186.751C108.958 185.301 92.7233 177.737 80.4781 165.473C66.6151 151.593 58.9849 133.142 58.9849 113.497C58.9849 93.8527 66.6151 75.4016 80.4781 61.5219C94.3412 47.6238 112.782 39.9863 132.382 39.9863C152 39.9863 170.423 47.6238 184.286 61.5219C187.467 64.6797 190.335 68.1496 192.854 71.7848C201.311 84.0672 205.797 98.4977 205.797 113.497C205.797 128.497 201.311 142.927 192.854 155.21C192.817 155.265 192.762 155.338 192.707 155.393C190.224 158.973 187.393 162.37 184.286 165.491C181.179 168.594 177.795 171.439 174.21 173.918C161.947 182.455 147.293 187.008 132.345 187.008H132.364ZM132.382 41.7121C114.014 41.7121 95.665 48.7254 81.6732 62.7152C53.7265 90.7316 53.7265 136.281 81.6732 164.279C106.255 188.881 144.756 192.351 173.254 172.541C176.747 170.099 180.057 167.327 183.091 164.279C186.124 161.25 188.901 157.927 191.328 154.42C191.383 154.365 191.42 154.31 191.456 154.255C208.261 129.874 208.261 97.1207 191.456 72.7578C188.993 69.1961 186.198 65.818 183.091 62.7152C169.117 48.7254 150.75 41.7121 132.4 41.7121H132.382Z" fill="#7E7E80"/>
<path d="M197.629 160.529L179.335 178.852L173.728 173.215C177.221 170.792 180.567 168.001 183.693 164.88C185.642 162.916 187.462 160.878 189.135 158.766C189.484 158.344 189.815 157.922 190.128 157.5C190.624 156.857 191.102 156.214 191.562 155.554C191.709 155.333 191.875 155.113 192.022 154.893L197.629 160.529Z" fill="#7E7E80"/>
<path d="M257.037 228.725L247.44 238.345C245.049 240.75 241.151 240.75 238.743 238.345L203.368 202.93L221.662 184.607L257.037 220.023C259.446 222.428 259.446 226.32 257.037 228.725Z" fill="#7E7E80"/>
<path d="M222.708 183.561L221.66 184.589L202.336 203.958C200.957 205.335 198.733 205.335 197.335 203.958L192.15 198.744L178.306 184.901C176.927 183.506 176.927 181.266 178.306 179.889L198.677 159.492C200.056 158.115 202.281 158.115 203.66 159.492L222.708 178.567C224.087 179.944 224.087 182.184 222.708 183.561Z" fill="#7E7E80" fill-opacity="0.75"/>
<path d="M199.836 205.849C198.677 205.849 197.574 205.39 196.747 204.546L177.717 185.489C176.89 184.662 176.43 183.561 176.43 182.386C176.43 181.229 176.871 180.109 177.717 179.283L198.071 158.904C198.898 158.078 200.001 157.619 201.178 157.619C202.336 157.619 203.439 158.06 204.267 158.904L223.296 177.961C225.006 179.669 225.006 182.459 223.296 184.167L202.943 204.546C202.115 205.39 201.012 205.849 199.836 205.849ZM201.178 159.308C200.461 159.308 199.78 159.584 199.266 160.098L178.912 180.495C178.397 181.009 178.122 181.67 178.122 182.386C178.122 183.12 178.397 183.781 178.912 184.295L197.942 203.352C198.457 203.866 199.119 204.142 199.836 204.142C200.553 204.142 201.233 203.866 201.748 203.352L222.101 182.973C223.149 181.909 223.149 180.201 222.101 179.155L203.072 160.098C202.557 159.584 201.895 159.308 201.178 159.308Z" fill="#7E7E80"/>
<path d="M158.927 134.593L153.448 140.083C151.627 141.919 148.649 141.919 146.829 140.083L132.377 125.616L117.926 140.083C116.105 141.919 113.145 141.919 111.325 140.083L105.828 134.593C103.989 132.757 103.989 129.802 105.828 127.966L120.279 113.498L105.828 99.0313C104.007 97.1953 103.989 94.2395 105.828 92.4035L111.325 86.9141C113.145 85.0781 116.105 85.0781 117.926 86.9141L132.377 101.381L146.829 86.9141C148.649 85.0781 151.627 85.0781 153.448 86.9141L158.927 92.4035C160.765 94.2395 160.765 97.1953 158.927 99.0313L144.494 113.498L158.927 127.966C160.765 129.802 160.765 132.757 158.927 134.593Z" fill="#7E7E80"/>
<path d="M224.142 146.475L229.069 141.537C229.694 140.912 229.694 139.903 229.069 139.278L227.212 137.406C226.587 136.781 225.576 136.781 224.951 137.406L220.023 142.344L215.078 137.406C214.452 136.781 213.441 136.781 212.816 137.406L210.959 139.278C210.334 139.903 210.334 140.912 210.959 141.537L215.887 146.475L210.959 151.414C210.334 152.038 210.334 153.048 210.959 153.672L212.816 155.563C213.441 156.187 214.452 156.187 215.078 155.563L220.023 150.624L224.951 155.563C225.576 156.187 226.587 156.187 227.212 155.563L229.069 153.672C229.694 153.048 229.694 152.038 229.069 151.414L224.142 146.475Z" fill="#7E7E80" fill-opacity="0.5"/>
<path d="M210.633 228.11L213.354 225.393C213.685 225.062 213.685 224.493 213.354 224.163L212.324 223.135C211.975 222.786 211.424 222.786 211.074 223.135L208.371 225.833L205.669 223.135C205.319 222.786 204.768 222.786 204.418 223.135L203.389 224.163C203.058 224.493 203.058 225.062 203.389 225.393L206.11 228.11L203.389 230.827C203.058 231.158 203.058 231.727 203.389 232.057L204.418 233.104C204.768 233.434 205.319 233.434 205.669 233.104L208.371 230.387L211.074 233.104C211.424 233.434 211.975 233.434 212.324 233.104L213.354 232.057C213.685 231.727 213.685 231.158 213.354 230.827L210.633 228.11Z" fill="#7E7E80" fill-opacity="0.5"/>
<path d="M202.78 62.5365L205.482 59.8193C205.832 59.4705 205.832 58.9197 205.482 58.5709L204.453 57.5428C204.122 57.2123 203.552 57.2123 203.221 57.5428L200.5 60.26L197.797 57.5428C197.466 57.2123 196.896 57.2123 196.565 57.5428L195.535 58.5709C195.186 58.9197 195.186 59.4705 195.535 59.8193L198.238 62.5365L195.535 65.2537C195.186 65.5842 195.186 66.1533 195.535 66.4838L196.565 67.5119C196.896 67.8607 197.466 67.8607 197.797 67.5119L200.5 64.8131L203.221 67.5119C203.552 67.8607 204.122 67.8607 204.453 67.5119L205.482 66.4838C205.832 66.1533 205.832 65.5842 205.482 65.2537L202.78 62.5365Z" fill="#7E7E80" fill-opacity="0.5"/>
<path d="M232.069 95.8952L234.771 93.178C235.121 92.8476 235.121 92.2784 234.771 91.948L233.742 90.9198C233.392 90.571 232.841 90.571 232.51 90.9198L229.789 93.6187L227.086 90.9198C226.737 90.571 226.185 90.571 225.854 90.9198L224.825 91.948C224.475 92.2784 224.475 92.8476 224.825 93.178L227.527 95.8952L224.825 98.6124C224.475 98.9429 224.475 99.512 224.825 99.8425L225.854 100.889C226.185 101.219 226.737 101.219 227.086 100.889L229.789 98.1718L232.51 100.889C232.841 101.219 233.392 101.219 233.742 100.889L234.771 99.8425C235.121 99.512 235.121 98.9429 234.771 98.6124L232.069 95.8952Z" fill="#7E7E80" fill-opacity="0.5"/>
<mask id="mask0_821_23150" style="mask-type:luminance" maskUnits="userSpaceOnUse" x="0" y="21" width="283" height="248">
<path d="M0 21.4941H282.41V268.244H0V21.4941Z" fill="white"/>
</mask>
<g mask="url(#mask0_821_23150)">
<mask id="mask1_821_23150" style="mask-type:luminance" maskUnits="userSpaceOnUse" x="-283" y="-279" width="848" height="847">
<path d="M564.819 -278.475H-282.41V567.525H564.819V-278.475Z" fill="black" fill-opacity="0.25"/>
</mask>
<g mask="url(#mask1_821_23150)">
<mask id="mask2_821_23150" style="mask-type:luminance" maskUnits="userSpaceOnUse" x="0" y="17" width="283" height="255">
<path d="M282.41 17.625H0V271.425H282.41V17.625Z" fill="white"/>
</mask>
<g mask="url(#mask2_821_23150)">
<path d="M0 144.875C0 151.686 2.75791 157.855 7.20733 162.316C11.4361 166.557 17.191 169.237 23.5709 169.513V120.236C10.4617 120.787 0 131.619 0 144.875Z" fill="#7E7E80"/>
<mask id="mask3_821_23150" style="mask-type:luminance" maskUnits="userSpaceOnUse" x="0" y="196" width="283" height="73">
<path d="M0 196.215H282.41V268.239H0V196.215Z" fill="white"/>
</mask>
<g mask="url(#mask3_821_23150)">
<path d="M257.772 218.856H255.897L257.037 220.013C259.445 222.418 259.445 226.31 257.037 228.715L247.439 238.336C245.049 240.741 241.151 240.741 238.743 238.336L203.368 202.902L202.338 203.948C200.959 205.325 198.735 205.325 197.337 203.948L192.153 198.734V239.933C192.153 245.386 188.144 249.884 182.941 250.655C181.838 255.465 177.536 259.063 172.388 259.063H34.3819C28.4064 259.063 23.5709 254.216 23.5709 248.231V218.893C10.4617 219.444 0 230.257 0 243.531C0 250.324 2.75791 256.493 7.20733 260.954C11.6751 265.434 17.8345 268.188 24.6189 268.188H257.772C271.378 268.188 282.41 257.136 282.41 243.513C282.41 236.702 279.652 230.551 275.202 226.09C270.734 221.61 264.575 218.856 257.772 218.856ZM213.352 230.827C213.683 231.157 213.683 231.726 213.352 232.057L212.304 233.085C211.973 233.434 211.421 233.434 211.072 233.085L208.369 230.386L205.648 233.085C205.317 233.434 204.765 233.434 204.416 233.085L203.386 232.057C203.037 231.726 203.037 231.157 203.386 230.827L206.089 228.109L203.386 225.392C203.037 225.043 203.037 224.493 203.386 224.144L204.416 223.116C204.765 222.785 205.317 222.785 205.648 223.116L208.369 225.833L211.072 223.116C211.421 222.785 211.973 222.785 212.304 223.116L213.352 224.144C213.683 224.493 213.683 225.043 213.352 225.392L210.631 228.109L213.352 230.827Z" fill="#7E7E80"/>
</g>
<mask id="mask4_821_23150" style="mask-type:luminance" maskUnits="userSpaceOnUse" x="0" y="21" width="283" height="176">
<path d="M0 21.4941H282.41V196.22H0V21.4941Z" fill="white"/>
</mask>
<g mask="url(#mask4_821_23150)">
<path d="M257.772 120.207H231.37C224.567 120.207 218.408 117.454 213.958 112.974C209.509 108.531 206.751 102.362 206.751 95.5508C206.751 81.9282 217.783 70.8758 231.37 70.8758H257.791C271.378 70.8758 282.41 59.8418 282.41 46.2192C282.41 39.4078 279.652 33.2391 275.202 28.7778C270.734 24.3164 264.594 21.5625 257.791 21.5625H24.6373C11.0316 21.5442 0 32.5965 0 46.2192C0 53.0305 2.75791 59.1992 7.20733 63.6606C11.4361 67.8832 17.191 70.5821 23.5709 70.8574V49.7992C23.5709 44.3649 27.5607 39.8668 32.7823 39.0774C33.8855 34.2672 38.1878 30.6688 43.3175 30.6688H151.905C174.134 30.6688 192.153 48.716 192.153 70.9676V72.2711C209.215 97.0012 209.215 129.975 192.153 154.723C192.116 154.778 192.061 154.833 192.024 154.888L197.632 160.525L198.68 159.478C200.059 158.101 202.283 158.101 203.662 159.478L222.71 178.554C224.089 179.93 224.089 182.17 222.71 183.547L221.662 184.575L229.127 192.048C230.212 179.435 240.784 169.521 253.672 169.521H257.772C271.378 169.521 282.41 158.487 282.41 144.864C282.41 138.053 279.652 131.884 275.202 127.423C270.734 122.961 264.575 120.207 257.791 120.207H257.772ZM205.482 65.2395C205.832 65.5699 205.832 66.1391 205.482 66.4696L204.453 67.4977C204.122 67.8465 203.552 67.8465 203.221 67.4977L200.5 64.7988L197.797 67.4977C197.448 67.8465 196.896 67.8465 196.565 67.4977L195.536 66.4696C195.186 66.1391 195.186 65.5699 195.536 65.2395L198.238 62.5223L195.536 59.8051C195.186 59.4563 195.186 58.9055 195.536 58.5567L196.565 57.5285C196.896 57.1797 197.448 57.1797 197.797 57.5285L200.5 60.2457L203.221 57.5285C203.552 57.1797 204.122 57.1797 204.453 57.5285L205.482 58.5567C205.832 58.9055 205.832 59.4563 205.482 59.8051L202.78 62.5223L205.482 65.2395ZM229.072 153.658L227.215 155.549C226.59 156.173 225.578 156.173 224.953 155.549L220.026 150.611L215.08 155.549C214.455 156.173 213.444 156.173 212.818 155.549L210.943 153.658C210.336 153.034 210.336 152.024 210.943 151.4L215.889 146.461L210.943 141.523C210.336 140.898 210.336 139.889 210.943 139.264L212.818 137.392C213.444 136.768 214.455 136.768 215.08 137.392L220.026 142.33L224.953 137.392C225.578 136.768 226.59 136.768 227.215 137.392L229.072 139.264C229.715 139.889 229.697 140.898 229.072 141.523L224.144 146.461L229.072 151.4C229.715 152.024 229.715 153.034 229.072 153.658Z" fill="#7E7E80"/>
</g>
</g>
</g>
</g>
</svg>
