<svg width="15" height="11" viewBox="0 0 15 11" fill="none" xmlns="http://www.w3.org/2000/svg">
<g id="Group">
<path id="Vector" d="M5.16732 1.5C4.01805 1.5 2.91585 1.95655 2.10319 2.7692C1.29053 3.58186 0.833984 4.68406 0.833984 5.83333C0.833984 6.9826 1.29053 8.0848 2.10319 8.89746C2.91585 9.71012 4.01805 10.1667 5.16732 10.1667C6.31659 10.1667 7.41879 9.71012 8.23145 8.89746C9.04411 8.0848 9.50065 6.9826 9.50065 5.83333C9.50065 4.68406 9.04411 3.58186 8.23145 2.7692C7.41879 1.95655 6.31659 1.5 5.16732 1.5Z" stroke="#FBFBFB" stroke-width="1.5" stroke-linecap="round" stroke-linejoin="round"/>
<path id="Vector_2" d="M8.83333 8.16737C10.5 8.16737 13.1133 7.18937 13.5 5.5007H9.5C11.5 4.83403 13.7933 3.14537 14.1667 1.5007H11.5C9.48 1.5007 8.99067 1.37003 8.16667 2.5007M5.16667 7.5007C4.72464 7.5007 4.30072 7.3251 3.98816 7.01254C3.67559 6.69998 3.5 6.27606 3.5 5.83403C3.5 5.39201 3.67559 4.96808 3.98816 4.65552C4.30072 4.34296 4.72464 4.16737 5.16667 4.16737C5.60869 4.16737 6.03262 4.34296 6.34518 4.65552C6.65774 4.96808 6.83333 5.39201 6.83333 5.83403C6.83333 6.27606 6.65774 6.69998 6.34518 7.01254C6.03262 7.3251 5.60869 7.5007 5.16667 7.5007Z" stroke="#FBFBFB" stroke-width="1.5" stroke-linecap="round" stroke-linejoin="round"/>
</g>
</svg>
