<svg width="24" height="25" viewBox="0 0 24 25" fill="none" xmlns="http://www.w3.org/2000/svg">
<g id="fa:paste" clip-path="url(#clip0_1174_21421)">
<path id="Vector" d="M10.2857 22.7857H22.2857V14.2143H16.7143C16.3571 14.2143 16.0536 14.0893 15.8036 13.8393C15.5536 13.5893 15.4286 13.2857 15.4286 12.9286V7.35714H10.2857V22.7857ZM13.7143 3.5V2.64286C13.7143 2.52679 13.6719 2.42634 13.5871 2.34152C13.5022 2.2567 13.4018 2.21429 13.2857 2.21429H3.85714C3.74107 2.21429 3.64062 2.2567 3.5558 2.34152C3.47098 2.42634 3.42857 2.52679 3.42857 2.64286V3.5C3.42857 3.61607 3.47098 3.71652 3.5558 3.80134C3.64062 3.88616 3.74107 3.92857 3.85714 3.92857H13.2857C13.4018 3.92857 13.5022 3.88616 13.5871 3.80134C13.6719 3.71652 13.7143 3.61607 13.7143 3.5ZM17.1429 12.5H21.1473L17.1429 8.49554V12.5ZM24 14.2143V23.2143C24 23.5714 23.875 23.875 23.625 24.125C23.375 24.375 23.0714 24.5 22.7143 24.5H9.85714C9.5 24.5 9.19643 24.375 8.94643 24.125C8.69643 23.875 8.57143 23.5714 8.57143 23.2143V21.0714H1.28571C0.928571 21.0714 0.625 20.9464 0.375 20.6964C0.125 20.4464 0 20.1429 0 19.7857V1.78571C0 1.42857 0.125 1.125 0.375 0.875C0.625 0.625 0.928571 0.5 1.28571 0.5H15.8571C16.2143 0.5 16.5179 0.625 16.7679 0.875C17.0179 1.125 17.1429 1.42857 17.1429 1.78571V6.17857C17.3304 6.29464 17.4911 6.41964 17.625 6.55357L23.0893 12.0179C23.3393 12.2679 23.5536 12.6071 23.7321 13.0357C23.9107 13.4643 24 13.8571 24 14.2143Z" fill="#FBFBFB"/>
</g>
<defs>
<clipPath id="clip0_1174_21421">
<rect width="24" height="24" fill="white" transform="translate(0 0.5)"/>
</clipPath>
</defs>
</svg>
