<svg width="17" height="17" viewBox="0 0 17 17" fill="none" xmlns="http://www.w3.org/2000/svg">
<g id="ic:baseline-phone">
<path id="Vector" d="M4.91333 7.69333C5.87333 9.58 7.42 11.12 9.30667 12.0867L10.7733 10.62C10.9533 10.44 11.22 10.38 11.4533 10.46C12.2 10.7067 13.0067 10.84 13.8333 10.84C14.2 10.84 14.5 11.14 14.5 11.5067V13.8333C14.5 14.2 14.2 14.5 13.8333 14.5C7.57333 14.5 2.5 9.42667 2.5 3.16667C2.5 2.8 2.8 2.5 3.16667 2.5H5.5C5.86667 2.5 6.16667 2.8 6.16667 3.16667C6.16667 4 6.3 4.8 6.54667 5.54667C6.62 5.78 6.56667 6.04 6.38 6.22667L4.91333 7.69333Z" fill="#FBFBFB"/>
</g>
</svg>
