<svg width="34" height="34" viewBox="0 0 34 34" fill="none" xmlns="http://www.w3.org/2000/svg">
<g clip-path="url(#clip0_1649_49)">
<circle cx="17" cy="17" r="17" fill="#3B6FEF"/>
<path fill-rule="evenodd" clip-rule="evenodd" d="M12.3252 7.7558C12.3503 7.55831 12.4464 7.37668 12.5954 7.24471C12.7445 7.11274 12.9364 7.03942 13.1355 7.03839H20.5994C21.4176 7.0923 22.2167 7.31038 22.9489 7.67964C23.681 8.04889 24.3314 8.56177 24.8612 9.1877C25.391 9.81363 25.7893 10.5398 26.0325 11.3229C26.2757 12.1061 26.3587 12.9302 26.2767 13.7461C25.911 18.5743 22.107 20.3205 20.1206 20.3205H17.5175L16.408 26.2829C16.3756 26.4735 16.2765 26.6463 16.1282 26.7703C15.98 26.8944 15.7925 26.9617 15.5992 26.96H10.6719C10.494 26.9601 10.321 26.9024 10.1788 26.7956C10.0366 26.6889 9.93283 26.5389 9.88318 26.3681C9.84667 26.2552 9.8366 26.1354 9.85374 26.018L11.0825 17H9.86149C9.75259 17.0004 9.64471 16.9792 9.5441 16.9375C9.44349 16.8958 9.35218 16.8346 9.27547 16.7573C9.19876 16.68 9.13819 16.5882 9.09727 16.4873C9.05636 16.3864 9.03593 16.2784 9.03716 16.1695C9.03716 15.7108 9.40284 15.339 9.86149 15.339H11.3087L11.7534 12.02H9.86149C9.75259 12.0204 9.64471 11.9991 9.5441 11.9575C9.44349 11.9158 9.35218 11.8545 9.27547 11.7773C9.19876 11.7 9.13819 11.6082 9.09727 11.5073C9.05636 11.4064 9.03593 11.2983 9.03716 11.1894C9.03594 11.0812 9.05612 10.9738 9.09655 10.8734C9.13698 10.773 9.19686 10.6816 9.27274 10.6044C9.34863 10.5272 9.43903 10.4658 9.53874 10.4237C9.63845 10.3815 9.7455 10.3595 9.85374 10.3589H11.9734L12.3252 7.7558ZM13.4067 12.02L12.9558 15.339H18.8857C19.105 15.3462 19.3234 15.3081 19.5273 15.2271C19.7312 15.1461 19.9163 15.0239 20.0708 14.8681C20.2254 14.7124 20.3462 14.5265 20.4257 14.3219C20.5051 14.1174 20.5416 13.8987 20.5327 13.6795C20.5416 13.4602 20.5051 13.2415 20.4257 13.037C20.3462 12.8325 20.2254 12.6465 20.0708 12.4908C19.9163 12.3351 19.7312 12.2129 19.5273 12.1319C19.3234 12.0508 19.105 12.0128 18.8857 12.02H13.4067ZM12.7358 17H18.8857C19.3214 17.0044 19.7535 16.9213 20.1565 16.7556C20.5595 16.5899 20.9251 16.3449 21.2316 16.0352C21.5381 15.7255 21.7793 15.3574 21.9408 14.9528C22.1024 14.5481 22.181 14.1151 22.1721 13.6795C22.1721 11.8201 20.7512 10.3589 18.8857 10.3589H13.6329L13.8514 8.69943H20.4925C21.092 8.73681 21.6778 8.89529 22.2145 9.16529C22.7511 9.43529 23.2275 9.81123 23.6148 10.2704C24.0022 10.7296 24.2925 11.2625 24.4682 11.837C24.644 12.4114 24.7015 13.0155 24.6373 13.6128C24.3507 17.4184 21.4144 18.6595 20.1206 18.6595H16.8341C16.6415 18.6608 16.4553 18.7291 16.3075 18.8527C16.1596 18.9762 16.0593 19.1473 16.0238 19.3366L14.9221 25.3006H11.6139L12.7358 17Z" fill="white"/>
</g>
<defs>
<clipPath id="clip0_1649_49">
<rect width="34" height="34" fill="white"/>
</clipPath>
</defs>
</svg>
