<svg width="25" height="24" viewBox="0 0 25 24" fill="none" xmlns="http://www.w3.org/2000/svg">
<g id="radix-icons:reload">
<path id="Vector" fill-rule="evenodd" clip-rule="evenodd" d="M3.46035 11.9994C3.46035 7.46338 6.99635 2.95938 12.5004 2.95938C16.9452 2.95938 19.1436 6.24898 20.0796 7.99938H17.3004C17.0882 7.99938 16.8847 8.08366 16.7347 8.23369C16.5846 8.38372 16.5004 8.5872 16.5004 8.79938C16.5004 9.01155 16.5846 9.21503 16.7347 9.36506C16.8847 9.51509 17.0882 9.59938 17.3004 9.59938H22.1004C22.3125 9.59938 22.516 9.51509 22.666 9.36506C22.8161 9.21503 22.9004 9.01155 22.9004 8.79938V3.99938C22.9004 3.7872 22.8161 3.58372 22.666 3.43369C22.516 3.28366 22.3125 3.19938 22.1004 3.19938C21.8882 3.19938 21.6847 3.28366 21.5347 3.43369C21.3846 3.58372 21.3004 3.7872 21.3004 3.99938V6.90018C20.174 4.91298 17.566 1.35938 12.5004 1.35938C5.99955 1.35938 1.86035 6.69537 1.86035 11.9994C1.86035 17.3034 5.99955 22.6394 12.5004 22.6394C15.6108 22.6394 18.1996 21.4074 20.0428 19.5322C21.0208 18.5346 21.7967 17.3572 22.3276 16.065C22.3675 15.9678 22.3879 15.8637 22.3876 15.7586C22.3873 15.6536 22.3663 15.5496 22.3258 15.4527C22.2853 15.3557 22.2261 15.2677 22.1516 15.1936C22.0771 15.1196 21.9887 15.0609 21.8916 15.021C21.7944 14.9811 21.6903 14.9607 21.5852 14.961C21.4802 14.9613 21.3762 14.9823 21.2793 15.0228C21.1823 15.0632 21.0943 15.1224 21.0202 15.1969C20.9461 15.2714 20.8875 15.3598 20.8476 15.457C20.3954 16.5577 19.7348 17.5606 18.902 18.4106C17.3484 19.9946 15.1644 21.0394 12.5004 21.0394C6.99635 21.0394 3.46035 16.5354 3.46035 11.9994Z" fill="white"/>
</g>
</svg>
