<svg width="17" height="17" viewBox="0 0 17 17" fill="none" xmlns="http://www.w3.org/2000/svg">
<g id="Group">
<path id="Vector" fill-rule="evenodd" clip-rule="evenodd" d="M8.49972 1.83398C7.43885 1.83398 6.42144 2.25541 5.67129 3.00556C4.92115 3.7557 4.49972 4.77312 4.49972 5.83398V7.08398L3.89972 6.63398C3.82968 6.58146 3.74998 6.54324 3.66517 6.52151C3.58036 6.49978 3.49211 6.49497 3.40544 6.50735C3.31877 6.51973 3.23539 6.54906 3.16006 6.59367C3.08472 6.63827 3.01891 6.69728 2.96638 6.76732C2.91386 6.83736 2.87564 6.91705 2.85391 7.00186C2.83218 7.08667 2.82737 7.17493 2.83975 7.2616C2.85213 7.34827 2.88146 7.43165 2.92607 7.50698C2.97067 7.58231 3.02968 7.64812 3.09972 7.70065L4.34372 8.63398C4.04772 9.41265 3.32572 10.2273 2.15705 10.9293C2.0804 10.9764 2.01394 11.0383 1.96162 11.1115C1.90929 11.1846 1.87215 11.2675 1.85239 11.3552C1.83263 11.443 1.83065 11.5338 1.84656 11.6223C1.86248 11.7108 1.89597 11.7953 1.94505 11.8707C2.69038 12.9887 3.87305 13.834 5.16638 13.834C6.35572 13.834 7.17105 15.1673 8.49972 15.1673C9.84038 15.1673 10.6391 13.834 11.8331 13.834C13.1264 13.834 14.3091 12.9887 15.0544 11.8707C15.1035 11.7953 15.137 11.7108 15.1529 11.6223C15.1688 11.5338 15.1668 11.443 15.147 11.3552C15.1273 11.2675 15.0901 11.1846 15.0378 11.1115C14.9855 11.0383 14.919 10.9764 14.8424 10.9293C13.6737 10.2273 12.9517 9.41265 12.6557 8.63398L13.8997 7.70065C14.0412 7.59456 14.1347 7.43663 14.1597 7.2616C14.1847 7.08657 14.1391 6.90877 14.033 6.76732C13.927 6.62587 13.769 6.53236 13.594 6.50735C13.419 6.48235 13.2412 6.5279 13.0997 6.63398L12.4997 7.08398V5.83398C12.4997 4.77312 12.0783 3.7557 11.3281 3.00556C10.578 2.25541 9.56058 1.83398 8.49972 1.83398Z" fill="#FBFBFB"/>
</g>
</svg>
