<svg width="32" height="32" viewBox="0 0 32 32" fill="none" xmlns="http://www.w3.org/2000/svg">
<g id="mdi:monitor-star">
<path id="Vector" d="M27.9999 21.3327V5.33268H3.99992V21.3327H27.9999ZM27.9999 2.66602C28.7072 2.66602 29.3854 2.94697 29.8855 3.44706C30.3856 3.94716 30.6666 4.62544 30.6666 5.33268V21.3327C30.6666 22.0399 30.3856 22.7182 29.8855 23.2183C29.3854 23.7184 28.7072 23.9993 27.9999 23.9993H18.6666V26.666H21.3333V29.3327H10.6666V26.666H13.3333V23.9993H3.99992C3.29267 23.9993 2.6144 23.7184 2.1143 23.2183C1.6142 22.7182 1.33325 22.0399 1.33325 21.3327V5.33268C1.33325 3.85268 2.51992 2.66602 3.99992 2.66602H27.9999ZM17.2933 11.9993H21.3333L18.0399 14.346L19.2933 18.226L15.9999 15.826L12.7066 18.226L13.9599 14.346L10.6666 11.9993H14.7066L15.9999 7.99935L17.2933 11.9993Z" fill="#FBFBFB"/>
</g>
</svg>
