<svg width="32" height="32" viewBox="0 0 32 32" fill="none" xmlns="http://www.w3.org/2000/svg">
<g id="Group">
<path id="Vector" d="M27.321 12.5311C27.321 15.5355 26.1276 18.4168 24.0031 20.5412C21.8787 22.6656 18.9974 23.8591 15.993 23.8591C12.9887 23.8591 10.1073 22.6656 7.98293 20.5412C5.85852 18.4168 4.66504 15.5355 4.66504 12.5311C4.66504 9.52675 5.85852 6.64543 7.98293 4.52102C10.1073 2.39661 12.9887 1.20313 15.993 1.20312C18.9974 1.20313 21.8787 2.39661 24.0031 4.52102C26.1276 6.64543 27.321 9.52675 27.321 12.5311Z" stroke="#FBFBFB" stroke-width="2" stroke-linecap="round" stroke-linejoin="round"/>
<path id="Vector_2" d="M6.18054 18.0884L1.14282 26.8153L6.58511 25.357L8.04568 30.7993L12.416 23.229M25.8194 18.0884L30.8571 26.8153L25.4125 25.357L23.9543 30.7993L19.584 23.229M16.4571 6.381L18.0183 9.52157C18.053 9.6008 18.1081 9.66941 18.1779 9.72041C18.2478 9.7714 18.3299 9.80296 18.416 9.81186L21.8834 10.3376C21.9826 10.3503 22.0762 10.391 22.1531 10.455C22.2299 10.519 22.287 10.6036 22.3175 10.6989C22.3479 10.7941 22.3506 10.8961 22.3251 10.9929C22.2997 11.0896 22.2471 11.1771 22.1737 11.245L19.6114 13.677C19.5733 13.7496 19.5535 13.8304 19.5535 13.9124C19.5535 13.9944 19.5733 14.0752 19.6114 14.1479L20.1028 17.5947C20.1242 17.6946 20.1159 17.7985 20.0791 17.8938C20.0423 17.9891 19.9786 18.0716 19.8957 18.1313C19.8128 18.1909 19.7143 18.2251 19.6122 18.2297C19.5102 18.2342 19.409 18.209 19.3211 18.157L16.2354 16.525C16.1556 16.489 16.0692 16.4704 15.9817 16.4704C15.8942 16.4704 15.8077 16.489 15.728 16.525L12.6423 18.157C12.5544 18.2076 12.4538 18.2317 12.3526 18.2264C12.2514 18.2212 12.1538 18.1868 12.0717 18.1274C11.9896 18.0679 11.9264 17.9861 11.8897 17.8916C11.8531 17.797 11.8445 17.694 11.8651 17.5947L12.4457 14.1479C12.4705 14.0679 12.4751 13.9831 12.4591 13.9009C12.4432 13.8188 12.4071 13.7419 12.3543 13.677L9.79654 11.2244C9.7278 11.1557 9.67947 11.0692 9.65692 10.9747C9.63437 10.8801 9.63848 10.7811 9.6688 10.6888C9.69911 10.5964 9.75444 10.5143 9.82864 10.4515C9.90284 10.3886 9.993 10.3476 10.0891 10.333L13.5543 9.83014C13.6403 9.82124 13.7224 9.78969 13.7923 9.73869C13.8622 9.6877 13.9173 9.61909 13.952 9.53986L15.5131 6.39929C15.5547 6.31015 15.6204 6.23445 15.7028 6.1808C15.7853 6.12716 15.8811 6.09771 15.9794 6.0958C16.0777 6.0939 16.1746 6.11961 16.2591 6.17003C16.3435 6.22044 16.4121 6.29354 16.4571 6.381Z" stroke="#FBFBFB" stroke-width="2" stroke-linecap="round" stroke-linejoin="round"/>
</g>
</svg>
