<svg width="41" height="40" viewBox="0 0 41 40" fill="none" xmlns="http://www.w3.org/2000/svg">
<g id="7" clip-path="url(#clip0_1316_19021)">
<g id="Icons-Crypto/USD-Coin-ERC20">
<g id="USDC">
<path id="Path" d="M20.5 40C31.5834 40 40.5 31.0834 40.5 20C40.5 8.9166 31.5834 0 20.5 0C9.4166 0 0.5 8.9166 0.5 20C0.5 31.0834 9.4166 40 20.5 40Z" fill="#2775CA"/>
<path id="Path_2" d="M26.0001 23.166C26.0001 20.2494 24.2501 19.2494 20.7501 18.8328C18.2501 18.4994 17.7501 17.8328 17.7501 16.666C17.7501 15.4992 18.5835 14.7494 20.2501 14.7494C21.7501 14.7494 22.5835 15.2494 23.0001 16.4994C23.0835 16.7494 23.3335 16.916 23.5835 16.916H24.9167C25.2501 16.916 25.5001 16.666 25.5001 16.3328V16.2494C25.1667 14.416 23.6667 12.9994 21.7501 12.8328V10.8328C21.7501 10.4994 21.5001 10.2494 21.0835 10.166H19.8335C19.5001 10.166 19.2501 10.416 19.1667 10.8328V12.7494C16.6667 13.0828 15.0835 14.7494 15.0835 16.8328C15.0835 19.5828 16.7501 20.666 20.2501 21.0828C22.5835 21.4994 23.3335 21.9994 23.3335 23.3328C23.3335 24.6662 22.1667 25.5828 20.5835 25.5828C18.4167 25.5828 17.6667 24.666 17.4167 23.416C17.3335 23.0828 17.0835 22.916 16.8335 22.916H15.4167C15.0835 22.916 14.8335 23.166 14.8335 23.4994V23.5828C15.1667 25.666 16.5001 27.166 19.2501 27.5828V29.5828C19.2501 29.916 19.5001 30.166 19.9167 30.2494H21.1667C21.5001 30.2494 21.7501 29.9994 21.8335 29.5828V27.5828C24.3335 27.166 26.0001 25.416 26.0001 23.166Z" fill="white"/>
<path id="Shape" d="M16.2502 31.9172C9.75016 29.584 6.41676 22.334 8.83356 15.9172C10.0836 12.4172 12.8336 9.75058 16.2502 8.50058C16.5836 8.33398 16.7502 8.08398 16.7502 7.66718V6.50058C16.7502 6.16718 16.5836 5.91718 16.2502 5.83398C16.1668 5.83398 16.0002 5.83398 15.9168 5.91718C8.00016 8.41718 3.66676 16.834 6.16676 24.7506C7.66676 29.4172 11.2502 33.0006 15.9168 34.5006C16.2502 34.6672 16.5836 34.5006 16.6668 34.1672C16.7502 34.084 16.7502 34.0006 16.7502 33.834V32.6672C16.7502 32.4172 16.5002 32.084 16.2502 31.9172ZM25.0836 5.91718C24.7502 5.75058 24.4168 5.91718 24.3336 6.25058C24.2502 6.33398 24.2502 6.41718 24.2502 6.58398V7.75058C24.2502 8.08398 24.5002 8.41718 24.7502 8.58398C31.2502 10.9172 34.5836 18.1672 32.1668 24.584C30.9168 28.084 28.1668 30.7506 24.7502 32.0006C24.4168 32.1672 24.2502 32.4172 24.2502 32.834V34.0006C24.2502 34.334 24.4168 34.584 24.7502 34.6672C24.8336 34.6672 25.0002 34.6672 25.0836 34.584C33.0002 32.084 37.3336 23.6672 34.8336 15.7506C33.3336 11.0006 29.6668 7.41718 25.0836 5.91718Z" fill="white"/>
</g>
<g id="ERC20">
<path id="Oval" d="M32.5 16C36.9183 16 40.5 12.4183 40.5 8C40.5 3.58172 36.9183 0 32.5 0C28.0817 0 24.5 3.58172 24.5 8C24.5 12.4183 28.0817 16 32.5 16Z" fill="#2B2D31"/>
<path id="Combined-Shape" d="M35.804 8.67483L32.651 13L29.5 8.67478L32.651 10.4882L35.804 8.67483ZM32.6823 3L35.8333 8.09275L32.6823 9.90702L32.6704 9.8952L32.651 9.90702L29.5 8.09275L32.651 3L32.6504 3.1032L32.6823 3Z" fill="white"/>
</g>
</g>
</g>
<defs>
<clipPath id="clip0_1316_19021">
<rect width="40" height="40" fill="white" transform="translate(0.5)"/>
</clipPath>
</defs>
</svg>
