<svg width="41" height="40" viewBox="0 0 41 40" fill="none" xmlns="http://www.w3.org/2000/svg">
<g id="Icons-Crypto/Tether-USD-TRC20">
<g id="Tether_Logo">
<path id="Oval" d="M19.9863 39.8573C30.8917 39.8573 39.7323 31.0167 39.7323 20.1113C39.7323 9.20583 30.8917 0.365234 19.9863 0.365234C9.08083 0.365234 0.240234 9.20583 0.240234 20.1113C0.240234 31.0167 9.08083 39.8573 19.9863 39.8573Z" fill="#26A17B"/>
<g id="Group">
<path id="Shape" d="M22.0912 21.9333V21.9301C21.9547 21.9397 21.2499 21.9809 19.6816 21.9809C18.4277 21.9809 17.5483 21.946 17.2372 21.9301V21.9333C12.415 21.7206 8.81815 20.8825 8.81815 19.8762C8.81815 18.873 12.4181 18.0317 17.2372 17.819V21.0984C17.5515 21.1206 18.4562 21.1746 19.7039 21.1746C21.2023 21.1746 21.9515 21.1111 22.0912 21.0984V17.8222C26.9039 18.0381 30.4912 18.8762 30.4912 19.8793C30.4912 20.8825 26.9007 21.7206 22.0912 21.9365M22.0912 17.4825V14.5492H28.8054V10.0762H10.5261V14.5492H17.2404V17.4825C11.7832 17.7333 7.68164 18.8127 7.68164 20.1079C7.68164 21.4032 11.7864 22.4825 17.2404 22.7365V32.1397H22.0943V22.7365C27.542 22.4857 31.6372 21.4063 31.6372 20.1111C31.6372 18.819 27.542 17.7365 22.0943 17.4857" fill="white"/>
</g>
</g>
<g id="TRC20">
<path id="Oval_2" d="M32.0928 16.1445C36.5111 16.1445 40.0928 12.5628 40.0928 8.14453C40.0928 3.72625 36.5111 0.144531 32.0928 0.144531C27.6745 0.144531 24.0928 3.72625 24.0928 8.14453C24.0928 12.5628 27.6745 16.1445 32.0928 16.1445Z" fill="#FF060A"/>
<path id="Shape_2" d="M36.4396 6.70264C36.0056 6.28714 35.4052 5.65265 34.9162 5.20266L34.8873 5.18166C34.8391 5.14157 34.7848 5.11014 34.7267 5.08866C33.5476 4.86066 28.0602 3.79717 27.9531 3.81067C27.9231 3.81503 27.8945 3.82631 27.8692 3.84367L27.8417 3.86617C27.8079 3.90181 27.7822 3.94487 27.7665 3.99217L27.7593 4.01167V4.11817V4.13467C28.377 5.91815 30.8162 11.7606 31.2965 13.1316C31.3254 13.2245 31.3804 13.4015 31.4831 13.4105H31.5063C31.5612 13.4105 31.7956 13.0896 31.7956 13.0896C31.7956 13.0896 35.9853 7.82162 36.4092 7.26063C36.4641 7.19153 36.5125 7.1172 36.5539 7.03863C36.5753 6.91359 36.532 6.78604 36.4396 6.70264ZM32.8705 7.31613L34.6587 5.77865L35.7075 6.78063L32.8705 7.31613ZM32.1761 7.21563L29.0975 4.59966L34.0785 5.55215L32.1761 7.21563ZM32.4539 7.90112L35.6048 7.37463L32.0025 11.8746L32.4539 7.90112ZM28.6794 4.86066L31.9186 7.71062L31.4499 11.8776L28.6794 4.86066Z" fill="white"/>
</g>
</g>
</svg>
