<svg width="41" height="40" viewBox="0 0 41 40" fill="none" xmlns="http://www.w3.org/2000/svg">
<g id="Icons-Crypto/Tether-USD-ERC20">
<g id="Tether_Logo">
<path id="Oval" d="M20.6533 39.8573C31.5587 39.8573 40.3993 31.0167 40.3993 20.1113C40.3993 9.20583 31.5587 0.365234 20.6533 0.365234C9.74783 0.365234 0.907227 9.20583 0.907227 20.1113C0.907227 31.0167 9.74783 39.8573 20.6533 39.8573Z" fill="#26A17B"/>
<g id="Group">
<path id="Shape" d="M22.7582 21.9333V21.9301C22.6216 21.9397 21.9169 21.9809 20.3486 21.9809C19.0947 21.9809 18.2153 21.946 17.9042 21.9301V21.9333C13.082 21.7206 9.48514 20.8825 9.48514 19.8762C9.48514 18.873 13.0851 18.0317 17.9042 17.819V21.0984C18.2185 21.1206 19.1232 21.1746 20.3709 21.1746C21.8693 21.1746 22.6185 21.1111 22.7582 21.0984V17.8222C27.5709 18.0381 31.1582 18.8762 31.1582 19.8793C31.1582 20.8825 27.5677 21.7206 22.7582 21.9365M22.7582 17.4825V14.5492H29.4724V10.0762H11.1931V14.5492H17.9074V17.4825C12.4502 17.7333 8.34863 18.8127 8.34863 20.1079C8.34863 21.4032 12.4534 22.4825 17.9074 22.7365V32.1397H22.7613V22.7365C28.2089 22.4857 32.3042 21.4063 32.3042 20.1111C32.3042 18.819 28.2089 17.7365 22.7613 17.4857" fill="white"/>
</g>
</g>
<g id="ERC20">
<path id="Oval_2" d="M32.7598 16.1445C37.178 16.1445 40.7598 12.5628 40.7598 8.14453C40.7598 3.72625 37.178 0.144531 32.7598 0.144531C28.3415 0.144531 24.7598 3.72625 24.7598 8.14453C24.7598 12.5628 28.3415 16.1445 32.7598 16.1445Z" fill="#2B2D31"/>
<path id="Combined-Shape" d="M36.0637 8.81936L32.9108 13.1445L29.7598 8.81931L32.9108 10.6327L36.0637 8.81936ZM32.9421 3.14453L36.0931 8.23729L32.9421 10.0516L32.9302 10.0397L32.9108 10.0516L29.7598 8.23729L32.9108 3.14453L32.9102 3.24773L32.9421 3.14453Z" fill="white"/>
</g>
</g>
</svg>
