<svg width="24" height="24" viewBox="0 0 24 24" fill="none" xmlns="http://www.w3.org/2000/svg">
<g id="fluent:contact-card-20-filled">
<path id="Vector" d="M4.1999 4.80078C3.72251 4.80078 3.26468 4.99042 2.92711 5.32799C2.58954 5.66555 2.3999 6.12339 2.3999 6.60078V17.4008C2.3999 17.8782 2.58954 18.336 2.92711 18.6736C3.26468 19.0111 3.72251 19.2008 4.1999 19.2008H19.7999C20.2773 19.2008 20.7351 19.0111 21.0727 18.6736C21.4103 18.336 21.5999 17.8782 21.5999 17.4008V6.60078C21.5999 6.12339 21.4103 5.66555 21.0727 5.32799C20.7351 4.99042 20.2773 4.80078 19.7999 4.80078H4.1999ZM7.7999 12.0008C7.32251 12.0008 6.86468 11.8111 6.52711 11.4736C6.18954 11.136 5.9999 10.6782 5.9999 10.2008C5.9999 9.72339 6.18954 9.26555 6.52711 8.92799C6.86468 8.59042 7.32251 8.40078 7.7999 8.40078C8.27729 8.40078 8.73513 8.59042 9.0727 8.92799C9.41026 9.26555 9.5999 9.72339 9.5999 10.2008C9.5999 10.6782 9.41026 11.136 9.0727 11.4736C8.73513 11.8111 8.27729 12.0008 7.7999 12.0008ZM5.9387 12.9008H9.6599C9.96183 12.9011 10.2513 13.0212 10.4648 13.2347C10.6783 13.4482 10.7984 13.7376 10.7987 14.0396C10.7987 15.056 10.1063 15.9416 9.1199 16.1888L9.0491 16.2068C8.2283 16.4108 7.3691 16.4108 6.5483 16.2068L6.4763 16.1888C5.99729 16.0687 5.57215 15.7919 5.26842 15.4025C4.96469 15.0131 4.79979 14.5334 4.7999 14.0396C4.80022 13.7376 4.9203 13.4482 5.1338 13.2347C5.3473 13.0212 5.63677 12.9011 5.9387 12.9008ZM13.1999 10.2008C13.1999 10.0417 13.2631 9.88904 13.3756 9.77652C13.4882 9.66399 13.6408 9.60078 13.7999 9.60078H17.3999C17.559 9.60078 17.7116 9.66399 17.8242 9.77652C17.9367 9.88904 17.9999 10.0417 17.9999 10.2008C17.9999 10.3599 17.9367 10.5125 17.8242 10.625C17.7116 10.7376 17.559 10.8008 17.3999 10.8008H13.7999C13.6408 10.8008 13.4882 10.7376 13.3756 10.625C13.2631 10.5125 13.1999 10.3599 13.1999 10.2008ZM13.7999 13.2008H17.3999C17.559 13.2008 17.7116 13.264 17.8242 13.3765C17.9367 13.489 17.9999 13.6417 17.9999 13.8008C17.9999 13.9599 17.9367 14.1125 17.8242 14.225C17.7116 14.3376 17.559 14.4008 17.3999 14.4008H13.7999C13.6408 14.4008 13.4882 14.3376 13.3756 14.225C13.2631 14.1125 13.1999 13.9599 13.1999 13.8008C13.1999 13.6417 13.2631 13.489 13.3756 13.3765C13.4882 13.264 13.6408 13.2008 13.7999 13.2008Z" fill="white"/>
</g>
</svg>
