<svg width="16" height="17" viewBox="0 0 16 17" fill="none" xmlns="http://www.w3.org/2000/svg">
<path d="M8.00066 1.83337C11.6827 1.83337 14.6673 4.81804 14.6673 8.50004C14.6673 12.182 11.6827 15.1667 8.00066 15.1667C6.8225 15.1687 5.66505 14.8569 4.64733 14.2634L1.33666 15.1667L2.23799 11.8547C1.64397 10.8367 1.33193 9.67872 1.33399 8.50004C1.33399 4.81804 4.31866 1.83337 8.00066 1.83337ZM5.72866 5.36671L5.59533 5.37204C5.50912 5.37798 5.42489 5.40062 5.34733 5.43871C5.27504 5.47971 5.20904 5.53091 5.15133 5.59071C5.07133 5.66604 5.02599 5.73137 4.97733 5.79471C4.73074 6.11531 4.59798 6.50892 4.59999 6.91337C4.60133 7.24004 4.68666 7.55804 4.81999 7.85537C5.09266 8.45671 5.54133 9.09337 6.13333 9.68337C6.27599 9.82537 6.416 9.96804 6.56666 10.1007C7.30228 10.7483 8.17885 11.2154 9.12666 11.4647L9.50533 11.5227C9.62866 11.5294 9.752 11.52 9.876 11.514C10.0701 11.5038 10.2597 11.4512 10.4313 11.36C10.5186 11.3149 10.6038 11.266 10.6867 11.2134C10.6867 11.2134 10.7149 11.1943 10.77 11.1534C10.86 11.0867 10.9153 11.0394 10.99 10.9614C11.046 10.9036 11.0927 10.8365 11.13 10.76C11.182 10.6514 11.234 10.444 11.2553 10.2714C11.2713 10.1394 11.2667 10.0674 11.2647 10.0227C11.262 9.95137 11.2027 9.87737 11.138 9.84604L10.75 9.67204C10.75 9.67204 10.17 9.41937 9.81533 9.25804C9.7782 9.24188 9.73844 9.23262 9.698 9.23071C9.65238 9.22594 9.60627 9.23103 9.56279 9.24563C9.51931 9.26024 9.47948 9.28403 9.44599 9.31537C9.44266 9.31404 9.39799 9.35204 8.91599 9.93604C8.88833 9.97322 8.85022 10.0013 8.80653 10.0167C8.76284 10.0322 8.71554 10.0343 8.67066 10.0227C8.62721 10.0111 8.58466 9.99642 8.54333 9.97871C8.46066 9.94404 8.43199 9.93071 8.37533 9.90671C7.99258 9.73998 7.63829 9.51436 7.32533 9.23804C7.24133 9.16471 7.16333 9.08471 7.08333 9.00737C6.82107 8.75618 6.5925 8.47203 6.40333 8.16204L6.36399 8.09871C6.33617 8.05591 6.31335 8.01005 6.29599 7.96204C6.27066 7.86404 6.33666 7.78537 6.33666 7.78537C6.33666 7.78537 6.49866 7.60804 6.57399 7.51204C6.64733 7.41871 6.70933 7.32804 6.74933 7.26337C6.82799 7.13671 6.85266 7.00671 6.81133 6.90604C6.62466 6.45004 6.43177 5.99649 6.23266 5.54537C6.19333 5.45604 6.07666 5.39204 5.97066 5.37937C5.93466 5.37493 5.89866 5.37137 5.86266 5.36871C5.77315 5.36357 5.68339 5.36446 5.59399 5.37137L5.72866 5.36671Z" fill="#FBFBFB"/>
</svg>
